<?xml version="1.0" encoding="utf-8"?>
<!-- Generator: Adobe Illustrator 19.0.0, SVG Export Plug-In . SVG Version: 6.00 Build 0)  -->
<svg version="1.1" id="Layer_1" xmlns="http://www.w3.org/2000/svg" xmlns:xlink="http://www.w3.org/1999/xlink" x="0px" y="0px"
	 viewBox="0 0 538 127.3" style="enable-background:new 0 0 538 127.3;" xml:space="preserve">
<style type="text/css">
	.st0{fill:none;stroke:#F1EFFD;stroke-width:3;stroke-linecap:round;stroke-linejoin:round;stroke-dasharray:0,6.018;}
	.st1{fill:none;stroke:#F1EFFD;stroke-width:3;stroke-linecap:round;stroke-linejoin:round;}
	.st2{fill:#371BE1;}
	.st3{font-family:'Montserrat-Bold';}
	.st4{font-size:10px;}
	.st5{clip-path:url(#SVGID_2_);fill:#B5ABF2;}
	.st6{clip-path:url(#SVGID_2_);fill:#614FE5;}
	.st7{fill:#F2F0FC;}
	.st8{clip-path:url(#SVGID_4_);fill:#F2F0FC;}
	.st9{clip-path:url(#SVGID_4_);fill:#B5ABF2;}
	.st10{clip-path:url(#SVGID_4_);fill:#381CE0;}
	.st11{clip-path:url(#SVGID_4_);fill:#614FE5;}
	.st12{clip-path:url(#SVGID_4_);fill:#E3EBF5;}
	.st13{clip-path:url(#SVGID_6_);fill:#381CE0;}
	.st14{clip-path:url(#SVGID_6_);fill:#B5ABF2;}
	.st15{clip-path:url(#SVGID_6_);fill:#F2F0FC;}
	.st16{clip-path:url(#SVGID_6_);fill:#614FE5;}
	.st17{fill:#614FE5;}
	.st18{clip-path:url(#SVGID_8_);fill:#381CE0;}
	.st19{clip-path:url(#SVGID_8_);fill:#B5ABF2;}
	.st20{clip-path:url(#SVGID_8_);fill:#614FE5;}
	.st21{clip-path:url(#SVGID_10_);fill:#381CE0;}
	.st22{clip-path:url(#SVGID_10_);fill:#B5ABF2;}
	.st23{clip-path:url(#SVGID_10_);fill:#F2F0FC;}
	.st24{clip-path:url(#SVGID_10_);fill:#614FE5;}
	.st25{clip-path:url(#SVGID_12_);fill:#381CE0;}
	.st26{clip-path:url(#SVGID_12_);fill:#B5ABF2;}
	.st27{clip-path:url(#SVGID_12_);fill:#614FE5;}
	.st28{clip-path:url(#SVGID_14_);fill:#381CE0;}
	.st29{clip-path:url(#SVGID_14_);fill:#B5ABF2;}
	.st30{clip-path:url(#SVGID_14_);fill:#F2F0FC;}
	.st31{clip-path:url(#SVGID_14_);fill:#614FE5;}
	.st32{clip-path:url(#SVGID_16_);fill:#381CE0;}
	.st33{clip-path:url(#SVGID_16_);fill:#B5ABF2;}
</style>
<line class="st0" x1="105.2" y1="51.2" x2="433.2" y2="51.2"/>
<path class="st1" d="M436.2,51.2L436.2,51.2 M99.2,51.2L99.2,51.2"/>
<text transform="matrix(1 0 0 1 67.4548 93.9812)"><tspan x="0" y="0" class="st2 st3 st4">C</tspan><tspan x="7.2" y="0" class="st2 st3 st4">onnecting</tspan></text>
<text transform="matrix(1 0 0 1 126.3849 93.9812)" class="st2 st3 st4"> </text>
<text transform="matrix(1 0 0 1 81.3952 105.9812)"><tspan x="0" y="0" class="st2 st3 st4">A</tspan><tspan x="7.4" y="0" class="st2 st3 st4">gent</tspan></text>
<text transform="matrix(1 0 0 1 435.2751 93.9812)" class="st2 st3 st4">Client</text>
<text transform="matrix(1 0 0 1 173.5251 93.9812)"><tspan x="0" y="0" class="st2 st3 st4">C</tspan><tspan x="7.2" y="0" class="st2 st3 st4">onnecting</tspan></text>
<text transform="matrix(1 0 0 1 232.4552 93.9812)" class="st2 st3 st4"> </text>
<text transform="matrix(1 0 0 1 187.465 105.9812)"><tspan x="0" y="0" class="st2 st3 st4">A</tspan><tspan x="7.4" y="0" class="st2 st3 st4">gent</tspan></text>
<text transform="matrix(1 0 0 1 283.9645 93.9812)"><tspan x="0" y="0" class="st2 st3 st4">C</tspan><tspan x="7.2" y="0" class="st2 st3 st4">onnec</tspan><tspan x="39.8" y="0" class="st2 st3 st4">t</tspan><tspan x="44.1" y="0" class="st2 st3 st4">ed </tspan></text>
<text transform="matrix(1 0 0 1 296.1745 105.9812)"><tspan x="0" y="0" class="st2 st3 st4">A</tspan><tspan x="7.5" y="0" class="st2 st3 st4">gent</tspan></text>
<g>
	<defs>
		<rect id="SVGID_1_" x="-30.3" y="-503.7" width="595.3" height="841.9"/>
	</defs>
	<clipPath id="SVGID_2_">
		<use xlink:href="#SVGID_1_"  style="overflow:visible;"/>
	</clipPath>
	<path class="st5" d="M472.1,37.2l-1.4,5.6c-0.2,0.7-0.8,1.1-1.4,1.1c-0.7,0-1.4-0.6-1.5-1.3l-0.7-5.7c-0.2-1.5,1-2.9,2.5-2.9h0
		C471.3,34.1,472.5,35.6,472.1,37.2"/>
	<path class="st6" d="M435.3,37.2l1.4,5.6c0.2,0.7,0.8,1.1,1.4,1.1c0.7,0,1.4-0.6,1.5-1.3l0.7-5.7c0.2-1.5-1-2.9-2.5-2.9h0
		C436.1,34.1,434.9,35.6,435.3,37.2"/>
</g>
<polygon class="st7" points="464.8,58.7 464.8,50.1 442.6,50.1 442.6,58.7 453.7,68.5 "/>
<g>
	<defs>
		<rect id="SVGID_3_" x="-30.3" y="-503.7" width="595.3" height="841.9"/>
	</defs>
	<clipPath id="SVGID_4_">
		<use xlink:href="#SVGID_3_"  style="overflow:visible;"/>
	</clipPath>
	<path class="st8" d="M481.9,62.7l-15.2-3.6c-0.2-0.1-0.4-0.1-0.6-0.3l-12.3,7.2l-11.9-7.5c-0.3,0.3-0.7,0.5-1.1,0.6l-15.2,3.6
		c-2.2,0.5-3.8,2.5-3.8,4.8v9.6c0,1.4,1.1,2.5,2.5,2.5h59.1c1.4,0,2.5-1.1,2.5-2.5v-9.6C485.7,65.2,484.1,63.2,481.9,62.7"/>
	<path class="st9" d="M442.6,50.1v9.1c14,5,22.2-7.6,22.2-7.6v-1.5H442.6z"/>
	<path class="st8" d="M437.7,21.8l1.1,23.6c0.1,2.2,1.2,4.2,2.9,5.6l5.1,3.8c1.3,1,2.8,1.5,4.4,1.5h4.9c1.6,0,3.2-0.5,4.4-1.5
		l5.1-3.8c1.8-1.3,2.8-3.4,2.9-5.6l1.1-23.6H437.7z"/>
	<path class="st9" d="M450,26.7c4.9,0,12.3-1.2,14.1-4.9h-26.4l1.1,23.6c0.1,2.2,1.2,4.2,2.9,5.6l5.1,3.8c1.3,1,2.8,1.5,4.4,1.5h2.5
		c-2.5,0-7.4-4.9-7.4-11.1V30.4C446.3,29.1,447.5,26.7,450,26.7"/>
	<path class="st9" d="M430.7,71.6l-8-7.2c-0.7,0.8-1.1,1.9-1.1,3.1v9.6c0,1.4,1.1,2.5,2.5,2.5h8.6v-3.4
		C432.8,74.4,432,72.8,430.7,71.6"/>
	<path class="st9" d="M476.7,71.6l8-7.2c0.7,0.8,1.1,1.9,1.1,3.1v9.6c0,1.4-1.1,2.5-2.5,2.5h-8.6v-3.4
		C474.6,74.4,475.4,72.8,476.7,71.6"/>
	<path class="st9" d="M442.4,55.9l11.2,10.1c0,0-3.2,1.6-7,4.8c-0.8,0.7-2,0.4-2.4-0.6l-5.3-11.6l1.7-2.5
		C441,55.5,441.9,55.4,442.4,55.9"/>
	<path class="st9" d="M464.9,55.9l-11.2,10.1c0,0,3.2,1.6,7,4.8c0.8,0.7,2,0.4,2.4-0.6l5.3-11.6l-1.7-2.5
		C466.4,55.5,465.5,55.4,464.9,55.9"/>
	<path class="st9" d="M461.1,13.6l1.2,8.2c5.3,1.1,6,9.3,6.1,11.7c0,0.4,0.2,0.8,0.4,1.2l2,3.1c0,0-0.7-5.2,2.5-8.6
		C473.3,29.1,474.4,8.7,461.1,13.6"/>
	<path class="st10" d="M438.9,11.4l1.8,1.2c-8.2,6.1-6.7,16.5-6.7,16.5c2.5,2.5,2.5,8.6,2.5,8.6l2.5-2.5c0,0-1-7.1,3.7-9.8
		c4.3-2.5,8.1-1.2,11.9-1.2c10.3,0,13.2-3.9,12.7-8.6c-0.3-2.4-4-7.5-13.5-7.4C449.8,8.3,442.6,9.4,438.9,11.4"/>
	<path class="st11" d="M438.1,23.1c0,0-1.3-5.2,2.5-10.5c-8.2,6.1-6.7,16.5-6.7,16.5c2.5,2.5,2.5,8.6,2.5,8.6l2.5-2.5
		c0,0-1-7.1,3.7-9.8c4.3-2.5,8.1-1.2,11.9-1.2c1.7,0,3.1-0.1,4.4-0.3C451,24.2,446.4,18.2,438.1,23.1"/>
	<path class="st12" d="M469.7,77.1h-8.6c-0.7,0-1.2,0.6-1.2,1.2v1.2h11.1v-1.2C470.9,77.7,470.4,77.1,469.7,77.1"/>
	<path class="st11" d="M217.4,44l-1.1,4.4c-0.1,0.5-0.6,0.9-1.1,0.9c-0.6,0-1.1-0.4-1.2-1l-0.6-4.5c-0.2-1.2,0.8-2.3,2-2.3h0
		C216.7,41.5,217.7,42.7,217.4,44"/>
	<path class="st10" d="M188.8,44l1.1,4.4c0.1,0.5,0.6,0.9,1.1,0.9c0.6,0,1.1-0.4,1.2-1l0.6-4.5c0.2-1.2-0.8-2.3-2-2.3h0
		C189.4,41.5,188.5,42.7,188.8,44"/>
</g>
<polygon class="st7" points="211.8,63 211.8,56.2 194.2,56.2 194.2,63 203,70.8 "/>
<g>
	<defs>
		<rect id="SVGID_5_" x="-30.3" y="-503.7" width="595.3" height="841.9"/>
	</defs>
	<clipPath id="SVGID_6_">
		<use xlink:href="#SVGID_5_"  style="overflow:visible;"/>
	</clipPath>
	<path class="st13" d="M225.3,66.2l-13-3.3c-0.2,0-0.3-0.1-0.5-0.2l-8.8,6.2l-8.5-6.4c-0.2,0.2-0.5,0.4-0.9,0.5l-13,3.3
		c-1.8,0.4-3,2-3,3.8v7.6c0,1.1,0.9,1.9,1.9,1.9h46.8c1.1,0,1.9-0.9,1.9-1.9V70C228.3,68.2,227.1,66.6,225.3,66.2"/>
	<path class="st14" d="M194.2,56v6.7c11.1,4.2,17.5-5.3,17.5-5.3v-1.2h-17.5V56z"/>
	<path class="st15" d="M190.3,33.8l0.8,18.7c0.1,1.7,0.9,3.4,2.3,4.4l4,3c1,0.8,2.2,1.2,3.5,1.2h3.9c1.3,0,2.5-0.4,3.5-1.2l4-3
		c1.4-1,2.3-2.7,2.3-4.4l0.9-18.7H190.3z"/>
	<path class="st14" d="M200.1,37.7c3.9,0,9.7-1,11.1-3.9l-6.4-1.6l-14.5,1.6l0.8,18.7c0.1,1.7,0.9,3.4,2.3,4.4l4,3
		c1,0.8,2.2,1.2,3.5,1.2h1.9c-1.9,0-5.8-3.9-5.8-8.8V40.6C197.1,39.6,198.1,37.7,200.1,37.7"/>
	<path class="st13" d="M184.8,73.3l-6.3-5.7c-0.5,0.7-0.8,1.5-0.8,2.4v7.6c0,1.1,0.9,1.9,1.9,1.9h6.8v-2.7
		C186.4,75.5,185.8,74.2,184.8,73.3"/>
	<path class="st13" d="M221.2,73.3l6.3-5.7c0.5,0.7,0.8,1.5,0.8,2.4v7.6c0,1.1-0.9,1.9-1.9,1.9h-6.8v-2.7
		C219.6,75.5,220.2,74.2,221.2,73.3"/>
	<path class="st16" d="M213,28.9c1.5-3.5-2.1-3.9-2.1-3.9s-4.7,0.2-13.5,0.2c-8.8,0-9,8.5-9,13.3c0,4.7,2.2,1.5,2.3,7l0,0v-6.6
		c0-2.1,1.3-4.5,4.3-4.5c3.1,0,1.6,0,4.3,0c2.7,0,3.9-2.2,6-1.6c2.1,0.6,4.2,1.4,5.8,1.9c1.6,0.5,3.5,2.3,3.5,4.5v7.6
		c0.1-2.7,2.4-3.6,2.4-6.4v-7.2C217.1,31.1,214.7,29.3,213,28.9"/>
	<path class="st16" d="M208.7,40.4c-2.1,0-3.1,0.7-3.1,2.2c0,1.7,1.4,3.1,3.1,3.1c1.7,0,3.1-1.4,3.1-3.1
		C211.8,41.2,210.7,40.4,208.7,40.4 M208.7,47.2c-2.5,0-4.5-2-4.5-4.5c0-2.3,1.7-3.6,4.5-3.6c2.9,0,4.5,1.3,4.5,3.6
		C213.2,45.1,211.2,47.2,208.7,47.2"/>
	<path class="st16" d="M197.3,40.4c-2.1,0-3.1,0.7-3.1,2.2c0,1.7,1.4,3.1,3.1,3.1c1.7,0,3.1-1.4,3.1-3.1
		C200.5,41.2,199.4,40.4,197.3,40.4 M197.3,47.2c-2.5,0-4.5-2-4.5-4.5c0-2.3,1.7-3.6,4.5-3.6c2.9,0,4.5,1.3,4.5,3.6
		C201.9,45.1,199.8,47.2,197.3,47.2"/>
	<path class="st16" d="M204.4,43.2c-0.4-0.1-0.9-0.2-1.4-0.2c-0.5,0-1,0.1-1.4,0.2l-0.4-1.2c0.5-0.2,1.1-0.2,1.8-0.2
		c0.7,0,1.3,0.1,1.8,0.2L204.4,43.2z"/>
</g>
<rect x="190.5" y="41.8" class="st17" width="3.4" height="1.2"/>
<rect x="212.2" y="41.8" class="st17" width="3.4" height="1.2"/>
<g>
	<defs>
		<rect id="SVGID_7_" x="-30.3" y="-503.7" width="595.3" height="841.9"/>
	</defs>
	<clipPath id="SVGID_8_">
		<use xlink:href="#SVGID_7_"  style="overflow:visible;"/>
	</clipPath>
	<path class="st18" d="M211,25C210.9,25,210.9,25,211,25c-0.1,0-0.1,0-0.3,0c-0.1,0-0.2,0-0.4,0c0-0.7-0.4-1.4-1.6-2.3
		c0.1,1-1.9,2.2-3.3,2.4c-2.1,0-4.8,0.1-8,0.1c-8.8,0-9,8.4-9,13.3c0,4.7,2.2,1.5,2.3,7l0,0v-6.6c0-2.1,1.3-4.5,4.3-4.5
		c3.1,0,1.6,0,4.3,0c0,0,0,0,0,0c0.1,0,0.2,0,0.3,0c14.4,0,15.1-9.4,15.1-9.4H211z"/>
	<path class="st19" d="M203,72.2c1.3,0,10.9-8.9,10.9-8.9l-1.5-0.4c-0.2,0-0.3-0.1-0.5-0.2l-8.8,6.2l-8.5-6.4
		c-0.2,0.2-0.5,0.4-0.9,0.5l-1.8,0.5C191.8,63.4,201.6,72.2,203,72.2"/>
	<path class="st20" d="M326.1,44l-1.1,4.4c-0.1,0.5-0.6,0.9-1.1,0.9c-0.6,0-1.1-0.4-1.2-1l-0.6-4.5c-0.2-1.2,0.8-2.3,2-2.3h0
		C325.4,41.5,326.4,42.7,326.1,44"/>
	<path class="st18" d="M297.5,44l1.1,4.4c0.1,0.5,0.6,0.9,1.1,0.9c0.6,0,1.1-0.4,1.2-1l0.6-4.5c0.2-1.2-0.8-2.3-2-2.3h0
		C298.1,41.5,297.2,42.7,297.5,44"/>
</g>
<polygon class="st7" points="320.5,63 320.5,56.2 302.9,56.2 302.9,63 311.7,70.8 "/>
<g>
	<defs>
		<rect id="SVGID_9_" x="-30.3" y="-503.7" width="595.3" height="841.9"/>
	</defs>
	<clipPath id="SVGID_10_">
		<use xlink:href="#SVGID_9_"  style="overflow:visible;"/>
	</clipPath>
	<path class="st21" d="M334,66.2l-13-3.3c-0.2,0-0.3-0.1-0.5-0.2l-8.8,6.2l-8.5-6.4c-0.2,0.2-0.5,0.4-0.9,0.5l-13,3.3
		c-1.8,0.4-3,2-3,3.8v7.6c0,1.1,0.9,1.9,1.9,1.9h46.8c1.1,0,1.9-0.9,1.9-1.9V70C337,68.2,335.8,66.6,334,66.2"/>
	<path class="st22" d="M302.9,56v6.7c11.1,4.2,17.5-5.3,17.5-5.3v-1.2h-17.5V56z"/>
	<path class="st23" d="M299,33.8l0.8,18.7c0.1,1.7,0.9,3.4,2.3,4.4l4,3c1,0.8,2.2,1.2,3.5,1.2h3.9c1.3,0,2.5-0.4,3.5-1.2l4-3
		c1.4-1,2.3-2.7,2.3-4.4l0.9-18.7H299z"/>
	<path class="st22" d="M308.8,37.7c3.9,0,9.7-1,11.1-3.9l-6.4-1.6L299,33.8l0.9,18.7c0.1,1.7,0.9,3.4,2.3,4.4l4,3
		c1,0.8,2.2,1.2,3.5,1.2h1.9c-1.9,0-5.8-3.9-5.8-8.8V40.6C305.9,39.6,306.8,37.7,308.8,37.7"/>
	<path class="st21" d="M293.5,73.3l-6.3-5.7c-0.5,0.7-0.8,1.5-0.8,2.4v7.6c0,1.1,0.9,1.9,1.9,1.9h6.8v-2.7
		C295.1,75.5,294.5,74.2,293.5,73.3"/>
	<path class="st21" d="M329.9,73.3l6.3-5.7c0.5,0.7,0.8,1.5,0.8,2.4v7.6c0,1.1-0.9,1.9-1.9,1.9h-6.8v-2.7
		C328.3,75.5,328.9,74.2,329.9,73.3"/>
	<path class="st24" d="M321.8,28.9c1.5-3.5-2.1-3.9-2.1-3.9s-4.7,0.2-13.5,0.2s-9,8.5-9,13.3c0,4.7,2.2,1.5,2.3,7l0,0v-6.6
		c0-2.1,1.3-4.5,4.3-4.5c3.1,0,1.6,0,4.3,0c2.7,0,3.9-2.2,6-1.6c2.1,0.6,4.2,1.4,5.8,1.9c1.6,0.5,3.5,2.3,3.5,4.5v7.6
		c0.1-2.7,2.4-3.6,2.4-6.4v-7.2C325.8,31.1,323.4,29.3,321.8,28.9"/>
	<path class="st24" d="M317.4,40.4c-2.1,0-3.1,0.7-3.1,2.2c0,1.7,1.4,3.1,3.1,3.1c1.7,0,3.1-1.4,3.1-3.1
		C320.5,41.2,319.5,40.4,317.4,40.4 M317.4,47.2c-2.5,0-4.5-2-4.5-4.5c0-2.3,1.7-3.6,4.5-3.6c2.9,0,4.5,1.3,4.5,3.6
		C321.9,45.1,319.9,47.2,317.4,47.2"/>
	<path class="st24" d="M306,40.4c-2.1,0-3.1,0.7-3.1,2.2c0,1.7,1.4,3.1,3.1,3.1c1.7,0,3.1-1.4,3.1-3.1
		C309.2,41.2,308.1,40.4,306,40.4 M306,47.2c-2.5,0-4.5-2-4.5-4.5c0-2.3,1.7-3.6,4.5-3.6c2.9,0,4.5,1.3,4.5,3.6
		C310.6,45.1,308.6,47.2,306,47.2"/>
	<path class="st24" d="M313.1,43.2c-0.4-0.1-0.9-0.2-1.4-0.2c-0.5,0-1,0.1-1.4,0.2l-0.4-1.2c0.5-0.2,1.1-0.2,1.8-0.2
		c0.7,0,1.3,0.1,1.8,0.2L313.1,43.2z"/>
</g>
<rect x="299.2" y="41.8" class="st17" width="3.4" height="1.2"/>
<rect x="320.9" y="41.8" class="st17" width="3.4" height="1.2"/>
<g>
	<defs>
		<rect id="SVGID_11_" x="-30.3" y="-503.7" width="595.3" height="841.9"/>
	</defs>
	<clipPath id="SVGID_12_">
		<use xlink:href="#SVGID_11_"  style="overflow:visible;"/>
	</clipPath>
	<path class="st25" d="M319.7,25C319.6,25,319.6,25,319.7,25c-0.1,0-0.1,0-0.3,0c-0.1,0-0.2,0-0.4,0c0-0.7-0.4-1.4-1.6-2.3
		c0.1,1-1.9,2.2-3.3,2.4c-2.1,0-4.8,0.1-8,0.1c-8.8,0-9,8.4-9,13.3c0,4.7,2.2,1.5,2.3,7l0,0v-6.6c0-2.1,1.3-4.5,4.3-4.5
		c3.1,0,1.6,0,4.3,0c0,0,0,0,0,0c0.1,0,0.2,0,0.3,0c14.4,0,15.1-9.4,15.1-9.4H319.7z"/>
	<path class="st26" d="M311.7,72.2c1.3,0,10.9-8.9,10.9-8.9l-1.5-0.4c-0.2,0-0.3-0.1-0.5-0.2l-8.8,6.2l-8.5-6.4
		c-0.2,0.2-0.5,0.4-0.9,0.5l-1.8,0.5C300.5,63.4,310.4,72.2,311.7,72.2"/>
	<path class="st27" d="M111.3,44l-1.1,4.4c-0.1,0.5-0.6,0.9-1.1,0.9c-0.6,0-1.1-0.4-1.2-1l-0.6-4.5c-0.2-1.2,0.8-2.3,2-2.3h0
		C110.6,41.5,111.6,42.7,111.3,44"/>
	<path class="st25" d="M82.7,44l1.1,4.4c0.1,0.5,0.6,0.9,1.1,0.9c0.6,0,1.1-0.4,1.2-1l0.6-4.5c0.2-1.2-0.8-2.3-2-2.3h0
		C83.4,41.5,82.4,42.7,82.7,44"/>
</g>
<polygon class="st7" points="105.7,63 105.7,56.2 88.1,56.2 88.1,63 96.9,70.8 "/>
<g>
	<defs>
		<rect id="SVGID_13_" x="-30.3" y="-503.7" width="595.3" height="841.9"/>
	</defs>
	<clipPath id="SVGID_14_">
		<use xlink:href="#SVGID_13_"  style="overflow:visible;"/>
	</clipPath>
	<path class="st28" d="M119.3,66.2l-13-3.3c-0.2,0-0.3-0.1-0.5-0.2l-8.8,6.2l-8.5-6.4c-0.2,0.2-0.5,0.4-0.9,0.5l-13,3.3
		c-1.8,0.4-3,2-3,3.8v7.6c0,1.1,0.9,1.9,1.9,1.9h46.8c1.1,0,1.9-0.9,1.9-1.9V70C122.3,68.2,121,66.6,119.3,66.2"/>
	<path class="st29" d="M88.1,56v6.7c11.1,4.2,17.5-5.3,17.5-5.3v-1.2H88.1V56z"/>
	<path class="st30" d="M84.2,33.8l0.8,18.7c0.1,1.7,0.9,3.4,2.3,4.4l4,3c1,0.8,2.2,1.2,3.5,1.2h3.9c1.3,0,2.5-0.4,3.5-1.2l4-3
		c1.4-1,2.3-2.7,2.3-4.4l0.9-18.7H84.2z"/>
	<path class="st29" d="M94,37.7c3.9,0,9.7-1,11.1-3.9l-6.4-1.6l-14.5,1.6l0.8,18.7c0.1,1.7,0.9,3.4,2.3,4.4l4,3
		c1,0.8,2.2,1.2,3.5,1.2h1.9c-1.9,0-5.8-3.9-5.8-8.8V40.6C91.1,39.6,92,37.7,94,37.7"/>
	<path class="st28" d="M78.7,73.3l-6.3-5.7c-0.5,0.7-0.8,1.5-0.8,2.4v7.6c0,1.1,0.9,1.9,2,1.9h6.8v-2.7
		C80.3,75.5,79.8,74.2,78.7,73.3"/>
	<path class="st28" d="M115.1,73.3l6.3-5.7c0.5,0.7,0.8,1.5,0.8,2.4v7.6c0,1.1-0.9,1.9-1.9,1.9h-6.8v-2.7
		C113.5,75.5,114.1,74.2,115.1,73.3"/>
	<path class="st31" d="M107,28.9c1.5-3.5-2.1-3.9-2.1-3.9s-4.7,0.2-13.5,0.2s-9,8.5-9,13.3c0,4.7,2.2,1.5,2.3,7l0,0v-6.6
		c0-2.1,1.3-4.5,4.3-4.5c3.1,0,1.6,0,4.3,0c2.7,0,3.9-2.2,6-1.6c2.1,0.6,4.2,1.4,5.8,1.9c1.6,0.5,3.5,2.3,3.5,4.5v7.6
		c0.1-2.7,2.4-3.6,2.4-6.4v-7.2C111,31.1,108.6,29.3,107,28.9"/>
	<path class="st31" d="M102.6,40.4c-2.1,0-3.1,0.7-3.1,2.2c0,1.7,1.4,3.1,3.1,3.1c1.7,0,3.1-1.4,3.1-3.1
		C105.7,41.2,104.7,40.4,102.6,40.4 M102.6,47.2c-2.5,0-4.5-2-4.5-4.5c0-2.3,1.7-3.6,4.5-3.6c2.9,0,4.5,1.3,4.5,3.6
		C107.1,45.1,105.1,47.2,102.6,47.2"/>
	<path class="st31" d="M91.3,40.4c-2.1,0-3.1,0.7-3.1,2.2c0,1.7,1.4,3.1,3.1,3.1c1.7,0,3.1-1.4,3.1-3.1
		C94.4,41.2,93.3,40.4,91.3,40.4 M91.3,47.2c-2.5,0-4.5-2-4.5-4.5c0-2.3,1.7-3.6,4.5-3.6c2.9,0,4.5,1.3,4.5,3.6
		C95.8,45.1,93.8,47.2,91.3,47.2"/>
	<path class="st31" d="M98.3,43.2c-0.4-0.1-0.9-0.2-1.4-0.2c-0.5,0-1,0.1-1.4,0.2L95.1,42c0.5-0.2,1.1-0.2,1.8-0.2
		c0.7,0,1.3,0.1,1.8,0.2L98.3,43.2z"/>
</g>
<rect x="84.4" y="41.8" class="st17" width="3.4" height="1.2"/>
<rect x="106.1" y="41.8" class="st17" width="3.4" height="1.2"/>
<g>
	<defs>
		<rect id="SVGID_15_" x="-30.3" y="-503.7" width="595.3" height="841.9"/>
	</defs>
	<clipPath id="SVGID_16_">
		<use xlink:href="#SVGID_15_"  style="overflow:visible;"/>
	</clipPath>
	<path class="st32" d="M104.9,25C104.9,25,104.8,25,104.9,25c-0.1,0-0.1,0-0.3,0c-0.1,0-0.2,0-0.4,0c0-0.7-0.4-1.4-1.6-2.3
		c0.1,1-1.9,2.2-3.3,2.4c-2.1,0-4.8,0.1-8,0.1c-8.8,0-9,8.4-9,13.3c0,4.7,2.2,1.5,2.3,7l0,0v-6.6c0-2.1,1.3-4.5,4.3-4.5
		c3.1,0,1.6,0,4.3,0c0,0,0,0,0,0c0.1,0,0.2,0,0.3,0c14.4,0,15.1-9.4,15.1-9.4H104.9z"/>
	<path class="st33" d="M96.9,72.2c1.3,0,10.9-8.9,10.9-8.9l-1.5-0.4c-0.2,0-0.3-0.1-0.5-0.2l-8.8,6.2l-8.5-6.4
		c-0.2,0.2-0.5,0.4-0.9,0.5l-1.8,0.5C85.7,63.4,95.6,72.2,96.9,72.2"/>
</g>
</svg>
