<?xml version="1.0" encoding="utf-8"?>
<!-- Generator: Adobe Illustrator 19.0.0, SVG Export Plug-In . SVG Version: 6.00 Build 0)  -->
<svg version="1.1" id="Layer_1" xmlns="http://www.w3.org/2000/svg" xmlns:xlink="http://www.w3.org/1999/xlink" x="0px" y="0px"
	 viewBox="0 0 548 186" style="enable-background:new 0 0 548 186;" xml:space="preserve">
<style type="text/css">
	.st0{clip-path:url(#SVGID_2_);fill:#F2F0FC;}
	.st1{opacity:0.3;clip-path:url(#SVGID_2_);}
	.st2{clip-path:url(#SVGID_4_);fill:none;stroke:#B5ABF3;stroke-width:4;}
	
		.st3{clip-path:url(#SVGID_6_);fill:none;stroke:#371BE1;stroke-width:3;stroke-linecap:round;stroke-linejoin:round;stroke-dasharray:0,6.045;}
	.st4{clip-path:url(#SVGID_6_);fill:none;stroke:#371BE1;stroke-width:3;stroke-linecap:round;stroke-linejoin:round;}
	
		.st5{clip-path:url(#SVGID_8_);fill:none;stroke:#371BE1;stroke-width:3;stroke-linecap:round;stroke-linejoin:round;stroke-dasharray:0,6.025;}
	.st6{clip-path:url(#SVGID_8_);fill:none;stroke:#371BE1;stroke-width:3;stroke-linecap:round;stroke-linejoin:round;}
	.st7{fill:#371BE1;}
	.st8{font-family:'Montserrat-Bold';}
	.st9{font-size:10px;}
	.st10{clip-path:url(#SVGID_10_);fill:#B5ABF2;}
	.st11{clip-path:url(#SVGID_10_);fill:#614FE5;}
	.st12{fill:#F2F0FC;}
	.st13{clip-path:url(#SVGID_12_);fill:#F2F0FC;}
	.st14{clip-path:url(#SVGID_12_);fill:#B5ABF2;}
	.st15{clip-path:url(#SVGID_12_);fill:#381CE0;}
	.st16{clip-path:url(#SVGID_12_);fill:#614FE5;}
	.st17{clip-path:url(#SVGID_12_);fill:#E3EBF5;}
	.st18{clip-path:url(#SVGID_14_);fill:#F2F0FC;}
	.st19{clip-path:url(#SVGID_14_);fill:#B5ABF2;}
	.st20{clip-path:url(#SVGID_14_);fill:#381CE0;}
	.st21{clip-path:url(#SVGID_14_);fill:#614FE5;}
	.st22{clip-path:url(#SVGID_14_);fill:#E3EBF5;}
	.st23{clip-path:url(#SVGID_16_);fill:#381CE0;}
	.st24{clip-path:url(#SVGID_16_);fill:#B5ABF2;}
	.st25{clip-path:url(#SVGID_16_);fill:#F2F0FC;}
	.st26{clip-path:url(#SVGID_16_);fill:#614FE5;}
	.st27{fill:#614FE5;}
	.st28{clip-path:url(#SVGID_18_);fill:#381CE0;}
	.st29{clip-path:url(#SVGID_18_);fill:#B5ABF2;}
	.st30{clip-path:url(#SVGID_18_);fill:#614FE5;}
	.st31{clip-path:url(#SVGID_20_);fill:#381CE0;}
	.st32{clip-path:url(#SVGID_20_);fill:#B5ABF2;}
	.st33{clip-path:url(#SVGID_20_);fill:#F2F0FC;}
	.st34{clip-path:url(#SVGID_20_);fill:#614FE5;}
	.st35{clip-path:url(#SVGID_22_);fill:#381CE0;}
	.st36{clip-path:url(#SVGID_22_);fill:#B5ABF2;}
	.st37{opacity:0.3;clip-path:url(#SVGID_22_);}
	.st38{clip-path:url(#SVGID_24_);fill:none;stroke:#371BE1;stroke-width:4;}
	.st39{fill:none;stroke:#371BE1;stroke-width:2;}
	.st40{opacity:0.3;clip-path:url(#SVGID_26_);}
	.st41{clip-path:url(#SVGID_28_);fill:none;stroke:#371BE1;stroke-width:2;}
	.st42{opacity:0.1;clip-path:url(#SVGID_26_);}
	.st43{clip-path:url(#SVGID_30_);fill:none;stroke:#371BE1;stroke-width:2;}
	.st44{opacity:0.3;clip-path:url(#SVGID_32_);}
	.st45{clip-path:url(#SVGID_34_);fill:none;stroke:#371BE1;stroke-width:2;}
	.st46{opacity:0.1;clip-path:url(#SVGID_32_);}
	.st47{clip-path:url(#SVGID_36_);fill:none;stroke:#371BE1;stroke-width:2;}
	.st48{opacity:0.3;clip-path:url(#SVGID_38_);}
	.st49{clip-path:url(#SVGID_40_);fill:#614FE5;}
	.st50{clip-path:url(#SVGID_40_);fill:#381CE0;}
	.st51{clip-path:url(#SVGID_40_);fill:#F2F0FC;}
	.st52{clip-path:url(#SVGID_40_);fill:#B5ABF2;}
	.st53{clip-path:url(#SVGID_42_);fill:#614FE5;}
	.st54{clip-path:url(#SVGID_42_);fill:#381CE0;}
	.st55{clip-path:url(#SVGID_42_);fill:#F2F0FC;}
	.st56{clip-path:url(#SVGID_42_);fill:#B5ABF2;}
	.st57{clip-path:url(#SVGID_44_);fill:#614FE5;}
	.st58{clip-path:url(#SVGID_44_);fill:#381CE0;}
	.st59{clip-path:url(#SVGID_44_);fill:#F2F0FC;}
	.st60{clip-path:url(#SVGID_44_);fill:#B5ABF2;}
	.st61{clip-path:url(#SVGID_46_);fill:#614FE5;}
	.st62{clip-path:url(#SVGID_46_);fill:#381CE0;}
	.st63{clip-path:url(#SVGID_46_);fill:#F2F0FC;}
	.st64{clip-path:url(#SVGID_46_);fill:#B5ABF2;}
	.st65{clip-path:url(#SVGID_38_);fill:#614FE5;}
	.st66{clip-path:url(#SVGID_38_);fill:#381CE0;}
	.st67{clip-path:url(#SVGID_48_);fill:#381CE0;}
	.st68{clip-path:url(#SVGID_48_);fill:#B5ABF2;}
	.st69{clip-path:url(#SVGID_48_);fill:#F2F0FC;}
	.st70{clip-path:url(#SVGID_48_);fill:#614FE5;}
	.st71{clip-path:url(#SVGID_50_);fill:#381CE0;}
	.st72{clip-path:url(#SVGID_50_);fill:#B5ABF2;}
	.st73{clip-path:url(#SVGID_50_);fill:#614FE5;}
	.st74{clip-path:url(#SVGID_52_);fill:#381CE0;}
	.st75{clip-path:url(#SVGID_52_);fill:#B5ABF2;}
	.st76{clip-path:url(#SVGID_52_);fill:#F2F0FC;}
	.st77{clip-path:url(#SVGID_52_);fill:#614FE5;}
	.st78{clip-path:url(#SVGID_54_);fill:#381CE0;}
	.st79{clip-path:url(#SVGID_54_);fill:#B5ABF2;}
</style>
<g>
	<defs>
		<rect id="SVGID_1_" x="-24" y="-79" width="595.3" height="841.9"/>
	</defs>
	<clipPath id="SVGID_2_">
		<use xlink:href="#SVGID_1_"  style="overflow:visible;"/>
	</clipPath>
	<path class="st0" d="M22.2,96.9c4.9,31.7,55.1,63.6,114.5,67.7c71,4.9,124.9-10,125.8-63.1c1.2-70.2-59.9-81-122.4-81.3
		C69.1,19.9,12.3,33,22.2,96.9"/>
	<path class="st0" d="M525,96.9c-4.9,31.7-55.1,63.6-114.5,67.7c-71,4.9-124.9-10-125.8-63.1c-1.2-70.2,59.9-81,122.4-81.3
		C478.1,19.9,535,33,525,96.9"/>
	<g class="st1">
		<g>
			<defs>
				<rect id="SVGID_3_" x="221" y="53.3" width="98.6" height="18.1"/>
			</defs>
			<clipPath id="SVGID_4_">
				<use xlink:href="#SVGID_3_"  style="overflow:visible;"/>
			</clipPath>
			<path class="st2" d="M308.6,70.4c0-4.5-17.2-8.1-38.3-8.1c-21.2,0-38.3,3.6-38.3,8.1"/>
		</g>
	</g>
	<g class="st1">
		<g>
			<defs>
				<rect id="SVGID_5_" x="53" y="66.2" width="184.2" height="11"/>
			</defs>
			<clipPath id="SVGID_6_">
				<use xlink:href="#SVGID_5_"  style="overflow:visible;"/>
			</clipPath>
			<line class="st3" x1="69.5" y1="74.7" x2="223.7" y2="74.7"/>
			<path class="st4" d="M226.7,74.7L226.7,74.7 M63.5,74.7L63.5,74.7"/>
		</g>
	</g>
	<g class="st1">
		<g>
			<defs>
				<rect id="SVGID_7_" x="307.8" y="66.2" width="165.6" height="11"/>
			</defs>
			<clipPath id="SVGID_8_">
				<use xlink:href="#SVGID_7_"  style="overflow:visible;"/>
			</clipPath>
			<line class="st5" x1="324.3" y1="74.7" x2="459.9" y2="74.7"/>
			<path class="st6" d="M462.9,74.7L462.9,74.7 M318.3,74.7L318.3,74.7"/>
		</g>
	</g>
</g>
<text transform="matrix(1 0 0 1 207.6279 117.4686)" class="st7 st8 st9">Client</text>
<text transform="matrix(1 0 0 1 304.5078 117.4686)" class="st7 st8 st9">Client</text>
<text transform="matrix(1 0 0 1 124.8979 117.4686)"><tspan x="0" y="0" class="st7 st8 st9">C</tspan><tspan x="7.2" y="0" class="st7 st8 st9">onnec</tspan><tspan x="39.8" y="0" class="st7 st8 st9">t</tspan><tspan x="44.1" y="0" class="st7 st8 st9">ed</tspan></text>
<text transform="matrix(1 0 0 1 180.3682 117.4686)" class="st7 st8 st9"> </text>
<text transform="matrix(1 0 0 1 137.1079 129.4686)"><tspan x="0" y="0" class="st7 st8 st9">A</tspan><tspan x="7.4" y="0" class="st7 st8 st9">gent</tspan></text>
<text transform="matrix(1 0 0 1 373.8975 117.4686)"><tspan x="0" y="0" class="st7 st8 st9">C</tspan><tspan x="7.2" y="0" class="st7 st8 st9">onnec</tspan><tspan x="39.8" y="0" class="st7 st8 st9">t</tspan><tspan x="44.1" y="0" class="st7 st8 st9">ed</tspan></text>
<text transform="matrix(1 0 0 1 429.3682 117.4686)" class="st7 st8 st9"> </text>
<text transform="matrix(1 0 0 1 386.1074 129.4686)"><tspan x="0" y="0" class="st7 st8 st9">A</tspan><tspan x="7.5" y="0" class="st7 st8 st9">gent</tspan></text>
<text transform="matrix(1 0 0 1 451.208 117.4686)"><tspan x="0" y="0" class="st7 st8 st9">C</tspan><tspan x="7.2" y="0" class="st7 st8 st9">onnecting</tspan></text>
<text transform="matrix(1 0 0 1 510.1377 117.4686)" class="st7 st8 st9"> </text>
<text transform="matrix(1 0 0 1 462.5781 129.4686)"><tspan x="0" y="0" class="st7 st8 st9">A</tspan><tspan x="7.5" y="0" class="st7 st8 st9">gents</tspan></text>
<text transform="matrix(1 0 0 1 49.6377 117.4686)"><tspan x="0" y="0" class="st7 st8 st9">C</tspan><tspan x="7.2" y="0" class="st7 st8 st9">onnecting</tspan></text>
<text transform="matrix(1 0 0 1 108.5679 117.4686)" class="st7 st8 st9"> </text>
<text transform="matrix(1 0 0 1 61.0078 129.4686)"><tspan x="0" y="0" class="st7 st8 st9">A</tspan><tspan x="7.4" y="0" class="st7 st8 st9">gents</tspan></text>
<g>
	<defs>
		<rect id="SVGID_9_" x="-24" y="-79" width="595.3" height="841.9"/>
	</defs>
	<clipPath id="SVGID_10_">
		<use xlink:href="#SVGID_9_"  style="overflow:visible;"/>
	</clipPath>
	<path class="st10" d="M237.4,69.3l-1.1,4.4c-0.1,0.5-0.6,0.9-1.1,0.9c-0.6,0-1.1-0.4-1.2-1l-0.6-4.5c-0.2-1.2,0.8-2.3,2-2.3h0
		C236.8,66.8,237.8,68.1,237.4,69.3"/>
	<path class="st11" d="M208.2,69.3l1.1,4.4c0.1,0.5,0.6,0.9,1.1,0.9c0.6,0,1.1-0.4,1.2-1l0.6-4.5c0.2-1.2-0.8-2.3-2-2.3h0
		C208.8,66.8,207.8,68.1,208.2,69.3"/>
</g>
<polygon class="st12" points="231.6,86.4 231.6,79.6 214,79.6 214,86.4 222.8,94.3 "/>
<g>
	<defs>
		<rect id="SVGID_11_" x="-24" y="-79" width="595.3" height="841.9"/>
	</defs>
	<clipPath id="SVGID_12_">
		<use xlink:href="#SVGID_11_"  style="overflow:visible;"/>
	</clipPath>
	<path class="st13" d="M245.3,89.6l-12.1-2.9c-0.2,0-0.4-0.1-0.5-0.2l-9.8,5.7l-9.4-6c-0.2,0.2-0.5,0.4-0.9,0.5l-12.1,2.9
		c-1.8,0.4-3,2-3,3.8v7.7c0,1.1,0.9,2,2,2h47.1c1.1,0,2-0.9,2-2v-7.7C248.3,91.6,247,90,245.3,89.6"/>
	<path class="st14" d="M214,79.6v7.2c11.1,4,17.6-6,17.6-6v-1.2H214z"/>
	<path class="st13" d="M210.1,57l0.9,18.8c0.1,1.8,0.9,3.4,2.3,4.4l4.1,3c1,0.8,2.3,1.2,3.5,1.2h3.9c1.3,0,2.5-0.4,3.5-1.2l4.1-3
		c1.4-1.1,2.3-2.7,2.3-4.4l0.9-18.8H210.1z"/>
	<path class="st14" d="M219.9,60.9c3.9,0,9.8-1,11.2-3.9h-21l0.9,18.8c0.1,1.8,0.9,3.4,2.3,4.4l4.1,3c1,0.8,2.3,1.2,3.5,1.2h2
		c-2,0-5.9-3.9-5.9-8.8V63.9C216.9,62.9,217.9,60.9,219.9,60.9"/>
	<path class="st14" d="M204.5,96.7l-6.4-5.7c-0.5,0.7-0.8,1.5-0.8,2.4v7.7c0,1.1,0.9,2,2,2h6.9v-2.7C206.1,99,205.5,97.7,204.5,96.7
		"/>
	<path class="st14" d="M241.1,96.7l6.4-5.7c0.5,0.7,0.8,1.5,0.8,2.4v7.7c0,1.1-0.9,2-2,2h-6.9v-2.7C239.5,99,240.1,97.7,241.1,96.7"
		/>
	<path class="st14" d="M213.8,84.2l9,8.1c0,0-2.5,1.3-5.6,3.8c-0.6,0.5-1.6,0.3-1.9-0.4l-4.2-9.3l1.3-2
		C212.7,83.9,213.4,83.8,213.8,84.2"/>
	<path class="st14" d="M231.8,84.2l-9,8.1c0,0,2.5,1.3,5.6,3.8c0.6,0.5,1.6,0.3,1.9-0.4l4.2-9.3l-1.3-2
		C232.9,83.9,232.2,83.8,231.8,84.2"/>
	<path class="st14" d="M228.7,50.5l0.9,6.5c4.2,0.8,4.8,7.4,4.9,9.3c0,0.3,0.1,0.7,0.3,1l1.6,2.5c0,0-0.5-4.1,2-6.9
		C238.4,62.9,239.3,46.6,228.7,50.5"/>
	<path class="st15" d="M211,48.8l1.4,1c-6.6,4.8-5.3,13.1-5.3,13.1c2,2,2,6.9,2,6.9l2-2c0,0-0.8-5.7,2.9-7.8c3.4-2,6.4-1,9.5-1
		c8.2,0,10.5-3.1,10.1-6.9c-0.2-2-3.2-6-10.8-5.9C219.7,46.3,214,47.2,211,48.8"/>
	<path class="st16" d="M210.4,58.1c0,0-1-4.1,2-8.4c-6.6,4.8-5.3,13.1-5.3,13.1c2,2,2,6.9,2,6.9l2-2c0,0-0.8-5.7,2.9-7.8
		c3.4-2,6.4-1,9.5-1c1.3,0,2.5-0.1,3.5-0.2C220.7,58.9,217,54.1,210.4,58.1"/>
	<path class="st17" d="M235.5,101.1h-6.9c-0.5,0-1,0.4-1,1v1h8.8v-1C236.5,101.6,236.1,101.1,235.5,101.1"/>
	<path class="st14" d="M334.3,69.3l-1.1,4.4c-0.1,0.5-0.6,0.9-1.1,0.9c-0.6,0-1.1-0.4-1.2-1l-0.6-4.5c-0.2-1.2,0.8-2.3,2-2.3h0
		C333.7,66.8,334.6,68.1,334.3,69.3"/>
	<path class="st16" d="M305,69.3l1.1,4.4c0.1,0.5,0.6,0.9,1.1,0.9c0.6,0,1.1-0.4,1.2-1l0.6-4.5c0.2-1.2-0.8-2.3-2-2.3h0
		C305.7,66.8,304.7,68.1,305,69.3"/>
</g>
<polygon class="st12" points="328.5,86.4 328.5,79.6 310.9,79.6 310.9,86.4 319.7,94.3 "/>
<g>
	<defs>
		<rect id="SVGID_13_" x="-24" y="-79" width="595.3" height="841.9"/>
	</defs>
	<clipPath id="SVGID_14_">
		<use xlink:href="#SVGID_13_"  style="overflow:visible;"/>
	</clipPath>
	<path class="st18" d="M342.1,89.6L330,86.8c-0.2,0-0.4-0.1-0.5-0.2l-9.8,5.7l-9.4-6c-0.2,0.2-0.5,0.4-0.9,0.5l-12.1,2.9
		c-1.8,0.4-3,2-3,3.8v7.7c0,1.1,0.9,2,2,2h47.1c1.1,0,2-0.9,2-2v-7.7C345.2,91.6,343.9,90,342.1,89.6"/>
	<path class="st19" d="M310.9,79.6v7.2c11.1,4,17.6-6,17.6-6v-1.2H310.9z"/>
	<path class="st18" d="M306.9,57l0.9,18.8c0.1,1.8,0.9,3.4,2.3,4.4l4.1,3c1,0.8,2.3,1.2,3.5,1.2h3.9c1.3,0,2.5-0.4,3.5-1.2l4.1-3
		c1.4-1.1,2.3-2.7,2.3-4.4l0.9-18.8H306.9z"/>
	<path class="st19" d="M316.7,60.9c3.9,0,9.8-1,11.2-3.9h-21l0.9,18.8c0.1,1.8,0.9,3.4,2.3,4.4l4.1,3c1,0.8,2.3,1.2,3.5,1.2h2
		c-2,0-5.9-3.9-5.9-8.8V63.9C313.8,62.9,314.8,60.9,316.7,60.9"/>
	<path class="st19" d="M301.4,96.7L295,91c-0.5,0.7-0.8,1.5-0.8,2.4v7.7c0,1.1,0.9,2,2,2h6.9v-2.7C303,99,302.4,97.7,301.4,96.7"/>
	<path class="st19" d="M338,96.7l6.4-5.7c0.5,0.7,0.8,1.5,0.8,2.4v7.7c0,1.1-0.9,2-2,2h-6.9v-2.7C336.3,99,336.9,97.7,338,96.7"/>
	<path class="st19" d="M310.7,84.2l9,8.1c0,0-2.5,1.3-5.6,3.8c-0.6,0.5-1.6,0.3-1.9-0.4l-4.2-9.3l1.3-2
		C309.6,83.9,310.3,83.8,310.7,84.2"/>
	<path class="st19" d="M328.6,84.2l-9,8.1c0,0,2.5,1.3,5.6,3.8c0.6,0.5,1.6,0.3,1.9-0.4l4.2-9.3l-1.3-2
		C329.8,83.9,329.1,83.8,328.6,84.2"/>
	<path class="st19" d="M325.6,50.5l0.9,6.5c4.2,0.8,4.8,7.4,4.9,9.3c0,0.3,0.1,0.7,0.3,1l1.6,2.5c0,0-0.5-4.1,2-6.9
		C335.3,62.9,336.2,46.6,325.6,50.5"/>
	<path class="st20" d="M307.9,48.8l1.4,1c-6.6,4.8-5.3,13.1-5.3,13.1c2,2,2,6.9,2,6.9l2-2c0,0-0.8-5.7,2.9-7.8c3.4-2,6.4-1,9.5-1
		c8.2,0,10.5-3.1,10.1-6.9c-0.2-2-3.2-6-10.8-5.9C316.6,46.3,310.9,47.2,307.9,48.8"/>
	<path class="st21" d="M307.3,58.1c0,0-1-4.1,2-8.4c-6.6,4.8-5.3,13.1-5.3,13.1c2,2,2,6.9,2,6.9l2-2c0,0-0.8-5.7,2.9-7.8
		c3.4-2,6.4-1,9.5-1c1.3,0,2.5-0.1,3.5-0.2C317.6,58.9,313.8,54.1,307.3,58.1"/>
	<path class="st22" d="M332.4,101.1h-6.9c-0.5,0-1,0.4-1,1v1h8.8v-1C333.4,101.6,333,101.1,332.4,101.1"/>
	<path class="st21" d="M162.2,74.8l-0.7,2.9c-0.1,0.3-0.4,0.6-0.8,0.6c-0.4,0-0.7-0.3-0.8-0.7l-0.4-3c-0.1-0.8,0.5-1.5,1.3-1.5h0
		C161.8,73.1,162.4,73.9,162.2,74.8"/>
	<path class="st20" d="M143.1,74.8l0.7,2.9c0.1,0.3,0.4,0.6,0.8,0.6c0.4,0,0.7-0.3,0.8-0.7l0.4-3c0.1-0.8-0.5-1.5-1.3-1.5h0
		C143.6,73.1,142.9,73.9,143.1,74.8"/>
</g>
<polygon class="st12" points="158.5,87.5 158.5,83 146.8,83 146.8,87.5 152.6,92.7 "/>
<g>
	<defs>
		<rect id="SVGID_15_" x="-24" y="-79" width="595.3" height="841.9"/>
	</defs>
	<clipPath id="SVGID_16_">
		<use xlink:href="#SVGID_15_"  style="overflow:visible;"/>
	</clipPath>
	<path class="st23" d="M167.5,89.6l-8.7-2.2c-0.1,0-0.2-0.1-0.3-0.1l-5.9,4.1l-5.6-4.3c-0.2,0.2-0.4,0.3-0.6,0.3l-8.7,2.2
		c-1.2,0.3-2,1.3-2,2.5v5.1c0,0.7,0.6,1.3,1.3,1.3h31.2c0.7,0,1.3-0.6,1.3-1.3v-5.1C169.6,91,168.7,89.9,167.5,89.6"/>
	<path class="st24" d="M146.8,82.8v4.5c7.4,2.8,11.7-3.5,11.7-3.5V83h-11.7V82.8z"/>
	<path class="st25" d="M144.2,68l0.6,12.5c0.1,1.2,0.6,2.2,1.6,2.9l2.7,2c0.7,0.5,1.5,0.8,2.3,0.8h2.6c0.8,0,1.7-0.3,2.3-0.8l2.7-2
		c0.9-0.7,1.5-1.8,1.6-2.9l0.6-12.5H144.2z"/>
	<path class="st24" d="M150.7,70.6c2.6,0,6.5-0.7,7.4-2.6l-4.2-1.1l-9.7,1.1l0.6,12.5c0.1,1.2,0.6,2.2,1.6,2.9l2.7,2
		c0.7,0.5,1.5,0.8,2.3,0.8h1.3c-1.3,0-3.9-2.6-3.9-5.9v-7.8C148.7,71.9,149.4,70.6,150.7,70.6"/>
	<path class="st23" d="M140.5,94.4l-4.2-3.8c-0.4,0.4-0.6,1-0.6,1.6v5.1c0,0.7,0.6,1.3,1.3,1.3h4.6v-1.8
		C141.6,95.9,141.2,95,140.5,94.4"/>
	<path class="st23" d="M164.8,94.4l4.2-3.8c0.4,0.4,0.6,1,0.6,1.6v5.1c0,0.7-0.6,1.3-1.3,1.3h-4.6v-1.8
		C163.7,95.9,164.1,95,164.8,94.4"/>
	<path class="st26" d="M159.3,64.7c1-2.3-1.4-2.6-1.4-2.6s-3.1,0.1-9,0.1c-5.9,0-6,5.6-6,8.9c0,3.2,1.5,1,1.6,4.7l0,0v-4.4
		c0-1.4,0.8-3,2.9-3c2,0,1.1,0,2.9,0c1.8,0,2.6-1.5,4-1.1c1.4,0.4,2.8,1,3.9,1.3c1.1,0.3,2.3,1.5,2.3,3v5.1c0.1-1.8,1.6-2.4,1.6-4.2
		v-4.8C162.1,66.2,160.4,65,159.3,64.7"/>
	<path class="st26" d="M156.4,72.4c-1.4,0-2.1,0.5-2.1,1.5c0,1.2,0.9,2.1,2.1,2.1c1.2,0,2.1-0.9,2.1-2.1
		C158.5,72.9,157.8,72.4,156.4,72.4 M156.4,76.9c-1.7,0-3-1.4-3-3c0-1.5,1.1-2.4,3-2.4c1.9,0,3,0.9,3,2.4
		C159.5,75.6,158.1,76.9,156.4,76.9"/>
	<path class="st26" d="M148.9,72.4c-1.4,0-2.1,0.5-2.1,1.5c0,1.2,0.9,2.1,2.1,2.1c1.2,0,2.1-0.9,2.1-2.1
		C151,72.9,150.2,72.4,148.9,72.4 M148.9,76.9c-1.7,0-3-1.4-3-3c0-1.5,1.1-2.4,3-2.4c1.9,0,3,0.9,3,2.4
		C151.9,75.6,150.5,76.9,148.9,76.9"/>
	<path class="st26" d="M153.6,74.3c-0.3-0.1-0.6-0.1-0.9-0.1s-0.7,0-0.9,0.1l-0.2-0.8c0.3-0.1,0.7-0.2,1.2-0.2
		c0.4,0,0.8,0.1,1.2,0.2L153.6,74.3z"/>
</g>
<rect x="144.3" y="73.3" class="st27" width="2.2" height="0.8"/>
<rect x="158.8" y="73.3" class="st27" width="2.2" height="0.8"/>
<g>
	<defs>
		<rect id="SVGID_17_" x="-24" y="-79" width="595.3" height="841.9"/>
	</defs>
	<clipPath id="SVGID_18_">
		<use xlink:href="#SVGID_17_"  style="overflow:visible;"/>
	</clipPath>
	<path class="st28" d="M158,62.1C157.9,62.1,157.9,62.1,158,62.1c0,0-0.1,0-0.2,0c-0.1,0-0.2,0-0.3,0c0-0.5-0.3-1-1-1.5
		c0.1,0.6-1.3,1.5-2.2,1.6c-1.4,0-3.2,0-5.3,0c-5.9,0-6,5.6-6,8.9c0,3.2,1.5,1,1.6,4.7l0,0v-4.4c0-1.4,0.8-3,2.9-3s1.1,0,2.9,0
		c0,0,0,0,0,0c0.1,0,0.1,0,0.2,0c9.6,0,10.1-6.3,10.1-6.3H158z"/>
	<path class="st29" d="M152.6,93.6c0.9,0,7.3-5.9,7.3-5.9l-1-0.3c-0.1,0-0.2-0.1-0.3-0.1l-5.9,4.1l-5.6-4.3
		c-0.2,0.2-0.4,0.3-0.6,0.3l-1.2,0.3C145.2,87.8,151.7,93.6,152.6,93.6"/>
	<path class="st30" d="M411.2,74.8l-0.7,2.9c-0.1,0.3-0.4,0.6-0.8,0.6c-0.4,0-0.7-0.3-0.8-0.7l-0.4-3c-0.1-0.8,0.5-1.5,1.3-1.5h0
		C410.8,73.1,411.4,73.9,411.2,74.8"/>
	<path class="st28" d="M392.1,74.8l0.7,2.9c0.1,0.3,0.4,0.6,0.8,0.6c0.4,0,0.7-0.3,0.8-0.7l0.4-3c0.1-0.8-0.5-1.5-1.3-1.5h0
		C392.6,73.1,391.9,73.9,392.1,74.8"/>
</g>
<polygon class="st12" points="407.5,87.5 407.5,83 395.8,83 395.8,87.5 401.6,92.7 "/>
<g>
	<defs>
		<rect id="SVGID_19_" x="-24" y="-79" width="595.3" height="841.9"/>
	</defs>
	<clipPath id="SVGID_20_">
		<use xlink:href="#SVGID_19_"  style="overflow:visible;"/>
	</clipPath>
	<path class="st31" d="M416.5,89.6l-8.7-2.2c-0.1,0-0.2-0.1-0.3-0.1l-5.9,4.1l-5.6-4.3c-0.2,0.2-0.4,0.3-0.6,0.3l-8.7,2.2
		c-1.2,0.3-2,1.3-2,2.5v5.1c0,0.7,0.6,1.3,1.3,1.3h31.2c0.7,0,1.3-0.6,1.3-1.3v-5.1C418.6,91,417.7,89.9,416.5,89.6"/>
	<path class="st32" d="M395.8,82.8v4.5c7.4,2.8,11.7-3.5,11.7-3.5V83h-11.7V82.8z"/>
	<path class="st33" d="M393.2,68l0.6,12.5c0.1,1.2,0.6,2.2,1.6,2.9l2.7,2c0.7,0.5,1.5,0.8,2.3,0.8h2.6c0.8,0,1.7-0.3,2.3-0.8l2.7-2
		c0.9-0.7,1.5-1.8,1.6-2.9l0.6-12.5H393.2z"/>
	<path class="st32" d="M399.7,70.6c2.6,0,6.5-0.7,7.4-2.6l-4.2-1.1l-9.7,1.1l0.6,12.5c0.1,1.2,0.6,2.2,1.6,2.9l2.7,2
		c0.7,0.5,1.5,0.8,2.3,0.8h1.3c-1.3,0-3.9-2.6-3.9-5.9v-7.8C397.7,71.9,398.4,70.6,399.7,70.6"/>
	<path class="st31" d="M389.5,94.4l-4.2-3.8c-0.4,0.4-0.6,1-0.6,1.6v5.1c0,0.7,0.6,1.3,1.3,1.3h4.6v-1.8
		C390.6,95.9,390.2,95,389.5,94.4"/>
	<path class="st31" d="M413.8,94.4l4.2-3.8c0.4,0.4,0.6,1,0.6,1.6v5.1c0,0.7-0.6,1.3-1.3,1.3h-4.6v-1.8
		C412.7,95.9,413.1,95,413.8,94.4"/>
	<path class="st34" d="M408.3,64.7c1-2.3-1.4-2.6-1.4-2.6s-3.1,0.1-9,0.1c-5.9,0-6,5.6-6,8.9c0,3.2,1.5,1,1.6,4.7l0,0v-4.4
		c0-1.4,0.8-3,2.9-3s1.1,0,2.9,0c1.8,0,2.6-1.5,4-1.1c1.4,0.4,2.8,1,3.9,1.3c1.1,0.3,2.3,1.5,2.3,3v5.1c0.1-1.8,1.6-2.4,1.6-4.2
		v-4.8C411.1,66.2,409.4,65,408.3,64.7"/>
	<path class="st34" d="M405.4,72.4c-1.4,0-2.1,0.5-2.1,1.5c0,1.2,0.9,2.1,2.1,2.1c1.2,0,2.1-0.9,2.1-2.1
		C407.5,72.9,406.8,72.4,405.4,72.4 M405.4,76.9c-1.7,0-3-1.4-3-3c0-1.5,1.1-2.4,3-2.4c1.9,0,3,0.9,3,2.4
		C408.4,75.6,407.1,76.9,405.4,76.9"/>
	<path class="st34" d="M397.9,72.4c-1.4,0-2.1,0.5-2.1,1.5c0,1.2,0.9,2.1,2.1,2.1c1.2,0,2.1-0.9,2.1-2.1
		C400,72.9,399.2,72.4,397.9,72.4 M397.9,76.9c-1.7,0-3-1.4-3-3c0-1.5,1.1-2.4,3-2.4c1.9,0,3,0.9,3,2.4
		C400.9,75.6,399.5,76.9,397.9,76.9"/>
	<path class="st34" d="M402.6,74.3c-0.3-0.1-0.6-0.1-0.9-0.1s-0.7,0-0.9,0.1l-0.2-0.8c0.3-0.1,0.7-0.2,1.2-0.2
		c0.4,0,0.8,0.1,1.2,0.2L402.6,74.3z"/>
</g>
<rect x="393.3" y="73.3" class="st27" width="2.2" height="0.8"/>
<rect x="407.8" y="73.3" class="st27" width="2.2" height="0.8"/>
<g>
	<defs>
		<rect id="SVGID_21_" x="-24" y="-79" width="595.3" height="841.9"/>
	</defs>
	<clipPath id="SVGID_22_">
		<use xlink:href="#SVGID_21_"  style="overflow:visible;"/>
	</clipPath>
	<path class="st35" d="M407,62.1C406.9,62.1,406.9,62.1,407,62.1c0,0-0.1,0-0.2,0c-0.1,0-0.2,0-0.3,0c0-0.5-0.3-1-1-1.5
		c0.1,0.6-1.3,1.5-2.2,1.6c-1.4,0-3.2,0-5.3,0c-5.9,0-6,5.6-6,8.9c0,3.2,1.5,1,1.6,4.7l0,0v-4.4c0-1.4,0.8-3,2.9-3s1.1,0,2.9,0
		c0,0,0,0,0,0c0.1,0,0.1,0,0.2,0c9.6,0,10.1-6.3,10.1-6.3H407z"/>
	<path class="st36" d="M401.6,93.6c0.9,0,7.3-5.9,7.3-5.9l-1-0.3c-0.1,0-0.2-0.1-0.3-0.1l-5.9,4.1l-5.6-4.3
		c-0.2,0.2-0.4,0.3-0.6,0.3l-1.2,0.3C394.2,87.8,400.7,93.6,401.6,93.6"/>
	<g class="st37">
		<g>
			<defs>
				<rect id="SVGID_23_" x="221" y="66.8" width="98.6" height="18.1"/>
			</defs>
			<clipPath id="SVGID_24_">
				<use xlink:href="#SVGID_23_"  style="overflow:visible;"/>
			</clipPath>
			<path class="st38" d="M232,73.8c0,4.5,17.1,8.1,38.3,8.1c21.1,0,38.3-3.6,38.3-8.1"/>
		</g>
	</g>
</g>
<polyline class="st39" points="252,56.5 248,64.3 255,69.5 "/>
<g>
	<defs>
		<rect id="SVGID_25_" x="-24" y="-79" width="595.3" height="841.9"/>
	</defs>
	<clipPath id="SVGID_26_">
		<use xlink:href="#SVGID_25_"  style="overflow:visible;"/>
	</clipPath>
	<g class="st40">
		<g>
			<defs>
				<rect id="SVGID_27_" x="242.6" y="47.7" width="27.6" height="23.2"/>
			</defs>
			<clipPath id="SVGID_28_">
				<use xlink:href="#SVGID_27_"  style="overflow:visible;"/>
			</clipPath>
			<polyline class="st41" points="257.4,55.6 253.1,63.3 259.9,68.7 			"/>
		</g>
	</g>
	<g class="st42">
		<g>
			<defs>
				<rect id="SVGID_29_" x="247.2" y="45.3" width="30" height="26.2"/>
			</defs>
			<clipPath id="SVGID_30_">
				<use xlink:href="#SVGID_29_"  style="overflow:visible;"/>
			</clipPath>
			<polyline class="st43" points="263.6,54.9 258.5,62 264.6,68.2 			"/>
		</g>
	</g>
</g>
<polyline class="st39" points="289.2,88.2 293.9,80.7 286.9,75.4 "/>
<g>
	<defs>
		<rect id="SVGID_31_" x="-24" y="-79" width="595.3" height="841.9"/>
	</defs>
	<clipPath id="SVGID_32_">
		<use xlink:href="#SVGID_31_"  style="overflow:visible;"/>
	</clipPath>
	<g class="st44">
		<g>
			<defs>
				<rect id="SVGID_33_" x="272.4" y="74.3" width="26.9" height="22.1"/>
			</defs>
			<clipPath id="SVGID_34_">
				<use xlink:href="#SVGID_33_"  style="overflow:visible;"/>
			</clipPath>
			<polyline class="st45" points="284.3,88.9 289,81.3 282,76.1 			"/>
		</g>
	</g>
	<g class="st46">
		<g>
			<defs>
				<rect id="SVGID_35_" x="267.9" y="75" width="26.9" height="22.1"/>
			</defs>
			<clipPath id="SVGID_36_">
				<use xlink:href="#SVGID_35_"  style="overflow:visible;"/>
			</clipPath>
			<polyline class="st47" points="279.8,89.6 284.5,82 277.5,76.8 			"/>
		</g>
	</g>
</g>
<text transform="matrix(1 0 0 1 123.2627 42.7596)" class="st7 st8 st9">Buy Side</text>
<text transform="matrix(1 0 0 1 380.1826 42.7596)" class="st7 st8 st9">Sell Side</text>
<g>
	<defs>
		<rect id="SVGID_37_" x="-24" y="-79" width="595.3" height="841.9"/>
	</defs>
	<clipPath id="SVGID_38_">
		<use xlink:href="#SVGID_37_"  style="overflow:visible;"/>
	</clipPath>
	<g class="st48">
		<g>
			<defs>
				<rect id="SVGID_39_" x="433.5" y="44" width="69.3" height="53.6"/>
			</defs>
			<clipPath id="SVGID_40_">
				<use xlink:href="#SVGID_39_"  style="overflow:visible;"/>
			</clipPath>
			<path class="st49" d="M478.1,71.8l-0.8,3.1c-0.1,0.4-0.4,0.6-0.8,0.6c-0.4,0-0.8-0.3-0.8-0.7l-0.4-3.1c-0.1-0.8,0.5-1.6,1.4-1.6
				C477.7,70,478.4,70.9,478.1,71.8"/>
			<path class="st50" d="M458.2,71.8l0.8,3.1c0.1,0.4,0.4,0.6,0.8,0.6c0.4,0,0.8-0.3,0.8-0.7l0.4-3.1c0.1-0.8-0.5-1.6-1.4-1.6
				C458.7,70,458,70.9,458.2,71.8"/>
			<polygon class="st51" points="474.2,85 474.2,80.3 462,80.3 462,85 468.1,90.5 			"/>
			<path class="st50" d="M483.7,87.3l-9.1-2.3c-0.1,0-0.2-0.1-0.4-0.1l-6.2,4.3l-5.9-4.5c-0.2,0.2-0.4,0.3-0.6,0.3l-9.1,2.3
				c-1.2,0.3-2.1,1.4-2.1,2.6v5.3c0,0.8,0.6,1.4,1.4,1.4h32.6c0.8,0,1.4-0.6,1.4-1.4v-5.3C485.8,88.6,484.9,87.5,483.7,87.3"/>
			<path class="st52" d="M462,80.1v4.7c7.7,2.9,12.2-3.7,12.2-3.7v-0.8H462V80.1z"/>
			<path class="st51" d="M459.3,64.7l0.6,13c0.1,1.2,0.7,2.3,1.6,3.1l2.8,2.1c0.7,0.5,1.6,0.8,2.4,0.8h2.7c0.9,0,1.7-0.3,2.4-0.8
				l2.8-2.1c1-0.7,1.6-1.9,1.6-3.1l0.6-13H459.3z"/>
			<path class="st52" d="M466.1,67.4c2.7,0,6.8-0.7,7.8-2.7l-4.4-1.1l-10.1,1.1l0.6,13c0.1,1.2,0.7,2.3,1.6,3.1l2.8,2.1
				c0.7,0.5,1.6,0.8,2.4,0.8h1.4c-1.4,0-4.1-2.7-4.1-6.1v-8.1C464.1,68.7,464.7,67.4,466.1,67.4"/>
			<path class="st50" d="M455.5,92.2l-4.4-4c-0.4,0.5-0.6,1.1-0.6,1.7v5.3c0,0.8,0.6,1.4,1.4,1.4h4.8v-1.9
				C456.6,93.7,456.2,92.8,455.5,92.2"/>
			<path class="st50" d="M480.8,92.2l4.4-4c0.4,0.5,0.6,1.1,0.6,1.7v5.3c0,0.8-0.6,1.4-1.4,1.4h-4.8v-1.9
				C479.7,93.7,480.1,92.8,480.8,92.2"/>
			<path class="st49" d="M475.1,61.3c1.1-2.4-1.5-2.7-1.5-2.7s-3.2,0.1-9.4,0.1S458,64.6,458,68c0,3.3,1.5,1.1,1.6,4.9l0,0v-4.6
				c0-1.4,0.9-3.1,3-3.1c2.1,0,1.1,0,3,0s2.7-1.5,4.2-1.1c1.5,0.4,2.9,1,4,1.4c1.1,0.4,2.4,1.6,2.4,3.1v5.3c0.1-1.9,1.7-2.5,1.7-4.4
				v-5C478,62.8,476.3,61.6,475.1,61.3"/>
			<path class="st49" d="M472.1,69.3c-1.5,0-2.2,0.5-2.2,1.5c0,1.2,1,2.2,2.2,2.2c1.2,0,2.2-1,2.2-2.2
				C474.3,69.8,473.5,69.3,472.1,69.3 M472.1,74c-1.7,0-3.2-1.4-3.2-3.2c0-1.6,1.2-2.5,3.2-2.5c2,0,3.2,0.9,3.2,2.5
				C475.2,72.6,473.8,74,472.1,74"/>
			<path class="st49" d="M464.2,69.3c-1.5,0-2.2,0.5-2.2,1.5c0,1.2,1,2.2,2.2,2.2c1.2,0,2.2-1,2.2-2.2
				C466.4,69.8,465.6,69.3,464.2,69.3 M464.2,74c-1.7,0-3.2-1.4-3.2-3.2c0-1.6,1.2-2.5,3.2-2.5c2,0,3.2,0.9,3.2,2.5
				C467.3,72.6,465.9,74,464.2,74"/>
			<path class="st49" d="M469.1,71.2c-0.3-0.1-0.6-0.1-1-0.1c-0.4,0-0.7,0-1,0.1l-0.3-0.8c0.4-0.1,0.8-0.2,1.2-0.2s0.9,0.1,1.2,0.2
				L469.1,71.2z"/>
			<rect x="459.4" y="70.2" class="st49" width="2.3" height="0.9"/>
			<rect x="474.5" y="70.2" class="st49" width="2.3" height="0.9"/>
			<path class="st50" d="M473.7,58.5C473.7,58.5,473.6,58.5,473.7,58.5c0,0-0.1,0-0.2,0c-0.1,0-0.2,0-0.3,0c0-0.5-0.3-1-1.1-1.6
				c0.1,0.7-1.3,1.5-2.3,1.7c-1.5,0-3.3,0-5.6,0c-6.1,0-6.3,5.9-6.3,9.3c0,3.3,1.5,1.1,1.6,4.9l0,0v-4.6c0-1.4,0.9-3.1,3-3.1
				c2.1,0,1.1,0,3,0c0,0,0,0,0,0c0.1,0,0.1,0,0.2,0c10,0,10.5-6.6,10.5-6.6H473.7z"/>
			<path class="st52" d="M468.1,91.4c0.9,0,7.6-6.2,7.6-6.2l-1.1-0.3c-0.1,0-0.2-0.1-0.4-0.1l-6.2,4.3l-5.9-4.5
				c-0.2,0.2-0.4,0.3-0.6,0.3l-1.3,0.3C460.3,85.3,467.2,91.4,468.1,91.4"/>
		</g>
	</g>
	<g class="st48">
		<g>
			<defs>
				<rect id="SVGID_41_" x="31.9" y="44" width="69.3" height="53.6"/>
			</defs>
			<clipPath id="SVGID_42_">
				<use xlink:href="#SVGID_41_"  style="overflow:visible;"/>
			</clipPath>
			<path class="st53" d="M76.6,71.8l-0.8,3.1c-0.1,0.4-0.4,0.6-0.8,0.6c-0.4,0-0.8-0.3-0.8-0.7l-0.4-3.1c-0.1-0.8,0.5-1.6,1.4-1.6
				C76.1,70,76.8,70.9,76.6,71.8"/>
			<path class="st54" d="M56.7,71.8l0.8,3.1c0.1,0.4,0.4,0.6,0.8,0.6c0.4,0,0.8-0.3,0.8-0.7l0.4-3.1c0.1-0.8-0.5-1.6-1.4-1.6
				C57.1,70,56.4,70.9,56.7,71.8"/>
			<polygon class="st55" points="72.7,85 72.7,80.3 60.5,80.3 60.5,85 66.6,90.5 			"/>
			<path class="st54" d="M82.1,87.3L73.1,85c-0.1,0-0.2-0.1-0.4-0.1l-6.2,4.3l-5.9-4.5c-0.2,0.2-0.4,0.3-0.6,0.3L51,87.3
				c-1.2,0.3-2.1,1.4-2.1,2.6v5.3c0,0.8,0.6,1.4,1.4,1.4h32.6c0.8,0,1.4-0.6,1.4-1.4v-5.3C84.2,88.6,83.4,87.5,82.1,87.3"/>
			<path class="st56" d="M60.5,80.1v4.7c7.7,2.9,12.2-3.7,12.2-3.7v-0.8H60.5V80.1z"/>
			<path class="st55" d="M57.7,64.7l0.6,13c0.1,1.2,0.7,2.3,1.6,3.1l2.8,2.1c0.7,0.5,1.6,0.8,2.4,0.8h2.7c0.9,0,1.7-0.3,2.4-0.8
				l2.8-2.1c1-0.7,1.6-1.9,1.6-3.1l0.6-13H57.7z"/>
			<path class="st56" d="M64.5,67.4c2.7,0,6.8-0.7,7.8-2.7l-4.4-1.1l-10.1,1.1l0.6,13c0.1,1.2,0.7,2.3,1.6,3.1l2.8,2.1
				c0.7,0.5,1.6,0.8,2.4,0.8h1.4c-1.4,0-4.1-2.7-4.1-6.1v-8.1C62.5,68.7,63.2,67.4,64.5,67.4"/>
			<path class="st54" d="M53.9,92.2l-4.4-4c-0.4,0.5-0.6,1.1-0.6,1.7v5.3c0,0.8,0.6,1.4,1.4,1.4H55v-1.9
				C55,93.7,54.6,92.8,53.9,92.2"/>
			<path class="st54" d="M79.2,92.2l4.4-4c0.4,0.5,0.6,1.1,0.6,1.7v5.3c0,0.8-0.6,1.4-1.4,1.4h-4.8v-1.9
				C78.1,93.7,78.5,92.8,79.2,92.2"/>
			<path class="st53" d="M73.6,61.3c1.1-2.4-1.5-2.7-1.5-2.7s-3.2,0.1-9.4,0.1c-6.1,0-6.3,5.9-6.3,9.3c0,3.3,1.5,1.1,1.6,4.9l0,0
				v-4.6c0-1.4,0.9-3.1,3-3.1c2.1,0,1.1,0,3,0s2.7-1.5,4.2-1.1c1.5,0.4,2.9,1,4.1,1.4c1.1,0.4,2.4,1.6,2.4,3.1v5.3
				c0.1-1.9,1.7-2.5,1.7-4.4v-5C76.4,62.8,74.7,61.6,73.6,61.3"/>
			<path class="st53" d="M70.5,69.3c-1.5,0-2.2,0.5-2.2,1.5c0,1.2,1,2.2,2.2,2.2c1.2,0,2.2-1,2.2-2.2C72.7,69.8,72,69.3,70.5,69.3
				 M70.5,74c-1.7,0-3.2-1.4-3.2-3.2c0-1.6,1.2-2.5,3.2-2.5s3.2,0.9,3.2,2.5C73.7,72.6,72.3,74,70.5,74"/>
			<path class="st53" d="M62.6,69.3c-1.5,0-2.2,0.5-2.2,1.5c0,1.2,1,2.2,2.2,2.2c1.2,0,2.2-1,2.2-2.2C64.8,69.8,64.1,69.3,62.6,69.3
				 M62.6,74c-1.7,0-3.2-1.4-3.2-3.2c0-1.6,1.2-2.5,3.2-2.5s3.2,0.9,3.2,2.5C65.8,72.6,64.4,74,62.6,74"/>
			<path class="st53" d="M67.6,71.2c-0.3-0.1-0.6-0.1-1-0.1c-0.4,0-0.7,0-1,0.1l-0.3-0.8c0.4-0.1,0.8-0.2,1.2-0.2
				c0.5,0,0.9,0.1,1.2,0.2L67.6,71.2z"/>
			<rect x="57.9" y="70.2" class="st53" width="2.3" height="0.9"/>
			<rect x="73" y="70.2" class="st53" width="2.3" height="0.9"/>
			<path class="st54" d="M72.1,58.5C72.1,58.5,72.1,58.5,72.1,58.5c0,0-0.1,0-0.2,0c-0.1,0-0.2,0-0.3,0c0-0.5-0.3-1-1.1-1.6
				c0.1,0.7-1.3,1.5-2.3,1.7c-1.5,0-3.3,0-5.6,0c-6.1,0-6.3,5.9-6.3,9.3c0,3.3,1.5,1.1,1.6,4.9l0,0v-4.6c0-1.4,0.9-3.1,3-3.1
				c2.1,0,1.1,0,3,0c0,0,0,0,0,0c0.1,0,0.1,0,0.2,0c10,0,10.5-6.6,10.5-6.6H72.1z"/>
			<path class="st56" d="M66.6,91.4c0.9,0,7.6-6.2,7.6-6.2L73.1,85c-0.1,0-0.2-0.1-0.4-0.1l-6.2,4.3l-5.9-4.5
				c-0.2,0.2-0.4,0.3-0.6,0.3l-1.3,0.3C58.8,85.3,65.6,91.4,66.6,91.4"/>
		</g>
	</g>
	<g class="st48">
		<g>
			<defs>
				<rect id="SVGID_43_" x="456.7" y="44" width="69.3" height="53.6"/>
			</defs>
			<clipPath id="SVGID_44_">
				<use xlink:href="#SVGID_43_"  style="overflow:visible;"/>
			</clipPath>
			<path class="st57" d="M501.3,71.8l-0.8,3.1c-0.1,0.4-0.4,0.6-0.8,0.6c-0.4,0-0.8-0.3-0.8-0.7l-0.4-3.1c-0.1-0.8,0.5-1.6,1.4-1.6
				C500.9,70,501.6,70.9,501.3,71.8"/>
			<path class="st58" d="M481.4,71.8l0.8,3.1c0.1,0.4,0.4,0.6,0.8,0.6c0.4,0,0.8-0.3,0.8-0.7l0.4-3.1c0.1-0.8-0.5-1.6-1.4-1.6
				C481.9,70,481.2,70.9,481.4,71.8"/>
			<polygon class="st59" points="497.4,85 497.4,80.3 485.2,80.3 485.2,85 491.3,90.5 			"/>
			<path class="st58" d="M506.9,87.3l-9.1-2.3c-0.1,0-0.2-0.1-0.4-0.1l-6.2,4.3l-5.9-4.5c-0.2,0.2-0.4,0.3-0.6,0.3l-9.1,2.3
				c-1.2,0.3-2.1,1.4-2.1,2.6v5.3c0,0.8,0.6,1.4,1.4,1.4h32.6c0.8,0,1.4-0.6,1.4-1.4v-5.3C509,88.6,508.1,87.5,506.9,87.3"/>
			<path class="st60" d="M485.2,80.1v4.7c7.7,2.9,12.2-3.7,12.2-3.7v-0.8h-12.2V80.1z"/>
			<path class="st59" d="M482.5,64.7l0.6,13c0.1,1.2,0.7,2.3,1.6,3.1l2.8,2.1c0.7,0.5,1.6,0.8,2.4,0.8h2.7c0.9,0,1.7-0.3,2.4-0.8
				l2.8-2.1c1-0.7,1.6-1.9,1.6-3.1l0.6-13H482.5z"/>
			<path class="st60" d="M489.3,67.4c2.7,0,6.8-0.7,7.8-2.7l-4.4-1.1l-10.1,1.1l0.6,13c0.1,1.2,0.7,2.3,1.6,3.1l2.8,2.1
				c0.7,0.5,1.6,0.8,2.4,0.8h1.4c-1.4,0-4.1-2.7-4.1-6.1v-8.1C487.3,68.7,487.9,67.4,489.3,67.4"/>
			<path class="st58" d="M478.7,92.2l-4.4-4c-0.4,0.5-0.6,1.1-0.6,1.7v5.3c0,0.8,0.6,1.4,1.4,1.4h4.8v-1.9
				C479.8,93.7,479.4,92.8,478.7,92.2"/>
			<path class="st58" d="M504,92.2l4.4-4c0.4,0.5,0.6,1.1,0.6,1.7v5.3c0,0.8-0.6,1.4-1.4,1.4h-4.8v-1.9
				C502.9,93.7,503.3,92.8,504,92.2"/>
			<path class="st57" d="M498.3,61.3c1.1-2.4-1.5-2.7-1.5-2.7s-3.2,0.1-9.4,0.1c-6.1,0-6.3,5.9-6.3,9.3c0,3.3,1.5,1.1,1.6,4.9l0,0
				v-4.6c0-1.4,0.9-3.1,3-3.1c2.1,0,1.1,0,3,0c1.9,0,2.7-1.5,4.2-1.1c1.5,0.4,2.9,1,4,1.4c1.1,0.4,2.4,1.6,2.4,3.1v5.3
				c0.1-1.9,1.7-2.5,1.7-4.4v-5C501.2,62.8,499.5,61.6,498.3,61.3"/>
			<path class="st57" d="M495.3,69.3c-1.5,0-2.2,0.5-2.2,1.5c0,1.2,1,2.2,2.2,2.2c1.2,0,2.2-1,2.2-2.2
				C497.5,69.8,496.7,69.3,495.3,69.3 M495.3,74c-1.7,0-3.2-1.4-3.2-3.2c0-1.6,1.2-2.5,3.2-2.5c2,0,3.2,0.9,3.2,2.5
				C498.4,72.6,497,74,495.3,74"/>
			<path class="st57" d="M487.4,69.3c-1.5,0-2.2,0.5-2.2,1.5c0,1.2,1,2.2,2.2,2.2c1.2,0,2.2-1,2.2-2.2
				C489.6,69.8,488.8,69.3,487.4,69.3 M487.4,74c-1.7,0-3.2-1.4-3.2-3.2c0-1.6,1.2-2.5,3.2-2.5c2,0,3.2,0.9,3.2,2.5
				C490.6,72.6,489.1,74,487.4,74"/>
			<path class="st57" d="M492.3,71.2c-0.3-0.1-0.6-0.1-1-0.1c-0.4,0-0.7,0-1,0.1l-0.3-0.8c0.4-0.1,0.8-0.2,1.2-0.2
				c0.5,0,0.9,0.1,1.2,0.2L492.3,71.2z"/>
			<rect x="482.6" y="70.2" class="st57" width="2.3" height="0.9"/>
			<rect x="497.7" y="70.2" class="st57" width="2.3" height="0.9"/>
			<path class="st58" d="M496.9,58.5C496.9,58.5,496.9,58.5,496.9,58.5c0,0-0.1,0-0.2,0c-0.1,0-0.2,0-0.3,0c0-0.5-0.3-1-1.1-1.6
				c0.1,0.7-1.3,1.5-2.3,1.7c-1.5,0-3.3,0-5.6,0c-6.1,0-6.3,5.9-6.3,9.3c0,3.3,1.5,1.1,1.6,4.9l0,0v-4.6c0-1.4,0.9-3.1,3-3.1
				c2.1,0,1.1,0,3,0c0,0,0,0,0,0c0.1,0,0.1,0,0.2,0c10,0,10.5-6.6,10.5-6.6H496.9z"/>
			<path class="st60" d="M491.3,91.4c0.9,0,7.6-6.2,7.6-6.2l-1.1-0.3c-0.1,0-0.2-0.1-0.4-0.1l-6.2,4.3l-5.9-4.5
				c-0.2,0.2-0.4,0.3-0.6,0.3l-1.3,0.3C483.5,85.3,490.4,91.4,491.3,91.4"/>
		</g>
	</g>
	<g class="st48">
		<g>
			<defs>
				<rect id="SVGID_45_" x="55.1" y="44" width="69.3" height="53.6"/>
			</defs>
			<clipPath id="SVGID_46_">
				<use xlink:href="#SVGID_45_"  style="overflow:visible;"/>
			</clipPath>
			<path class="st61" d="M99.8,71.8L99,74.8c-0.1,0.4-0.4,0.6-0.8,0.6c-0.4,0-0.8-0.3-0.8-0.7L97,71.6c-0.1-0.8,0.5-1.6,1.4-1.6
				C99.3,70,100,70.9,99.8,71.8"/>
			<path class="st62" d="M79.9,71.8l0.8,3.1c0.1,0.4,0.4,0.6,0.8,0.6c0.4,0,0.8-0.3,0.8-0.7l0.4-3.1c0.1-0.8-0.5-1.6-1.4-1.6
				C80.3,70,79.6,70.9,79.9,71.8"/>
			<polygon class="st63" points="95.9,85 95.9,80.3 83.7,80.3 83.7,85 89.8,90.5 			"/>
			<path class="st62" d="M105.3,87.3L96.3,85c-0.1,0-0.2-0.1-0.4-0.1l-6.2,4.3l-5.9-4.5c-0.2,0.2-0.4,0.3-0.6,0.3l-9.1,2.3
				c-1.2,0.3-2.1,1.4-2.1,2.6v5.3c0,0.8,0.6,1.4,1.4,1.4h32.6c0.8,0,1.4-0.6,1.4-1.4v-5.3C107.4,88.6,106.6,87.5,105.3,87.3"/>
			<path class="st64" d="M83.7,80.1v4.7c7.7,2.9,12.2-3.7,12.2-3.7v-0.8H83.7V80.1z"/>
			<path class="st63" d="M80.9,64.7l0.6,13c0.1,1.2,0.7,2.3,1.6,3.1l2.8,2.1c0.7,0.5,1.6,0.8,2.4,0.8h2.7c0.9,0,1.7-0.3,2.4-0.8
				l2.8-2.1c1-0.7,1.6-1.9,1.6-3.1l0.6-13H80.9z"/>
			<path class="st64" d="M87.7,67.4c2.7,0,6.8-0.7,7.8-2.7l-4.4-1.1l-10.1,1.1l0.6,13c0.1,1.2,0.7,2.3,1.6,3.1l2.8,2.1
				c0.7,0.5,1.6,0.8,2.4,0.8h1.4c-1.4,0-4.1-2.7-4.1-6.1v-8.1C85.7,68.7,86.4,67.4,87.7,67.4"/>
			<path class="st62" d="M77.1,92.2l-4.4-4c-0.4,0.5-0.6,1.1-0.6,1.7v5.3c0,0.8,0.6,1.4,1.4,1.4h4.8v-1.9
				C78.2,93.7,77.8,92.8,77.1,92.2"/>
			<path class="st62" d="M102.4,92.2l4.4-4c0.4,0.5,0.6,1.1,0.6,1.7v5.3c0,0.8-0.6,1.4-1.4,1.4h-4.8v-1.9
				C101.3,93.7,101.7,92.8,102.4,92.2"/>
			<path class="st61" d="M96.8,61.3c1.1-2.4-1.5-2.7-1.5-2.7s-3.2,0.1-9.4,0.1c-6.1,0-6.3,5.9-6.3,9.3c0,3.3,1.5,1.1,1.6,4.9l0,0
				v-4.6c0-1.4,0.9-3.1,3-3.1c2.1,0,1.1,0,3,0s2.7-1.5,4.2-1.1c1.5,0.4,2.9,1,4.1,1.4c1.1,0.4,2.4,1.6,2.4,3.1v5.3
				c0.1-1.9,1.7-2.5,1.7-4.4v-5C99.6,62.8,97.9,61.6,96.8,61.3"/>
			<path class="st61" d="M93.7,69.3c-1.5,0-2.2,0.5-2.2,1.5c0,1.2,1,2.2,2.2,2.2c1.2,0,2.2-1,2.2-2.2C95.9,69.8,95.2,69.3,93.7,69.3
				 M93.7,74c-1.7,0-3.2-1.4-3.2-3.2c0-1.6,1.2-2.5,3.2-2.5s3.2,0.9,3.2,2.5C96.9,72.6,95.5,74,93.7,74"/>
			<path class="st61" d="M85.8,69.3c-1.5,0-2.2,0.5-2.2,1.5c0,1.2,1,2.2,2.2,2.2c1.2,0,2.2-1,2.2-2.2C88,69.8,87.3,69.3,85.8,69.3
				 M85.8,74c-1.7,0-3.2-1.4-3.2-3.2c0-1.6,1.2-2.5,3.2-2.5s3.2,0.9,3.2,2.5C89,72.6,87.6,74,85.8,74"/>
			<path class="st61" d="M90.8,71.2c-0.3-0.1-0.6-0.1-1-0.1c-0.4,0-0.7,0-1,0.1l-0.3-0.8c0.4-0.1,0.8-0.2,1.2-0.2
				c0.5,0,0.9,0.1,1.2,0.2L90.8,71.2z"/>
			<rect x="81.1" y="70.2" class="st61" width="2.3" height="0.9"/>
			<rect x="96.2" y="70.2" class="st61" width="2.3" height="0.9"/>
			<path class="st62" d="M95.3,58.5C95.3,58.5,95.3,58.5,95.3,58.5c0,0-0.1,0-0.2,0c-0.1,0-0.2,0-0.3,0c0-0.5-0.3-1-1.1-1.6
				c0.1,0.7-1.3,1.5-2.3,1.7c-1.5,0-3.3,0-5.6,0c-6.1,0-6.3,5.9-6.3,9.3c0,3.3,1.5,1.1,1.6,4.9l0,0v-4.6c0-1.4,0.9-3.1,3-3.1
				c2.1,0,1.1,0,3,0c0,0,0,0,0,0c0.1,0,0.1,0,0.2,0c10,0,10.5-6.6,10.5-6.6H95.3z"/>
			<path class="st64" d="M89.8,91.4c0.9,0,7.6-6.2,7.6-6.2L96.3,85c-0.1,0-0.2-0.1-0.4-0.1l-6.2,4.3l-5.9-4.5
				c-0.2,0.2-0.4,0.3-0.6,0.3L82,85.3C82,85.3,88.8,91.4,89.8,91.4"/>
		</g>
	</g>
	<path class="st65" d="M489.7,71.8l-0.8,3.1c-0.1,0.4-0.4,0.6-0.8,0.6c-0.4,0-0.8-0.3-0.8-0.7l-0.4-3.1c-0.1-0.8,0.5-1.6,1.4-1.6
		C489.3,70,490,70.9,489.7,71.8"/>
	<path class="st66" d="M469.8,71.8l0.8,3.1c0.1,0.4,0.4,0.6,0.8,0.6c0.4,0,0.8-0.3,0.8-0.7l0.4-3.1c0.1-0.8-0.5-1.6-1.4-1.6
		C470.3,70,469.6,70.9,469.8,71.8"/>
</g>
<polygon class="st12" points="485.8,85 485.8,80.3 473.6,80.3 473.6,85 479.7,90.5 "/>
<g>
	<defs>
		<rect id="SVGID_47_" x="-24" y="-79" width="595.3" height="841.9"/>
	</defs>
	<clipPath id="SVGID_48_">
		<use xlink:href="#SVGID_47_"  style="overflow:visible;"/>
	</clipPath>
	<path class="st67" d="M495.3,87.3l-9.1-2.3c-0.1,0-0.2-0.1-0.4-0.1l-6.2,4.3l-5.9-4.5c-0.2,0.2-0.4,0.3-0.6,0.3l-9.1,2.3
		c-1.2,0.3-2.1,1.4-2.1,2.6v5.3c0,0.8,0.6,1.4,1.4,1.4H496c0.8,0,1.4-0.6,1.4-1.4v-5.3C497.4,88.6,496.5,87.5,495.3,87.3"/>
	<path class="st68" d="M473.6,80.1v4.7c7.7,2.9,12.2-3.7,12.2-3.7v-0.8h-12.2V80.1z"/>
	<path class="st69" d="M470.9,64.7l0.6,13c0.1,1.2,0.7,2.3,1.6,3.1l2.8,2.1c0.7,0.5,1.6,0.8,2.4,0.8h2.7c0.9,0,1.7-0.3,2.4-0.8
		l2.8-2.1c1-0.7,1.6-1.9,1.6-3.1l0.6-13H470.9z"/>
	<path class="st68" d="M477.7,67.4c2.7,0,6.8-0.7,7.8-2.7l-4.4-1.1l-10.1,1.1l0.6,13c0.1,1.2,0.7,2.3,1.6,3.1l2.8,2.1
		c0.7,0.5,1.6,0.8,2.4,0.8h1.4c-1.4,0-4.1-2.7-4.1-6.1v-8.1C475.7,68.7,476.3,67.4,477.7,67.4"/>
	<path class="st67" d="M467.1,92.2l-4.4-4c-0.4,0.5-0.6,1.1-0.6,1.7v5.3c0,0.8,0.6,1.4,1.4,1.4h4.8v-1.9
		C468.2,93.7,467.8,92.8,467.1,92.2"/>
	<path class="st67" d="M492.4,92.2l4.4-4c0.4,0.5,0.6,1.1,0.6,1.7v5.3c0,0.8-0.6,1.4-1.4,1.4h-4.8v-1.9
		C491.3,93.7,491.7,92.8,492.4,92.2"/>
	<path class="st70" d="M486.7,61.3c1.1-2.4-1.5-2.7-1.5-2.7s-3.2,0.1-9.4,0.1s-6.3,5.9-6.3,9.3c0,3.3,1.5,1.1,1.6,4.9l0,0v-4.6
		c0-1.4,0.9-3.1,3-3.1c2.1,0,1.1,0,3,0s2.7-1.5,4.2-1.1c1.5,0.4,2.9,1,4,1.4c1.1,0.4,2.4,1.6,2.4,3.1v5.3c0.1-1.9,1.7-2.5,1.7-4.4
		v-5C489.6,62.8,487.9,61.6,486.7,61.3"/>
	<path class="st70" d="M483.7,69.3c-1.5,0-2.2,0.5-2.2,1.5c0,1.2,1,2.2,2.2,2.2c1.2,0,2.2-1,2.2-2.2
		C485.9,69.8,485.1,69.3,483.7,69.3 M483.7,74c-1.7,0-3.2-1.4-3.2-3.2c0-1.6,1.2-2.5,3.2-2.5c2,0,3.2,0.9,3.2,2.5
		C486.8,72.6,485.4,74,483.7,74"/>
	<path class="st70" d="M475.8,69.3c-1.5,0-2.2,0.5-2.2,1.5c0,1.2,1,2.2,2.2,2.2c1.2,0,2.2-1,2.2-2.2C478,69.8,477.2,69.3,475.8,69.3
		 M475.8,74c-1.7,0-3.2-1.4-3.2-3.2c0-1.6,1.2-2.5,3.2-2.5c2,0,3.2,0.9,3.2,2.5C479,72.6,477.5,74,475.8,74"/>
	<path class="st70" d="M480.7,71.2c-0.3-0.1-0.6-0.1-1-0.1c-0.4,0-0.7,0-1,0.1l-0.3-0.8c0.4-0.1,0.8-0.2,1.2-0.2s0.9,0.1,1.2,0.2
		L480.7,71.2z"/>
</g>
<rect x="471" y="70.2" class="st27" width="2.3" height="0.9"/>
<rect x="486.1" y="70.2" class="st27" width="2.3" height="0.9"/>
<g>
	<defs>
		<rect id="SVGID_49_" x="-24" y="-79" width="595.3" height="841.9"/>
	</defs>
	<clipPath id="SVGID_50_">
		<use xlink:href="#SVGID_49_"  style="overflow:visible;"/>
	</clipPath>
	<path class="st71" d="M485.3,58.5C485.3,58.5,485.2,58.5,485.3,58.5c0,0-0.1,0-0.2,0c-0.1,0-0.2,0-0.3,0c0-0.5-0.3-1-1.1-1.6
		c0.1,0.7-1.3,1.5-2.3,1.7c-1.5,0-3.3,0-5.6,0c-6.1,0-6.3,5.9-6.3,9.3c0,3.3,1.5,1.1,1.6,4.9l0,0v-4.6c0-1.4,0.9-3.1,3-3.1
		c2.1,0,1.1,0,3,0c0,0,0,0,0,0c0.1,0,0.1,0,0.2,0c10,0,10.5-6.6,10.5-6.6H485.3z"/>
	<path class="st72" d="M479.7,91.4c0.9,0,7.6-6.2,7.6-6.2l-1.1-0.3c-0.1,0-0.2-0.1-0.4-0.1l-6.2,4.3l-5.9-4.5
		c-0.2,0.2-0.4,0.3-0.6,0.3l-1.3,0.3C471.9,85.3,478.8,91.4,479.7,91.4"/>
	<path class="st73" d="M88.2,71.8l-0.8,3.1c-0.1,0.4-0.4,0.6-0.8,0.6c-0.4,0-0.8-0.3-0.8-0.7l-0.4-3.1C85.3,70.8,86,70,86.8,70
		C87.7,70,88.4,70.9,88.2,71.8"/>
	<path class="st71" d="M68.3,71.8l0.8,3.1c0.1,0.4,0.4,0.6,0.8,0.6c0.4,0,0.8-0.3,0.8-0.7l0.4-3.1c0.1-0.8-0.5-1.6-1.4-1.6
		C68.7,70,68,70.9,68.3,71.8"/>
</g>
<polygon class="st12" points="84.3,85 84.3,80.3 72.1,80.3 72.1,85 78.2,90.5 "/>
<g>
	<defs>
		<rect id="SVGID_51_" x="-24" y="-79" width="595.3" height="841.9"/>
	</defs>
	<clipPath id="SVGID_52_">
		<use xlink:href="#SVGID_51_"  style="overflow:visible;"/>
	</clipPath>
	<path class="st74" d="M93.7,87.3L84.7,85c-0.1,0-0.2-0.1-0.4-0.1l-6.2,4.3l-5.9-4.5c-0.2,0.2-0.4,0.3-0.6,0.3l-9.1,2.3
		c-1.2,0.3-2.1,1.4-2.1,2.6v5.3c0,0.8,0.6,1.4,1.4,1.4h32.6c0.8,0,1.4-0.6,1.4-1.4v-5.3C95.8,88.6,95,87.5,93.7,87.3"/>
	<path class="st75" d="M72.1,80.1v4.7c7.7,2.9,12.2-3.7,12.2-3.7v-0.8H72.1V80.1z"/>
	<path class="st76" d="M69.3,64.7l0.6,13c0.1,1.2,0.7,2.3,1.6,3.1l2.8,2.1c0.7,0.5,1.6,0.8,2.4,0.8h2.7c0.9,0,1.7-0.3,2.4-0.8
		l2.8-2.1c1-0.7,1.6-1.9,1.6-3.1l0.6-13H69.3z"/>
	<path class="st75" d="M76.1,67.4c2.7,0,6.8-0.7,7.8-2.7l-4.4-1.1l-10.1,1.1l0.6,13c0.1,1.2,0.7,2.3,1.6,3.1l2.8,2.1
		c0.7,0.5,1.6,0.8,2.4,0.8h1.4c-1.4,0-4.1-2.7-4.1-6.1v-8.1C74.1,68.7,74.8,67.4,76.1,67.4"/>
	<path class="st74" d="M65.5,92.2l-4.4-4c-0.4,0.5-0.6,1.1-0.6,1.7v5.3c0,0.8,0.6,1.4,1.4,1.4h4.8v-1.9
		C66.6,93.7,66.2,92.8,65.5,92.2"/>
	<path class="st74" d="M90.8,92.2l4.4-4c0.4,0.5,0.6,1.1,0.6,1.7v5.3c0,0.8-0.6,1.4-1.4,1.4h-4.8v-1.9
		C89.7,93.7,90.1,92.8,90.8,92.2"/>
	<path class="st77" d="M85.2,61.3c1.1-2.4-1.5-2.7-1.5-2.7s-3.2,0.1-9.4,0.1c-6.1,0-6.3,5.9-6.3,9.3c0,3.3,1.5,1.1,1.6,4.9l0,0v-4.6
		c0-1.4,0.9-3.1,3-3.1c2.1,0,1.1,0,3,0s2.7-1.5,4.2-1.1c1.5,0.4,2.9,1,4.1,1.4c1.1,0.4,2.4,1.6,2.4,3.1v5.3c0.1-1.9,1.7-2.5,1.7-4.4
		v-5C88,62.8,86.3,61.6,85.2,61.3"/>
	<path class="st77" d="M82.1,69.3c-1.5,0-2.2,0.5-2.2,1.5c0,1.2,1,2.2,2.2,2.2c1.2,0,2.2-1,2.2-2.2C84.3,69.8,83.6,69.3,82.1,69.3
		 M82.1,74c-1.7,0-3.2-1.4-3.2-3.2c0-1.6,1.2-2.5,3.2-2.5s3.2,0.9,3.2,2.5C85.3,72.6,83.9,74,82.1,74"/>
	<path class="st77" d="M74.2,69.3c-1.5,0-2.2,0.5-2.2,1.5c0,1.2,1,2.2,2.2,2.2c1.2,0,2.2-1,2.2-2.2C76.4,69.8,75.7,69.3,74.2,69.3
		 M74.2,74c-1.7,0-3.2-1.4-3.2-3.2c0-1.6,1.2-2.5,3.2-2.5s3.2,0.9,3.2,2.5C77.4,72.6,76,74,74.2,74"/>
	<path class="st77" d="M79.2,71.2c-0.3-0.1-0.6-0.1-1-0.1c-0.4,0-0.7,0-1,0.1l-0.3-0.8c0.4-0.1,0.8-0.2,1.2-0.2
		c0.5,0,0.9,0.1,1.2,0.2L79.2,71.2z"/>
</g>
<rect x="69.5" y="70.2" class="st27" width="2.3" height="0.9"/>
<rect x="84.6" y="70.2" class="st27" width="2.3" height="0.9"/>
<g>
	<defs>
		<rect id="SVGID_53_" x="-24" y="-79" width="595.3" height="841.9"/>
	</defs>
	<clipPath id="SVGID_54_">
		<use xlink:href="#SVGID_53_"  style="overflow:visible;"/>
	</clipPath>
	<path class="st78" d="M83.7,58.5C83.7,58.5,83.7,58.5,83.7,58.5c0,0-0.1,0-0.2,0c-0.1,0-0.2,0-0.3,0c0-0.5-0.3-1-1.1-1.6
		c0.1,0.7-1.3,1.5-2.3,1.7c-1.5,0-3.3,0-5.6,0c-6.1,0-6.3,5.9-6.3,9.3c0,3.3,1.5,1.1,1.6,4.9l0,0v-4.6c0-1.4,0.9-3.1,3-3.1
		c2.1,0,1.1,0,3,0c0,0,0,0,0,0c0.1,0,0.1,0,0.2,0c10,0,10.5-6.6,10.5-6.6H83.7z"/>
	<path class="st79" d="M78.2,91.4c0.9,0,7.6-6.2,7.6-6.2L84.7,85c-0.1,0-0.2-0.1-0.4-0.1l-6.2,4.3l-5.9-4.5
		c-0.2,0.2-0.4,0.3-0.6,0.3l-1.3,0.3C70.4,85.3,77.2,91.4,78.2,91.4"/>
</g>
</svg>
