<?xml version="1.0" encoding="utf-8"?>
<!-- Generator: Adobe Illustrator 19.0.0, SVG Export Plug-In . SVG Version: 6.00 Build 0)  -->
<svg version="1.1" id="Layer_1" xmlns="http://www.w3.org/2000/svg" xmlns:xlink="http://www.w3.org/1999/xlink" x="0px" y="0px"
	 viewBox="0 0 505.3 426.7" style="enable-background:new 0 0 505.3 426.7;" xml:space="preserve">
<style type="text/css">
	.st0{opacity:0.7;clip-path:url(#SVGID_2_);}
	.st1{clip-path:url(#SVGID_4_);fill:#F1EFFD;}
	.st2{clip-path:url(#SVGID_6_);fill:#F1EFFD;}
	.st3{clip-path:url(#SVGID_8_);fill:#F1EFFD;}
	.st4{clip-path:url(#SVGID_10_);fill:#F1EFFD;}
	.st5{clip-path:url(#SVGID_12_);fill:#F1EFFD;}
	.st6{clip-path:url(#SVGID_14_);fill:#F1EFFD;}
	.st7{clip-path:url(#SVGID_16_);fill:#F1EFFD;}
	.st8{clip-path:url(#SVGID_18_);fill:#F1EFFD;}
	.st9{clip-path:url(#SVGID_20_);fill:#F1EFFD;}
	.st10{clip-path:url(#SVGID_22_);fill:#F1EFFD;}
	.st11{clip-path:url(#SVGID_2_);fill:none;stroke:#371BE1;stroke-width:0.5;}
	.st12{fill:#371BE1;}
	.st13{font-family:'Montserrat-Regular';}
	.st14{font-size:10px;}
	.st15{font-family:'Montserrat-Bold';}
	.st16{fill:#515151;}
	.st17{font-family:'Montserrat-Light';}
	.st18{fill:none;stroke:#E1DDFB;stroke-width:2;}
	.st19{clip-path:url(#SVGID_24_);fill:#381CE0;}
	.st20{fill:#D6D1FA;}
	.st21{fill:#9C8CF0;}
	.st22{fill:#381CE0;}
	.st23{clip-path:url(#SVGID_26_);fill:#B5ABF2;}
	.st24{clip-path:url(#SVGID_26_);fill:#614FE5;}
	.st25{fill:#F2F0FC;}
	.st26{clip-path:url(#SVGID_28_);fill:#F2F0FC;}
	.st27{clip-path:url(#SVGID_28_);fill:#B5ABF2;}
	.st28{clip-path:url(#SVGID_28_);fill:#381CE0;}
	.st29{clip-path:url(#SVGID_28_);fill:#614FE5;}
	.st30{clip-path:url(#SVGID_28_);fill:#E3EBF5;}
	.st31{clip-path:url(#SVGID_30_);fill:#F2F0FC;}
	.st32{clip-path:url(#SVGID_30_);fill:#B5ABF2;}
	.st33{clip-path:url(#SVGID_30_);fill:#381CE0;}
	.st34{clip-path:url(#SVGID_30_);fill:#614FE5;}
	.st35{clip-path:url(#SVGID_30_);fill:#E3EBF5;}
	.st36{clip-path:url(#SVGID_32_);fill:#F2F0FC;}
	.st37{clip-path:url(#SVGID_32_);fill:#B5ABF2;}
	.st38{clip-path:url(#SVGID_32_);fill:#381CE0;}
	.st39{clip-path:url(#SVGID_32_);fill:#614FE5;}
	.st40{clip-path:url(#SVGID_32_);fill:#E3EBF5;}
	.st41{clip-path:url(#SVGID_34_);fill:#F2F0FC;}
	.st42{clip-path:url(#SVGID_34_);fill:#B5ABF2;}
	.st43{clip-path:url(#SVGID_34_);fill:#381CE0;}
	.st44{clip-path:url(#SVGID_34_);fill:#614FE5;}
	.st45{clip-path:url(#SVGID_34_);fill:#E3EBF5;}
	.st46{clip-path:url(#SVGID_36_);fill:#F2F0FC;}
	.st47{clip-path:url(#SVGID_36_);fill:#B5ABF2;}
	.st48{clip-path:url(#SVGID_36_);fill:#381CE0;}
	.st49{clip-path:url(#SVGID_36_);fill:#614FE5;}
	.st50{clip-path:url(#SVGID_36_);fill:#E3EBF5;}
	.st51{clip-path:url(#SVGID_38_);fill:#F2F0FC;}
	.st52{clip-path:url(#SVGID_38_);fill:#B5ABF2;}
	.st53{clip-path:url(#SVGID_38_);fill:#381CE0;}
	.st54{clip-path:url(#SVGID_38_);fill:#614FE5;}
	.st55{clip-path:url(#SVGID_38_);fill:#E3EBF5;}
	.st56{opacity:0.3;clip-path:url(#SVGID_38_);}
	.st57{clip-path:url(#SVGID_40_);fill:#614FE5;}
	.st58{clip-path:url(#SVGID_40_);fill:#381CE0;}
	.st59{clip-path:url(#SVGID_40_);fill:#F2F0FC;}
	.st60{clip-path:url(#SVGID_40_);fill:#B5ABF2;}
	.st61{clip-path:url(#SVGID_42_);fill:#614FE5;}
	.st62{clip-path:url(#SVGID_42_);fill:#381CE0;}
	.st63{clip-path:url(#SVGID_42_);fill:#F2F0FC;}
	.st64{clip-path:url(#SVGID_42_);fill:#B5ABF2;}
	.st65{clip-path:url(#SVGID_44_);fill:#381CE0;}
	.st66{clip-path:url(#SVGID_44_);fill:#B5ABF2;}
	.st67{clip-path:url(#SVGID_44_);fill:#F2F0FC;}
	.st68{clip-path:url(#SVGID_44_);fill:#614FE5;}
	.st69{fill:#614FE5;}
	.st70{clip-path:url(#SVGID_46_);fill:#381CE0;}
	.st71{clip-path:url(#SVGID_46_);fill:#B5ABF2;}
	.st72{clip-path:url(#SVGID_46_);fill:#614FE5;}
	.st73{clip-path:url(#SVGID_48_);fill:#381CE0;}
	.st74{clip-path:url(#SVGID_48_);fill:#B5ABF2;}
	.st75{clip-path:url(#SVGID_48_);fill:#F2F0FC;}
	.st76{clip-path:url(#SVGID_48_);fill:#614FE5;}
	.st77{clip-path:url(#SVGID_50_);fill:#381CE0;}
	.st78{clip-path:url(#SVGID_50_);fill:#B5ABF2;}
	.st79{clip-path:url(#SVGID_50_);fill:#614FE5;}
	.st80{fill:#E3EBF5;}
	.st81{fill:#B5ABF2;}
	.st82{clip-path:url(#SVGID_52_);fill:#B5ABF2;}
	.st83{clip-path:url(#SVGID_52_);fill:#F2F0FC;}
	.st84{clip-path:url(#SVGID_52_);fill:#381CE0;}
	.st85{clip-path:url(#SVGID_52_);fill:#614FE5;}
	.st86{clip-path:url(#SVGID_54_);fill:#FFFFFF;}
</style>
<g>
	<defs>
		<rect id="SVGID_1_" x="-47" y="-299" width="595.3" height="841.9"/>
	</defs>
	<clipPath id="SVGID_2_">
		<use xlink:href="#SVGID_1_"  style="overflow:visible;"/>
	</clipPath>
	<g class="st0">
		<g>
			<defs>
				<rect id="SVGID_3_" x="81" y="20.7" width="164.5" height="54.6"/>
			</defs>
			<clipPath id="SVGID_4_">
				<use xlink:href="#SVGID_3_"  style="overflow:visible;"/>
			</clipPath>
			<rect x="90" y="27.7" class="st1" width="146.5" height="46.6"/>
		</g>
	</g>
	<g class="st0">
		<g>
			<defs>
				<rect id="SVGID_5_" x="81" y="129.7" width="164.5" height="54.6"/>
			</defs>
			<clipPath id="SVGID_6_">
				<use xlink:href="#SVGID_5_"  style="overflow:visible;"/>
			</clipPath>
			<rect x="90" y="136.7" class="st2" width="146.5" height="46.6"/>
		</g>
	</g>
	<g class="st0">
		<g>
			<defs>
				<rect id="SVGID_7_" x="81" y="235.8" width="164.5" height="54.6"/>
			</defs>
			<clipPath id="SVGID_8_">
				<use xlink:href="#SVGID_7_"  style="overflow:visible;"/>
			</clipPath>
			<rect x="90" y="242.8" class="st3" width="146.5" height="46.6"/>
		</g>
	</g>
	<g class="st0">
		<g>
			<defs>
				<rect id="SVGID_9_" x="81" y="344.8" width="104.9" height="54.6"/>
			</defs>
			<clipPath id="SVGID_10_">
				<use xlink:href="#SVGID_9_"  style="overflow:visible;"/>
			</clipPath>
			<rect x="90" y="351.8" class="st4" width="86.9" height="46.6"/>
		</g>
	</g>
	<g class="st0">
		<g>
			<defs>
				<rect id="SVGID_11_" x="178.2" y="344.8" width="104.9" height="54.6"/>
			</defs>
			<clipPath id="SVGID_12_">
				<use xlink:href="#SVGID_11_"  style="overflow:visible;"/>
			</clipPath>
			<rect x="187.2" y="351.8" class="st5" width="86.9" height="46.6"/>
		</g>
	</g>
	<g class="st0">
		<g>
			<defs>
				<rect id="SVGID_13_" x="275.5" y="344.8" width="104.9" height="54.6"/>
			</defs>
			<clipPath id="SVGID_14_">
				<use xlink:href="#SVGID_13_"  style="overflow:visible;"/>
			</clipPath>
			<rect x="284.5" y="351.8" class="st6" width="86.9" height="46.6"/>
		</g>
	</g>
	<g class="st0">
		<g>
			<defs>
				<rect id="SVGID_15_" x="373.3" y="344.8" width="104.9" height="54.6"/>
			</defs>
			<clipPath id="SVGID_16_">
				<use xlink:href="#SVGID_15_"  style="overflow:visible;"/>
			</clipPath>
			<rect x="382.3" y="351.8" class="st7" width="86.9" height="46.6"/>
		</g>
	</g>
	<g class="st0">
		<g>
			<defs>
				<rect id="SVGID_17_" x="351.2" y="20.7" width="127" height="54.6"/>
			</defs>
			<clipPath id="SVGID_18_">
				<use xlink:href="#SVGID_17_"  style="overflow:visible;"/>
			</clipPath>
			<rect x="360.2" y="27.7" class="st8" width="109" height="46.6"/>
		</g>
	</g>
	<g class="st0">
		<g>
			<defs>
				<rect id="SVGID_19_" x="351.2" y="129.7" width="127" height="54.6"/>
			</defs>
			<clipPath id="SVGID_20_">
				<use xlink:href="#SVGID_19_"  style="overflow:visible;"/>
			</clipPath>
			<rect x="360.2" y="136.7" class="st9" width="109" height="46.6"/>
		</g>
	</g>
	<g class="st0">
		<g>
			<defs>
				<rect id="SVGID_21_" x="351.2" y="235.8" width="127" height="54.6"/>
			</defs>
			<clipPath id="SVGID_22_">
				<use xlink:href="#SVGID_21_"  style="overflow:visible;"/>
			</clipPath>
			<rect x="360.2" y="242.8" class="st10" width="109" height="46.6"/>
		</g>
	</g>
	<path class="st11" d="M82,14c0,0-4,0-4,4v63.3c0,0,0,4,4,4h397.4c0,0,4,0,4-4V18c0,0,0-4-4-4H82z"/>
	<path class="st11" d="M82,122.9c0,0-4,0-4,4v63.3c0,0,0,4,4,4h397.4c0,0,4,0,4-4v-63.3c0,0,0-4-4-4H82z"/>
	<path class="st11" d="M82,229c0,0-4,0-4,4v63.3c0,0,0,4,4,4h397.4c0,0,4,0,4-4V233c0,0,0-4-4-4H82z"/>
	<path class="st11" d="M82,338c0,0-4,0-4,4v63.3c0,0,0,4,4,4h397.4c0,0,4,0,4-4V342c0,0,0-4-4-4H82z"/>
</g>
<text transform="matrix(1 0 0 1 17.6377 53.0424)"><tspan x="0" y="0" class="st12 st13 st14">E</tspan><tspan x="6.9" y="0" class="st12 st13 st14">x</tspan><tspan x="12.2" y="0" class="st12 st13 st14">e</tspan><tspan x="18.4" y="0" class="st12 st13 st14">c</tspan><tspan x="24.2" y="0" class="st12 st13 st14">uti</tspan><tspan x="38.3" y="0" class="st12 st13 st14">o</tspan><tspan x="44.8" y="0" class="st12 st13 st14">n</tspan></text>
<text transform="matrix(1 0 0 1 19.0576 162.2728)"><tspan x="0" y="0" class="st12 st13 st14">D</tspan><tspan x="8.4" y="0" class="st12 st13 st14">e</tspan><tspan x="14.7" y="0" class="st12 st13 st14">a</tspan><tspan x="20.8" y="0" class="st12 st13 st14">l</tspan><tspan x="23.7" y="0" class="st12 st13 st14"> Fl</tspan><tspan x="35.9" y="0" class="st12 st13 st14">ow</tspan></text>
<text transform="matrix(1 0 0 1 28.188 370.7025)"><tspan x="0" y="0" class="st12 st13 st14">O</tspan><tspan x="8.6" y="0" class="st12 st13 st14">p</tspan><tspan x="15.6" y="0" class="st12 st13 st14">e</tspan><tspan x="21.8" y="0" class="st12 st13 st14">n</tspan></text>
<text transform="matrix(1 0 0 1 56.1978 370.7025)" class="st12 st13 st14"> </text>
<text transform="matrix(1 0 0 1 28.188 384.7025)"><tspan x="0" y="0" class="st12 st13 st14">Ma</tspan><tspan x="15.8" y="0" class="st12 st13 st14">r</tspan><tspan x="20" y="0" class="st12 st13 st14">k</tspan><tspan x="26" y="0" class="st12 st13 st14">e</tspan><tspan x="32.3" y="0" class="st12 st13 st14">t</tspan></text>
<text transform="matrix(1 0 0 1 19.7676 261.892)"><tspan x="0" y="0" class="st12 st13 st14">E</tspan><tspan x="6.9" y="0" class="st12 st13 st14">x</tspan><tspan x="12.2" y="0" class="st12 st13 st14">c</tspan><tspan x="18" y="0" class="st12 st13 st14">ha</tspan><tspan x="31.1" y="0" class="st12 st13 st14">n</tspan><tspan x="38" y="0" class="st12 st13 st14">g</tspan><tspan x="45.1" y="0" class="st12 st13 st14">e</tspan></text>
<text transform="matrix(1 0 0 1 70.1177 261.892)" class="st12 st13 st14"> </text>
<text transform="matrix(1 0 0 1 19.7676 275.892)"><tspan x="0" y="0" class="st12 st13 st14">Me</tspan><tspan x="16" y="0" class="st12 st13 st14">mb</tspan><tspan x="33.8" y="0" class="st12 st13 st14">e</tspan><tspan x="40" y="0" class="st12 st13 st14">r</tspan><tspan x="44.2" y="0" class="st12 st13 st14">s</tspan></text>
<text transform="matrix(1 0 0 1 179.5376 52.0424)" class="st12 st15 st14">Client</text>
<text transform="matrix(1 0 0 1 177.6577 163.8324)"><tspan x="0" y="0" class="st12 st15 st14">Bro</tspan><tspan x="18.5" y="0" class="st12 st15 st14">k</tspan><tspan x="24.8" y="0" class="st12 st15 st14">er</tspan></text>
<text transform="matrix(1 0 0 1 176.6177 267.1224)"><tspan x="0" y="0" class="st12 st15 st14">A</tspan><tspan x="7.4" y="0" class="st12 st15 st14">gents</tspan></text>
<text transform="matrix(1 0 0 1 136.4277 376.0824)" class="st12 st15 st14">Client</text>
<text transform="matrix(1 0 0 1 233.6777 376.0824)" class="st12 st15 st14">Client</text>
<text transform="matrix(1 0 0 1 330.9277 376.0824)" class="st12 st15 st14">Client</text>
<text transform="matrix(1 0 0 1 428.4277 376.0824)"><tspan x="0" y="0" class="st12 st15 st14">A</tspan><tspan x="7.5" y="0" class="st12 st15 st14">gent</tspan></text>
<text transform="matrix(1 0 0 1 417.2383 52.0424)" class="st12 st15 st14">Client</text>
<text transform="matrix(1 0 0 1 409.8379 163.8324)"><tspan x="0" y="0" class="st12 st15 st14">Plat</tspan><tspan x="20.8" y="0" class="st12 st15 st14">f</tspan><tspan x="24.6" y="0" class="st12 st15 st14">orm</tspan></text>
<text transform="matrix(1 0 0 1 417.2383 267.1224)" class="st12 st15 st14">Client</text>
<text transform="matrix(1 0 0 1 280.3174 42.5824)"><tspan x="0" y="0" class="st16 st17 st14">T</tspan><tspan x="5.1" y="0" class="st16 st17 st14">r</tspan><tspan x="8.8" y="0" class="st16 st17 st14">ading</tspan></text>
<text transform="matrix(1 0 0 1 247.8477 256.6927)" class="st16 st17 st14">Client recruitment &amp;</text>
<text transform="matrix(1 0 0 1 248.9478 116.8925)" class="st16 st17 st14">Order Management</text>
<text transform="matrix(1 0 0 1 257.4775 212.8627)" class="st16 st17 st14">Deal Origination</text>
<text transform="matrix(1 0 0 1 305.5879 328.1927)"><tspan x="0" y="0" class="st16 st17 st14">A</tspan><tspan x="6.8" y="0" class="st16 st17 st14">gent recruitment</tspan></text>
<text transform="matrix(1 0 0 1 248.2979 284.7025)" class="st16 st17 st14">relationship mgmt.</text>
<line class="st18" x1="236.5" y1="50.2" x2="360.2" y2="50.2"/>
<line class="st18" x1="418.1" y1="242.8" x2="418.1" y2="183.3"/>
<line class="st18" x1="159.8" y1="219.2" x2="159.8" y2="183.3"/>
<line class="st18" x1="293.9" y1="104.8" x2="293.9" y2="85.6"/>
<line class="st18" x1="418.1" y1="136.7" x2="418.1" y2="104.5"/>
<line class="st18" x1="159.2" y1="136.7" x2="159.2" y2="104.5"/>
<line class="st18" x1="418.3" y1="104.8" x2="158.9" y2="104.8"/>
<line class="st18" x1="418.3" y1="219" x2="159.8" y2="219"/>
<line class="st18" x1="237.1" y1="266.7" x2="360.2" y2="266.7"/>
<line class="st18" x1="360.2" y1="60.1" x2="236.5" y2="60.1"/>
<polyline class="st18" points="159.5,300 159.5,324.5 293.6,324.5 293.6,337.7 "/>
<g>
	<defs>
		<rect id="SVGID_23_" x="-47" y="-299" width="595.3" height="841.9"/>
	</defs>
	<clipPath id="SVGID_24_">
		<use xlink:href="#SVGID_23_"  style="overflow:visible;"/>
	</clipPath>
	<path class="st19" d="M382.1,146.2c0.7,0,1.3-0.6,1.3-1.3c0-0.7-0.6-1.3-1.3-1.3c-0.7,0-1.3,0.6-1.3,1.3
		C380.8,145.6,381.4,146.2,382.1,146.2"/>
	<path class="st19" d="M387.3,150.7c0.7,0,1.3-0.6,1.3-1.3c0-0.7-0.6-1.3-1.3-1.3c-0.7,0-1.3,0.6-1.3,1.3
		C386,150.2,386.6,150.7,387.3,150.7"/>
	<path class="st19" d="M392.5,146.2c0.7,0,1.3-0.6,1.3-1.3c0-0.7-0.6-1.3-1.3-1.3c-0.7,0-1.3,0.6-1.3,1.3
		C391.2,145.6,391.8,146.2,392.5,146.2"/>
	<path class="st19" d="M397.7,149.6c0.7,0,1.3-0.6,1.3-1.3c0-0.7-0.6-1.3-1.3-1.3c-0.7,0-1.3,0.6-1.3,1.3
		C396.4,149,397,149.6,397.7,149.6"/>
	<path class="st19" d="M387.3,173.9c-5,0-9.1-4.1-9.1-9.1v-6.8l9.1,5.3l0.4-0.2l8.7-5v6.8C396.4,169.8,392.3,173.9,387.3,173.9
		 M375.6,156.5v0.4v7.9c0,6.4,5.3,11.7,11.7,11.7c6.4,0,11.7-5.3,11.7-11.7v-7.9v-0.4V152c0-0.7-0.6-1.3-1.3-1.3
		c-0.7,0-1.3,0.6-1.3,1.3v1.9c0,0.7-0.6,1.3-1.3,1.3c-0.6,0-1.2-0.5-1.3-1.1l0,0v-0.2v-5.4c0-0.7-0.6-1.3-1.3-1.3
		c-0.7,0-1.3,0.6-1.3,1.3v6.3v2.1c0,0.7-0.6,1.3-1.3,1.3c-0.7,0-1.3-0.6-1.3-1.3v-0.6v-3.2c0-0.7-0.6-1.3-1.3-1.3s-1.3,0.6-1.3,1.3
		v3.2v0.6c0,0.7-0.6,1.3-1.3,1.3c-0.7,0-1.3-0.6-1.3-1.3v-2.1v-6.3c0-0.7-0.6-1.3-1.3-1.3c-0.7,0-1.3,0.6-1.3,1.3v5.4v0.2l0,0
		c-0.1,0.6-0.6,1.1-1.3,1.1c-0.7,0-1.3-0.6-1.3-1.3V152c0-0.7-0.6-1.3-1.3-1.3s-1.3,0.6-1.3,1.3V156.5z"/>
	<path class="st19" d="M376.9,147c0.7,0,1.3,0.6,1.3,1.3c0,0.7-0.6,1.3-1.3,1.3c-0.7,0-1.3-0.6-1.3-1.3
		C375.6,147.6,376.2,147,376.9,147"/>
</g>
<polygon class="st20" points="345.4,54.9 344.2,53.6 347.8,50.2 344.2,46.9 345.4,45.6 350.5,50.2 "/>
<polygon class="st21" points="350.3,54.9 349,53.6 352.7,50.2 349,46.9 350.3,45.6 355.3,50.2 "/>
<polygon class="st22" points="355.1,54.9 353.9,53.6 357.6,50.2 353.9,46.9 355.1,45.6 360.2,50.2 "/>
<polygon class="st20" points="345.4,271.3 344.2,270 347.8,266.7 344.2,263.3 345.4,262 350.5,266.7 "/>
<polygon class="st21" points="350.3,271.3 349,270 352.7,266.7 349,263.3 350.3,262 355.3,266.7 "/>
<polygon class="st22" points="355.1,271.3 353.9,270 357.6,266.7 353.9,263.3 355.1,262 360.2,266.7 "/>
<polygon class="st20" points="251.3,55.5 252.5,56.8 248.8,60.1 252.5,63.5 251.3,64.8 246.2,60.1 "/>
<polygon class="st21" points="246.4,55.5 247.6,56.8 243.9,60.1 247.6,63.5 246.4,64.8 241.3,60.1 "/>
<polygon class="st22" points="241.5,55.5 242.7,56.8 239.1,60.1 242.7,63.5 241.5,64.8 236.5,60.1 "/>
<polygon class="st20" points="298.6,100.3 297.3,101.6 293.9,97.9 290.5,101.6 289.2,100.3 293.9,95.3 "/>
<polygon class="st21" points="298.6,95.5 297.3,96.7 293.9,93 290.5,96.7 289.2,95.5 293.9,90.4 "/>
<polygon class="st22" points="298.6,90.6 297.3,91.8 293.9,88.2 290.5,91.8 289.2,90.6 293.9,85.6 "/>
<polygon class="st20" points="164.5,198.1 163.2,199.3 159.8,195.6 156.4,199.3 155.1,198.1 159.8,193 "/>
<polygon class="st21" points="164.5,193.2 163.2,194.4 159.8,190.7 156.4,194.4 155.1,193.2 159.8,188.1 "/>
<polygon class="st22" points="164.5,188.3 163.2,189.5 159.8,185.9 156.4,189.5 155.1,188.3 159.8,183.3 "/>
<polygon class="st20" points="422.8,198.1 421.5,199.3 418.1,195.6 414.7,199.3 413.4,198.1 418.1,193 "/>
<polygon class="st21" points="422.8,193.2 421.5,194.4 418.1,190.7 414.7,194.4 413.4,193.2 418.1,188.1 "/>
<polygon class="st22" points="422.8,188.3 421.5,189.5 418.1,185.9 414.7,189.5 413.4,188.3 418.1,183.3 "/>
<polygon class="st20" points="164.1,314.8 162.8,316 159.5,312.4 156.1,316 154.8,314.8 159.5,309.7 "/>
<polygon class="st21" points="164.1,309.9 162.8,311.1 159.5,307.5 156.1,311.1 154.8,309.9 159.5,304.9 "/>
<polygon class="st22" points="164.1,305.1 162.8,306.3 159.5,302.6 156.1,306.3 154.8,305.1 159.5,300 "/>
<g>
	<defs>
		<rect id="SVGID_25_" x="-47" y="-299" width="595.3" height="841.9"/>
	</defs>
	<clipPath id="SVGID_26_">
		<use xlink:href="#SVGID_25_"  style="overflow:visible;"/>
	</clipPath>
	<path class="st23" d="M147.5,41.2l-0.9,3.7c-0.1,0.4-0.5,0.7-0.9,0.7c-0.5,0-0.9-0.4-1-0.9l-0.5-3.7c-0.1-1,0.7-1.9,1.7-1.9h0
		C146.9,39.1,147.7,40.2,147.5,41.2"/>
	<path class="st24" d="M123.3,41.2l0.9,3.7c0.1,0.4,0.5,0.7,0.9,0.7c0.5,0,0.9-0.4,1-0.9l0.5-3.7c0.1-1-0.7-1.9-1.7-1.9h0
		C123.8,39.1,123,40.2,123.3,41.2"/>
</g>
<polygon class="st25" points="142.7,55.3 142.7,49.7 128.1,49.7 128.1,55.3 135.4,61.8 "/>
<g>
	<defs>
		<rect id="SVGID_27_" x="-47" y="-299" width="595.3" height="841.9"/>
	</defs>
	<clipPath id="SVGID_28_">
		<use xlink:href="#SVGID_27_"  style="overflow:visible;"/>
	</clipPath>
	<path class="st26" d="M153.9,58l-10-2.4c-0.2,0-0.3-0.1-0.4-0.2l-8.1,4.7l-7.8-5c-0.2,0.2-0.5,0.3-0.7,0.4l-10,2.4
		c-1.5,0.3-2.5,1.7-2.5,3.2v6.3c0,0.9,0.7,1.6,1.6,1.6h38.9c0.9,0,1.6-0.7,1.6-1.6v-6.3C156.4,59.6,155.4,58.3,153.9,58"/>
	<path class="st27" d="M128.1,49.7v6c9.2,3.3,14.6-5,14.6-5v-1H128.1z"/>
	<path class="st26" d="M124.9,31.1l0.7,15.5c0.1,1.5,0.8,2.8,1.9,3.7l3.3,2.5c0.8,0.6,1.9,1,2.9,1h3.2c1.1,0,2.1-0.3,2.9-1l3.3-2.5
		c1.2-0.9,1.9-2.2,1.9-3.7l0.7-15.5H124.9z"/>
	<path class="st27" d="M133,34.3c3.2,0,8.1-0.8,9.2-3.2h-17.3l0.7,15.5c0.1,1.4,0.8,2.8,1.9,3.7l3.3,2.5c0.8,0.6,1.9,1,2.9,1h1.6
		c-1.6,0-4.9-3.2-4.9-7.3v-9.7C130.5,35.9,131.3,34.3,133,34.3"/>
	<path class="st27" d="M120.3,63.9l-5.2-4.7c-0.4,0.6-0.7,1.3-0.7,2v6.3c0,0.9,0.7,1.6,1.6,1.6h5.7v-2.2
		C121.6,65.7,121.1,64.6,120.3,63.9"/>
	<path class="st27" d="M150.5,63.9l5.2-4.7c0.4,0.6,0.7,1.3,0.7,2v6.3c0,0.9-0.7,1.6-1.6,1.6h-5.7v-2.2
		C149.1,65.7,149.6,64.6,150.5,63.9"/>
	<path class="st27" d="M128,53.5l7.4,6.7c0,0-2.1,1-4.6,3.2c-0.5,0.4-1.3,0.3-1.6-0.4l-3.5-7.6l1.1-1.6
		C127,53.3,127.6,53.2,128,53.5"/>
	<path class="st27" d="M142.8,53.5l-7.4,6.7c0,0,2.1,1,4.6,3.2c0.5,0.4,1.3,0.3,1.6-0.4l3.5-7.6l-1.1-1.6
		C143.7,53.3,143.1,53.2,142.8,53.5"/>
	<path class="st27" d="M140.3,25.7l0.8,5.4c3.5,0.7,4,6.1,4,7.7c0,0.3,0.1,0.6,0.3,0.8l1.3,2.1c0,0-0.5-3.4,1.6-5.7
		C148.3,35.9,149,22.4,140.3,25.7"/>
	<path class="st28" d="M125.6,24.2l1.2,0.8c-5.4,4-4.4,10.9-4.4,10.9c1.6,1.6,1.6,5.7,1.6,5.7l1.6-1.6c0,0-0.6-4.7,2.4-6.5
		c2.8-1.7,5.3-0.8,7.8-0.8c6.8,0,8.7-2.6,8.3-5.7c-0.2-1.6-2.6-5-8.9-4.9C132.8,22.2,128.1,23,125.6,24.2"/>
	<path class="st29" d="M125.2,32c0,0-0.9-3.4,1.7-6.9c-5.4,4-4.4,10.9-4.4,10.9c1.6,1.6,1.6,5.7,1.6,5.7l1.6-1.6
		c0,0-0.6-4.7,2.4-6.5c2.8-1.7,5.3-0.8,7.8-0.8c1.1,0,2.1-0.1,2.9-0.2C133.6,32.6,130.6,28.7,125.2,32"/>
	<path class="st30" d="M145.9,67.5h-5.7c-0.4,0-0.8,0.4-0.8,0.8v0.8h7.3v-0.8C146.7,67.8,146.4,67.5,145.9,67.5"/>
	<path class="st27" d="M400.3,41.2l-0.9,3.7c-0.1,0.4-0.5,0.7-0.9,0.7c-0.5,0-0.9-0.4-1-0.9L397,41c-0.1-1,0.7-1.9,1.7-1.9h0
		C399.8,39.1,400.6,40.2,400.3,41.2"/>
	<path class="st29" d="M376.1,41.2l0.9,3.7c0.1,0.4,0.5,0.7,0.9,0.7c0.5,0,0.9-0.4,1-0.9l0.5-3.7c0.1-1-0.7-1.9-1.7-1.9h0
		C376.7,39.1,375.9,40.2,376.1,41.2"/>
</g>
<polygon class="st25" points="395.5,55.3 395.5,49.7 380.9,49.7 380.9,55.3 388.2,61.8 "/>
<g>
	<defs>
		<rect id="SVGID_29_" x="-47" y="-299" width="595.3" height="841.9"/>
	</defs>
	<clipPath id="SVGID_30_">
		<use xlink:href="#SVGID_29_"  style="overflow:visible;"/>
	</clipPath>
	<path class="st31" d="M406.8,58l-10-2.4c-0.2,0-0.3-0.1-0.4-0.2l-8.1,4.7l-7.8-5c-0.2,0.2-0.5,0.3-0.7,0.4l-10,2.4
		c-1.5,0.3-2.5,1.7-2.5,3.2v6.3c0,0.9,0.7,1.6,1.6,1.6h38.9c0.9,0,1.6-0.7,1.6-1.6v-6.3C409.3,59.6,408.2,58.3,406.8,58"/>
	<path class="st32" d="M380.9,49.7v6c9.2,3.3,14.6-5,14.6-5v-1H380.9z"/>
	<path class="st31" d="M377.7,31.1l0.7,15.5c0.1,1.5,0.8,2.8,1.9,3.7l3.3,2.5c0.8,0.6,1.9,1,2.9,1h3.2c1.1,0,2.1-0.3,2.9-1l3.3-2.5
		c1.2-0.9,1.9-2.2,1.9-3.7l0.7-15.5H377.7z"/>
	<path class="st32" d="M385.8,34.3c3.2,0,8.1-0.8,9.2-3.2h-17.3l0.7,15.5c0.1,1.4,0.8,2.8,1.9,3.7l3.3,2.5c0.8,0.6,1.9,1,2.9,1h1.6
		c-1.6,0-4.9-3.2-4.9-7.3v-9.7C383.4,35.9,384.2,34.3,385.8,34.3"/>
	<path class="st32" d="M373.1,63.9l-5.2-4.7c-0.4,0.6-0.7,1.3-0.7,2v6.3c0,0.9,0.7,1.6,1.6,1.6h5.7v-2.2
		C374.5,65.7,374,64.6,373.1,63.9"/>
	<path class="st32" d="M403.3,63.9l5.2-4.7c0.4,0.6,0.7,1.3,0.7,2v6.3c0,0.9-0.7,1.6-1.6,1.6H402v-2.2
		C402,65.7,402.5,64.6,403.3,63.9"/>
	<path class="st32" d="M380.8,53.5l7.4,6.7c0,0-2.1,1-4.6,3.2c-0.5,0.4-1.3,0.3-1.6-0.4l-3.5-7.6l1.1-1.6
		C379.9,53.3,380.5,53.2,380.8,53.5"/>
	<path class="st32" d="M395.6,53.5l-7.4,6.7c0,0,2.1,1,4.6,3.2c0.5,0.4,1.3,0.3,1.6-0.4l3.5-7.6l-1.1-1.6
		C396.6,53.3,396,53.2,395.6,53.5"/>
	<path class="st32" d="M393.1,25.7l0.8,5.4c3.5,0.7,4,6.1,4,7.7c0,0.3,0.1,0.6,0.3,0.8l1.3,2.1c0,0-0.5-3.4,1.6-5.7
		C401.1,35.9,401.8,22.4,393.1,25.7"/>
	<path class="st33" d="M378.5,24.2l1.2,0.8c-5.4,4-4.4,10.9-4.4,10.9c1.6,1.6,1.6,5.7,1.6,5.7l1.6-1.6c0,0-0.6-4.7,2.4-6.5
		c2.8-1.7,5.3-0.8,7.8-0.8c6.8,0,8.7-2.6,8.3-5.7c-0.2-1.6-2.6-5-8.9-4.9C385.7,22.2,380.9,23,378.5,24.2"/>
	<path class="st34" d="M378,32c0,0-0.9-3.4,1.7-6.9c-5.4,4-4.4,10.9-4.4,10.9c1.6,1.6,1.6,5.7,1.6,5.7l1.6-1.6c0,0-0.6-4.7,2.4-6.5
		c2.8-1.7,5.3-0.8,7.8-0.8c1.1,0,2.1-0.1,2.9-0.2C386.5,32.6,383.4,28.7,378,32"/>
	<path class="st35" d="M398.8,67.5h-5.7c-0.4,0-0.8,0.4-0.8,0.8v0.8h7.3v-0.8C399.6,67.8,399.2,67.5,398.8,67.5"/>
	<path class="st32" d="M400.3,256.3l-0.9,3.7c-0.1,0.4-0.5,0.7-0.9,0.7c-0.5,0-0.9-0.4-1-0.9l-0.5-3.7c-0.1-1,0.7-1.9,1.7-1.9h0
		C399.8,254.2,400.6,255.3,400.3,256.3"/>
	<path class="st34" d="M376.1,256.3l0.9,3.7c0.1,0.4,0.5,0.7,0.9,0.7c0.5,0,0.9-0.4,1-0.9l0.5-3.7c0.1-1-0.7-1.9-1.7-1.9h0
		C376.7,254.2,375.9,255.3,376.1,256.3"/>
</g>
<polygon class="st25" points="395.5,270.4 395.5,264.8 380.9,264.8 380.9,270.4 388.2,276.9 "/>
<g>
	<defs>
		<rect id="SVGID_31_" x="-47" y="-299" width="595.3" height="841.9"/>
	</defs>
	<clipPath id="SVGID_32_">
		<use xlink:href="#SVGID_31_"  style="overflow:visible;"/>
	</clipPath>
	<path class="st36" d="M406.8,273.1l-10-2.4c-0.2,0-0.3-0.1-0.4-0.2l-8.1,4.7l-7.8-5c-0.2,0.2-0.5,0.3-0.7,0.4l-10,2.4
		c-1.5,0.3-2.5,1.7-2.5,3.2v6.3c0,0.9,0.7,1.6,1.6,1.6h38.9c0.9,0,1.6-0.7,1.6-1.6v-6.3C409.3,274.7,408.2,273.4,406.8,273.1"/>
	<path class="st37" d="M380.9,264.8v6c9.2,3.3,14.6-5,14.6-5v-1H380.9z"/>
	<path class="st36" d="M377.7,246.1l0.7,15.5c0.1,1.5,0.8,2.8,1.9,3.7l3.3,2.5c0.8,0.6,1.9,1,2.9,1h3.2c1.1,0,2.1-0.3,2.9-1l3.3-2.5
		c1.2-0.9,1.9-2.2,1.9-3.7l0.7-15.5H377.7z"/>
	<path class="st37" d="M385.8,249.4c3.2,0,8.1-0.8,9.2-3.2h-17.3l0.7,15.5c0.1,1.4,0.8,2.8,1.9,3.7l3.3,2.5c0.8,0.6,1.9,1,2.9,1h1.6
		c-1.6,0-4.9-3.2-4.9-7.3v-9.7C383.4,251,384.2,249.4,385.8,249.4"/>
	<path class="st37" d="M373.1,278.9l-5.2-4.7c-0.4,0.6-0.7,1.3-0.7,2v6.3c0,0.9,0.7,1.6,1.6,1.6h5.7v-2.2
		C374.5,280.8,374,279.7,373.1,278.9"/>
	<path class="st37" d="M403.3,278.9l5.2-4.7c0.4,0.6,0.7,1.3,0.7,2v6.3c0,0.9-0.7,1.6-1.6,1.6H402v-2.2
		C402,280.8,402.5,279.7,403.3,278.9"/>
	<path class="st37" d="M380.8,268.6l7.4,6.7c0,0-2.1,1-4.6,3.2c-0.5,0.4-1.3,0.3-1.6-0.4l-3.5-7.6l1.1-1.6
		C379.9,268.4,380.5,268.3,380.8,268.6"/>
	<path class="st37" d="M395.6,268.6l-7.4,6.7c0,0,2.1,1,4.6,3.2c0.5,0.4,1.3,0.3,1.6-0.4l3.5-7.6l-1.1-1.6
		C396.6,268.4,396,268.3,395.6,268.6"/>
	<path class="st37" d="M393.1,240.8l0.8,5.4c3.5,0.7,4,6.1,4,7.7c0,0.3,0.1,0.6,0.3,0.8l1.3,2.1c0,0-0.5-3.4,1.6-5.7
		C401.1,251,401.8,237.5,393.1,240.8"/>
	<path class="st38" d="M378.5,239.3l1.2,0.8c-5.4,4-4.4,10.9-4.4,10.9c1.6,1.6,1.6,5.7,1.6,5.7l1.6-1.6c0,0-0.6-4.7,2.4-6.5
		c2.8-1.7,5.3-0.8,7.8-0.8c6.8,0,8.7-2.6,8.3-5.7c-0.2-1.6-2.6-5-8.9-4.9C385.7,237.3,380.9,238,378.5,239.3"/>
	<path class="st39" d="M378,247c0,0-0.9-3.4,1.7-6.9c-5.4,4-4.4,10.9-4.4,10.9c1.6,1.6,1.6,5.7,1.6,5.7l1.6-1.6c0,0-0.6-4.7,2.4-6.5
		c2.8-1.7,5.3-0.8,7.8-0.8c1.1,0,2.1-0.1,2.9-0.2C386.5,247.7,383.4,243.8,378,247"/>
	<path class="st40" d="M398.8,282.6h-5.7c-0.4,0-0.8,0.4-0.8,0.8v0.8h7.3v-0.8C399.6,282.9,399.2,282.6,398.8,282.6"/>
	<path class="st37" d="M321.7,364.9l-0.9,3.7c-0.1,0.4-0.5,0.7-0.9,0.7c-0.5,0-0.9-0.4-1-0.9l-0.5-3.7c-0.1-1,0.7-1.9,1.7-1.9h0
		C321.2,362.8,322,363.9,321.7,364.9"/>
	<path class="st39" d="M297.5,364.9l0.9,3.7c0.1,0.4,0.5,0.7,0.9,0.7c0.5,0,0.9-0.4,1-0.9l0.5-3.7c0.1-1-0.7-1.9-1.7-1.9h0
		C298.1,362.8,297.3,363.9,297.5,364.9"/>
</g>
<polygon class="st25" points="316.9,379 316.9,373.4 302.3,373.4 302.3,379 309.6,385.5 "/>
<g>
	<defs>
		<rect id="SVGID_33_" x="-47" y="-299" width="595.3" height="841.9"/>
	</defs>
	<clipPath id="SVGID_34_">
		<use xlink:href="#SVGID_33_"  style="overflow:visible;"/>
	</clipPath>
	<path class="st41" d="M328.2,381.7l-10-2.4c-0.2,0-0.3-0.1-0.4-0.2l-8.1,4.7l-7.8-5c-0.2,0.2-0.5,0.3-0.7,0.4l-10,2.4
		c-1.5,0.3-2.5,1.6-2.5,3.2v6.3c0,0.9,0.7,1.6,1.6,1.6h38.9c0.9,0,1.6-0.7,1.6-1.6v-6.3C330.7,383.3,329.6,382,328.2,381.7"/>
	<path class="st42" d="M302.3,373.4v6c9.2,3.3,14.6-5,14.6-5v-1H302.3z"/>
	<path class="st41" d="M299.1,354.7l0.7,15.5c0.1,1.5,0.8,2.8,1.9,3.7l3.3,2.5c0.8,0.6,1.9,1,2.9,1h3.2c1.1,0,2.1-0.3,2.9-1l3.3-2.5
		c1.2-0.9,1.9-2.2,1.9-3.7l0.7-15.5H299.1z"/>
	<path class="st42" d="M307.2,358c3.2,0,8.1-0.8,9.2-3.2h-17.3l0.7,15.5c0.1,1.5,0.8,2.8,1.9,3.7l3.3,2.5c0.8,0.6,1.9,1,2.9,1h1.6
		c-1.6,0-4.9-3.2-4.9-7.3v-9.7C304.8,359.6,305.6,358,307.2,358"/>
	<path class="st42" d="M294.5,387.5l-5.2-4.7c-0.4,0.6-0.7,1.3-0.7,2v6.3c0,0.9,0.7,1.6,1.6,1.6h5.7v-2.2
		C295.9,389.4,295.4,388.3,294.5,387.5"/>
	<path class="st42" d="M324.7,387.5l5.2-4.7c0.4,0.6,0.7,1.3,0.7,2v6.3c0,0.9-0.7,1.6-1.6,1.6h-5.7v-2.2
		C323.4,389.4,323.9,388.3,324.7,387.5"/>
	<path class="st42" d="M302.2,377.2l7.4,6.7c0,0-2.1,1-4.6,3.2c-0.5,0.4-1.3,0.3-1.6-0.4l-3.5-7.6l1.1-1.6
		C301.3,377,301.9,376.9,302.2,377.2"/>
	<path class="st42" d="M317,377.2l-7.4,6.7c0,0,2.1,1,4.6,3.2c0.5,0.4,1.3,0.3,1.6-0.4l3.5-7.6l-1.1-1.6
		C318,377,317.4,376.9,317,377.2"/>
	<path class="st42" d="M314.5,349.4l0.8,5.4c3.5,0.7,4,6.1,4,7.7c0,0.3,0.1,0.6,0.3,0.8l1.3,2.1c0,0-0.5-3.4,1.6-5.7
		C322.5,359.6,323.2,346.1,314.5,349.4"/>
	<path class="st43" d="M299.9,347.9l1.2,0.8c-5.4,4-4.4,10.9-4.4,10.9c1.6,1.6,1.6,5.7,1.6,5.7l1.6-1.6c0,0-0.6-4.7,2.4-6.5
		c2.8-1.7,5.3-0.8,7.8-0.8c6.8,0,8.7-2.6,8.3-5.7c-0.2-1.6-2.6-5-8.9-4.9C307.1,345.9,302.3,346.6,299.9,347.9"/>
	<path class="st44" d="M299.4,355.6c0,0-0.9-3.4,1.7-6.9c-5.4,4-4.4,10.9-4.4,10.9c1.6,1.6,1.6,5.7,1.6,5.7l1.6-1.6
		c0,0-0.6-4.7,2.4-6.5c2.8-1.7,5.3-0.8,7.8-0.8c1.1,0,2.1-0.1,2.9-0.2C307.9,356.3,304.8,352.4,299.4,355.6"/>
	<path class="st45" d="M320.1,391.2h-5.7c-0.4,0-0.8,0.4-0.8,0.8v0.8h7.3V392C321,391.5,320.6,391.2,320.1,391.2"/>
	<path class="st42" d="M224.5,364.9l-0.9,3.7c-0.1,0.4-0.5,0.7-0.9,0.7c-0.5,0-0.9-0.4-1-0.9l-0.5-3.7c-0.1-1,0.7-1.9,1.7-1.9h0
		C224,362.8,224.8,363.9,224.5,364.9"/>
	<path class="st44" d="M200.3,364.9l0.9,3.7c0.1,0.4,0.5,0.7,0.9,0.7c0.5,0,0.9-0.4,1-0.9l0.5-3.7c0.1-1-0.7-1.9-1.7-1.9h0
		C200.9,362.8,200.1,363.9,200.3,364.9"/>
</g>
<polygon class="st25" points="219.7,379 219.7,373.4 205.1,373.4 205.1,379 212.4,385.5 "/>
<g>
	<defs>
		<rect id="SVGID_35_" x="-47" y="-299" width="595.3" height="841.9"/>
	</defs>
	<clipPath id="SVGID_36_">
		<use xlink:href="#SVGID_35_"  style="overflow:visible;"/>
	</clipPath>
	<path class="st46" d="M231,381.7l-10-2.4c-0.2,0-0.3-0.1-0.4-0.2l-8.1,4.7l-7.8-5c-0.2,0.2-0.5,0.3-0.7,0.4l-10,2.4
		c-1.5,0.3-2.5,1.6-2.5,3.2v6.3c0,0.9,0.7,1.6,1.6,1.6h38.9c0.9,0,1.6-0.7,1.6-1.6v-6.3C233.5,383.3,232.4,382,231,381.7"/>
	<path class="st47" d="M205.1,373.4v6c9.2,3.3,14.6-5,14.6-5v-1H205.1z"/>
	<path class="st46" d="M201.9,354.7l0.7,15.5c0.1,1.5,0.8,2.8,1.9,3.7l3.3,2.5c0.8,0.6,1.9,1,2.9,1h3.2c1.1,0,2.1-0.3,2.9-1l3.3-2.5
		c1.2-0.9,1.9-2.2,1.9-3.7l0.7-15.5H201.9z"/>
	<path class="st47" d="M210,358c3.2,0,8.1-0.8,9.2-3.2h-17.3l0.7,15.5c0.1,1.5,0.8,2.8,1.9,3.7l3.3,2.5c0.8,0.6,1.9,1,2.9,1h1.6
		c-1.6,0-4.9-3.2-4.9-7.3v-9.7C207.6,359.6,208.4,358,210,358"/>
	<path class="st47" d="M197.3,387.5l-5.2-4.7c-0.4,0.6-0.7,1.3-0.7,2v6.3c0,0.9,0.7,1.6,1.6,1.6h5.7v-2.2
		C198.7,389.4,198.2,388.3,197.3,387.5"/>
	<path class="st47" d="M227.5,387.5l5.2-4.7c0.4,0.6,0.7,1.3,0.7,2v6.3c0,0.9-0.7,1.6-1.6,1.6h-5.7v-2.2
		C226.2,389.4,226.7,388.3,227.5,387.5"/>
	<path class="st47" d="M205,377.2l7.4,6.7c0,0-2.1,1-4.6,3.2c-0.5,0.4-1.3,0.3-1.6-0.4l-3.5-7.6l1.1-1.6
		C204.1,377,204.7,376.9,205,377.2"/>
	<path class="st47" d="M219.8,377.2l-7.4,6.7c0,0,2.1,1,4.6,3.2c0.5,0.4,1.3,0.3,1.6-0.4l3.5-7.6l-1.1-1.6
		C220.8,377,220.2,376.9,219.8,377.2"/>
	<path class="st47" d="M217.3,349.4l0.8,5.4c3.5,0.7,4,6.1,4,7.7c0,0.3,0.1,0.6,0.3,0.8l1.3,2.1c0,0-0.5-3.4,1.6-5.7
		C225.3,359.6,226,346.1,217.3,349.4"/>
	<path class="st48" d="M202.7,347.9l1.2,0.8c-5.4,4-4.4,10.9-4.4,10.9c1.6,1.6,1.6,5.7,1.6,5.7l1.6-1.6c0,0-0.6-4.7,2.4-6.5
		c2.8-1.7,5.3-0.8,7.8-0.8c6.8,0,8.7-2.6,8.4-5.7c-0.2-1.6-2.6-5-8.9-4.9C209.9,345.9,205.1,346.6,202.7,347.9"/>
	<path class="st49" d="M202.2,355.6c0,0-0.9-3.4,1.7-6.9c-5.4,4-4.4,10.9-4.4,10.9c1.6,1.6,1.6,5.7,1.6,5.7l1.6-1.6
		c0,0-0.6-4.7,2.4-6.5c2.8-1.7,5.3-0.8,7.8-0.8c1.1,0,2.1-0.1,2.9-0.2C210.7,356.3,207.6,352.4,202.2,355.6"/>
	<path class="st50" d="M222.9,391.2h-5.7c-0.4,0-0.8,0.4-0.8,0.8v0.8h7.3V392C223.8,391.5,223.4,391.2,222.9,391.2"/>
	<path class="st47" d="M127.3,364.9l-0.9,3.7c-0.1,0.4-0.5,0.7-0.9,0.7c-0.5,0-0.9-0.4-1-0.9l-0.5-3.7c-0.1-1,0.7-1.9,1.7-1.9h0
		C126.7,362.8,127.5,363.9,127.3,364.9"/>
	<path class="st49" d="M103.1,364.9l0.9,3.7c0.1,0.4,0.5,0.7,0.9,0.7c0.5,0,0.9-0.4,1-0.9l0.5-3.7c0.1-1-0.7-1.9-1.7-1.9h0
		C103.6,362.8,102.8,363.9,103.1,364.9"/>
</g>
<polygon class="st25" points="122.5,379 122.5,373.4 107.9,373.4 107.9,379 115.2,385.5 "/>
<g>
	<defs>
		<rect id="SVGID_37_" x="-47" y="-299" width="595.3" height="841.9"/>
	</defs>
	<clipPath id="SVGID_38_">
		<use xlink:href="#SVGID_37_"  style="overflow:visible;"/>
	</clipPath>
	<path class="st51" d="M133.7,381.7l-10-2.4c-0.2,0-0.3-0.1-0.4-0.2l-8.1,4.7l-7.8-5c-0.2,0.2-0.5,0.3-0.7,0.4l-10,2.4
		c-1.5,0.3-2.5,1.6-2.5,3.2v6.3c0,0.9,0.7,1.6,1.6,1.6h38.9c0.9,0,1.6-0.7,1.6-1.6v-6.3C136.2,383.3,135.2,382,133.7,381.7"/>
	<path class="st52" d="M107.9,373.4v6c9.2,3.3,14.6-5,14.6-5v-1H107.9z"/>
	<path class="st51" d="M104.6,354.7l0.7,15.5c0.1,1.5,0.8,2.8,1.9,3.7l3.3,2.5c0.8,0.6,1.9,1,2.9,1h3.2c1.1,0,2.1-0.3,2.9-1l3.3-2.5
		c1.2-0.9,1.9-2.2,1.9-3.7l0.7-15.5H104.6z"/>
	<path class="st52" d="M112.7,358c3.2,0,8.1-0.8,9.2-3.2h-17.3l0.7,15.5c0.1,1.5,0.8,2.8,1.9,3.7l3.3,2.5c0.8,0.6,1.9,1,2.9,1h1.6
		c-1.6,0-4.9-3.2-4.9-7.3v-9.7C110.3,359.6,111.1,358,112.7,358"/>
	<path class="st52" d="M100.1,387.5l-5.2-4.7c-0.4,0.6-0.7,1.3-0.7,2v6.3c0,0.9,0.7,1.6,1.6,1.6h5.7v-2.2
		C101.4,389.4,100.9,388.3,100.1,387.5"/>
	<path class="st52" d="M130.3,387.5l5.2-4.7c0.4,0.6,0.7,1.3,0.7,2v6.3c0,0.9-0.7,1.6-1.6,1.6h-5.7v-2.2
		C128.9,389.4,129.4,388.3,130.3,387.5"/>
	<path class="st52" d="M107.8,377.2l7.4,6.7c0,0-2.1,1-4.6,3.2c-0.5,0.4-1.3,0.3-1.6-0.4l-3.5-7.6l1.1-1.6
		C106.8,377,107.4,376.9,107.8,377.2"/>
	<path class="st52" d="M122.6,377.2l-7.4,6.7c0,0,2.1,1,4.6,3.2c0.5,0.4,1.3,0.3,1.6-0.4l3.5-7.6l-1.1-1.6
		C123.5,377,122.9,376.9,122.6,377.2"/>
	<path class="st52" d="M120.1,349.4l0.8,5.4c3.5,0.7,4,6.1,4,7.7c0,0.3,0.1,0.6,0.3,0.8l1.3,2.1c0,0-0.5-3.4,1.6-5.7
		C128.1,359.6,128.8,346.1,120.1,349.4"/>
	<path class="st53" d="M105.4,347.9l1.2,0.8c-5.4,4-4.4,10.9-4.4,10.9c1.6,1.6,1.6,5.7,1.6,5.7l1.6-1.6c0,0-0.6-4.7,2.4-6.5
		c2.8-1.7,5.3-0.8,7.8-0.8c6.8,0,8.7-2.6,8.3-5.7c-0.2-1.6-2.6-5-8.9-4.9C112.6,345.9,107.9,346.6,105.4,347.9"/>
	<path class="st54" d="M104.9,355.6c0,0-0.9-3.4,1.7-6.9c-5.4,4-4.4,10.9-4.4,10.9c1.6,1.6,1.6,5.7,1.6,5.7l1.6-1.6
		c0,0-0.6-4.7,2.4-6.5c2.8-1.7,5.3-0.8,7.8-0.8c1.1,0,2.1-0.1,2.9-0.2C113.4,356.3,110.3,352.4,104.9,355.6"/>
	<path class="st55" d="M125.7,391.2H120c-0.4,0-0.8,0.4-0.8,0.8v0.8h7.3V392C126.5,391.5,126.1,391.2,125.7,391.2"/>
	<g class="st56">
		<g>
			<defs>
				<rect id="SVGID_39_" x="82.6" y="222.8" width="77.1" height="62.4"/>
			</defs>
			<clipPath id="SVGID_40_">
				<use xlink:href="#SVGID_39_"  style="overflow:visible;"/>
			</clipPath>
			<path class="st57" d="M133.4,253.9l-0.9,3.7c-0.1,0.4-0.5,0.8-1,0.8c-0.5,0-0.9-0.4-1-0.9l-0.5-3.8c-0.1-1,0.7-1.9,1.7-1.9
				C132.8,251.7,133.7,252.8,133.4,253.9"/>
			<path class="st58" d="M109.1,253.9l0.9,3.7c0.1,0.4,0.5,0.8,1,0.8c0.5,0,0.9-0.4,1-0.9l0.5-3.8c0.1-1-0.7-1.9-1.7-1.9
				C109.6,251.7,108.8,252.8,109.1,253.9"/>
			<polygon class="st59" points="128.6,270.1 128.6,264.3 113.7,264.3 113.7,270.1 121.2,276.7 			"/>
			<path class="st58" d="M140.2,272.8l-11.1-2.8c-0.2,0-0.3-0.1-0.4-0.2l-7.5,5.2l-7.2-5.5c-0.2,0.2-0.5,0.3-0.8,0.4l-11.1,2.8
				c-1.5,0.4-2.6,1.7-2.6,3.2v6.5c0,0.9,0.7,1.7,1.7,1.7h39.8c0.9,0,1.7-0.7,1.7-1.7V276C142.7,274.5,141.7,273.2,140.2,272.8"/>
			<path class="st60" d="M113.7,264.1v5.7c9.4,3.6,14.9-4.5,14.9-4.5v-1h-14.9V264.1z"/>
			<path class="st59" d="M110.4,245.2l0.7,15.9c0.1,1.5,0.8,2.9,2,3.8l3.4,2.6c0.9,0.6,1.9,1,3,1h3.3c1.1,0,2.1-0.4,3-1l3.4-2.6
				c1.2-0.9,1.9-2.3,2-3.8l0.7-15.9H110.4z"/>
			<path class="st60" d="M118.7,248.5c3.3,0,8.3-0.8,9.5-3.3l-5.4-1.4l-12.4,1.4l0.7,15.9c0.1,1.5,0.8,2.9,2,3.8l3.4,2.6
				c0.9,0.6,1.9,1,3,1h1.7c-1.7,0-5-3.3-5-7.5v-10C116.2,250.2,117,248.5,118.7,248.5"/>
			<path class="st58" d="M105.7,278.8l-5.4-4.8c-0.5,0.6-0.7,1.3-0.7,2.1v6.5c0,0.9,0.7,1.7,1.7,1.7h5.8v-2.3
				C107.1,280.7,106.6,279.6,105.7,278.8"/>
			<path class="st58" d="M136.6,278.8l5.4-4.8c0.5,0.6,0.7,1.3,0.7,2.1v6.5c0,0.9-0.7,1.7-1.7,1.7h-5.8v-2.3
				C135.3,280.7,135.8,279.6,136.6,278.8"/>
			<path class="st57" d="M129.7,241.1c1.3-2.9-1.8-3.3-1.8-3.3s-4,0.2-11.5,0.2c-7.5,0-7.7,7.2-7.7,11.4c0,4,1.9,1.3,2,6l0,0v-5.6
				c0-1.8,1.1-3.8,3.7-3.8c2.6,0,1.4,0,3.7,0c2.3,0,3.3-1.9,5.1-1.3c1.8,0.5,3.6,1.2,4.9,1.7c1.4,0.4,3,2,3,3.8v6.5
				c0.1-2.3,2-3,2-5.4v-6.1C133.2,242.9,131.1,241.4,129.7,241.1"/>
			<path class="st57" d="M126,250.8c-1.8,0-2.7,0.6-2.7,1.9c0,1.5,1.2,2.7,2.7,2.7c1.5,0,2.7-1.2,2.7-2.7
				C128.7,251.5,127.8,250.8,126,250.8 M126,256.6c-2.1,0-3.9-1.7-3.9-3.9c0-2,1.4-3.1,3.9-3.1c2.5,0,3.9,1.1,3.9,3.1
				C129.8,254.9,128.1,256.6,126,256.6"/>
			<path class="st57" d="M116.3,250.8c-1.8,0-2.7,0.6-2.7,1.9c0,1.5,1.2,2.7,2.7,2.7c1.5,0,2.7-1.2,2.7-2.7
				C119,251.5,118.1,250.8,116.3,250.8 M116.3,256.6c-2.1,0-3.9-1.7-3.9-3.9c0-2,1.4-3.1,3.9-3.1c2.5,0,3.9,1.1,3.9,3.1
				C120.2,254.9,118.5,256.6,116.3,256.6"/>
			<path class="st57" d="M122.4,253.2c-0.3-0.1-0.7-0.2-1.2-0.2c-0.5,0-0.9,0.1-1.2,0.2l-0.3-1c0.4-0.1,1-0.2,1.5-0.2
				c0.6,0,1.1,0.1,1.5,0.2L122.4,253.2z"/>
			<rect x="110.5" y="252" class="st57" width="2.9" height="1.1"/>
			<rect x="129" y="252" class="st57" width="2.9" height="1.1"/>
			<path class="st58" d="M128,237.7C127.9,237.7,127.9,237.7,128,237.7c-0.1,0-0.1,0-0.2,0c-0.1,0-0.2,0-0.4,0
				c0-0.6-0.4-1.2-1.3-1.9c0.1,0.8-1.6,1.9-2.8,2c-1.8,0-4.1,0.1-6.8,0.1c-7.5,0-7.7,7.2-7.7,11.4c0,4,1.9,1.3,2,6l0,0v-5.6
				c0-1.8,1.1-3.8,3.7-3.8c2.6,0,1.4,0,3.7,0c0,0,0,0,0,0c0.1,0,0.2,0,0.2,0c12.2,0,12.9-8,12.9-8H128z"/>
			<path class="st60" d="M121.2,277.9c1.1,0,9.3-7.6,9.3-7.6l-1.3-0.3c-0.2,0-0.3-0.1-0.4-0.2l-7.5,5.2l-7.2-5.5
				c-0.2,0.2-0.5,0.3-0.8,0.4l-1.6,0.4C111.6,270.4,120,277.9,121.2,277.9"/>
		</g>
	</g>
	<g class="st56">
		<g>
			<defs>
				<rect id="SVGID_41_" x="110.9" y="222.8" width="77.1" height="62.4"/>
			</defs>
			<clipPath id="SVGID_42_">
				<use xlink:href="#SVGID_41_"  style="overflow:visible;"/>
			</clipPath>
			<path class="st61" d="M161.7,253.9l-0.9,3.7c-0.1,0.4-0.5,0.8-1,0.8c-0.5,0-0.9-0.4-1-0.9l-0.5-3.8c-0.1-1,0.7-1.9,1.7-1.9
				C161.2,251.7,162,252.8,161.7,253.9"/>
			<path class="st62" d="M137.4,253.9l0.9,3.7c0.1,0.4,0.5,0.8,1,0.8c0.5,0,0.9-0.4,1-0.9l0.5-3.8c0.1-1-0.7-1.9-1.7-1.9
				C138,251.7,137.1,252.8,137.4,253.9"/>
			<polygon class="st63" points="157,270.1 157,264.3 142,264.3 142,270.1 149.5,276.7 			"/>
			<path class="st62" d="M168.5,272.8l-11.1-2.8c-0.2,0-0.3-0.1-0.4-0.2l-7.5,5.2l-7.2-5.5c-0.2,0.2-0.5,0.3-0.8,0.4l-11.1,2.8
				c-1.5,0.4-2.6,1.7-2.6,3.2v6.5c0,0.9,0.7,1.7,1.7,1.7h39.8c0.9,0,1.7-0.7,1.7-1.7V276C171.1,274.5,170,273.2,168.5,272.8"/>
			<path class="st64" d="M142,264.1v5.7c9.4,3.6,14.9-4.5,14.9-4.5v-1H142V264.1z"/>
			<path class="st63" d="M138.7,245.2l0.7,15.9c0.1,1.5,0.8,2.9,2,3.8l3.4,2.6c0.9,0.6,1.9,1,3,1h3.3c1.1,0,2.1-0.4,3-1l3.4-2.6
				c1.2-0.9,1.9-2.3,2-3.8l0.7-15.9H138.7z"/>
			<path class="st64" d="M147,248.5c3.3,0,8.3-0.8,9.5-3.3l-5.4-1.4l-12.4,1.4l0.7,15.9c0.1,1.5,0.8,2.9,2,3.8l3.4,2.6
				c0.9,0.6,1.9,1,3,1h1.7c-1.7,0-5-3.3-5-7.5v-10C144.5,250.2,145.4,248.5,147,248.5"/>
			<path class="st62" d="M134,278.8l-5.4-4.8c-0.5,0.6-0.7,1.3-0.7,2.1v6.5c0,0.9,0.7,1.7,1.7,1.7h5.8v-2.3
				C135.4,280.7,134.9,279.6,134,278.8"/>
			<path class="st62" d="M165,278.8l5.4-4.8c0.5,0.6,0.7,1.3,0.7,2.1v6.5c0,0.9-0.7,1.7-1.7,1.7h-5.8v-2.3
				C163.6,280.7,164.1,279.6,165,278.8"/>
			<path class="st61" d="M158.1,241.1c1.3-2.9-1.8-3.3-1.8-3.3s-4,0.2-11.5,0.2c-7.5,0-7.7,7.2-7.7,11.4c0,4,1.9,1.3,2,6l0,0v-5.6
				c0-1.8,1.1-3.8,3.7-3.8c2.6,0,1.4,0,3.7,0c2.3,0,3.3-1.9,5.1-1.3c1.8,0.5,3.6,1.2,4.9,1.7c1.4,0.4,3,2,3,3.8v6.5
				c0.1-2.3,2-3,2-5.4v-6.1C161.5,242.9,159.4,241.4,158.1,241.1"/>
			<path class="st61" d="M154.3,250.8c-1.8,0-2.7,0.6-2.7,1.9c0,1.5,1.2,2.7,2.7,2.7c1.5,0,2.7-1.2,2.7-2.7
				C157,251.5,156.1,250.8,154.3,250.8 M154.3,256.6c-2.1,0-3.9-1.7-3.9-3.9c0-2,1.4-3.1,3.9-3.1c2.5,0,3.9,1.1,3.9,3.1
				C158.2,254.9,156.5,256.6,154.3,256.6"/>
			<path class="st61" d="M144.7,250.8c-1.8,0-2.7,0.6-2.7,1.9c0,1.5,1.2,2.7,2.7,2.7c1.5,0,2.7-1.2,2.7-2.7
				C147.4,251.5,146.5,250.8,144.7,250.8 M144.7,256.6c-2.1,0-3.9-1.7-3.9-3.9c0-2,1.4-3.1,3.9-3.1c2.5,0,3.9,1.1,3.9,3.1
				C148.6,254.9,146.8,256.6,144.7,256.6"/>
			<path class="st61" d="M150.7,253.2c-0.3-0.1-0.7-0.2-1.2-0.2c-0.5,0-0.9,0.1-1.2,0.2l-0.3-1c0.4-0.1,1-0.2,1.5-0.2
				c0.6,0,1.1,0.1,1.5,0.2L150.7,253.2z"/>
			<rect x="138.9" y="252" class="st61" width="2.9" height="1.1"/>
			<rect x="157.3" y="252" class="st61" width="2.9" height="1.1"/>
			<path class="st62" d="M156.3,237.7C156.3,237.7,156.2,237.7,156.3,237.7c-0.1,0-0.1,0-0.2,0c-0.1,0-0.2,0-0.4,0
				c0-0.6-0.4-1.2-1.3-1.9c0.1,0.8-1.6,1.9-2.8,2c-1.8,0-4.1,0.1-6.8,0.1c-7.5,0-7.7,7.2-7.7,11.4c0,4,1.9,1.3,2,6l0,0v-5.6
				c0-1.8,1.1-3.8,3.7-3.8c2.6,0,1.4,0,3.7,0c0,0,0,0,0,0c0.1,0,0.2,0,0.2,0c12.2,0,12.9-8,12.9-8H156.3z"/>
			<path class="st64" d="M149.5,277.9c1.1,0,9.3-7.6,9.3-7.6l-1.3-0.3c-0.2,0-0.3-0.1-0.4-0.2l-7.5,5.2l-7.2-5.5
				c-0.2,0.2-0.5,0.3-0.8,0.4l-1.6,0.4C140,270.4,148.4,277.9,149.5,277.9"/>
		</g>
	</g>
	<path class="st54" d="M147.6,253.9l-0.9,3.7c-0.1,0.4-0.5,0.8-1,0.8c-0.5,0-0.9-0.4-1-0.9l-0.5-3.8c-0.1-1,0.7-1.9,1.7-1.9
		C147,251.7,147.8,252.8,147.6,253.9"/>
	<path class="st53" d="M123.2,253.9l0.9,3.7c0.1,0.4,0.5,0.8,1,0.8c0.5,0,0.9-0.4,1-0.9l0.5-3.8c0.1-1-0.7-1.9-1.7-1.9
		C123.8,251.7,123,252.8,123.2,253.9"/>
</g>
<polygon class="st25" points="142.8,270.1 142.8,264.3 127.9,264.3 127.9,270.1 135.3,276.7 "/>
<g>
	<defs>
		<rect id="SVGID_43_" x="-47" y="-299" width="595.3" height="841.9"/>
	</defs>
	<clipPath id="SVGID_44_">
		<use xlink:href="#SVGID_43_"  style="overflow:visible;"/>
	</clipPath>
	<path class="st65" d="M154.3,272.8l-11.1-2.8c-0.2,0-0.3-0.1-0.4-0.2l-7.5,5.2l-7.2-5.5c-0.2,0.2-0.5,0.3-0.8,0.4l-11.1,2.8
		c-1.5,0.4-2.6,1.7-2.6,3.2v6.5c0,0.9,0.7,1.7,1.7,1.7h39.8c0.9,0,1.7-0.7,1.7-1.7V276C156.9,274.5,155.8,273.2,154.3,272.8"/>
	<path class="st66" d="M127.9,264.1v5.7c9.4,3.6,14.9-4.5,14.9-4.5v-1h-14.9V264.1z"/>
	<path class="st67" d="M124.6,245.2l0.7,15.9c0.1,1.5,0.8,2.9,2,3.8l3.4,2.6c0.9,0.6,1.9,1,3,1h3.3c1.1,0,2.1-0.4,3-1l3.4-2.6
		c1.2-0.9,1.9-2.3,2-3.8l0.7-15.9H124.6z"/>
	<path class="st66" d="M132.8,248.5c3.3,0,8.3-0.8,9.5-3.3l-5.4-1.4l-12.4,1.4l0.7,15.9c0.1,1.5,0.8,2.9,2,3.8l3.4,2.6
		c0.9,0.6,1.9,1,3,1h1.7c-1.7,0-5-3.3-5-7.5v-10C130.4,250.2,131.2,248.5,132.8,248.5"/>
	<path class="st65" d="M119.9,278.8l-5.4-4.8c-0.5,0.6-0.7,1.3-0.7,2.1v6.5c0,0.9,0.7,1.7,1.7,1.7h5.8v-2.3
		C121.2,280.7,120.7,279.6,119.9,278.8"/>
	<path class="st65" d="M150.8,278.8l5.4-4.8c0.5,0.6,0.7,1.3,0.7,2.1v6.5c0,0.9-0.7,1.7-1.7,1.7h-5.8v-2.3
		C149.4,280.7,149.9,279.6,150.8,278.8"/>
	<path class="st68" d="M143.9,241.1c1.3-2.9-1.8-3.3-1.8-3.3s-4,0.2-11.5,0.2c-7.5,0-7.7,7.2-7.7,11.4c0,4,1.9,1.3,2,6l0,0v-5.6
		c0-1.8,1.1-3.8,3.7-3.8c2.6,0,1.4,0,3.7,0c2.3,0,3.3-1.9,5.1-1.3c1.8,0.5,3.6,1.2,4.9,1.7c1.4,0.4,3,2,3,3.8v6.5c0.1-2.3,2-3,2-5.4
		v-6.1C147.3,242.9,145.3,241.4,143.9,241.1"/>
	<path class="st68" d="M140.2,250.8c-1.8,0-2.7,0.6-2.7,1.9c0,1.5,1.2,2.7,2.7,2.7c1.5,0,2.7-1.2,2.7-2.7
		C142.8,251.5,141.9,250.8,140.2,250.8 M140.2,256.6c-2.1,0-3.9-1.7-3.9-3.9c0-2,1.4-3.1,3.9-3.1c2.5,0,3.9,1.1,3.9,3.1
		C144,254.9,142.3,256.6,140.2,256.6"/>
	<path class="st68" d="M130.5,250.8c-1.8,0-2.7,0.6-2.7,1.9c0,1.5,1.2,2.7,2.7,2.7c1.5,0,2.7-1.2,2.7-2.7
		C133.2,251.5,132.3,250.8,130.5,250.8 M130.5,256.6c-2.1,0-3.9-1.7-3.9-3.9c0-2,1.4-3.1,3.9-3.1c2.5,0,3.9,1.1,3.9,3.1
		C134.4,254.9,132.7,256.6,130.5,256.6"/>
	<path class="st68" d="M136.5,253.2c-0.3-0.1-0.7-0.2-1.2-0.2c-0.5,0-0.9,0.1-1.2,0.2l-0.3-1c0.4-0.1,1-0.2,1.5-0.2
		c0.6,0,1.1,0.1,1.5,0.2L136.5,253.2z"/>
</g>
<rect x="124.7" y="252" class="st69" width="2.9" height="1.1"/>
<rect x="143.2" y="252" class="st69" width="2.9" height="1.1"/>
<g>
	<defs>
		<rect id="SVGID_45_" x="-47" y="-299" width="595.3" height="841.9"/>
	</defs>
	<clipPath id="SVGID_46_">
		<use xlink:href="#SVGID_45_"  style="overflow:visible;"/>
	</clipPath>
	<path class="st70" d="M142.1,237.7C142.1,237.7,142.1,237.7,142.1,237.7c-0.1,0-0.1,0-0.2,0c-0.1,0-0.2,0-0.4,0
		c0-0.6-0.4-1.2-1.3-1.9c0.1,0.8-1.6,1.9-2.8,2c-1.8,0-4.1,0.1-6.8,0.1c-7.5,0-7.7,7.2-7.7,11.4c0,4,1.9,1.3,2,6l0,0v-5.6
		c0-1.8,1.1-3.8,3.7-3.8c2.6,0,1.4,0,3.7,0c0,0,0,0,0,0c0.1,0,0.2,0,0.2,0c12.2,0,12.9-8,12.9-8H142.1z"/>
	<path class="st71" d="M135.3,277.9c1.1,0,9.3-7.6,9.3-7.6l-1.3-0.3c-0.2,0-0.3-0.1-0.4-0.2l-7.5,5.2l-7.2-5.5
		c-0.2,0.2-0.5,0.3-0.8,0.4l-1.6,0.4C125.8,270.4,134.2,277.9,135.3,277.9"/>
	<path class="st72" d="M420,362.5l-0.9,3.7c-0.1,0.4-0.5,0.8-1,0.8c-0.5,0-0.9-0.4-1-0.9l-0.5-3.8c-0.1-1,0.7-1.9,1.7-1.9
		C419.4,360.3,420.3,361.4,420,362.5"/>
	<path class="st70" d="M395.7,362.5l0.9,3.7c0.1,0.4,0.5,0.8,1,0.8c0.5,0,0.9-0.4,1-0.9l0.5-3.8c0.1-1-0.7-1.9-1.7-1.9
		C396.2,360.3,395.4,361.4,395.7,362.5"/>
</g>
<polygon class="st25" points="415.2,378.7 415.2,372.9 400.3,372.9 400.3,378.7 407.8,385.3 "/>
<g>
	<defs>
		<rect id="SVGID_47_" x="-47" y="-299" width="595.3" height="841.9"/>
	</defs>
	<clipPath id="SVGID_48_">
		<use xlink:href="#SVGID_47_"  style="overflow:visible;"/>
	</clipPath>
	<path class="st73" d="M426.8,381.4l-11.1-2.8c-0.2,0-0.3-0.1-0.4-0.2l-7.5,5.2l-7.2-5.5c-0.2,0.2-0.5,0.3-0.8,0.4l-11.1,2.8
		c-1.5,0.4-2.6,1.7-2.6,3.2v6.5c0,0.9,0.7,1.7,1.7,1.7h39.8c0.9,0,1.7-0.7,1.7-1.7v-6.5C429.3,383.1,428.3,381.8,426.8,381.4"/>
	<path class="st74" d="M400.3,372.7v5.7c9.4,3.6,14.9-4.5,14.9-4.5v-1h-14.9V372.7z"/>
	<path class="st75" d="M397,353.8l0.7,15.9c0.1,1.5,0.8,2.9,2,3.8l3.4,2.6c0.9,0.6,1.9,1,3,1h3.3c1.1,0,2.1-0.4,3-1l3.4-2.6
		c1.2-0.9,1.9-2.3,2-3.8l0.7-15.9H397z"/>
	<path class="st74" d="M405.3,357.1c3.3,0,8.3-0.8,9.5-3.3l-5.4-1.4l-12.4,1.4l0.7,15.9c0.1,1.5,0.8,2.9,2,3.8l3.4,2.6
		c0.9,0.6,1.9,1,3,1h1.7c-1.7,0-5-3.3-5-7.5v-10C402.8,358.8,403.6,357.1,405.3,357.1"/>
	<path class="st73" d="M392.3,387.4l-5.4-4.8c-0.5,0.6-0.7,1.3-0.7,2.1v6.5c0,0.9,0.7,1.7,1.7,1.7h5.8v-2.3
		C393.7,389.3,393.2,388.2,392.3,387.4"/>
	<path class="st73" d="M423.3,387.4l5.4-4.8c0.5,0.6,0.7,1.3,0.7,2.1v6.5c0,0.9-0.7,1.7-1.7,1.7h-5.8v-2.3
		C421.9,389.3,422.4,388.2,423.3,387.4"/>
	<path class="st76" d="M416.3,349.7c1.3-2.9-1.8-3.3-1.8-3.3s-4,0.2-11.5,0.2c-7.5,0-7.7,7.2-7.7,11.4c0,4,1.9,1.3,2,6l0,0v-5.6
		c0-1.8,1.1-3.8,3.7-3.8c2.6,0,1.4,0,3.7,0c2.3,0,3.3-1.9,5.1-1.3c1.8,0.5,3.6,1.2,4.9,1.7c1.4,0.4,3,2,3,3.8v6.5c0.1-2.3,2-3,2-5.4
		v-6.1C419.8,351.5,417.7,350,416.3,349.7"/>
	<path class="st76" d="M412.6,359.5c-1.8,0-2.7,0.6-2.7,1.9c0,1.5,1.2,2.7,2.7,2.7c1.5,0,2.7-1.2,2.7-2.7
		C415.3,360.1,414.4,359.5,412.6,359.5 M412.6,365.2c-2.1,0-3.9-1.7-3.9-3.9c0-2,1.4-3.1,3.9-3.1c2.5,0,3.9,1.1,3.9,3.1
		C416.5,363.5,414.7,365.2,412.6,365.2"/>
	<path class="st76" d="M403,359.5c-1.8,0-2.7,0.6-2.7,1.9c0,1.5,1.2,2.7,2.7,2.7c1.5,0,2.7-1.2,2.7-2.7
		C405.6,360.1,404.7,359.5,403,359.5 M403,365.2c-2.1,0-3.9-1.7-3.9-3.9c0-2,1.4-3.1,3.9-3.1c2.5,0,3.9,1.1,3.9,3.1
		C406.8,363.5,405.1,365.2,403,365.2"/>
	<path class="st76" d="M409,361.8c-0.3-0.1-0.7-0.2-1.2-0.2c-0.5,0-0.9,0.1-1.2,0.2l-0.3-1c0.4-0.1,1-0.2,1.5-0.2
		c0.6,0,1.1,0.1,1.5,0.2L409,361.8z"/>
</g>
<rect x="397.2" y="360.6" class="st69" width="2.9" height="1.1"/>
<rect x="415.6" y="360.6" class="st69" width="2.9" height="1.1"/>
<g>
	<defs>
		<rect id="SVGID_49_" x="-47" y="-299" width="595.3" height="841.9"/>
	</defs>
	<clipPath id="SVGID_50_">
		<use xlink:href="#SVGID_49_"  style="overflow:visible;"/>
	</clipPath>
	<path class="st77" d="M414.6,346.3C414.5,346.3,414.5,346.3,414.6,346.3c-0.1,0-0.1,0-0.2,0c-0.1,0-0.2,0-0.4,0
		c0-0.6-0.4-1.2-1.3-1.9c0.1,0.8-1.6,1.9-2.8,2c-1.8,0-4.1,0.1-6.8,0.1c-7.5,0-7.7,7.2-7.7,11.4c0,4,1.9,1.3,2,6l0,0v-5.6
		c0-1.8,1.1-3.8,3.7-3.8c2.6,0,1.4,0,3.7,0c0,0,0,0,0,0c0.1,0,0.2,0,0.2,0c12.2,0,12.9-8,12.9-8H414.6z"/>
	<path class="st78" d="M407.8,386.5c1.1,0,9.3-7.6,9.3-7.6l-1.3-0.3c-0.2,0-0.3-0.1-0.4-0.2l-7.5,5.2l-7.2-5.5
		c-0.2,0.2-0.5,0.3-0.8,0.4l-1.6,0.4C398.3,379,406.6,386.5,407.8,386.5"/>
	<path class="st78" d="M147.4,149.5l-0.9,3.6c-0.1,0.4-0.5,0.7-0.9,0.7c-0.5,0-0.9-0.4-1-0.9l-0.5-3.7c-0.1-1,0.7-1.9,1.7-1.9
		C146.9,147.4,147.7,148.4,147.4,149.5"/>
	<path class="st78" d="M145.5,140.3c0,0,0.9-3.4-1.7-6.9c5.4,4,4.4,10.8,4.4,10.8c-1.6,1.6-1.6,5.7-1.6,5.7l-1.6-1.6
		c0,0,0.6-4.7-2.4-6.5c-2.8-1.7-5.3-0.8-7.8-0.8c-1.1,0-2.1-0.1-2.9-0.2C137,140.9,140.1,137,145.5,140.3"/>
	<path class="st79" d="M123.3,149.5l0.9,3.6c0.1,0.4,0.5,0.7,0.9,0.7c0.5,0,0.9-0.4,1-0.9l0.5-3.7c0.1-1-0.7-1.9-1.7-1.9
		C123.8,147.4,123,148.4,123.3,149.5"/>
	<path class="st77" d="M153.9,166.2l-10-2.4c-0.2,0-0.3-0.1-0.4-0.2l-8.1,4.7l-7.8-5c-0.2,0.2-0.5,0.3-0.7,0.4l-10,2.4
		c-1.5,0.3-2.5,1.6-2.5,3.1v6.3c0,0.9,0.7,1.6,1.6,1.6h38.8c0.9,0,1.6-0.7,1.6-1.6v-6.3C156.4,167.9,155.4,166.6,153.9,166.2"/>
</g>
<polygon class="st80" points="129.9,171.1 131.9,177.3 138.2,177.3 139.2,177.3 141.7,168.8 135.4,168.4 "/>
<polygon class="st81" points="142.7,163.6 142.7,157.9 128.1,157.9 128.1,163.6 135.4,170 "/>
<g>
	<defs>
		<rect id="SVGID_51_" x="-47" y="-299" width="595.3" height="841.9"/>
	</defs>
	<clipPath id="SVGID_52_">
		<use xlink:href="#SVGID_51_"  style="overflow:visible;"/>
	</clipPath>
	<path class="st82" d="M128.1,157.9v6c9.2,3.3,14.5-5,14.5-5v-1H128.1z"/>
	<path class="st83" d="M124.9,139.3l0.7,15.5c0.1,1.4,0.8,2.8,1.9,3.7l3.3,2.5c0.8,0.6,1.9,1,2.9,1h3.2c1,0,2.1-0.3,2.9-1l3.3-2.5
		c1.2-0.9,1.9-2.2,1.9-3.7l0.7-15.5H124.9z"/>
	<path class="st82" d="M133,142.6c3.2,0,8.1-0.8,9.2-3.2h-17.3l0.7,15.5c0.1,1.4,0.8,2.8,1.9,3.7l3.3,2.5c0.8,0.6,1.9,1,2.9,1h1.6
		c-1.6,0-4.8-3.2-4.8-7.3V145C130.5,144.2,131.3,142.6,133,142.6"/>
	<path class="st84" d="M120.3,172.1l-5.2-4.7c-0.4,0.6-0.7,1.3-0.7,2v6.3c0,0.9,0.7,1.6,1.6,1.6h5.7v-2.2
		C121.6,173.9,121.2,172.8,120.3,172.1"/>
	<path class="st84" d="M150.5,172.1l5.2-4.7c0.4,0.6,0.7,1.3,0.7,2v6.3c0,0.9-0.7,1.6-1.6,1.6h-5.7v-2.2
		C149.1,173.9,149.6,172.8,150.5,172.1"/>
	<path class="st85" d="M137.4,168.4h-4v1.5c0,0.5,0.4,0.9,0.9,0.9h2.2c0.5,0,0.9-0.4,0.9-0.9V168.4z"/>
	<path class="st83" d="M128,161.8l7.4,6.6c0,0-2.1,1-4.6,3.1c-0.5,0.4-1.3,0.3-1.6-0.4l-3.5-7.6l1.1-1.6
		C127.1,161.5,127.6,161.5,128,161.8"/>
	<path class="st83" d="M142.8,161.8l-7.4,6.6c0,0,2.1,1,4.6,3.1c0.5,0.4,1.3,0.3,1.6-0.4l3.5-7.6l-1.1-1.6
		C143.7,161.5,143.1,161.5,142.8,161.8"/>
	<path class="st85" d="M130.4,134l-0.8,5.4c-3.5,0.7-4,6.1-4,7.7c0,0.3-0.1,0.6-0.3,0.8l-1.3,2c0,0,0.5-3.4-1.6-5.7
		C122.4,144.2,121.7,130.8,130.4,134"/>
	<path class="st85" d="M145,132.5l-1.2,0.8c5.4,4,4.4,10.8,4.4,10.8c-1.6,1.6-1.6,5.7-1.6,5.7l-1.6-1.6c0,0,0.6-4.7-2.4-6.5
		c-2.8-1.7-5.3-0.8-7.8-0.8c-6.8,0-8.7-2.5-8.3-5.7c0.2-1.6,2.6-5,8.9-4.8C137.8,130.5,142.5,131.3,145,132.5"/>
</g>
<polygon class="st69" points="137.4,177.3 133.4,177.3 133.9,170 136.9,170 "/>
<g>
	<defs>
		<rect id="SVGID_53_" x="-47" y="-299" width="595.3" height="841.9"/>
	</defs>
	<clipPath id="SVGID_54_">
		<use xlink:href="#SVGID_53_"  style="overflow:visible;"/>
	</clipPath>
	<path class="st86" d="M146.8,168.7c0.1,0,0.2-0.1,0.2-0.2c0-0.1-0.1-0.2-0.2-0.2c-0.1,0-0.2,0.1-0.2,0.2
		C146.5,168.6,146.7,168.7,146.8,168.7"/>
	<path class="st86" d="M147.8,169.6c0.1,0,0.2-0.1,0.2-0.2c0-0.1-0.1-0.2-0.2-0.2c-0.1,0-0.2,0.1-0.2,0.2
		C147.5,169.5,147.6,169.6,147.8,169.6"/>
	<path class="st86" d="M148.7,168.7c0.1,0,0.2-0.1,0.2-0.2c0-0.1-0.1-0.2-0.2-0.2c-0.1,0-0.2,0.1-0.2,0.2
		C148.5,168.6,148.6,168.7,148.7,168.7"/>
	<path class="st86" d="M149.7,169.4c0.1,0,0.2-0.1,0.2-0.2c0-0.1-0.1-0.2-0.2-0.2c-0.1,0-0.2,0.1-0.2,0.2
		C149.4,169.3,149.6,169.4,149.7,169.4"/>
	<path class="st86" d="M147.8,173.9c-0.9,0-1.7-0.8-1.7-1.7v-1.3l1.7,1l0.1,0l1.6-0.9v1.3C149.5,173.1,148.7,173.9,147.8,173.9
		 M145.6,170.7L145.6,170.7v1.5c0,1.2,1,2.2,2.2,2.2s2.2-1,2.2-2.2v-1.5v-0.1v-0.8c0-0.1-0.1-0.2-0.2-0.2c-0.1,0-0.2,0.1-0.2,0.2
		v0.4c0,0.1-0.1,0.2-0.2,0.2c-0.1,0-0.2-0.1-0.2-0.2l0,0v0v-1c0-0.1-0.1-0.2-0.2-0.2c-0.1,0-0.2,0.1-0.2,0.2v1.2v0.4
		c0,0.1-0.1,0.2-0.2,0.2s-0.2-0.1-0.2-0.2v-0.1V170c0-0.1-0.1-0.2-0.2-0.2c-0.1,0-0.2,0.1-0.2,0.2v0.6v0.1c0,0.1-0.1,0.2-0.2,0.2
		c-0.1,0-0.2-0.1-0.2-0.2v-0.4v-1.2c0-0.1-0.1-0.2-0.2-0.2s-0.2,0.1-0.2,0.2v1v0l0,0c0,0.1-0.1,0.2-0.2,0.2c-0.1,0-0.2-0.1-0.2-0.2
		v-0.4c0-0.1-0.1-0.2-0.2-0.2c-0.1,0-0.2,0.1-0.2,0.2V170.7z"/>
	<path class="st86" d="M145.8,168.9c0.1,0,0.2,0.1,0.2,0.2c0,0.1-0.1,0.2-0.2,0.2c-0.1,0-0.2-0.1-0.2-0.2
		C145.6,169,145.7,168.9,145.8,168.9"/>
</g>
</svg>
