<?xml version="1.0" encoding="utf-8"?>
<!-- Generator: Adobe Illustrator 19.0.0, SVG Export Plug-In . SVG Version: 6.00 Build 0)  -->
<svg version="1.1" id="Layer_1" xmlns="http://www.w3.org/2000/svg" xmlns:xlink="http://www.w3.org/1999/xlink" x="0px" y="0px"
	 viewBox="0 0 401 268" style="enable-background:new 0 0 401 268;" xml:space="preserve">
<style type="text/css">
	.st0{clip-path:url(#SVGID_2_);}
	.st1{opacity:0.2;clip-path:url(#SVGID_4_);}
	.st2{clip-path:url(#SVGID_6_);}
	.st3{clip-path:url(#SVGID_8_);fill:url(#SVGID_9_);}
	.st4{fill:#371BE1;}
	.st5{font-family:'Montserrat-Regular';}
	.st6{font-size:12px;}
	.st7{clip-path:url(#SVGID_11_);fill:#FFFFFF;}
	.st8{clip-path:url(#SVGID_11_);fill:#381CE0;}
	.st9{clip-path:url(#SVGID_2_);fill:none;stroke:#381CE0;stroke-linecap:round;stroke-linejoin:round;stroke-miterlimit:10;}
	.st10{clip-path:url(#SVGID_13_);fill:#FFFFFF;}
	.st11{clip-path:url(#SVGID_13_);fill:#381CE0;}
	.st12{clip-path:url(#SVGID_2_);fill:#FFFFFF;}
	.st13{font-family:'Montserrat-Bold';}
	.st14{font-size:10px;}
	.st15{clip-path:url(#SVGID_15_);fill:#381CE0;}
</style>
<g>
	<defs>
		<rect id="SVGID_1_" x="-99.6" y="-280" width="595.3" height="841.9"/>
	</defs>
	<clipPath id="SVGID_2_">
		<use xlink:href="#SVGID_1_"  style="overflow:visible;"/>
	</clipPath>
	<g class="st0">
		<defs>
			<rect id="SVGID_3_" x="-99.6" y="-280" width="595.3" height="841.9"/>
		</defs>
		<clipPath id="SVGID_4_">
			<use xlink:href="#SVGID_3_"  style="overflow:visible;"/>
		</clipPath>
		<g class="st1">
			<g>
				<defs>
					<rect id="SVGID_5_" y="45.9" width="401" height="154"/>
				</defs>
				<clipPath id="SVGID_6_">
					<use xlink:href="#SVGID_5_"  style="overflow:visible;"/>
				</clipPath>
				<g class="st2">
					<defs>
						<polygon id="SVGID_7_" points="9,195.9 199,52.9 392,198.9 						"/>
					</defs>
					<clipPath id="SVGID_8_">
						<use xlink:href="#SVGID_7_"  style="overflow:visible;"/>
					</clipPath>
					
						<linearGradient id="SVGID_9_" gradientUnits="userSpaceOnUse" x1="-97.6439" y1="559.702" x2="-96.6439" y2="559.702" gradientTransform="matrix(0 -146 -146 0 81917 -14057.0801)">
						<stop  offset="0" style="stop-color:#FFFFFF"/>
						<stop  offset="0.1702" style="stop-color:#D7D9EB"/>
						<stop  offset="0.4578" style="stop-color:#9A9ECB"/>
						<stop  offset="0.702" style="stop-color:#6D72B4"/>
						<stop  offset="0.8904" style="stop-color:#5158A6"/>
						<stop  offset="1" style="stop-color:#474EA1"/>
					</linearGradient>
					<rect x="9" y="52.9" class="st3" width="383" height="146"/>
				</g>
			</g>
		</g>
	</g>
	<g class="st0">
		<text transform="matrix(1 0 0 1 296.2968 242.766)" class="st4 st5 st6">Partners</text>
	</g>
	<g class="st0">
		<text transform="matrix(1 0 0 1 50.2128 242.766)"><tspan x="0" y="0" class="st4 st5 st6">E</tspan><tspan x="8" y="0" class="st4 st5 st6">x</tspan><tspan x="14.1" y="0" class="st4 st5 st6">changes</tspan></text>
	</g>
	<g class="st0">
		<text transform="matrix(1 0 0 1 191.1166 243.1263)"><tspan x="0" y="0" class="st4 st5 st6">I</tspan><tspan x="3.6" y="0" class="st4 st5 st6">C</tspan><tspan x="12.1" y="0" class="st4 st5 st6">O</tspan></text>
	</g>
	<g class="st0">
		<defs>
			<rect id="SVGID_10_" x="-99.6" y="-280" width="595.3" height="841.9"/>
		</defs>
		<clipPath id="SVGID_11_">
			<use xlink:href="#SVGID_10_"  style="overflow:visible;"/>
		</clipPath>
		<path class="st7" d="M350,197.2c0,15.8-12.8,28.6-28.6,28.6c-15.8,0-28.6-12.8-28.6-28.6c0-15.8,12.8-28.6,28.6-28.6
			C337.2,168.5,350,181.4,350,197.2"/>
		<path class="st8" d="M335.8,193.9l-4,4.5l-1.8-1.7c-0.6-0.5-1.5-1.3-2.2-1.8l-2.6-1.9c-0.4-0.3-1-0.4-1.5-0.5
			c-0.5,0-0.9,0.1-1.3,0.3l-0.9,0.6c-0.1,0.1-0.3,0.1-0.5,0.1c-0.3,0-0.6-0.1-0.8-0.4l-0.2-0.3l0,0c-0.1-0.1-0.2-0.3-0.2-0.5
			c0-0.3,0.1-0.5,0.3-0.7l2.8-2c0.2-0.2,0.7-0.3,1.1-0.3c0.3,0,0.6,0.1,0.7,0.1l2.3,1.1c0.4,0.2,0.8,0.3,1.3,0.3
			c0.6,0,1.1-0.1,1.6-0.4l2.3-1.4c0.1-0.1,0.3-0.1,0.5-0.1c0.3,0,0.6,0.1,0.8,0.4l2.4,3c0.1,0.2,0.2,0.4,0.2,0.7
			C336.1,193.4,336,193.7,335.8,193.9 M332.6,200.8c0,0.2-0.1,0.4-0.2,0.6l-0.2,0.3c-0.2,0.2-0.4,0.3-0.6,0.3
			c-0.2,0-0.4-0.1-0.6-0.2l-4-3.7l-0.7,0.7l4.3,4c0.2,0.2,0.3,0.4,0.3,0.6c0,0.2-0.1,0.4-0.2,0.6l-0.2,0.3c-0.2,0.2-0.4,0.3-0.6,0.3
			c-0.2,0-0.4-0.1-0.6-0.2l-4-3.7l-0.7,0.7l3.6,3.3c0.2,0.2,0.3,0.4,0.3,0.6c0,0.2-0.1,0.4-0.2,0.6l-0.2,0.3
			c-0.2,0.2-0.4,0.3-0.6,0.3c-0.2,0-0.4-0.1-0.6-0.2l-3.6-3.3h0v0l-0.7,0.7h0l0,0l1.8,1.6c0.2,0.2,0.2,0.4,0.2,0.6
			c0,0.2-0.1,0.4-0.2,0.6l-0.2,0.3c-0.2,0.2-0.4,0.3-0.6,0.3c-0.2,0-0.4-0.1-0.6-0.2l-1.6-1.4c0.1-0.3,0.2-0.6,0.2-0.8
			c0-0.5-0.2-1-0.6-1.3l-0.3-0.2c-0.4-0.3-0.8-0.5-1.3-0.5c0,0-0.1,0-0.1,0c0,0,0,0,0,0c0-0.5-0.6-1.4-0.6-1.4l-0.3-0.2
			c-0.3-0.3-0.6-0.4-0.9-0.5c0.1-0.2,0.1-0.4,0.1-0.6c0-0.5-0.2-1-0.6-1.3l-0.3-0.2c-0.4-0.3-0.8-0.5-1.3-0.5c-0.1,0-0.1,0-0.2,0
			c0-0.5-0.2-0.9-0.6-1.3l-0.3-0.2c-0.4-0.3-0.8-0.5-1.3-0.5c-0.5,0-1,0.2-1.4,0.6l-0.6,0.6l-2.7-2.3c-0.2-0.2-0.3-0.4-0.3-0.6
			c0-0.2,0.1-0.4,0.2-0.5l2.8-3.2c0.1-0.1,0.3-0.2,0.5-0.3c0.2-0.1,0.4-0.1,0.6-0.1c0.2,0,0.3,0,0.5,0.1l1.5,0.7
			c0.4,0.2,0.9,0.3,1.5,0.3c0.5,0,1-0.1,1.5-0.3l1.6-0.7c0.2-0.1,0.6-0.2,1-0.2c0.4,0,0.8,0.1,1,0.2c0.1,0.1,0.3,0.1,0.4,0.2
			l-1.6,1.1c-0.5,0.4-0.8,0.9-0.8,1.5c0,0.4,0.1,0.8,0.4,1.1l0,0l0.2,0.3c0.4,0.5,1,0.8,1.6,0.8c0.3,0,0.7-0.1,1-0.3l0.9-0.6
			c0.2-0.1,0.5-0.2,0.8-0.2c0.4,0,0.7,0.1,0.9,0.3l2.6,1.9c0.6,0.4,1.5,1.2,2.1,1.7l3,2.8C332.5,200.4,332.6,200.6,332.6,200.8
			 M320.1,204.9l-1.4,1.5c-0.2,0.2-0.4,0.3-0.6,0.3c-0.2,0-0.4-0.1-0.6-0.2l-0.3-0.2c-0.2-0.2-0.3-0.4-0.3-0.6
			c0-0.2,0.1-0.4,0.2-0.6l1.4-1.5c0.2-0.2,0.4-0.3,0.6-0.3c0.2,0,0.4,0.1,0.6,0.2l0.3,0.2c0.2,0.2,0.3,0.4,0.3,0.6
			C320.3,204.5,320.2,204.7,320.1,204.9 M315.6,205.2c-0.2,0.2-0.4,0.3-0.6,0.3c-0.2,0-0.4-0.1-0.6-0.2l-0.3-0.2
			c-0.2-0.2-0.3-0.4-0.3-0.6c0-0.2,0.1-0.4,0.2-0.5l2.4-2.5c0.2-0.1,0.4-0.2,0.6-0.2c0.2,0,0.4,0.1,0.6,0.2l0.3,0.2
			c0.2,0.2,0.3,0.4,0.3,0.6c0,0.2-0.1,0.4-0.2,0.6L315.6,205.2z M312.8,203.7c-0.2,0.2-0.4,0.3-0.6,0.3c-0.2,0-0.4-0.1-0.6-0.2
			l-0.3-0.2c-0.2-0.2-0.3-0.4-0.3-0.6c0-0.2,0.1-0.4,0.2-0.6c0,0,3.4-3.5,3.4-3.6c0.2-0.2,0.4-0.2,0.6-0.2c0.2,0,0.4,0.1,0.6,0.2
			l0.3,0.2c0.2,0.2,0.3,0.4,0.3,0.6c0,0.2-0.1,0.4-0.2,0.6L312.8,203.7z M310.7,201c-0.2,0-0.4-0.1-0.6-0.2l-0.3-0.2
			c-0.2-0.2-0.3-0.4-0.3-0.6c0-0.2,0.1-0.4,0.2-0.6l2.6-2.7c0.2-0.2,0.4-0.3,0.6-0.3c0.2,0,0.4,0.1,0.6,0.2l0.3,0.2
			c0,0,0.3,0.4,0.3,0.6c0,0.2-0.1,0.3-0.2,0.5c0,0-2.8,2.9-2.8,2.9C311.1,200.9,310.9,201,310.7,201 M337.1,193.1
			c0-0.5-0.1-0.9-0.4-1.3l-2.4-3c-0.4-0.5-1-0.8-1.6-0.8c-0.4,0-0.7,0.1-1.1,0.3l-2.3,1.4c-0.2,0.2-0.7,0.3-1.1,0.3
			c-0.3,0-0.6-0.1-0.8-0.2l-2.3-1.1c-0.4-0.2-0.8-0.2-1.2-0.2c-0.6,0-1.2,0.1-1.7,0.5l-0.3,0.2c-0.2-0.1-0.5-0.3-0.9-0.5
			c-0.4-0.2-1-0.3-1.5-0.3c-0.5,0-0.9,0.1-1.4,0.2l-1.5,0.7c-0.3,0.1-0.7,0.2-1.1,0.2c-0.4,0-0.8-0.1-1-0.2l-1.6-0.7
			c-0.3-0.1-0.6-0.2-0.9-0.2c-0.3,0-0.7,0.1-1,0.2c-0.3,0.1-0.6,0.3-0.8,0.6l-2.8,3.2c-0.3,0.3-0.5,0.8-0.5,1.2c0,0.5,0.2,1,0.6,1.4
			l2.6,2.2l-1.2,1.3c-0.3,0.4-0.5,0.8-0.5,1.3c0,0.5,0.2,1,0.6,1.4l0.3,0.2c0.2,0.2,0.5,0.4,0.8,0.4c-0.2,0.3-0.2,0.6-0.2,0.9
			c0,0.5,0.2,1,0.6,1.3h0l0.3,0.2c0.4,0.3,0.8,0.5,1.3,0.5c0.2,0,0.5,0,0.7-0.1c0.1,0.3,0.3,0.6,0.5,0.9l0.3,0.2
			c0.4,0.3,0.8,0.5,1.3,0.5c0.4,0,0.7-0.1,1-0.3c0.1,0.3,0.2,0.6,0.5,0.8l0.3,0.2c0.4,0.3,0.8,0.5,1.3,0.5c0.5,0,1-0.2,1.4-0.6
			l1.1-1.2l1.5,1.4c0.4,0.3,0.8,0.5,1.3,0.5c0.5,0,1-0.2,1.4-0.6l0.2-0.3c0.2-0.2,0.3-0.5,0.4-0.8l0.6,0.5c0.4,0.3,0.8,0.5,1.3,0.5
			c0.5,0,1-0.2,1.4-0.6l0.2-0.3c0.3-0.3,0.4-0.7,0.5-1c0.2,0,0.3,0.1,0.5,0.1c0.5,0,1-0.2,1.4-0.6l0.2-0.3c0.3-0.4,0.5-0.8,0.5-1.3
			c0-0.1,0-0.3-0.1-0.4c0.4-0.1,0.8-0.2,1.1-0.6l0.2-0.3c0.3-0.4,0.5-0.8,0.5-1.3c0-0.5-0.2-1-0.6-1.4l-0.4-0.4l4-4.5
			C337,194.2,337.1,193.7,337.1,193.1"/>
		<path class="st7" d="M111,196.8c0,15.8-12.8,28.6-28.6,28.6c-15.8,0-28.6-12.8-28.6-28.6c0-15.8,12.8-28.6,28.6-28.6
			C98.2,168.2,111,181,111,196.8"/>
		<path class="st8" d="M91.3,201.1c0.2,0,0.4-0.2,0.4-0.4c0-0.2-0.2-0.4-0.4-0.4c-0.2,0-0.4,0.2-0.4,0.4
			C91,200.9,91.2,201.1,91.3,201.1"/>
		<path class="st8" d="M92.8,202.3c0.2,0,0.4-0.2,0.4-0.4c0-0.2-0.2-0.4-0.4-0.4c-0.2,0-0.4,0.2-0.4,0.4
			C92.4,202.2,92.6,202.3,92.8,202.3"/>
		<path class="st8" d="M94.2,201.1c0.2,0,0.4-0.2,0.4-0.4c0-0.2-0.2-0.4-0.4-0.4c-0.2,0-0.4,0.2-0.4,0.4
			C93.8,200.9,94,201.1,94.2,201.1"/>
		<path class="st8" d="M95.6,202c0.2,0,0.4-0.2,0.4-0.4c0-0.2-0.2-0.4-0.4-0.4c-0.2,0-0.4,0.2-0.4,0.4C95.3,201.9,95.4,202,95.6,202
			"/>
		<path class="st8" d="M92.8,208.7c-1.4,0-2.5-1.1-2.5-2.5v-1.9l2.5,1.4l0.1-0.1l2.4-1.4v1.9C95.3,207.6,94.2,208.7,92.8,208.7
			 M89.6,203.9v0.1v2.2c0,1.8,1.4,3.2,3.2,3.2s3.2-1.4,3.2-3.2V204v-0.1v-1.2c0-0.2-0.2-0.4-0.4-0.4c-0.2,0-0.4,0.2-0.4,0.4v0.5
			c0,0.2-0.2,0.4-0.4,0.4c-0.2,0-0.3-0.1-0.4-0.3l0,0v-0.1v-1.5c0-0.2-0.2-0.4-0.4-0.4c-0.2,0-0.4,0.2-0.4,0.4v1.7v0.6
			c0,0.2-0.2,0.4-0.4,0.4c-0.2,0-0.4-0.2-0.4-0.4v-0.2V203c0-0.2-0.2-0.4-0.4-0.4c-0.2,0-0.4,0.2-0.4,0.4v0.9v0.2
			c0,0.2-0.2,0.4-0.4,0.4c-0.2,0-0.4-0.2-0.4-0.4v-0.6v-1.7c0-0.2-0.2-0.4-0.4-0.4s-0.4,0.2-0.4,0.4v1.5v0.1l0,0
			c0,0.2-0.2,0.3-0.4,0.3c-0.2,0-0.4-0.2-0.4-0.4v-0.5c0-0.2-0.2-0.4-0.4-0.4s-0.4,0.2-0.4,0.4V203.9z"/>
		<path class="st8" d="M89.9,201.3c0.2,0,0.4,0.2,0.4,0.4c0,0.2-0.2,0.4-0.4,0.4c-0.2,0-0.4-0.2-0.4-0.4
			C89.6,201.5,89.7,201.3,89.9,201.3"/>
		<path class="st8" d="M76.8,191.7c-1.3,0-2.4-1.1-2.4-2.4c0-1.3,1.1-2.4,2.4-2.4c1.3,0,2.4,1.1,2.4,2.4
			C79.2,190.6,78.1,191.7,76.8,191.7 M76.8,185.9c-1.9,0-3.4,1.5-3.4,3.4s1.5,3.4,3.4,3.4c1.9,0,3.4-1.5,3.4-3.4
			C80.2,187.5,78.7,185.9,76.8,185.9"/>
		<path class="st8" d="M83.4,208.2h-2.9c-0.3,0-0.5,0.2-0.5,0.5c0,0.3,0.2,0.5,0.5,0.5h2.9c0.3,0,0.5-0.2,0.5-0.5
			C83.9,208.4,83.7,208.2,83.4,208.2"/>
		<path class="st8" d="M82.4,206.3h-1.9c-0.3,0-0.5,0.2-0.5,0.5c0,0.3,0.2,0.5,0.5,0.5h1.9c0.3,0,0.5-0.2,0.5-0.5
			C82.9,206.6,82.7,206.3,82.4,206.3"/>
		<path class="st8" d="M97.7,194.8c-0.2-0.2-0.5-0.2-0.7,0l-0.6,0.6v-0.5c0-3.8-3.1-7-7-7c-0.3,0-0.5,0.2-0.5,0.5
			c0,0.3,0.2,0.5,0.5,0.5c3.3,0,5.9,2.7,5.9,5.9v0.5l-0.6-0.6c-0.2-0.2-0.5-0.2-0.7,0c-0.2,0.2-0.2,0.5,0,0.7l1.5,1.5
			c0.1,0.1,0.2,0.1,0.4,0.1c0.1,0,0.3-0.1,0.4-0.1l1.5-1.5C97.9,195.3,97.9,195,97.7,194.8"/>
		<path class="st8" d="M75.9,205.2c-3.3,0-5.9-2.7-5.9-5.9v-0.5l0.6,0.6c0.2,0.2,0.5,0.2,0.7,0c0.2-0.2,0.2-0.5,0-0.7l-1.5-1.5
			c-0.1-0.1-0.2-0.1-0.4-0.1c-0.1,0-0.3,0.1-0.4,0.1l-1.5,1.5c-0.2,0.2-0.2,0.5,0,0.7c0.1,0.1,0.2,0.1,0.4,0.1c0.1,0,0.3,0,0.4-0.1
			l0.6-0.6v0.5c0,3.8,3.1,7,7,7c0.3,0,0.5-0.2,0.5-0.5C76.4,205.4,76.2,205.2,75.9,205.2"/>
		<path class="st8" d="M98.6,209.4c0,0.5-0.4,1-0.9,1H86v-11.1h4.1h1.7h1.1h4.7c0.5,0,0.9,0.4,0.9,0.9V209.4z M85,210.3h-5.6
			c-0.5,0-0.9-0.4-0.9-1v-9.2c0-0.5,0.4-0.9,0.9-0.9H85V210.3z M97.7,198.2h-5.8h-1.7h-0.6H79.4c-1.1,0-2,0.9-2,2v9.2
			c0,1.1,0.9,2,2,2h18.2c1.1,0,2-0.9,2-2v-9.2C99.6,199.1,98.7,198.2,97.7,198.2"/>
		<path class="st8" d="M86.9,193.9c0,0.5-0.4,1-0.9,1H67.7c-0.5,0-0.9-0.4-0.9-1v-1.8v-0.9v-1.7v-0.7v-4.1c0-0.5,0.4-1,0.9-1h18.2
			c0.5,0,0.9,0.4,0.9,1V193.9z M85.9,182.8H67.7c-1.1,0-2,0.9-2,2v4.1v0.7v1.7v0.9v1.8c0,1.1,0.9,2,2,2h18.2c1.1,0,2-0.9,2-2v-9.2
			C87.9,183.6,87,182.8,85.9,182.8"/>
	</g>
	<path class="st9" d="M82.1,189.3H85 M83.1,192.7l-1.5-0.8 M83.3,186l-1.6,0.8 M70.6,192.7l1.5-0.8 M70.5,186l1.6,0.8 M68.6,189.3
		h2.9"/>
	<g class="st0">
		<defs>
			<rect id="SVGID_12_" x="-99.6" y="-280" width="595.3" height="841.9"/>
		</defs>
		<clipPath id="SVGID_13_">
			<use xlink:href="#SVGID_12_"  style="overflow:visible;"/>
		</clipPath>
		<path class="st10" d="M230.5,197.2c0,15.8-12.8,28.6-28.6,28.6c-15.8,0-28.6-12.8-28.6-28.6c0-15.8,12.8-28.6,28.6-28.6
			C217.7,168.5,230.5,181.4,230.5,197.2"/>
		<path class="st11" d="M203.9,205.1c-0.6,0.5-1.4,0.6-2.2,0.5l-7.8-1.2c-0.2,0-0.4,0-0.5,0.1l-2,1.6c0,0,0,0,0,0
			c-0.6,0.5-1.1,0.6-1.6,0.4c-0.6-0.3-1.1-1.1-1.2-1.9c0-0.4,0-1.3,0.8-1.8l4.7-2.8c0.2-0.1,2.3-1.1,4-0.6l4.2,1.3c0,0,0,0.1,0,0.1
			c-0.1,0.3-0.3,0.5-0.7,0.5c-1.4,0.2-3.7,0.1-3.7,0.1c-0.4,0-0.7,0.2-0.7,0.6c0,0.4,0.2,0.7,0.6,0.7c0.1,0,2.5,0.2,4-0.1
			c0.2,0,0.4-0.1,0.6-0.2c0,0,0.1,0,0.1,0c0,0,7.3-3.1,9-3.8c0.5-0.2,0.9-0.2,1.2,0c0,0,0,0,0,0L203.9,205.1z M214.2,198.5
			c-0.4-0.7-1.5-1.8-3.3-1c-1.1,0.5-5,2.1-7.3,3.1c0-0.1,0-0.2,0-0.3c0-0.3-0.2-0.5-0.5-0.6l-4.7-1.4c-2.3-0.7-4.9,0.6-5,0.6
			c0,0,0,0,0,0l-4.7,2.8c0,0-0.1,0.1-0.1,0.1c-0.9,0.6-1.3,1.7-1.3,2.9c0.1,1.4,0.9,2.6,2,3c0.2,0.1,0.5,0.2,0.9,0.2
			c0.5,0,1.2-0.2,1.9-0.8c0,0,0.1,0,0.1,0l1.7-1.5l7.5,1.2c1.1,0.2,2.2-0.1,3.1-0.8l9.3-6.8C214.3,199.1,214.3,198.8,214.2,198.5"/>
		<path class="st11" d="M200.5,192.2c0.5-0.5,1.1-0.7,1.7-0.7c0.7,0,1.3,0.3,1.7,0.7c1,1,1,2.5,0,3.5c-0.5,0.5-1.1,0.7-1.7,0.7
			c-0.7,0-1.3-0.3-1.7-0.7C199.6,194.8,199.6,193.2,200.5,192.2 M202.3,197.7c1,0,1.9-0.4,2.7-1.1c1.5-1.5,1.5-3.8,0-5.3
			c-0.7-0.7-1.7-1.1-2.7-1.1c-1,0-1.9,0.4-2.7,1.1c-1.5,1.5-1.5,3.8,0,5.3C200.3,197.4,201.3,197.7,202.3,197.7"/>
		<path class="st11" d="M205.5,186.3c0.3-0.3,0.7-0.5,1.2-0.5s0.9,0.2,1.2,0.5c0.6,0.6,0.6,1.7,0,2.3c-0.3,0.3-0.7,0.5-1.2,0.5
			s-0.9-0.2-1.2-0.5C204.9,188,204.9,187,205.5,186.3 M206.7,190.4c0.8,0,1.5-0.3,2.1-0.9c1.1-1.1,1.1-3,0-4.1
			c-0.6-0.6-1.3-0.9-2.1-0.9c-0.8,0-1.5,0.3-2.1,0.9c-1.1,1.1-1.1,3,0,4.1C205.2,190.1,205.9,190.4,206.7,190.4"/>
	</g>
	<polygon class="st12" points="172,48.9 174,71.9 176.4,80.9 185,87.9 196,91.9 206,91.9 215,86.9 221,79.9 224,72.9 225,56 
		224.4,46.9 221,45.9 211,47.9 205,54.9 198,56.9 187,51.9 175,46.9 	"/>
	<g class="st0">
		<text transform="matrix(1 0 0 1 186.83 116.9178)" class="st4 st13 st14">MPS</text>
	</g>
	<g class="st0">
		<defs>
			<rect id="SVGID_14_" x="-99.6" y="-280" width="595.3" height="841.9"/>
		</defs>
		<clipPath id="SVGID_15_">
			<use xlink:href="#SVGID_14_"  style="overflow:visible;"/>
		</clipPath>
		<path class="st15" d="M184.9,19.8c1.8,0,3.3-1.5,3.3-3.3c0-1.8-1.5-3.3-3.3-3.3c-1.8,0-3.3,1.5-3.3,3.3
			C181.6,18.3,183.1,19.8,184.9,19.8"/>
		<path class="st15" d="M198,31.3c1.8,0,3.3-1.5,3.3-3.3c0-1.8-1.5-3.3-3.3-3.3c-1.8,0-3.3,1.5-3.3,3.3
			C194.7,29.8,196.2,31.3,198,31.3"/>
		<path class="st15" d="M211.1,19.8c1.8,0,3.3-1.5,3.3-3.3c0-1.8-1.5-3.3-3.3-3.3c-1.8,0-3.3,1.5-3.3,3.3
			C207.8,18.3,209.3,19.8,211.1,19.8"/>
		<path class="st15" d="M224.2,28.5c1.8,0,3.3-1.5,3.3-3.3c0-1.8-1.5-3.3-3.3-3.3c-1.8,0-3.3,1.5-3.3,3.3
			C221,27,222.4,28.5,224.2,28.5"/>
		<path class="st15" d="M198,89.6c-12.6,0-23-10.4-23-23V49.4l23,13.3l1-0.6L221,49.4v17.3C221,79.3,210.6,89.6,198,89.6
			 M168.5,45.9v1v19.9c0,16.2,13.3,29.5,29.5,29.5c16.2,0,29.5-13.3,29.5-29.5V46.8v-1V34.4c0-1.8-1.5-3.3-3.3-3.3
			c-1.8,0-3.3,1.5-3.3,3.3v4.9c0,1.8-1.5,3.3-3.3,3.3c-1.6,0-3-1.2-3.2-2.7l0,0v-0.6V25.7c0-1.8-1.5-3.3-3.3-3.3
			c-1.8,0-3.3,1.5-3.3,3.3v15.9v5.3c0,1.8-1.5,3.3-3.3,3.3c-1.8,0-3.3-1.5-3.3-3.3v-1.5v-8.1c0-1.8-1.5-3.3-3.3-3.3
			c-1.8,0-3.3,1.5-3.3,3.3v8.1v1.5c0,1.8-1.5,3.3-3.3,3.3c-1.8,0-3.3-1.5-3.3-3.3v-5.3V25.7c0-1.8-1.5-3.3-3.3-3.3
			c-1.8,0-3.3,1.5-3.3,3.3v13.6v0.6l0,0c-0.3,1.5-1.6,2.7-3.2,2.7c-1.8,0-3.3-1.5-3.3-3.3v-4.9c0-1.8-1.5-3.3-3.3-3.3
			c-1.8,0-3.3,1.5-3.3,3.3V45.9z"/>
		<path class="st15" d="M171.8,21.9c1.8,0,3.3,1.5,3.3,3.3c0,1.8-1.5,3.3-3.3,3.3c-1.8,0-3.3-1.5-3.3-3.3
			C168.5,23.4,169.9,21.9,171.8,21.9"/>
	</g>
</g>
</svg>
