<?xml version="1.0" encoding="utf-8"?>
<!-- Generator: Adobe Illustrator 19.0.0, SVG Export Plug-In . SVG Version: 6.00 Build 0)  -->
<svg version="1.1" id="Layer_1" xmlns="http://www.w3.org/2000/svg" xmlns:xlink="http://www.w3.org/1999/xlink" x="0px" y="0px"
	 viewBox="0 0 472 318" style="enable-background:new 0 0 472 318;" xml:space="preserve">
<style type="text/css">
	.st0{clip-path:url(#SVGID_2_);fill:#F2F0FC;}
	.st1{fill:#B5ABF2;}
	.st2{clip-path:url(#SVGID_4_);fill:#F2F0FC;}
	.st3{clip-path:url(#SVGID_4_);fill:#381CE0;}
	.st4{clip-path:url(#SVGID_4_);fill:#FFFFFF;}
	.st5{clip-path:url(#SVGID_6_);fill:#381CE0;}
	.st6{fill:#381CE0;}
	.st7{clip-path:url(#SVGID_8_);fill:#381CE0;}
	.st8{clip-path:url(#SVGID_10_);fill:#381CE0;}
	.st9{clip-path:url(#SVGID_12_);fill:#381CE0;}
	.st10{fill:#FFFFFF;}
	.st11{fill:#371BE1;}
	.st12{font-family:'Montserrat-Bold';}
	.st13{font-size:10px;}
</style>
<g>
	<defs>
		<rect id="SVGID_1_" x="-57" y="-262" width="595.3" height="841.9"/>
	</defs>
	<clipPath id="SVGID_2_">
		<use xlink:href="#SVGID_1_"  style="overflow:visible;"/>
	</clipPath>
	<path class="st0" d="M158.9,222.9c-0.2,0.5-0.4,0.9-0.8,1.2c-0.3,0.3-0.7,0.6-1.2,0.9c-0.5,0.3-1,0.5-1.5,0.6
		c-0.5,0.2-1,0.3-1.7,0.4c-0.7,0.1-1.3,0.2-1.8,0.3c-0.5,0.1-1.1,0.1-1.8,0.1c-0.7,0-1.2,0-1.6,0s-0.9,0-1.5,0c-0.6,0-1,0-1.1,0
		v-10.2c0.2,0,0.7,0,1.5,0c0.8,0,1.5,0,2,0s1.2,0,2.1,0.1c0.9,0.1,1.7,0.2,2.3,0.3c0.6,0.1,1.3,0.3,2,0.6c0.7,0.3,1.3,0.6,1.8,0.9
		c0.5,0.4,0.8,0.8,1.1,1.4c0.3,0.6,0.5,1.2,0.5,1.9C159.2,221.9,159.1,222.5,158.9,222.9 M146,202.4c0.1,0,0.5,0,1.2,0
		c0.7,0,1.2,0,1.7,0c0.4,0,1,0,1.8,0.1c0.7,0.1,1.4,0.1,1.9,0.2c0.5,0.1,1.1,0.3,1.7,0.5c0.6,0.2,1.1,0.5,1.5,0.8
		c0.4,0.3,0.7,0.8,0.9,1.3c0.3,0.5,0.4,1.1,0.4,1.8c0,0.6-0.1,1.1-0.3,1.5s-0.5,0.8-0.8,1.2c-0.4,0.3-0.8,0.6-1.1,0.8
		c-0.4,0.2-0.9,0.4-1.5,0.6c-0.6,0.1-1.1,0.3-1.6,0.3c-0.5,0.1-1,0.1-1.7,0.2c-0.7,0-1.2,0-1.5,0.1c-0.3,0-0.8,0-1.4,0
		c-0.6,0-1,0-1.1,0L146,202.4L146,202.4L146,202.4z M167.2,215.8c-1.2-1.5-3-2.5-5.4-3.1c3.1-1.5,4.4-4.1,4-7.8
		c-0.1-1.3-0.5-2.5-1.1-3.5c-0.6-1-1.5-1.8-2.5-2.4c-1.1-0.6-2.2-1-3.5-1.4c-1.3-0.3-2.7-0.5-4.3-0.7v-7.6h-4.7v7.4
		c-0.8,0-2.1,0-3.8,0.1v-7.4h-4.7v7.6c-0.7,0-1.7,0-3,0l-6.5,0v4.9h3.4c1.6,0,2.5,0.7,2.7,2v8.7c0.2,0,0.4,0,0.5,0h-0.5v12.1
		c-0.2,1-0.8,1.5-1.8,1.5h-3.4l-1,5.5h6.2c0.4,0,1,0,1.7,0c0.7,0,1.3,0,1.7,0v7.7h4.7v-7.6c0.9,0,2.1,0,3.8,0v7.6h4.7V232
		c1.7-0.1,3.2-0.2,4.5-0.5c1.3-0.2,2.5-0.6,3.7-1c1.2-0.5,2.2-1.1,3-1.8c0.8-0.7,1.5-1.6,2-2.7c0.5-1.1,0.9-2.3,1-3.8
		C168.8,219.5,168.4,217.3,167.2,215.8"/>
	<path class="st0" d="M316,210c-1.2,0-2.2-1-2.2-2.2V203c0-1.2,1-2.2,2.2-2.2c1.2,0,2.2,1,2.2,2.2v4.8C318.2,209,317.2,210,316,210"
		/>
	<path class="st0" d="M303.3,239.6c-1.2,0-2.2-1-2.2-2.2V233c0-1.2,1-2.2,2.2-2.2c1.2,0,2.2,1,2.2,2.2v4.4
		C305.5,238.6,304.5,239.6,303.3,239.6"/>
	<path class="st0" d="M303.3,227.9c-0.6,0-1.1-0.2-1.5-0.6c-0.4-0.4-0.6-1-0.6-1.5c0-0.6,0.2-1.1,0.6-1.5s1-0.6,1.5-0.6
		c0.6,0,1.1,0.2,1.5,0.6c0.4,0.4,0.6,1,0.6,1.5c0,0.6-0.2,1.1-0.6,1.5C304.5,227.7,303.9,227.9,303.3,227.9"/>
	<path class="st0" d="M325.5,209.8c-1.2,0-2.2-1-2.2-2.2v-13.7c0-1.2,1-2.2,2.2-2.2c1.2,0,2.2,1,2.2,2.2v13.7
		C327.7,208.8,326.7,209.8,325.5,209.8"/>
	<path class="st0" d="M242.6,106.5v6.1h-5.4v-6.3c-3.7-0.6-7.1-2.1-9.7-4.3l2.8-5.6c2.9,2.6,7.3,4.3,10.3,4.3c2.3,0,3.7-0.9,3.7-2.5
		c0-5-15-2-15-12.1c0-4.3,3.1-7.3,8-8.3v-6h5.4v5.8c3.4,0.4,6.7,1.5,9.2,3.1l-2.7,5.6c-3-1.7-6.8-3-9.1-3c-1.9,0-3.1,0.7-3.1,2.1
		c0,4.9,15,2.1,15,12.4C251.8,102.9,247.9,105.9,242.6,106.5"/>
</g>
<polygon class="st1" points="234.9,113.5 234.9,119.8 238.9,118 238.9,111.9 "/>
<polygon class="st1" points="332.9,217.4 332.9,246.4 335.8,245.1 335.8,217.2 "/>
<polygon class="st1" points="306.2,239 306.2,246.3 309.1,245 309.1,238.7 "/>
<polygon class="st1" points="258.5,106.9 258.5,119.8 262.5,118 262.5,105.3 "/>
<g>
	<defs>
		<rect id="SVGID_3_" x="-57" y="-262" width="595.3" height="841.9"/>
	</defs>
	<clipPath id="SVGID_4_">
		<use xlink:href="#SVGID_3_"  style="overflow:visible;"/>
	</clipPath>
	<path class="st2" d="M260.4,222.1c0,20-7.5,38.2-19.8,52c-12.3-13.8-19.8-32.1-19.8-52c0-7.3,1-14.4,2.9-21.1
		c5.4,1.2,11.1,1.8,16.9,1.8c5.8,0,11.5-0.6,16.9-1.8C259.4,207.7,260.4,214.8,260.4,222.1"/>
	<path class="st2" d="M316.1,145.6c-7.7,27.7-30.3,49.2-58.6,55.4c-3.2-11.6-9.1-22.1-16.9-30.9c14.4-16.1,35.3-26.3,58.6-26.3
		C305,143.8,310.7,144.4,316.1,145.6"/>
	<path class="st3" d="M164.9,146.1c-16.9,3.8-32.3,13.3-43.3,26.9c-11.3,13.8-17.4,31.3-17.4,49.1c0,43,35,77.9,77.9,77.9
		c22.1,0,43.2-9.4,58-25.9c-12.7-14.4-19.6-32.8-19.6-52c0-7.1,0.9-14.1,2.8-20.8c-13.8-3.1-26.5-9.9-36.8-19.7
		C176.2,171.9,168.7,159.6,164.9,146.1 M182.1,300.9c-43.4,0-78.8-35.3-78.8-78.8c0-18.1,6.3-35.7,17.6-49.7
		c11.2-13.8,26.9-23.5,44.2-27.3l0.4-0.1l0.1,0.4c3.8,13.5,11.2,25.8,21.5,35.6c10.3,9.8,23,16.5,36.8,19.5l0.4,0.1l-0.1,0.4
		c-1.9,6.8-2.9,13.9-2.9,21c0,19.1,7,37.5,19.7,51.8l0.3,0.3l-0.3,0.3C226,291.3,204.5,300.9,182.1,300.9"/>
	<path class="st3" d="M241.2,274.1c14.8,16.5,35.9,25.9,58,25.9c43,0,77.9-35,77.9-77.9c0-17.9-6.2-35.3-17.4-49.1
		c-11-13.5-26.4-23.1-43.3-26.9c-3.9,13.5-11.3,25.8-21.6,35.6c-10.3,9.8-23,16.5-36.8,19.7c1.8,6.7,2.8,13.7,2.8,20.8
		C260.8,241.3,253.9,259.8,241.2,274.1 M299.2,300.9c-22.5,0-43.9-9.6-58.9-26.5l-0.3-0.3l0.3-0.3c12.7-14.3,19.7-32.6,19.7-51.8
		c0-7.1-1-14.2-2.9-21l-0.1-0.4l0.4-0.1c13.8-3,26.5-9.8,36.8-19.5c10.3-9.7,17.7-22,21.5-35.6l0.1-0.4l0.4,0.1
		c17.3,3.8,32.9,13.5,44.2,27.3c11.4,14,17.6,31.6,17.6,49.7C378,265.6,342.7,300.9,299.2,300.9"/>
	<path class="st2" d="M240.6,170.1c-7.8,8.8-13.7,19.3-16.9,30.9c-28.3-6.2-50.8-27.7-58.6-55.4c5.4-1.2,11.1-1.8,16.9-1.8
		C205.4,143.8,226.3,153.9,240.6,170.1"/>
	<path class="st3" d="M165.7,145.9c3.8,13.4,11.2,25.5,21.3,35.1c10.2,9.7,22.8,16.4,36.4,19.5c3.2-11.1,8.9-21.6,16.6-30.4
		c-14.8-16.5-35.9-25.9-58-25.9C176.6,144.2,171.1,144.8,165.7,145.9 M224,201.5l-0.4-0.1c-13.9-3.1-26.8-9.9-37.2-19.8
		c-10.4-9.8-17.9-22.3-21.7-35.9l-0.1-0.4l0.4-0.1c5.5-1.2,11.3-1.8,17-1.8c22.5,0,43.9,9.6,58.9,26.5l0.3,0.3l-0.3,0.3
		c-7.8,8.8-13.7,19.4-16.8,30.7L224,201.5z"/>
	<path class="st3" d="M225.4,200c10,2,20.5,2,30.5,0c-3.1-10.2-8.3-19.8-15.3-28C233.7,180.2,228.4,189.8,225.4,200 M240.6,204.1
		c-5.8,0-11.6-0.6-17.2-1.9l-1.3-0.3l0.4-1.3c3.2-11.5,9.2-22.4,17.2-31.4l1-1.1l1,1.1c8,9,13.9,19.9,17.2,31.4l0.4,1.3l-1.3,0.3
		C252.2,203.5,246.4,204.1,240.6,204.1"/>
	<path class="st3" d="M182.1,143.3c22.3,0,43.6,9.5,58.6,26.1c14.9-16.6,36.3-26.1,58.6-26.1c5.6,0,11.2,0.6,16.6,1.8
		c1.8-6.7,2.8-13.6,2.8-20.6c0-43-35-77.9-77.9-77.9s-77.9,35-77.9,77.9c0,7,0.9,13.9,2.8,20.6C170.9,143.9,176.5,143.3,182.1,143.3
		 M240.6,170.7l-0.3-0.4c-14.8-16.6-36-26.2-58.3-26.2c-5.7,0-11.3,0.6-16.8,1.8l-0.4,0.1l-0.1-0.4c-1.9-6.9-2.9-14-2.9-21.2
		c0-43.4,35.3-78.8,78.8-78.8s78.8,35.3,78.8,78.8c0,7.2-1,14.4-2.9,21.2l-0.1,0.4L316,146c-5.5-1.2-11.1-1.8-16.8-1.8
		c-22.2,0-43.5,9.5-58.3,26.2L240.6,170.7z"/>
	<path class="st3" d="M204.7,179.7c0-19.9,16.1-36,36-36c19.9,0,36,16.1,36,36c0,19.9-16.1,36-36,36
		C220.8,215.7,204.7,199.6,204.7,179.7"/>
	<path class="st4" d="M233.5,161.8c1,0,1.8-0.8,1.8-1.8s-0.8-1.8-1.8-1.8c-1,0-1.8,0.8-1.8,1.8S232.5,161.8,233.5,161.8"/>
	<path class="st4" d="M240.6,168.1c1,0,1.8-0.8,1.8-1.8c0-1-0.8-1.8-1.8-1.8c-1,0-1.8,0.8-1.8,1.8
		C238.8,167.3,239.6,168.1,240.6,168.1"/>
	<path class="st4" d="M247.8,161.8c1,0,1.8-0.8,1.8-1.8s-0.8-1.8-1.8-1.8c-1,0-1.8,0.8-1.8,1.8S246.8,161.8,247.8,161.8"/>
	<path class="st4" d="M255,166.6c1,0,1.8-0.8,1.8-1.8c0-1-0.8-1.8-1.8-1.8c-1,0-1.8,0.8-1.8,1.8C253.2,165.8,254,166.6,255,166.6"/>
	<path class="st4" d="M240.6,200.1c-6.9,0-12.6-5.7-12.6-12.6v-9.4l12.6,7.3l0.6-0.3l12-6.9v9.4
		C253.2,194.4,247.5,200.1,240.6,200.1 M224.5,176.1v0.5v10.9c0,8.9,7.3,16.2,16.2,16.2c8.9,0,16.2-7.3,16.2-16.2v-10.9v-0.5v-6.3
		c0-1-0.8-1.8-1.8-1.8c-1,0-1.8,0.8-1.8,1.8v2.7c0,1-0.8,1.8-1.8,1.8c-0.9,0-1.6-0.6-1.8-1.5l0,0v-0.3v-7.4c0-1-0.8-1.8-1.8-1.8
		c-1,0-1.8,0.8-1.8,1.8v8.7v2.9c0,1-0.8,1.8-1.8,1.8c-1,0-1.8-0.8-1.8-1.8v-0.8v-4.4c0-1-0.8-1.8-1.8-1.8c-1,0-1.8,0.8-1.8,1.8v4.4
		v0.8c0,1-0.8,1.8-1.8,1.8c-1,0-1.8-0.8-1.8-1.8v-2.9v-8.7c0-1-0.8-1.8-1.8-1.8c-1,0-1.8,0.8-1.8,1.8v7.4v0.3l0,0
		c-0.1,0.8-0.9,1.5-1.8,1.5c-1,0-1.8-0.8-1.8-1.8v-2.7c0-1-0.8-1.8-1.8-1.8c-1,0-1.8,0.8-1.8,1.8V176.1z"/>
	<path class="st4" d="M226.3,163c1,0,1.8,0.8,1.8,1.8s-0.8,1.8-1.8,1.8c-1,0-1.8-0.8-1.8-1.8S225.3,163,226.3,163"/>
	<path class="st3" d="M227.6,107.7c-7,0-10.8,1.9-10.8,2.9c0,1,3.8,2.9,10.8,2.9c7,0,10.8-1.9,10.8-2.9
		C238.4,109.6,234.6,107.7,227.6,107.7 M227.6,115.2c-6.2,0-12.5-1.6-12.5-4.6c0-3,6.3-4.6,12.5-4.6c6.2,0,12.5,1.6,12.5,4.6
		C240.1,113.6,233.8,115.2,227.6,115.2"/>
	<path class="st3" d="M216.9,113v4.1c0,1,3.8,2.9,10.8,2.9c7,0,10.8-1.9,10.8-2.9V113c-2.3,1.4-6.6,2.1-10.8,2.1
		C223.4,115.2,219.2,114.5,216.9,113 M227.6,121.7c-6.2,0-12.5-1.6-12.5-4.6v-6.5h1.7c0,1,3.8,2.9,10.8,2.9c7,0,10.8-1.9,10.8-2.9
		h1.7v6.5C240.1,120.1,233.8,121.7,227.6,121.7"/>
	<path class="st3" d="M240.1,113v4.1c0,1,3.8,2.9,10.8,2.9c7,0,10.8-1.9,10.8-2.9V113c-2.3,1.4-6.6,2.1-10.8,2.1
		C246.7,115.2,242.4,114.5,240.1,113 M250.9,121.7c-6.2,0-12.5-1.6-12.5-4.6v-6.5h1.7c0,1,3.8,2.9,10.8,2.9c7,0,10.8-1.9,10.8-2.9
		h1.7v6.5C263.4,120.1,257.1,121.7,250.9,121.7"/>
	<path class="st3" d="M250.9,101.2c-7,0-10.8,1.9-10.8,2.9c0,0.6,1.7,1.8,5.4,2.4c3.3,0.6,7.5,0.6,10.8,0c3.7-0.6,5.4-1.8,5.4-2.4
		C261.7,103.1,257.9,101.2,250.9,101.2 M250.9,108.6c-2,0-4-0.2-5.7-0.5c-4.3-0.8-6.8-2.3-6.8-4.1c0-3,6.3-4.6,12.5-4.6
		c6.2,0,12.5,1.6,12.5,4.6c0,1.9-2.5,3.4-6.8,4.1C254.9,108.5,252.9,108.6,250.9,108.6"/>
	<path class="st3" d="M240.1,106.5v4.1c0,1,3.8,2.9,10.8,2.9c7,0,10.8-1.9,10.8-2.9v-4.1c-1.2,0.7-2.9,1.3-5.1,1.7
		c-3.5,0.6-7.9,0.6-11.4,0C243,107.8,241.3,107.2,240.1,106.5 M250.9,115.2c-6.2,0-12.5-1.6-12.5-4.6v-6.5h1.7
		c0,0.6,1.7,1.8,5.4,2.4c3.3,0.6,7.5,0.6,10.8,0c3.7-0.6,5.4-1.8,5.4-2.4h1.7v6.5C263.4,113.6,257.1,115.2,250.9,115.2"/>
</g>
<polygon class="st1" points="161.9,235.2 161.9,247.6 151.3,252.1 151.3,239.7 "/>
<g>
	<defs>
		<rect id="SVGID_5_" x="-57" y="-262" width="595.3" height="841.9"/>
	</defs>
	<clipPath id="SVGID_6_">
		<use xlink:href="#SVGID_5_"  style="overflow:visible;"/>
	</clipPath>
	<path class="st5" d="M142.9,235.2l8.4,3.5l8.4-3.5l-8.4-3.5L142.9,235.2z M151.3,240.5c-0.1,0-0.2,0-0.3-0.1l-10.6-4.5
		c-0.3-0.1-0.5-0.4-0.5-0.8c0-0.3,0.2-0.7,0.5-0.8l10.6-4.5c0.2-0.1,0.5-0.1,0.7,0l10.6,4.5c0.3,0.1,0.5,0.4,0.5,0.8
		c0,0.3-0.2,0.7-0.5,0.8l-10.6,4.5C151.5,240.5,151.4,240.5,151.3,240.5"/>
	<path class="st5" d="M142.9,247.6l8.4,3.5l8.4-3.5l-8.4-3.5L142.9,247.6z M151.3,253c-0.1,0-0.2,0-0.3-0.1l-10.6-4.5
		c-0.3-0.1-0.5-0.4-0.5-0.8c0-0.3,0.2-0.7,0.5-0.8l10.6-4.5c0.2-0.1,0.5-0.1,0.7,0l10.6,4.5c0.3,0.1,0.5,0.4,0.5,0.8
		c0,0.3-0.2,0.7-0.5,0.8l-10.6,4.5C151.5,253,151.4,253,151.3,253"/>
</g>
<rect x="139.8" y="235.2" class="st6" width="1.7" height="12.4"/>
<rect x="150.4" y="239.7" class="st6" width="1.7" height="12.4"/>
<rect x="161" y="235.2" class="st6" width="1.7" height="12.4"/>
<polygon class="st1" points="197.3,235.2 197.3,247.6 186.6,252.1 186.6,239.7 "/>
<g>
	<defs>
		<rect id="SVGID_7_" x="-57" y="-262" width="595.3" height="841.9"/>
	</defs>
	<clipPath id="SVGID_8_">
		<use xlink:href="#SVGID_7_"  style="overflow:visible;"/>
	</clipPath>
	<path class="st7" d="M178.3,235.2l8.4,3.5l8.4-3.5l-8.4-3.5L178.3,235.2z M186.6,240.5c-0.1,0-0.2,0-0.3-0.1l-10.6-4.5
		c-0.3-0.1-0.5-0.4-0.5-0.8c0-0.3,0.2-0.7,0.5-0.8l10.6-4.5c0.2-0.1,0.5-0.1,0.7,0l10.6,4.5c0.3,0.1,0.5,0.4,0.5,0.8
		c0,0.3-0.2,0.7-0.5,0.8l-10.6,4.5C186.9,240.5,186.8,240.5,186.6,240.5"/>
	<path class="st7" d="M178.3,247.6l8.4,3.5l8.4-3.5l-8.4-3.5L178.3,247.6z M186.6,253c-0.1,0-0.2,0-0.3-0.1l-10.6-4.5
		c-0.3-0.1-0.5-0.4-0.5-0.8c0-0.3,0.2-0.7,0.5-0.8l10.6-4.5c0.2-0.1,0.5-0.1,0.7,0l10.6,4.5c0.3,0.1,0.5,0.4,0.5,0.8
		c0,0.3-0.2,0.7-0.5,0.8l-10.6,4.5C186.9,253,186.8,253,186.6,253"/>
</g>
<rect x="175.2" y="235.2" class="st6" width="1.7" height="12.4"/>
<rect x="185.8" y="239.7" class="st6" width="1.7" height="12.4"/>
<rect x="196.4" y="235.2" class="st6" width="1.7" height="12.4"/>
<polygon class="st1" points="179.7,205.5 179.7,217.9 169.1,222.4 169.1,209.9 "/>
<g>
	<defs>
		<rect id="SVGID_9_" x="-57" y="-262" width="595.3" height="841.9"/>
	</defs>
	<clipPath id="SVGID_10_">
		<use xlink:href="#SVGID_9_"  style="overflow:visible;"/>
	</clipPath>
	<path class="st8" d="M160.7,205.5l8.4,3.5l8.4-3.5l-8.4-3.5L160.7,205.5z M169.1,210.8c-0.1,0-0.2,0-0.3-0.1l-10.6-4.5
		c-0.3-0.1-0.5-0.4-0.5-0.8c0-0.3,0.2-0.7,0.5-0.8l10.6-4.5c0.2-0.1,0.5-0.1,0.7,0l10.6,4.5c0.3,0.1,0.5,0.4,0.5,0.8
		c0,0.3-0.2,0.7-0.5,0.8l-10.6,4.5C169.3,210.8,169.2,210.8,169.1,210.8"/>
	<path class="st8" d="M160.7,217.9l8.4,3.5l8.4-3.5l-8.4-3.5L160.7,217.9z M169.1,223.2c-0.1,0-0.2,0-0.3-0.1l-10.6-4.5
		c-0.3-0.1-0.5-0.4-0.5-0.8c0-0.3,0.2-0.7,0.5-0.8l10.6-4.5c0.2-0.1,0.5-0.1,0.7,0l10.6,4.5c0.3,0.1,0.5,0.4,0.5,0.8
		c0,0.3-0.2,0.7-0.5,0.8l-10.6,4.5C169.3,223.2,169.2,223.2,169.1,223.2"/>
</g>
<rect x="157.6" y="205.5" class="st6" width="1.7" height="12.4"/>
<rect x="168.2" y="209.9" class="st6" width="1.7" height="12.4"/>
<rect x="178.8" y="205.5" class="st6" width="1.7" height="12.4"/>
<rect x="163.2" y="212.8" transform="matrix(0.9416 0.3368 -0.3368 0.9416 81.4264 -42.811)" class="st6" width="1.7" height="1.1"/>
<path class="st6" d="M163.3,218.1l-1.6-0.6l0.7-1.8l1.6,0.6L163.3,218.1z M161.9,222.2l-1.6-0.6l0.7-1.8l1.6,0.6L161.9,222.2z
	 M160.4,226.2l-1.6-0.6l0.7-1.8l1.6,0.6L160.4,226.2z M159,230.2l-1.6-0.6l0.7-1.8l1.6,0.6L159,230.2z"/>
<rect x="156.3" y="232.1" transform="matrix(0.9416 0.3368 -0.3368 0.9416 87.5399 -39.3485)" class="st6" width="1.7" height="1.1"/>
<path class="st6" d="M158.4,242.3h-2.2v-1.7h2.2V242.3z M163.1,242.3H161v-1.7h2.2V242.3z M167.9,242.3h-2.2v-1.7h2.2V242.3z
	 M172.6,242.3h-2.2v-1.7h2.2V242.3z M177.4,242.3h-2.2v-1.7h2.2V242.3z M181.6,242.3H180v-1.7h1.6V242.3z"/>
<path class="st6" d="M175.7,222.1l-1.3-1.7l1.4-1l1.3,1.7L175.7,222.1z M178.5,225.9l-1.3-1.7l1.4-1l1.3,1.7L178.5,225.9z
	 M181.4,229.7l-1.3-1.7l1.4-1l1.3,1.7L181.4,229.7z M184.3,233.5l-1.3-1.7l1.4-1l1.3,1.7L184.3,233.5z M185.9,235.7l-0.1-0.2l1.4-1
	l0.1,0.2L185.9,235.7z"/>
<g>
	<defs>
		<rect id="SVGID_11_" x="-57" y="-262" width="595.3" height="841.9"/>
	</defs>
	<clipPath id="SVGID_12_">
		<use xlink:href="#SVGID_11_"  style="overflow:visible;"/>
	</clipPath>
	<path class="st9" d="M309,246h22.8c1.8,0,3.2-1.4,3.2-3.2V218h-21.6c-0.5,0-0.9-0.4-0.9-0.9c0-0.5,0.4-0.9,0.9-0.9
		c1.8,0,3.2-1.4,3.2-3.2c0-1.8-1.4-3.2-3.2-3.2c-1.8,0-3.2,1.4-3.2,3.2v29.7C310.2,244,309.7,245.1,309,246 M331.8,247.7h-26.5
		c-0.5,0-0.9-0.4-0.9-0.9s0.4-0.9,0.9-0.9c1.8,0,3.2-1.4,3.2-3.2v-29.7c0-2.7,2.2-4.9,4.9-4.9c2.7,0,4.9,2.2,4.9,4.9
		c0,1.2-0.4,2.3-1.2,3.2h18.7c0.5,0,0.9,0.4,0.9,0.9v25.6C336.7,245.5,334.5,247.7,331.8,247.7"/>
	<path class="st9" d="M302.1,239.6v3.2c0,1.8,1.4,3.2,3.2,3.2c1.8,0,3.2-1.4,3.2-3.2v-3.2H302.1z M305.2,247.7
		c-2.7,0-4.9-2.2-4.9-4.9v-4.1c0-0.5,0.4-0.9,0.9-0.9h8.1c0.5,0,0.9,0.4,0.9,0.9v4.1C310.2,245.5,308,247.7,305.2,247.7"/>
	<path class="st9" d="M317.1,216.3h19.9c1.8,0,3.2-1.4,3.2-3.2c0-1.8-1.4-3.2-3.2-3.2h-19.9c0.7,0.9,1.2,2,1.2,3.2
		C318.3,214.3,317.9,215.4,317.1,216.3 M337.1,218h-23.7c-0.5,0-0.9-0.4-0.9-0.9s0.4-0.9,0.9-0.9c1.8,0,3.2-1.4,3.2-3.2
		c0-1.8-1.4-3.2-3.2-3.2c-0.5,0-0.9-0.4-0.9-0.9c0-0.5,0.4-0.9,0.9-0.9h23.7c2.7,0,4.9,2.2,4.9,4.9C342,215.8,339.8,218,337.1,218"
		/>
	<path class="st9" d="M329.3,223.3h-14.1c-0.5,0-0.9-0.4-0.9-0.9c0-0.5,0.4-0.9,0.9-0.9h14.1c0.5,0,0.9,0.4,0.9,0.9
		C330.1,222.9,329.8,223.3,329.3,223.3"/>
	<path class="st9" d="M329.3,227h-14.1c-0.5,0-0.9-0.4-0.9-0.9s0.4-0.9,0.9-0.9h14.1c0.5,0,0.9,0.4,0.9,0.9S329.8,227,329.3,227"/>
	<path class="st9" d="M329.3,230.6h-14.1c-0.5,0-0.9-0.4-0.9-0.9s0.4-0.9,0.9-0.9h14.1c0.5,0,0.9,0.4,0.9,0.9
		S329.8,230.6,329.3,230.6"/>
</g>
<polygon class="st10" points="315.4,243.7 315.5,249.7 318.2,248.6 320.9,249.6 321.2,243.4 318.4,245 316,243.8 "/>
<polygon class="st1" points="318.3,244.5 318.3,248.9 321.3,249.4 321.3,243.4 "/>
<path class="st6" d="M315.3,242.7l1.7,0.1l1.3,1.1l1.3-1.2l1.7-0.2l0.1-1.7l1.1-1.3l-1.2-1.3l-0.2-1.7l-1.7-0.1l-1.3-1.1l-1.3,1.2
	l-1.7,0.2l-0.1,1.7l-1.1,1.3l1.2,1.3L315.3,242.7z M318.4,246.1l-2-1.7l-2.6-0.1l-0.3-2.6l-1.8-1.9l1.7-2l0.1-2.6l2.6-0.3l1.9-1.8
	l2,1.7l2.6,0.1l0.3,2.6l1.8,1.9l-1.7,2l-0.1,2.6l-2.6,0.3L318.4,246.1z"/>
<g>
	<path class="st6" d="M314.6,251V244c0-0.5,0.4-0.9,0.9-0.9s0.9,0.4,0.9,0.9v4.4l1.8-0.7l2.2,0.8v-4.8c0-0.5,0.4-0.9,0.9-0.9
		c0.5,0,0.9,0.4,0.9,0.9v7.3l-3.8-1.4L314.6,251z"/>
</g>
<text transform="matrix(1 0 0 1 217.3633 19.1761)" class="st11 st12 st13">Financial</text>
<text transform="matrix(1 0 0 1 263.9131 19.1761)" class="st11 st12 st13"> </text>
<text transform="matrix(1 0 0 1 219.4434 31.1761)"><tspan x="0" y="0" class="st11 st12 st13">Se</tspan><tspan x="12.7" y="0" class="st11 st12 st13">r</tspan><tspan x="17.2" y="0" class="st11 st12 st13">vi</tspan><tspan x="26.2" y="0" class="st11 st12 st13">c</tspan><tspan x="32" y="0" class="st11 st12 st13">es</tspan></text>
<text transform="matrix(1 0 0 1 16.333 231.266)"><tspan x="0" y="0" class="st11 st12 st13">Bloc</tspan><tspan x="23.1" y="0" class="st11 st12 st13">k</tspan><tspan x="29.4" y="0" class="st11 st12 st13">chain</tspan></text>
<text transform="matrix(1 0 0 1 72.9434 231.266)" class="st11 st12 st13"> </text>
<text transform="matrix(1 0 0 1 15.2134 243.266)"><tspan x="0" y="0" class="st11 st12 st13">T</tspan><tspan x="5.5" y="0" class="st11 st12 st13">echnology</tspan></text>
<text transform="matrix(1 0 0 1 393.4834 231.266)"><tspan x="0" y="0" class="st11 st12 st13">In</tspan><tspan x="10.2" y="0" class="st11 st12 st13">t</tspan><tspan x="14.5" y="0" class="st11 st12 st13">ernational</tspan></text>
<text transform="matrix(1 0 0 1 460.5029 231.266)" class="st11 st12 st13"> </text>
<text transform="matrix(1 0 0 1 398.9229 243.266)" class="st11 st12 st13">Regulation</text>
</svg>
