<?xml version="1.0" encoding="utf-8"?>
<!-- Generator: Adobe Illustrator 19.0.0, SVG Export Plug-In . SVG Version: 6.00 Build 0)  -->
<svg version="1.1" id="Layer_1" xmlns="http://www.w3.org/2000/svg" xmlns:xlink="http://www.w3.org/1999/xlink" x="0px" y="0px"
	 viewBox="0 0 528 290.7" style="enable-background:new 0 0 528 290.7;" xml:space="preserve">
<style type="text/css">
	.st0{fill:#F1EFFD;}
	.st1{opacity:0.4;clip-path:url(#SVGID_2_);}
	.st2{clip-path:url(#SVGID_4_);fill:#F1EFFD;}
	.st3{opacity:0.2;clip-path:url(#SVGID_2_);}
	.st4{clip-path:url(#SVGID_6_);fill:#F1EFFD;}
	.st5{fill:#371BE1;}
	.st6{font-family:'Montserrat-Bold';}
	.st7{font-size:10px;}
	.st8{clip-path:url(#SVGID_8_);fill:#FFFFFF;}
	.st9{clip-path:url(#SVGID_8_);fill:none;stroke:#371BE1;}
	.st10{fill:#515151;}
	.st11{font-family:'Montserrat-Light';}
	.st12{font-size:9px;}
	.st13{clip-path:url(#SVGID_10_);fill:#B5ABF2;}
	.st14{clip-path:url(#SVGID_10_);fill:#614FE5;}
	.st15{fill:#F2F0FC;}
	.st16{clip-path:url(#SVGID_12_);fill:#F2F0FC;}
	.st17{clip-path:url(#SVGID_12_);fill:#B5ABF2;}
	.st18{clip-path:url(#SVGID_12_);fill:#381CE0;}
	.st19{clip-path:url(#SVGID_12_);fill:#614FE5;}
	.st20{clip-path:url(#SVGID_12_);fill:#E3EBF5;}
	.st21{clip-path:url(#SVGID_14_);fill:#381CE0;}
	.st22{clip-path:url(#SVGID_14_);fill:#B5ABF2;}
	.st23{clip-path:url(#SVGID_14_);fill:#F2F0FC;}
	.st24{clip-path:url(#SVGID_14_);fill:#614FE5;}
	.st25{fill:#614FE5;}
	.st26{clip-path:url(#SVGID_16_);fill:#381CE0;}
	.st27{clip-path:url(#SVGID_16_);fill:#B5ABF2;}
	.st28{clip-path:url(#SVGID_16_);fill:#614FE5;}
	.st29{fill:#E3EBF5;}
	.st30{fill:#B5ABF2;}
	.st31{clip-path:url(#SVGID_18_);fill:#B5ABF2;}
	.st32{clip-path:url(#SVGID_18_);fill:#F2F0FC;}
	.st33{clip-path:url(#SVGID_18_);fill:#381CE0;}
	.st34{clip-path:url(#SVGID_18_);fill:#614FE5;}
	.st35{clip-path:url(#SVGID_20_);fill:#FFFFFF;}
</style>
<rect x="352.6" y="28.5" class="st0" width="154" height="247.6"/>
<g>
	<defs>
		<rect id="SVGID_1_" x="-24" y="-204.3" width="595.3" height="841.9"/>
	</defs>
	<clipPath id="SVGID_2_">
		<use xlink:href="#SVGID_1_"  style="overflow:visible;"/>
	</clipPath>
	<g class="st1">
		<g>
			<defs>
				<rect id="SVGID_3_" x="185.6" y="21.5" width="176" height="255.6"/>
			</defs>
			<clipPath id="SVGID_4_">
				<use xlink:href="#SVGID_3_"  style="overflow:visible;"/>
			</clipPath>
			<rect x="194.6" y="28.5" class="st2" width="158" height="247.6"/>
		</g>
	</g>
	<g class="st3">
		<g>
			<defs>
				<rect id="SVGID_5_" x="31.6" y="21.5" width="172" height="255.6"/>
			</defs>
			<clipPath id="SVGID_6_">
				<use xlink:href="#SVGID_5_"  style="overflow:visible;"/>
			</clipPath>
			<rect x="40.6" y="28.5" class="st4" width="154" height="247.6"/>
		</g>
	</g>
</g>
<text transform="matrix(1 0 0 1 101.4878 140.2837)" class="st5 st6 st7">Client</text>
<text transform="matrix(1 0 0 1 257.8779 140.2837)"><tspan x="0" y="0" class="st5 st6 st7">A</tspan><tspan x="7.4" y="0" class="st5 st6 st7">gent</tspan></text>
<text transform="matrix(1 0 0 1 392.5479 140.2837)"><tspan x="0" y="0" class="st5 st6 st7">Medusa Bro</tspan><tspan x="62.5" y="0" class="st5 st6 st7">k</tspan><tspan x="68.8" y="0" class="st5 st6 st7">er</tspan></text>
<g>
	<defs>
		<rect id="SVGID_7_" x="-24" y="-204.3" width="595.3" height="841.9"/>
	</defs>
	<clipPath id="SVGID_8_">
		<use xlink:href="#SVGID_7_"  style="overflow:visible;"/>
	</clipPath>
	<path class="st8" d="M116.7,41c6.9,0,12.4-5.6,12.4-12.4c0-6.9-5.6-12.4-12.4-12.4c-6.9,0-12.4,5.6-12.4,12.4
		C104.2,35.4,109.8,41,116.7,41"/>
	<circle class="st9" cx="116.7" cy="28.5" r="12.4"/>
	<path class="st8" d="M273.4,41c6.9,0,12.4-5.6,12.4-12.4c0-6.9-5.6-12.4-12.4-12.4c-6.9,0-12.4,5.6-12.4,12.4
		C261,35.4,266.5,41,273.4,41"/>
	<circle class="st9" cx="273.4" cy="28.5" r="12.4"/>
	<path class="st8" d="M430.6,41c6.9,0,12.4-5.6,12.4-12.4c0-6.9-5.6-12.4-12.4-12.4c-6.9,0-12.4,5.6-12.4,12.4
		C418.2,35.4,423.8,41,430.6,41"/>
	<circle class="st9" cx="430.6" cy="28.5" r="12.4"/>
</g>
<text transform="matrix(1 0 0 1 114.5977 31.4263)" class="st5 st6 st7">1</text>
<text transform="matrix(1 0 0 1 270.3975 31.4263)" class="st5 st6 st7">2</text>
<text transform="matrix(1 0 0 1 427.8271 31.4263)" class="st5 st6 st7">3</text>
<text transform="matrix(1 0 0 1 54.6621 160.8355)"><tspan x="0" y="0" class="st10 st11 st12">A client is the bu</tspan><tspan x="74.1" y="0" class="st10 st11 st12">y</tspan><tspan x="78.7" y="0" class="st10 st11 st12">er or seller </tspan></text>
<text transform="matrix(1 0 0 1 62.9507 176.8374)"><tspan x="0" y="0" class="st10 st11 st12">in a t</tspan><tspan x="21.9" y="0" class="st10 st11 st12">r</tspan><tspan x="25.2" y="0" class="st10 st11 st12">ansaction. </tspan><tspan x="72.7" y="0" class="st10 st11 st12">T</tspan><tspan x="77.3" y="0" class="st10 st11 st12">his </tspan><tspan x="92.3" y="0" class="st10 st11 st12">c</tspan><tspan x="97" y="0" class="st10 st11 st12">an </tspan></text>
<text transform="matrix(1 0 0 1 58.415 192.8394)"><tspan x="0" y="0" class="st10 st11 st12">be a </tspan><tspan x="21.3" y="0" class="st10 st11 st12">c</tspan><tspan x="26.1" y="0" class="st10 st11 st12">orpo</tspan><tspan x="46.9" y="0" class="st10 st11 st12">r</tspan><tspan x="50.2" y="0" class="st10 st11 st12">a</tspan><tspan x="55.4" y="0" class="st10 st11 st12">t</tspan><tspan x="59" y="0" class="st10 st11 st12">e entity or an </tspan></text>
<text transform="matrix(1 0 0 1 54.167 208.8414)" class="st10 st11 st12">individual with the authority </text>
<text transform="matrix(1 0 0 1 63.2119 224.8438)"><tspan x="0" y="0" class="st10 st11 st12">t</tspan><tspan x="3.5" y="0" class="st10 st11 st12">o </tspan><tspan x="11.4" y="0" class="st10 st11 st12">e</tspan><tspan x="16.5" y="0" class="st10 st11 st12">x</tspan><tspan x="21" y="0" class="st10 st11 st12">ecu</tspan><tspan x="37.4" y="0" class="st10 st11 st12">t</tspan><tspan x="40.9" y="0" class="st10 st11 st12">e t</tspan><tspan x="52.2" y="0" class="st10 st11 st12">r</tspan><tspan x="55.5" y="0" class="st10 st11 st12">ades on the </tspan></text>
<text transform="matrix(1 0 0 1 77.9448 240.8457)"><tspan x="0" y="0" class="st10 st11 st12">Medusa Plat</tspan><tspan x="55.5" y="0" class="st10 st11 st12">f</tspan><tspan x="58.4" y="0" class="st10 st11 st12">orm.</tspan></text>
<text transform="matrix(1 0 0 1 228.4517 160.8448)"><tspan x="0" y="0" class="st10 st11 st12">An agent </tspan><tspan x="43.4" y="0" class="st10 st11 st12">c</tspan><tspan x="48.2" y="0" class="st10 st11 st12">an be the </tspan></text>
<text transform="matrix(1 0 0 1 214.2139 176.8467)"><tspan x="0" y="0" class="st10 st11 st12">manda</tspan><tspan x="32.2" y="0" class="st10 st11 st12">t</tspan><tspan x="35.7" y="0" class="st10 st11 st12">e </tspan><tspan x="43.4" y="0" class="st10 st11 st12">o</tspan><tspan x="49" y="0" class="st10 st11 st12">f a client as </tspan><tspan x="100.7" y="0" class="st10 st11 st12">w</tspan><tspan x="108.3" y="0" class="st10 st11 st12">ell </tspan></text>
<text transform="matrix(1 0 0 1 211.6758 192.8487)"><tspan x="0" y="0" class="st10 st11 st12">as the introdu</tspan><tspan x="62.4" y="0" class="st10 st11 st12">c</tspan><tspan x="67.2" y="0" class="st10 st11 st12">er, directly or </tspan></text>
<text transform="matrix(1 0 0 1 214.8618 208.8506)"><tspan x="0" y="0" class="st10 st11 st12">indirectly, </tspan><tspan x="45.5" y="0" class="st10 st11 st12">o</tspan><tspan x="51.1" y="0" class="st10 st11 st12">f clients as </tspan><tspan x="99.5" y="0" class="st10 st11 st12">w</tspan><tspan x="107.1" y="0" class="st10 st11 st12">ell </tspan></text>
<text transform="matrix(1 0 0 1 215.249 224.8526)"><tspan x="0" y="0" class="st10 st11 st12">as other agents </tspan><tspan x="71.3" y="0" class="st10 st11 st12">t</tspan><tspan x="74.8" y="0" class="st10 st11 st12">o Medusa </tspan></text>
<text transform="matrix(1 0 0 1 250.0337 240.8545)"><tspan x="0" y="0" class="st10 st11 st12">Bro</tspan><tspan x="15.9" y="0" class="st10 st11 st12">k</tspan><tspan x="21" y="0" class="st10 st11 st12">e</tspan><tspan x="26.4" y="0" class="st10 st11 st12">r</tspan><tspan x="29.7" y="0" class="st10 st11 st12">age.</tspan></text>
<text transform="matrix(1 0 0 1 382.1719 160.8536)"><tspan x="0" y="0" class="st10 st11 st12">A Medusa Bro</tspan><tspan x="62.5" y="0" class="st10 st11 st12">k</tspan><tspan x="67.6" y="0" class="st10 st11 st12">er who </tspan></text>
<text transform="matrix(1 0 0 1 376.5918 176.8555)"><tspan x="0" y="0" class="st10 st11 st12">origina</tspan><tspan x="31.3" y="0" class="st10 st11 st12">t</tspan><tspan x="34.8" y="0" class="st10 st11 st12">es, manages and </tspan></text>
<text transform="matrix(1 0 0 1 365.7559 192.8575)"><tspan x="0" y="0" class="st10 st11 st12">f</tspan><tspan x="2.6" y="0" class="st10 st11 st12">acilita</tspan><tspan x="28.8" y="0" class="st10 st11 st12">t</tspan><tspan x="32.3" y="0" class="st10 st11 st12">es client t</tspan><tspan x="74.9" y="0" class="st10 st11 st12">r</tspan><tspan x="78.2" y="0" class="st10 st11 st12">ades on the</tspan></text>
<text transform="matrix(1 0 0 1 391.8828 208.8594)"><tspan x="0" y="0" class="st10 st11 st12">Medusa plat</tspan><tspan x="55.2" y="0" class="st10 st11 st12">f</tspan><tspan x="58" y="0" class="st10 st11 st12">orm.</tspan></text>
<g>
	<defs>
		<rect id="SVGID_9_" x="-24" y="-204.3" width="595.3" height="841.9"/>
	</defs>
	<clipPath id="SVGID_10_">
		<use xlink:href="#SVGID_9_"  style="overflow:visible;"/>
	</clipPath>
	<path class="st13" d="M132.4,76.3l-1.3,5.2c-0.2,0.6-0.7,1.1-1.3,1.1c-0.7,0-1.3-0.5-1.4-1.2l-0.7-5.3c-0.2-1.4,0.9-2.7,2.4-2.7h0
		C131.7,73.4,132.8,74.8,132.4,76.3"/>
	<path class="st14" d="M97.9,76.3l1.3,5.2c0.2,0.6,0.7,1.1,1.3,1.1c0.7,0,1.3-0.5,1.4-1.2l0.7-5.3c0.2-1.4-0.9-2.7-2.4-2.7h0
		C98.7,73.4,97.5,74.8,97.9,76.3"/>
</g>
<polygon class="st15" points="125.6,96.5 125.6,88.4 104.8,88.4 104.8,96.5 115.2,105.7 "/>
<g>
	<defs>
		<rect id="SVGID_11_" x="-24" y="-204.3" width="595.3" height="841.9"/>
	</defs>
	<clipPath id="SVGID_12_">
		<use xlink:href="#SVGID_11_"  style="overflow:visible;"/>
	</clipPath>
	<path class="st16" d="M141.7,100.3l-14.3-3.4c-0.2-0.1-0.4-0.1-0.6-0.2l-11.6,6.8L104,96.3c-0.3,0.3-0.6,0.5-1.1,0.6l-14.3,3.4
		c-2.1,0.5-3.6,2.4-3.6,4.5v9.1c0,1.3,1,2.3,2.3,2.3h55.5c1.3,0,2.3-1,2.3-2.3v-9.1C145.2,102.6,143.8,100.8,141.7,100.3"/>
	<path class="st17" d="M104.8,88.4v8.5c13.1,4.7,20.8-7.1,20.8-7.1v-1.4H104.8z"/>
	<path class="st16" d="M100.1,61.8l1,22.2c0.1,2.1,1.1,4,2.8,5.2l4.8,3.6c1.2,0.9,2.7,1.4,4.2,1.4h4.6c1.5,0,3-0.5,4.2-1.4l4.8-3.6
		c1.7-1.2,2.7-3.2,2.8-5.2l1-22.2H100.1z"/>
	<path class="st17" d="M111.7,66.4c4.6,0,11.6-1.2,13.2-4.6h-24.8l1,22.2c0.1,2.1,1.1,4,2.8,5.2l4.8,3.6c1.2,0.9,2.7,1.4,4.2,1.4
		h2.3c-2.3,0-6.9-4.6-6.9-10.4V69.9C108.2,68.7,109.4,66.4,111.7,66.4"/>
	<path class="st17" d="M93.6,108.6l-7.5-6.7c-0.6,0.8-1,1.8-1,2.9v9.1c0,1.3,1,2.3,2.3,2.3h8.1v-3.2
		C95.5,111.3,94.8,109.7,93.6,108.6"/>
	<path class="st17" d="M136.8,108.6l7.5-6.7c0.6,0.8,1,1.8,1,2.9v9.1c0,1.3-1,2.3-2.3,2.3h-8.1v-3.2
		C134.8,111.3,135.5,109.7,136.8,108.6"/>
	<path class="st17" d="M104.6,93.9l10.6,9.5c0,0-3,1.5-6.6,4.5c-0.8,0.6-1.9,0.4-2.3-0.5l-5-10.9l1.6-2.4
		C103.3,93.5,104.1,93.4,104.6,93.9"/>
	<path class="st17" d="M125.7,93.9l-10.6,9.5c0,0,3,1.5,6.6,4.5c0.8,0.6,1.9,0.4,2.3-0.5l5-10.9l-1.6-2.4
		C127.1,93.5,126.3,93.4,125.7,93.9"/>
	<path class="st17" d="M122.2,54.1l1.1,7.7c4.9,1,5.7,8.8,5.8,11c0,0.4,0.1,0.8,0.4,1.1l1.9,2.9c0,0-0.6-4.8,2.3-8.1
		C133.6,68.7,134.6,49.5,122.2,54.1"/>
	<path class="st18" d="M101.3,52.1l1.7,1.2c-7.7,5.7-6.3,15.5-6.3,15.5C99,71,99,76.8,99,76.8l2.3-2.3c0,0-0.9-6.7,3.5-9.2
		c4-2.4,7.6-1.2,11.2-1.2c9.7,0,12.4-3.6,11.9-8.1c-0.2-2.3-3.8-7.1-12.7-6.9C111.6,49.1,104.8,50.2,101.3,52.1"/>
	<path class="st19" d="M100.6,63.1c0,0-1.2-4.8,2.4-9.9c-7.7,5.7-6.3,15.5-6.3,15.5C99,71,99,76.8,99,76.8l2.3-2.3
		c0,0-0.9-6.7,3.5-9.2c4-2.4,7.6-1.2,11.2-1.2c1.6,0,2.9-0.1,4.2-0.3C112.7,64.1,108.3,58.4,100.6,63.1"/>
	<path class="st20" d="M130.2,113.8h-8.1c-0.6,0-1.2,0.5-1.2,1.2v1.2h10.4V115C131.4,114.3,130.8,113.8,130.2,113.8"/>
	<path class="st19" d="M291.1,73.6l-1.4,5.4c-0.2,0.6-0.7,1.1-1.4,1.1c-0.7,0-1.3-0.5-1.4-1.3l-0.7-5.5c-0.2-1.5,1-2.8,2.5-2.8h0
		C290.3,70.6,291.5,72.1,291.1,73.6"/>
	<path class="st18" d="M255.9,73.6l1.4,5.4c0.2,0.6,0.7,1.1,1.4,1.1c0.7,0,1.3-0.5,1.4-1.3l0.7-5.5c0.2-1.5-1-2.8-2.5-2.8h0
		C256.7,70.6,255.5,72.1,255.9,73.6"/>
</g>
<polygon class="st15" points="284.2,97.1 284.2,88.7 262.6,88.7 262.6,97.1 273.4,106.7 "/>
<g>
	<defs>
		<rect id="SVGID_13_" x="-24" y="-204.3" width="595.3" height="841.9"/>
	</defs>
	<clipPath id="SVGID_14_">
		<use xlink:href="#SVGID_13_"  style="overflow:visible;"/>
	</clipPath>
	<path class="st21" d="M300.9,101.1l-16-4.1c-0.2-0.1-0.4-0.1-0.6-0.3l-10.9,7.6L263,96.4c-0.3,0.3-0.7,0.5-1.1,0.6l-16,4.1
		c-2.2,0.5-3.7,2.4-3.7,4.7v9.4c0,1.3,1.1,2.4,2.4,2.4h57.7c1.3,0,2.4-1.1,2.4-2.4v-9.4C304.6,103.5,303.1,101.6,300.9,101.1"/>
	<path class="st22" d="M262.6,88.4v8.3c13.6,5.2,21.6-6.5,21.6-6.5v-1.5h-21.6V88.4z"/>
	<path class="st23" d="M257.8,61.1l1,23c0.1,2.2,1.2,4.1,2.9,5.4l5,3.7c1.2,0.9,2.8,1.4,4.3,1.4h4.8c1.6,0,3.1-0.5,4.3-1.4l5-3.7
		c1.7-1.3,2.8-3.3,2.9-5.4l1-23H257.8z"/>
	<path class="st22" d="M269.8,65.9c4.8,0,12-1.2,13.7-4.8l-7.8-2l-17.9,2l1,23c0.1,2.2,1.2,4.1,2.9,5.4l5,3.7
		c1.2,0.9,2.8,1.4,4.3,1.4h2.4c-2.4,0-7.2-4.8-7.2-10.8V69.5C266.2,68.3,267.4,65.9,269.8,65.9"/>
	<path class="st21" d="M251,109.7l-7.8-7c-0.7,0.8-1,1.9-1,3v9.4c0,1.3,1.1,2.4,2.4,2.4h8.4v-3.3C253,112.5,252.3,110.9,251,109.7"
		/>
	<path class="st21" d="M295.8,109.7l7.8-7c0.7,0.8,1,1.9,1,3v9.4c0,1.3-1.1,2.4-2.4,2.4h-8.4v-3.3
		C293.8,112.5,294.5,110.9,295.8,109.7"/>
	<path class="st24" d="M285.8,55.1c1.9-4.3-2.6-4.8-2.6-4.8s-5.7,0.2-16.6,0.2s-11.1,10.4-11.1,16.4c0,5.8,2.7,1.9,2.9,8.7l0,0v-8.2
		c0-2.5,1.6-5.5,5.3-5.5c3.8,0,2-0.1,5.3-0.1c3.4,0,4.8-2.7,7.4-1.9c2.6,0.8,5.2,1.8,7.2,2.4c2,0.6,4.3,2.8,4.3,5.5v9.4
		c0.2-3.4,2.9-4.4,2.9-7.8v-8.9C290.8,57.8,287.8,55.6,285.8,55.1"/>
	<path class="st24" d="M280.4,69.3c-2.6,0-3.9,0.9-3.9,2.7c0,2.1,1.7,3.9,3.9,3.9c2.1,0,3.9-1.7,3.9-3.9
		C284.3,70.2,282.9,69.3,280.4,69.3 M280.4,77.6c-3.1,0-5.6-2.5-5.6-5.6c0-2.8,2-4.4,5.6-4.4c3.6,0,5.6,1.6,5.6,4.4
		C286,75.1,283.5,77.6,280.4,77.6"/>
	<path class="st24" d="M266.4,69.3c-2.6,0-3.9,0.9-3.9,2.7c0,2.1,1.7,3.9,3.9,3.9c2.1,0,3.9-1.7,3.9-3.9
		C270.3,70.2,269,69.3,266.4,69.3 M266.4,77.6c-3.1,0-5.6-2.5-5.6-5.6c0-2.8,2-4.4,5.6-4.4c3.6,0,5.6,1.6,5.6,4.4
		C272,75.1,269.5,77.6,266.4,77.6"/>
	<path class="st24" d="M275.1,72.7c-0.5-0.2-1.1-0.2-1.7-0.2s-1.3,0.1-1.7,0.2l-0.5-1.5c0.6-0.2,1.4-0.3,2.2-0.3s1.6,0.1,2.2,0.3
		L275.1,72.7z"/>
</g>
<rect x="258" y="70.9" class="st25" width="4.1" height="1.5"/>
<rect x="284.7" y="70.9" class="st25" width="4.1" height="1.5"/>
<g>
	<defs>
		<rect id="SVGID_15_" x="-24" y="-204.3" width="595.3" height="841.9"/>
	</defs>
	<clipPath id="SVGID_16_">
		<use xlink:href="#SVGID_15_"  style="overflow:visible;"/>
	</clipPath>
	<path class="st26" d="M283.2,50.3C283.2,50.2,283.2,50.2,283.2,50.3c-0.1,0-0.2,0-0.4,0c-0.1,0-0.3,0-0.5,0c0-0.9-0.5-1.8-1.9-2.8
		c0.2,1.2-2.3,2.7-4,2.9c-2.6,0-5.9,0.1-9.9,0.1c-10.9,0-11.1,10.4-11.1,16.4c0,5.8,2.7,1.9,2.9,8.7l0,0v-8.2c0-2.5,1.6-5.5,5.3-5.5
		c3.8,0,2-0.1,5.3-0.1c0,0,0,0,0,0c0.1,0,0.2,0,0.4,0c17.7,0,18.6-11.6,18.6-11.6H283.2z"/>
	<path class="st27" d="M273.4,108.4c1.7,0,13.4-11,13.4-11l-1.9-0.5c-0.2-0.1-0.4-0.1-0.6-0.3l-10.9,7.6L263,96.4
		c-0.3,0.3-0.7,0.5-1.1,0.6l-2.3,0.6C259.6,97.6,271.7,108.4,273.4,108.4"/>
	<path class="st27" d="M447.9,76.3l-1.3,5.2c-0.2,0.6-0.7,1.1-1.3,1.1c-0.7,0-1.3-0.5-1.4-1.2l-0.7-5.3c-0.2-1.4,0.9-2.7,2.4-2.7h0
		C447.1,73.4,448.3,74.8,447.9,76.3"/>
	<path class="st27" d="M445.1,63.1c0,0,1.2-4.8-2.4-9.9c7.7,5.7,6.3,15.5,6.3,15.5c-2.3,2.3-2.3,8.1-2.3,8.1l-2.3-2.3
		c0,0,0.9-6.7-3.5-9.2c-4-2.4-7.6-1.2-11.2-1.2c-1.6,0-2.9-0.1-4.2-0.3C432.9,64.1,437.3,58.4,445.1,63.1"/>
	<path class="st28" d="M413.3,76.3l1.3,5.2c0.2,0.6,0.7,1.1,1.3,1.1c0.7,0,1.3-0.5,1.4-1.2l0.7-5.3c0.2-1.4-0.9-2.7-2.4-2.7h0
		C414.1,73.4,413,74.8,413.3,76.3"/>
	<path class="st26" d="M457.1,100.3l-14.3-3.4c-0.2-0.1-0.4-0.1-0.6-0.2l-11.6,6.8l-11.1-7.1c-0.3,0.3-0.6,0.5-1.1,0.6l-14.3,3.4
		c-2.1,0.5-3.6,2.4-3.6,4.5v9.1c0,1.3,1,2.3,2.3,2.3h55.5c1.3,0,2.3-1,2.3-2.3v-9.1C460.7,102.6,459.2,100.8,457.1,100.3"/>
</g>
<polygon class="st29" points="422.7,107.3 425.7,116.1 434.7,116.1 436.1,116.1 439.6,104 430.6,103.4 "/>
<polygon class="st30" points="441,96.5 441,88.4 420.2,88.4 420.2,96.5 430.6,105.7 "/>
<g>
	<defs>
		<rect id="SVGID_17_" x="-24" y="-204.3" width="595.3" height="841.9"/>
	</defs>
	<clipPath id="SVGID_18_">
		<use xlink:href="#SVGID_17_"  style="overflow:visible;"/>
	</clipPath>
	<path class="st31" d="M420.2,88.4v8.5c13.1,4.7,20.8-7.1,20.8-7.1v-1.4H420.2z"/>
	<path class="st32" d="M415.6,61.8l1,22.2c0.1,2.1,1.1,4,2.8,5.2l4.8,3.6c1.2,0.9,2.7,1.4,4.2,1.4h4.6c1.5,0,3-0.5,4.2-1.4l4.8-3.6
		c1.7-1.2,2.7-3.2,2.8-5.2l1-22.2H415.6z"/>
	<path class="st31" d="M427.1,66.4c4.6,0,11.6-1.2,13.2-4.6h-24.8l1,22.2c0.1,2.1,1.1,4,2.8,5.2l4.8,3.6c1.2,0.9,2.7,1.4,4.2,1.4
		h2.3c-2.3,0-6.9-4.6-6.9-10.4V69.9C423.7,68.7,424.8,66.4,427.1,66.4"/>
	<path class="st33" d="M409,108.6l-7.5-6.7c-0.6,0.8-1,1.8-1,2.9v9.1c0,1.3,1,2.3,2.3,2.3h8.1v-3.2C411,111.3,410.3,109.7,409,108.6
		"/>
	<path class="st33" d="M452.2,108.6l7.5-6.7c0.6,0.8,1,1.8,1,2.9v9.1c0,1.3-1,2.3-2.3,2.3h-8.1v-3.2
		C450.3,111.3,451,109.7,452.2,108.6"/>
	<path class="st34" d="M433.5,103.4h-5.8v2.2c0,0.7,0.6,1.3,1.3,1.3h3.2c0.7,0,1.3-0.6,1.3-1.3V103.4z"/>
	<path class="st32" d="M420,93.9l10.6,9.5c0,0-3,1.5-6.6,4.5c-0.8,0.6-1.9,0.4-2.3-0.5l-5-10.9l1.6-2.4
		C418.7,93.5,419.5,93.4,420,93.9"/>
	<path class="st32" d="M441.2,93.9l-10.6,9.5c0,0,3,1.5,6.6,4.5c0.8,0.6,1.9,0.4,2.3-0.5l5-10.9l-1.6-2.4
		C442.5,93.5,441.7,93.4,441.2,93.9"/>
	<path class="st34" d="M423.4,54.1l-1.1,7.7c-4.9,1-5.7,8.8-5.8,11c0,0.4-0.1,0.8-0.4,1.1l-1.9,2.9c0,0,0.6-4.8-2.3-8.1
		C412,68.7,411,49.5,423.4,54.1"/>
	<path class="st34" d="M444.4,52.1l-1.7,1.2c7.7,5.7,6.3,15.5,6.3,15.5c-2.3,2.3-2.3,8.1-2.3,8.1l-2.3-2.3c0,0,0.9-6.7-3.5-9.2
		c-4-2.4-7.6-1.2-11.2-1.2c-9.7,0-12.4-3.6-11.9-8.1c0.2-2.3,3.8-7.1,12.7-6.9C434.1,49.1,440.9,50.2,444.4,52.1"/>
</g>
<polygon class="st25" points="433.5,116.1 427.7,116.1 428.4,105.7 432.8,105.7 "/>
<g>
	<defs>
		<rect id="SVGID_19_" x="-24" y="-204.3" width="595.3" height="841.9"/>
	</defs>
	<clipPath id="SVGID_20_">
		<use xlink:href="#SVGID_19_"  style="overflow:visible;"/>
	</clipPath>
	<path class="st35" d="M446.9,103.9c0.2,0,0.3-0.2,0.3-0.3c0-0.2-0.2-0.3-0.3-0.3c-0.2,0-0.3,0.2-0.3,0.3
		C446.6,103.7,446.8,103.9,446.9,103.9"/>
	<path class="st35" d="M448.3,105.1c0.2,0,0.3-0.2,0.3-0.3c0-0.2-0.2-0.3-0.3-0.3c-0.2,0-0.3,0.2-0.3,0.3
		C448,104.9,448.1,105.1,448.3,105.1"/>
	<path class="st35" d="M449.7,103.9c0.2,0,0.3-0.2,0.3-0.3c0-0.2-0.2-0.3-0.3-0.3c-0.2,0-0.3,0.2-0.3,0.3
		C449.4,103.7,449.5,103.9,449.7,103.9"/>
	<path class="st35" d="M451.1,104.8c0.2,0,0.3-0.2,0.3-0.3c0-0.2-0.2-0.3-0.3-0.3c-0.2,0-0.3,0.2-0.3,0.3
		C450.8,104.6,450.9,104.8,451.1,104.8"/>
	<path class="st35" d="M448.3,111.2c-1.3,0-2.4-1.1-2.4-2.4V107l2.4,1.4l0.1-0.1l2.3-1.3v1.8C450.8,110.1,449.7,111.2,448.3,111.2
		 M445.2,106.6v0.1v2.1c0,1.7,1.4,3.1,3.1,3.1c1.7,0,3.1-1.4,3.1-3.1v-2.1v-0.1v-1.2c0-0.2-0.2-0.3-0.3-0.3c-0.2,0-0.3,0.2-0.3,0.3
		v0.5c0,0.2-0.2,0.3-0.3,0.3c-0.2,0-0.3-0.1-0.3-0.3l0,0v-0.1v-1.4c0-0.2-0.2-0.3-0.3-0.3c-0.2,0-0.3,0.2-0.3,0.3v1.7v0.6
		c0,0.2-0.2,0.3-0.3,0.3c-0.2,0-0.3-0.2-0.3-0.3v-0.2v-0.9c0-0.2-0.2-0.3-0.3-0.3c-0.2,0-0.3,0.2-0.3,0.3v0.9v0.2
		c0,0.2-0.2,0.3-0.3,0.3s-0.3-0.2-0.3-0.3v-0.6v-1.7c0-0.2-0.2-0.3-0.3-0.3s-0.3,0.2-0.3,0.3v1.4v0.1l0,0c0,0.2-0.2,0.3-0.3,0.3
		c-0.2,0-0.3-0.2-0.3-0.3v-0.5c0-0.2-0.2-0.3-0.3-0.3s-0.3,0.2-0.3,0.3V106.6z"/>
	<path class="st35" d="M445.6,104.1c0.2,0,0.3,0.2,0.3,0.3c0,0.2-0.2,0.3-0.3,0.3c-0.2,0-0.3-0.2-0.3-0.3
		C445.2,104.3,445.4,104.1,445.6,104.1"/>
</g>
</svg>
