<?xml version="1.0" encoding="utf-8"?>
<!-- Generator: Adobe Illustrator 19.0.0, SVG Export Plug-In . SVG Version: 6.00 Build 0)  -->
<svg version="1.1" id="Layer_1" xmlns="http://www.w3.org/2000/svg" xmlns:xlink="http://www.w3.org/1999/xlink" x="0px" y="0px"
	 viewBox="0 0 561 630" style="enable-background:new 0 0 561 630;" xml:space="preserve">
<style type="text/css">
	.st0{opacity:0.5;clip-path:url(#SVGID_2_);}
	.st1{clip-path:url(#SVGID_4_);fill:#F2EFFC;}
	.st2{fill:#FFFFFF;}
	.st3{clip-path:url(#SVGID_6_);fill:#F2F0FC;}
	.st4{fill:#515151;}
	.st5{font-family:'Montserrat-Light';}
	.st6{font-size:9px;}
	.st7{fill:#371BE1;}
	.st8{font-family:'Montserrat-Regular';}
	.st9{font-size:12px;}
	.st10{font-family:'Montserrat-Bold';}
	.st11{font-size:13px;}
	.st12{clip-path:url(#SVGID_8_);fill:#B5ABF2;}
	.st13{clip-path:url(#SVGID_8_);fill:#614FE5;}
	.st14{fill:#F2F0FC;}
	.st15{clip-path:url(#SVGID_10_);fill:#F2F0FC;}
	.st16{clip-path:url(#SVGID_10_);fill:#B5ABF2;}
	.st17{clip-path:url(#SVGID_10_);fill:#381CE0;}
	.st18{clip-path:url(#SVGID_10_);fill:#614FE5;}
	.st19{clip-path:url(#SVGID_10_);fill:#E3EBF5;}
	.st20{clip-path:url(#SVGID_12_);fill:#F2F0FC;}
	.st21{clip-path:url(#SVGID_12_);fill:#B5ABF2;}
	.st22{clip-path:url(#SVGID_12_);fill:#381CE0;}
	.st23{clip-path:url(#SVGID_12_);fill:#614FE5;}
	.st24{clip-path:url(#SVGID_12_);fill:#E3EBF5;}
	.st25{fill:none;stroke:#B5ABF3;stroke-width:3;stroke-linecap:round;stroke-linejoin:round;stroke-dasharray:0,5.964;}
	.st26{fill:none;stroke:#B5ABF3;stroke-width:3;stroke-linecap:round;stroke-linejoin:round;}
	.st27{fill:none;stroke:#B5ABF3;stroke-width:3;stroke-linecap:round;stroke-linejoin:round;stroke-dasharray:0,6.05;}
	.st28{clip-path:url(#SVGID_14_);fill:#381CE0;}
	.st29{clip-path:url(#SVGID_16_);fill:#381CE0;}
	.st30{opacity:0.1;clip-path:url(#SVGID_16_);}
	.st31{clip-path:url(#SVGID_18_);fill:#FFFFFF;}
	.st32{clip-path:url(#SVGID_18_);fill:#381CE0;}
	.st33{opacity:0.3;clip-path:url(#SVGID_16_);}
	.st34{clip-path:url(#SVGID_20_);fill:#FFFFFF;}
	.st35{clip-path:url(#SVGID_20_);fill:#381CE0;}
	.st36{clip-path:url(#SVGID_16_);fill:#FFFFFF;}
	.st37{fill:#381CE0;}
	.st38{clip-path:url(#SVGID_22_);fill:#FFFFFF;}
	.st39{clip-path:url(#SVGID_22_);fill:#381CE0;}
	.st40{clip-path:url(#SVGID_24_);fill:#FFFFFF;}
	.st41{clip-path:url(#SVGID_24_);fill:#381CE0;}
	.st42{clip-path:url(#SVGID_26_);fill:#FFFFFF;}
	.st43{clip-path:url(#SVGID_26_);fill:#381CE0;}
	.st44{clip-path:url(#SVGID_28_);fill:#FFFFFF;}
	.st45{clip-path:url(#SVGID_28_);fill:#381CE0;}
	.st46{clip-path:url(#SVGID_30_);fill:#381CE0;}
	.st47{fill:#F2EFFC;}
	.st48{clip-path:url(#SVGID_32_);fill:#371BE1;}
	.st49{clip-path:url(#SVGID_32_);fill:none;stroke:#FFFFFF;stroke-width:3;}
	.st50{clip-path:url(#SVGID_34_);fill:#371BE1;}
	.st51{clip-path:url(#SVGID_34_);fill:none;stroke:#FFFFFF;stroke-width:3;}
	.st52{clip-path:url(#SVGID_36_);fill:#371BE1;}
	.st53{fill:none;stroke:#FFFFFF;stroke-width:2;}
	.st54{opacity:7.000730e-02;clip-path:url(#SVGID_38_);}
	.st55{clip-path:url(#SVGID_40_);fill:#381CE0;}
	.st56{clip-path:url(#SVGID_42_);fill:#381CE0;}
	.st57{clip-path:url(#SVGID_38_);fill:#FFFFFF;}
	.st58{opacity:0.6;clip-path:url(#SVGID_38_);}
	.st59{clip-path:url(#SVGID_44_);fill:none;stroke:#B5ABF3;stroke-width:2;}
	.st60{clip-path:url(#SVGID_46_);fill:none;stroke:#B5ABF3;stroke-width:2;}
	.st61{clip-path:url(#SVGID_38_);fill:#614FE5;}
	.st62{clip-path:url(#SVGID_38_);fill:#381CE0;}
	.st63{clip-path:url(#SVGID_48_);fill:#381CE0;}
	.st64{opacity:0.1;clip-path:url(#SVGID_48_);}
	.st65{clip-path:url(#SVGID_50_);fill:#FFFFFF;}
	.st66{clip-path:url(#SVGID_50_);fill:#381CE0;}
	.st67{opacity:0.3;clip-path:url(#SVGID_48_);}
	.st68{clip-path:url(#SVGID_52_);fill:#FFFFFF;}
	.st69{clip-path:url(#SVGID_52_);fill:#381CE0;}
	.st70{clip-path:url(#SVGID_48_);fill:#FFFFFF;}
	.st71{clip-path:url(#SVGID_54_);fill:#381CE0;}
	.st72{clip-path:url(#SVGID_56_);fill:#381CE0;}
	.st73{clip-path:url(#SVGID_58_);fill:#FFFFFF;}
	.st74{clip-path:url(#SVGID_58_);fill:#381CE0;}
	.st75{clip-path:url(#SVGID_60_);fill:#381CE0;}
	.st76{clip-path:url(#SVGID_62_);fill:#381CE0;}
	.st77{clip-path:url(#SVGID_64_);fill:#FFFFFF;}
	.st78{clip-path:url(#SVGID_64_);fill:#381CE0;}
	.st79{clip-path:url(#SVGID_66_);fill:#381CE0;}
	.st80{clip-path:url(#SVGID_68_);fill:#381CE0;}
	.st81{clip-path:url(#SVGID_70_);fill:#FFFFFF;}
	.st82{clip-path:url(#SVGID_70_);fill:#381CE0;}
	.st83{clip-path:url(#SVGID_72_);fill:#381CE0;}
	.st84{clip-path:url(#SVGID_74_);fill:#381CE0;}
	.st85{clip-path:url(#SVGID_76_);fill:#FFFFFF;}
	.st86{clip-path:url(#SVGID_76_);fill:#381CE0;}
	.st87{clip-path:url(#SVGID_78_);fill:#381CE0;}
	.st88{clip-path:url(#SVGID_80_);fill:#381CE0;}
	.st89{clip-path:url(#SVGID_82_);fill:none;stroke:#B5ABF3;stroke-width:6;}
	.st90{clip-path:url(#SVGID_82_);fill:#614FE5;}
	.st91{clip-path:url(#SVGID_82_);fill:#381CE0;}
	.st92{clip-path:url(#SVGID_84_);fill:#381CE0;}
	.st93{clip-path:url(#SVGID_84_);fill:#B5ABF2;}
	.st94{clip-path:url(#SVGID_84_);fill:#F2F0FC;}
	.st95{clip-path:url(#SVGID_84_);fill:#614FE5;}
	.st96{fill:#614FE5;}
	.st97{clip-path:url(#SVGID_86_);fill:#381CE0;}
	.st98{clip-path:url(#SVGID_86_);fill:#B5ABF2;}
	.st99{clip-path:url(#SVGID_86_);fill:#FFFFFF;}
	.st100{clip-path:url(#SVGID_88_);fill:#FFFFFF;}
	.st101{clip-path:url(#SVGID_88_);fill:#381CE0;}
	.st102{clip-path:url(#SVGID_90_);fill:#381CE0;}
	.st103{clip-path:url(#SVGID_92_);fill:#381CE0;}
	.st104{opacity:0.2;clip-path:url(#SVGID_94_);}
	.st105{clip-path:url(#SVGID_96_);fill:none;stroke:#371BE1;stroke-width:7;}
	.st106{fill:none;stroke:#371BE1;stroke-width:2;}
	.st107{opacity:0.3;clip-path:url(#SVGID_98_);}
	.st108{clip-path:url(#SVGID_100_);fill:none;stroke:#371BE1;stroke-width:2;}
	.st109{opacity:0.1;clip-path:url(#SVGID_98_);}
	.st110{clip-path:url(#SVGID_102_);fill:none;stroke:#371BE1;stroke-width:2;}
	.st111{opacity:0.3;clip-path:url(#SVGID_104_);}
	.st112{clip-path:url(#SVGID_106_);fill:none;stroke:#371BE1;stroke-width:2;}
	.st113{opacity:0.1;clip-path:url(#SVGID_104_);}
	.st114{clip-path:url(#SVGID_108_);fill:none;stroke:#371BE1;stroke-width:2;}
</style>
<g>
	<defs>
		<rect id="SVGID_1_" x="-17" y="-86" width="595.3" height="841.9"/>
	</defs>
	<clipPath id="SVGID_2_">
		<use xlink:href="#SVGID_1_"  style="overflow:visible;"/>
	</clipPath>
	<g class="st0">
		<g>
			<defs>
				<rect id="SVGID_3_" x="160.9" y="9" width="239.4" height="303.1"/>
			</defs>
			<clipPath id="SVGID_4_">
				<use xlink:href="#SVGID_3_"  style="overflow:visible;"/>
			</clipPath>
			<path class="st1" d="M235,44.9c6.3,0,11.4-5.1,11.4-11.4S241.3,22,235,22c-6.3,0-11.4,5.1-11.4,11.4S228.7,44.9,235,44.9"/>
			<path class="st1" d="M280.6,85c6.3,0,11.4-5.1,11.4-11.4c0-6.3-5.1-11.4-11.4-11.4c-6.3,0-11.4,5.1-11.4,11.4
				C269.2,79.9,274.3,85,280.6,85"/>
			<path class="st1" d="M326.3,44.9c6.3,0,11.4-5.1,11.4-11.4S332.6,22,326.3,22c-6.3,0-11.4,5.1-11.4,11.4S320,44.9,326.3,44.9"/>
			<path class="st1" d="M371.9,75.2c6.3,0,11.4-5.1,11.4-11.4c0-6.3-5.1-11.4-11.4-11.4c-6.3,0-11.4,5.1-11.4,11.4
				C360.5,70,365.6,75.2,371.9,75.2"/>
			<path class="st1" d="M280.6,288c-43.9,0-79.9-36-79.9-79.9V148l79.9,46.1l3.5-2l76.3-44.1v60.1C360.5,252,324.5,288,280.6,288
				 M177.9,135.7v3.4v69.4c0,56.5,46.2,102.7,102.7,102.7c56.5,0,102.7-46.2,102.7-102.7V139v-3.4v-40c0-6.3-5.1-11.4-11.4-11.4
				c-6.3,0-11.4,5.1-11.4,11.4v17c0,6.3-5.1,11.4-11.4,11.4c-5.6,0-10.3-4.1-11.3-9.5l-0.2,0.1v-2V65.4c0-6.3-5.1-11.4-11.4-11.4
				c-6.3,0-11.4,5.1-11.4,11.4v55.2v18.5c0,6.3-5.1,11.4-11.4,11.4c-6.3,0-11.4-5.1-11.4-11.4v-5.3v-28.2c0-6.3-5.1-11.4-11.4-11.4
				c-6.3,0-11.4,5.1-11.4,11.4v28.2v5.3c0,6.3-5.1,11.4-11.4,11.4c-6.3,0-11.4-5.1-11.4-11.4v-18.5V65.4c0-6.3-5.1-11.4-11.4-11.4
				c-6.3,0-11.4,5.1-11.4,11.4v47.3v2l-0.2-0.1c-0.9,5.4-5.6,9.5-11.3,9.5c-6.3,0-11.4-5.1-11.4-11.4v-17c0-6.3-5.1-11.4-11.4-11.4
				c-6.3,0-11.4,5.1-11.4,11.4V135.7z"/>
			<path class="st1" d="M189.3,52.3c6.3,0,11.4,5.1,11.4,11.4c0,6.3-5.1,11.4-11.4,11.4c-6.3,0-11.4-5.1-11.4-11.4
				C177.9,57.4,183,52.3,189.3,52.3"/>
		</g>
	</g>
</g>
<rect x="155.5" y="219.2" class="st2" width="239" height="117.5"/>
<g>
	<defs>
		<rect id="SVGID_5_" x="-17" y="-86" width="595.3" height="841.9"/>
	</defs>
	<clipPath id="SVGID_6_">
		<use xlink:href="#SVGID_5_"  style="overflow:visible;"/>
	</clipPath>
	<path class="st3" d="M531.7,605.3H29.5c-5.8,0-10.5-4.7-10.5-10.5v-83.7c0-5.8,4.7-10.5,10.5-10.5h502.2c5.8,0,10.5,4.7,10.5,10.5
		v83.7C542.3,600.6,537.6,605.3,531.7,605.3"/>
	<path class="st3" d="M531.7,487.6H29.5c-5.8,0-10.5-4.7-10.5-10.5v-83.7c0-5.8,4.7-10.5,10.5-10.5h502.2c5.8,0,10.5,4.7,10.5,10.5
		v83.7C542.3,482.9,537.6,487.6,531.7,487.6"/>
	<path class="st3" d="M531.7,252.9H29.5c-5.8,0-10.5-4.7-10.5-10.5v-83.7c0-5.8,4.7-10.5,10.5-10.5h502.2c5.8,0,10.5,4.7,10.5,10.5
		v83.7C542.3,248.2,537.6,252.9,531.7,252.9"/>
	<path class="st3" d="M531.7,370.4H29.5c-5.8,0-10.5-4.7-10.5-10.5v-83.7c0-5.8,4.7-10.5,10.5-10.5h502.2c5.8,0,10.5,4.7,10.5,10.5
		v83.7C542.3,365.7,537.6,370.4,531.7,370.4"/>
</g>
<text transform="matrix(1 0 0 1 54.7285 194.4012)"><tspan x="0" y="0" class="st4 st5 st6">Bu</tspan><tspan x="12.8" y="0" class="st4 st5 st6">y</tspan><tspan x="17.4" y="0" class="st4 st5 st6">er purchases </tspan><tspan x="76.9" y="0" class="st4 st5 st6">t</tspan><tspan x="80.4" y="0" class="st4 st5 st6">o</tspan><tspan x="85.9" y="0" class="st4 st5 st6">k</tspan><tspan x="91" y="0" class="st4 st5 st6">ens </tspan></text>
<text transform="matrix(1 0 0 1 67.1846 209.4042)"><tspan x="0" y="0" class="st4 st5 st6">f</tspan><tspan x="2.9" y="0" class="st4 st5 st6">or ﬁat using Medusa </tspan></text>
<text transform="matrix(1 0 0 1 83.6997 224.4071)"><tspan x="0" y="0" class="st4 st5 st6">P</tspan><tspan x="6.4" y="0" class="st4 st5 st6">a</tspan><tspan x="11.5" y="0" class="st4 st5 st6">y</tspan><tspan x="16.3" y="0" class="st4 st5 st6">ment Se</tspan><tspan x="54.1" y="0" class="st4 st5 st6">r</tspan><tspan x="57.9" y="0" class="st4 st5 st6">vi</tspan><tspan x="65" y="0" class="st4 st5 st6">c</tspan><tspan x="69.7" y="0" class="st4 st5 st6">e. </tspan></text>
<text transform="matrix(1 0 0 1 69.9204 307.6029)"><tspan x="0" y="0" class="st4 st5 st6">Escr</tspan><tspan x="18.9" y="0" class="st4 st5 st6">o</tspan><tspan x="24.3" y="0" class="st4 st5 st6">w agent </tspan><tspan x="63.1" y="0" class="st4 st5 st6">s</tspan><tspan x="67.4" y="0" class="st4 st5 st6">w</tspan><tspan x="75" y="0" class="st4 st5 st6">aps </tspan></text>
<text transform="matrix(1 0 0 1 78.3804 322.6063)"><tspan x="0" y="0" class="st4 st5 st6">Medusa </tspan><tspan x="37.9" y="0" class="st4 st5 st6">t</tspan><tspan x="41.4" y="0" class="st4 st5 st6">o</tspan><tspan x="47" y="0" class="st4 st5 st6">k</tspan><tspan x="52.1" y="0" class="st4 st5 st6">ens </tspan><tspan x="70.2" y="0" class="st4 st5 st6">f</tspan><tspan x="73" y="0" class="st4 st5 st6">or </tspan></text>
<text transform="matrix(1 0 0 1 90.8276 337.6088)"><tspan x="0" y="0" class="st4 st5 st6">t</tspan><tspan x="3.5" y="0" class="st4 st5 st6">o</tspan><tspan x="9.1" y="0" class="st4 st5 st6">k</tspan><tspan x="14.2" y="0" class="st4 st5 st6">eni</tspan><tspan x="28" y="0" class="st4 st5 st6">z</tspan><tspan x="32.4" y="0" class="st4 st5 st6">ed asset</tspan></text>
<text transform="matrix(1 0 0 1 59.5703 430.6781)"><tspan x="0" y="0" class="st4 st5 st6">A</tspan><tspan x="6.1" y="0" class="st4 st5 st6">udi</tspan><tspan x="20.5" y="0" class="st4 st5 st6">t</tspan><tspan x="24.1" y="0" class="st4 st5 st6">or </tspan><tspan x="35.5" y="0" class="st4 st5 st6">c</tspan><tspan x="40.3" y="0" class="st4 st5 st6">onﬁrms t</tspan><tspan x="81.3" y="0" class="st4 st5 st6">r</tspan><tspan x="84.6" y="0" class="st4 st5 st6">ade </tspan></text>
<text transform="matrix(1 0 0 1 77.4536 445.681)"><tspan x="0" y="0" class="st4 st5 st6">on the bloc</tspan><tspan x="50.3" y="0" class="st4 st5 st6">k</tspan><tspan x="55.4" y="0" class="st4 st5 st6">chain.</tspan></text>
<text transform="matrix(1 0 0 1 58.7153 553.5463)"><tspan x="0" y="0" class="st4 st5 st6">Bu</tspan><tspan x="12.8" y="0" class="st4 st5 st6">y</tspan><tspan x="17.4" y="0" class="st4 st5 st6">er ta</tspan><tspan x="37.5" y="0" class="st4 st5 st6">k</tspan><tspan x="42.5" y="0" class="st4 st5 st6">es possession </tspan></text>
<text transform="matrix(1 0 0 1 78.1196 568.5492)"><tspan x="0" y="0" class="st4 st5 st6">o</tspan><tspan x="5.6" y="0" class="st4 st5 st6">f </tspan><tspan x="10.8" y="0" class="st4 st5 st6">t</tspan><tspan x="14.3" y="0" class="st4 st5 st6">o</tspan><tspan x="19.9" y="0" class="st4 st5 st6">k</tspan><tspan x="25" y="0" class="st4 st5 st6">eni</tspan><tspan x="38.8" y="0" class="st4 st5 st6">z</tspan><tspan x="43.2" y="0" class="st4 st5 st6">ed asset. </tspan></text>
<text transform="matrix(1 0 0 1 248.1421 177.912)" class="st7 st8 st9">Depositing</text>
<text transform="matrix(1 0 0 1 96.9771 134.1669)"><tspan x="0" y="0" class="st4 st10 st11">Bu</tspan><tspan x="19.5" y="0" class="st4 st10 st11">y</tspan><tspan x="27.4" y="0" class="st4 st10 st11">e</tspan><tspan x="35.9" y="0" class="st4 st10 st11">r</tspan></text>
<text transform="matrix(1 0 0 1 424.5771 134.1669)"><tspan x="0" y="0" class="st4 st10 st11">S</tspan><tspan x="8.6" y="0" class="st4 st10 st11">e</tspan><tspan x="17.1" y="0" class="st4 st10 st11">ll</tspan><tspan x="25.6" y="0" class="st4 st10 st11">e</tspan><tspan x="34.1" y="0" class="st4 st10 st11">r</tspan></text>
<text transform="matrix(1 0 0 1 395.0078 199.1664)"><tspan x="0" y="0" class="st4 st5 st6">Seller </tspan><tspan x="26.8" y="0" class="st4 st5 st6">t</tspan><tspan x="30.3" y="0" class="st4 st5 st6">o</tspan><tspan x="35.9" y="0" class="st4 st5 st6">k</tspan><tspan x="41" y="0" class="st4 st5 st6">eni</tspan><tspan x="54.7" y="0" class="st4 st5 st6">z</tspan><tspan x="59.2" y="0" class="st4 st5 st6">es asset and </tspan></text>
<text transform="matrix(1 0 0 1 395.0078 214.1698)"><tspan x="0" y="0" class="st4 st5 st6">deposits</tspan><tspan x="37.6" y="0" class="st4 st5 st6"> </tspan><tspan x="39.9" y="0" class="st4 st5 st6">t</tspan><tspan x="43.4" y="0" class="st4 st5 st6">o</tspan><tspan x="49" y="0" class="st4 st5 st6">k</tspan><tspan x="54.1" y="0" class="st4 st5 st6">ens</tspan><tspan x="69.8" y="0" class="st4 st5 st6"> </tspan><tspan x="72.1" y="0" class="st4 st5 st6">t</tspan><tspan x="75.6" y="0" class="st4 st5 st6">o</tspan><tspan x="81.2" y="0" class="st4 st5 st6"> </tspan><tspan x="83.5" y="0" class="st4 st5 st6">a</tspan><tspan x="88.7" y="0" class="st4 st5 st6">cc</tspan><tspan x="98.3" y="0" class="st4 st5 st6">ount. </tspan></text>
<text transform="matrix(1 0 0 1 395.0078 307.5985)"><tspan x="0" y="0" class="st4 st5 st6">Escr</tspan><tspan x="18.9" y="0" class="st4 st5 st6">o</tspan><tspan x="24.3" y="0" class="st4 st5 st6">w agent </tspan><tspan x="63.1" y="0" class="st4 st5 st6">s</tspan><tspan x="67.4" y="0" class="st4 st5 st6">w</tspan><tspan x="75" y="0" class="st4 st5 st6">aps </tspan></text>
<text transform="matrix(1 0 0 1 395.0078 322.6014)"><tspan x="0" y="0" class="st4 st5 st6">t</tspan><tspan x="3.5" y="0" class="st4 st5 st6">o</tspan><tspan x="9.1" y="0" class="st4 st5 st6">k</tspan><tspan x="14.2" y="0" class="st4 st5 st6">eni</tspan><tspan x="28" y="0" class="st4 st5 st6">z</tspan><tspan x="32.4" y="0" class="st4 st5 st6">ed asset </tspan><tspan x="71.3" y="0" class="st4 st5 st6">f</tspan><tspan x="74.2" y="0" class="st4 st5 st6">or Medusa </tspan></text>
<text transform="matrix(1 0 0 1 395.0078 337.6049)"><tspan x="0" y="0" class="st4 st5 st6">t</tspan><tspan x="3.5" y="0" class="st4 st5 st6">o</tspan><tspan x="9.1" y="0" class="st4 st5 st6">k</tspan><tspan x="14.2" y="0" class="st4 st5 st6">ens. </tspan></text>
<text transform="matrix(1 0 0 1 395.0078 430.6732)"><tspan x="0" y="0" class="st4 st5 st6">A</tspan><tspan x="6.1" y="0" class="st4 st5 st6">udi</tspan><tspan x="20.5" y="0" class="st4 st5 st6">t</tspan><tspan x="24.1" y="0" class="st4 st5 st6">or </tspan><tspan x="35.5" y="0" class="st4 st5 st6">c</tspan><tspan x="40.3" y="0" class="st4 st5 st6">onﬁrms t</tspan><tspan x="81.2" y="0" class="st4 st5 st6">r</tspan><tspan x="84.6" y="0" class="st4 st5 st6">ade on </tspan></text>
<text transform="matrix(1 0 0 1 395.0078 445.6761)"><tspan x="0" y="0" class="st4 st5 st6">the bloc</tspan><tspan x="36.3" y="0" class="st4 st5 st6">k</tspan><tspan x="41.4" y="0" class="st4 st5 st6">chain.</tspan></text>
<text transform="matrix(1 0 0 1 395.0078 553.5414)"><tspan x="0" y="0" class="st4 st5 st6">Seller ta</tspan><tspan x="35.6" y="0" class="st4 st5 st6">k</tspan><tspan x="40.7" y="0" class="st4 st5 st6">es possession </tspan><tspan x="103.2" y="0" class="st4 st5 st6">o</tspan><tspan x="108.8" y="0" class="st4 st5 st6">f </tspan></text>
<text transform="matrix(1 0 0 1 395.0078 568.5443)"><tspan x="0" y="0" class="st4 st5 st6">Medusa </tspan><tspan x="37.9" y="0" class="st4 st5 st6">t</tspan><tspan x="41.4" y="0" class="st4 st5 st6">o</tspan><tspan x="47" y="0" class="st4 st5 st6">k</tspan><tspan x="52.1" y="0" class="st4 st5 st6">ens. </tspan></text>
<g>
	<defs>
		<rect id="SVGID_7_" x="-17" y="-86" width="595.3" height="841.9"/>
	</defs>
	<clipPath id="SVGID_8_">
		<use xlink:href="#SVGID_7_"  style="overflow:visible;"/>
	</clipPath>
	<path class="st12" d="M133.9,69.3l-1.3,5c-0.2,0.6-0.7,1-1.3,1c-0.7,0-1.3-0.5-1.4-1.2l-0.7-5.1c-0.2-1.4,0.9-2.6,2.3-2.6h0
		C133.1,66.5,134.2,67.9,133.9,69.3"/>
	<path class="st13" d="M100,69.3l1.3,5c0.2,0.6,0.7,1,1.3,1c0.7,0,1.3-0.5,1.4-1.2l0.7-5.1c0.2-1.4-0.9-2.6-2.3-2.6h0
		C100.7,66.5,99.6,67.9,100,69.3"/>
</g>
<polygon class="st14" points="127.1,88.6 127.1,80.9 106.7,80.9 106.7,88.6 116.9,97.5 "/>
<g>
	<defs>
		<rect id="SVGID_9_" x="-17" y="-86" width="595.3" height="841.9"/>
	</defs>
	<clipPath id="SVGID_10_">
		<use xlink:href="#SVGID_9_"  style="overflow:visible;"/>
	</clipPath>
	<path class="st15" d="M142.9,92.3l-14-3.2c-0.2,0-0.4-0.1-0.6-0.2l-11.4,6.5L106,88.5c-0.3,0.3-0.6,0.5-1,0.5l-14,3.2
		c-2.1,0.5-3.5,2.3-3.5,4.3v8.7c0,1.2,1,2.2,2.3,2.2h54.5c1.3,0,2.3-1,2.3-2.2v-8.7C146.4,94.5,145,92.7,142.9,92.3"/>
	<path class="st16" d="M106.7,80.9v8.2c12.9,4.5,20.4-6.8,20.4-6.8v-1.4H106.7z"/>
	<path class="st15" d="M102.2,55.4l1,21.2c0.1,2,1.1,3.8,2.7,5l4.7,3.4c1.2,0.9,2.6,1.3,4.1,1.3h4.5c1.5,0,2.9-0.5,4.1-1.3l4.7-3.4
		c1.6-1.2,2.6-3,2.7-5l1-21.2H102.2z"/>
	<path class="st16" d="M113.5,59.9c4.5,0,11.3-1.1,13-4.4h-24.3l1,21.2c0.1,2,1.1,3.8,2.7,5l4.7,3.4c1.2,0.9,2.6,1.3,4.1,1.3h2.3
		c-2.3,0-6.8-4.4-6.8-10V63.2C110.1,62.1,111.3,59.9,113.5,59.9"/>
	<path class="st16" d="M95.8,100.3l-7.4-6.4c-0.6,0.8-1,1.7-1,2.7v8.7c0,1.2,1,2.2,2.3,2.2h7.9v-3.1C97.6,102.8,97,101.3,95.8,100.3
		"/>
	<path class="st16" d="M138.1,100.3l7.4-6.4c0.6,0.8,1,1.7,1,2.7v8.7c0,1.2-1,2.2-2.3,2.2h-7.9v-3.1
		C136.2,102.8,136.9,101.3,138.1,100.3"/>
	<path class="st16" d="M106.6,86.2l10.4,9.1c0,0-2.9,1.4-6.5,4.3c-0.7,0.6-1.9,0.4-2.3-0.5l-4.9-10.5l1.5-2.3
		C105.2,85.8,106,85.7,106.6,86.2"/>
	<path class="st16" d="M127.3,86.2l-10.4,9.1c0,0,2.9,1.4,6.5,4.3c0.7,0.6,1.9,0.4,2.3-0.5l4.9-10.5l-1.5-2.3
		C128.6,85.8,127.8,85.7,127.3,86.2"/>
	<path class="st16" d="M123.8,48.1l1.1,7.3c4.9,0.9,5.6,8.4,5.7,10.5c0,0.4,0.1,0.8,0.4,1.1l1.9,2.8c0,0-0.6-4.6,2.3-7.8
		C135,62.1,136,43.7,123.8,48.1"/>
	<path class="st17" d="M103.3,46.1l1.7,1.1c-7.6,5.5-6.2,14.8-6.2,14.8c2.3,2.2,2.3,7.8,2.3,7.8l2.3-2.2c0,0-0.9-6.4,3.4-8.9
		c4-2.3,7.4-1.1,11-1.1c9.5,0,12.2-3.5,11.7-7.8c-0.2-2.2-3.7-6.8-12.5-6.6C113.4,43.3,106.7,44.4,103.3,46.1"/>
	<path class="st18" d="M102.6,56.7c0,0-1.2-4.6,2.3-9.4c-7.6,5.5-6.2,14.8-6.2,14.8c2.3,2.2,2.3,7.8,2.3,7.8l2.3-2.2
		c0,0-0.9-6.4,3.4-8.9c4-2.3,7.4-1.1,11-1.1c1.5,0,2.9-0.1,4.1-0.3C114.5,57.6,110.2,52.2,102.6,56.7"/>
	<path class="st19" d="M131.7,105.3h-7.9c-0.6,0-1.1,0.5-1.1,1.1v1.1h10.2v-1.1C132.8,105.8,132.3,105.3,131.7,105.3"/>
	<path class="st16" d="M461.3,69.3l-1.3,5c-0.2,0.6-0.7,1-1.3,1c-0.7,0-1.3-0.5-1.4-1.2l-0.7-5.1c-0.2-1.4,0.9-2.6,2.3-2.6h0
		C460.5,66.5,461.7,67.9,461.3,69.3"/>
	<path class="st18" d="M427.4,69.3l1.3,5c0.2,0.6,0.7,1,1.3,1c0.7,0,1.3-0.5,1.4-1.2l0.7-5.1c0.2-1.4-0.9-2.6-2.3-2.6h0
		C428.2,66.5,427,67.9,427.4,69.3"/>
</g>
<polygon class="st14" points="454.6,88.6 454.6,80.9 434.1,80.9 434.1,88.6 444.4,97.5 "/>
<g>
	<defs>
		<rect id="SVGID_11_" x="-17" y="-86" width="595.3" height="841.9"/>
	</defs>
	<clipPath id="SVGID_12_">
		<use xlink:href="#SVGID_11_"  style="overflow:visible;"/>
	</clipPath>
	<path class="st20" d="M470.4,92.3l-14-3.2c-0.2,0-0.4-0.1-0.6-0.2l-11.4,6.5l-10.9-6.8c-0.3,0.3-0.6,0.5-1,0.5l-14,3.2
		c-2,0.5-3.5,2.3-3.5,4.3v8.7c0,1.2,1,2.2,2.3,2.2h54.5c1.3,0,2.3-1,2.3-2.2v-8.7C473.9,94.5,472.4,92.7,470.4,92.3"/>
	<path class="st21" d="M434.1,80.9v8.2c12.9,4.5,20.4-6.8,20.4-6.8v-1.4H434.1z"/>
	<path class="st20" d="M429.6,55.4l1,21.2c0.1,2,1.1,3.8,2.7,5l4.7,3.4c1.2,0.9,2.6,1.3,4.1,1.3h4.5c1.5,0,2.9-0.5,4.1-1.3l4.7-3.4
		c1.6-1.2,2.6-3,2.7-5l1-21.2H429.6z"/>
	<path class="st21" d="M440.9,59.9c4.5,0,11.3-1.1,13-4.4h-24.3l1,21.2c0.1,2,1.1,3.8,2.7,5l4.7,3.4c1.2,0.9,2.6,1.3,4.1,1.3h2.3
		c-2.3,0-6.8-4.4-6.8-10V63.2C437.5,62.1,438.7,59.9,440.9,59.9"/>
	<path class="st21" d="M423.2,100.3l-7.4-6.4c-0.6,0.8-1,1.7-1,2.7v8.7c0,1.2,1,2.2,2.3,2.2h7.9v-3.1
		C425.1,102.8,424.4,101.3,423.2,100.3"/>
	<path class="st21" d="M465.5,100.3l7.4-6.4c0.6,0.8,1,1.7,1,2.7v8.7c0,1.2-1,2.2-2.3,2.2h-7.9v-3.1
		C463.6,102.8,464.3,101.3,465.5,100.3"/>
	<path class="st21" d="M434,86.2l10.4,9.1c0,0-2.9,1.4-6.5,4.3c-0.7,0.6-1.9,0.4-2.3-0.5l-4.9-10.5l1.5-2.3
		C432.7,85.8,433.5,85.7,434,86.2"/>
	<path class="st21" d="M454.7,86.2l-10.4,9.1c0,0,2.9,1.4,6.5,4.3c0.7,0.6,1.9,0.4,2.3-0.5l4.9-10.5l-1.5-2.3
		C456,85.8,455.2,85.7,454.7,86.2"/>
	<path class="st21" d="M451.2,48.1l1.1,7.3c4.9,0.9,5.6,8.4,5.7,10.5c0,0.4,0.1,0.8,0.4,1.1l1.9,2.8c0,0-0.6-4.6,2.3-7.8
		C462.4,62.1,463.4,43.7,451.2,48.1"/>
	<path class="st22" d="M430.7,46.1l1.7,1.1c-7.6,5.5-6.2,14.8-6.2,14.8c2.3,2.2,2.3,7.8,2.3,7.8l2.3-2.2c0,0-0.9-6.4,3.4-8.9
		c4-2.3,7.4-1.1,11-1.1c9.5,0,12.2-3.5,11.7-7.8c-0.2-2.2-3.7-6.8-12.5-6.6C440.8,43.3,434.1,44.4,430.7,46.1"/>
	<path class="st23" d="M430,56.7c0,0-1.2-4.6,2.3-9.4c-7.6,5.5-6.2,14.8-6.2,14.8c2.3,2.2,2.3,7.8,2.3,7.8l2.3-2.2
		c0,0-0.9-6.4,3.4-8.9c4-2.3,7.4-1.1,11-1.1c1.5,0,2.9-0.1,4.1-0.3C441.9,57.6,437.6,52.2,430,56.7"/>
	<path class="st24" d="M459.1,105.3h-7.9c-0.6,0-1.1,0.5-1.1,1.1v1.1h10.2v-1.1C460.2,105.8,459.7,105.3,459.1,105.3"/>
</g>
<line class="st25" x1="280.6" y1="204.9" x2="280.6" y2="541.9"/>
<path class="st26" d="M280.6,544.9L280.6,544.9 M280.6,199L280.6,199"/>
<line class="st27" x1="335.1" y1="558.8" x2="223.2" y2="558.8"/>
<path class="st26" d="M220.1,558.8L220.1,558.8 M341.1,558.8L341.1,558.8"/>
<polygon class="st2" points="250.3,195.9 234.5,195.9 232.5,196.7 231.9,202.2 231.9,222.7 232.8,224.5 260.7,224.5 262.9,223.6 
	263.3,221.2 263.3,215.8 266.4,215.4 265.9,209.1 263.5,209.1 263.1,202.8 261.4,200.1 258.6,200.3 258.5,197.1 257.3,196 "/>
<g>
	<defs>
		<rect id="SVGID_13_" x="-17" y="-86" width="595.3" height="841.9"/>
	</defs>
	<clipPath id="SVGID_14_">
		<use xlink:href="#SVGID_13_"  style="overflow:visible;"/>
	</clipPath>
	<path class="st28" d="M265.3,214.6c0,0.1-0.1,0.2-0.2,0.2h-8.7c-0.1,0-0.2-0.1-0.2-0.2v-4.4c0-0.1,0.1-0.2,0.2-0.2h8.7
		c0.1,0,0.2,0.1,0.2,0.2V214.6z M262.4,221.6c0,1.1-0.9,2-2,2h-26.8c-0.4,0-0.8-0.3-0.8-0.8v-22c0.4,0.2,0.9,0.3,1.4,0.3h26.2
		c1.1,0,2,0.9,2,2v5.1h-6.1c-1.1,0-2,0.9-2,2v4.4c0,1.1,0.9,2,2,2h6.1V221.6z M234.2,196.7H257c0.4,0,0.8,0.3,0.8,0.8l0,1.9h-23.6
		c-0.7,0-1.4-0.6-1.4-1.3C232.8,197.3,233.4,196.7,234.2,196.7 M265.1,208.2h-0.9v-5.1c0-2.1-1.7-3.7-3.8-3.7h-0.8l0-1.9
		c0-1.4-1.2-2.5-2.6-2.5h-22.9c-1.7,0-3.1,1.4-3.1,3v0v24.8c0,1.4,1.2,2.5,2.6,2.5h26.8c2.1,0,3.8-1.7,3.8-3.7v-5.1h0.9
		c1.1,0,2-0.9,2-2v-4.4C267.1,209.1,266.2,208.2,265.1,208.2"/>
	<path class="st28" d="M241.3,206.1c0.3,0,0.6-0.3,0.6-0.6c0-0.3-0.3-0.6-0.6-0.6c-0.3,0-0.6,0.3-0.6,0.6
		C240.7,205.8,240.9,206.1,241.3,206.1"/>
	<path class="st28" d="M243.7,208.2c0.3,0,0.6-0.3,0.6-0.6s-0.3-0.6-0.6-0.6c-0.3,0-0.6,0.3-0.6,0.6S243.3,208.2,243.7,208.2"/>
	<path class="st28" d="M246.1,206.1c0.3,0,0.6-0.3,0.6-0.6c0-0.3-0.3-0.6-0.6-0.6c-0.3,0-0.6,0.3-0.6,0.6
		C245.5,205.8,245.7,206.1,246.1,206.1"/>
	<path class="st28" d="M248.5,207.6c0.3,0,0.6-0.3,0.6-0.6s-0.3-0.6-0.6-0.6c-0.3,0-0.6,0.3-0.6,0.6S248.1,207.6,248.5,207.6"/>
	<path class="st28" d="M243.7,218.7c-2.3,0-4.2-1.9-4.2-4.1v-3.1l4.2,2.4l0.2-0.1l4-2.3v3.1C247.9,216.8,246,218.7,243.7,218.7
		 M238.3,210.8v0.2v3.6c0,2.9,2.4,5.3,5.4,5.3c3,0,5.4-2.4,5.4-5.3V211v-0.2v-2.1c0-0.3-0.3-0.6-0.6-0.6c-0.3,0-0.6,0.3-0.6,0.6v0.9
		c0,0.3-0.3,0.6-0.6,0.6c-0.3,0-0.5-0.2-0.6-0.5l0,0v-0.1v-2.4c0-0.3-0.3-0.6-0.6-0.6c-0.3,0-0.6,0.3-0.6,0.6v2.9v1
		c0,0.3-0.3,0.6-0.6,0.6c-0.3,0-0.6-0.3-0.6-0.6v-0.3v-1.5c0-0.3-0.3-0.6-0.6-0.6c-0.3,0-0.6,0.3-0.6,0.6v1.5v0.3
		c0,0.3-0.3,0.6-0.6,0.6c-0.3,0-0.6-0.3-0.6-0.6v-1v-2.9c0-0.3-0.3-0.6-0.6-0.6c-0.3,0-0.6,0.3-0.6,0.6v2.4v0.1l0,0
		c0,0.3-0.3,0.5-0.6,0.5c-0.3,0-0.6-0.3-0.6-0.6v-0.9c0-0.3-0.3-0.6-0.6-0.6s-0.6,0.3-0.6,0.6V210.8z"/>
	<path class="st28" d="M238.9,206.5c0.3,0,0.6,0.3,0.6,0.6s-0.3,0.6-0.6,0.6c-0.3,0-0.6-0.3-0.6-0.6S238.5,206.5,238.9,206.5"/>
</g>
<polygon class="st2" points="315,195.9 299.1,195.9 297.2,196.7 296.6,202.2 296.6,222.7 297.5,224.5 325.4,224.5 327.6,223.6 
	328,221.2 328,215.8 331.1,215.4 330.6,209.1 328.1,209.1 327.8,202.8 326,200.1 323.3,200.3 323.1,197.1 321.9,196 "/>
<g>
	<defs>
		<rect id="SVGID_15_" x="-17" y="-86" width="595.3" height="841.9"/>
	</defs>
	<clipPath id="SVGID_16_">
		<use xlink:href="#SVGID_15_"  style="overflow:visible;"/>
	</clipPath>
	<path class="st29" d="M329.9,214.6c0,0.1-0.1,0.2-0.2,0.2H321c-0.1,0-0.2-0.1-0.2-0.2v-4.4c0-0.1,0.1-0.2,0.2-0.2h8.7
		c0.1,0,0.2,0.1,0.2,0.2V214.6z M327.1,221.6c0,1.1-0.9,2-2,2h-26.8c-0.4,0-0.8-0.3-0.8-0.8v-22c0.4,0.2,0.9,0.3,1.4,0.3H325
		c1.1,0,2,0.9,2,2v5.1H321c-1.1,0-2,0.9-2,2v4.4c0,1.1,0.9,2,2,2h6.1V221.6z M298.8,196.7h22.9c0.4,0,0.8,0.3,0.8,0.8l0,1.9h-23.6
		c-0.7,0-1.4-0.6-1.4-1.3C297.5,197.3,298.1,196.7,298.8,196.7 M329.7,208.2h-0.9v-5.1c0-2.1-1.7-3.7-3.8-3.7h-0.8l0-1.9
		c0-1.4-1.2-2.5-2.6-2.5h-22.9c-1.7,0-3.1,1.4-3.1,3v0v24.8c0,1.4,1.2,2.5,2.6,2.5H325c2.1,0,3.8-1.7,3.8-3.7v-5.1h0.9
		c1.1,0,2-0.9,2-2v-4.4C331.7,209.1,330.8,208.2,329.7,208.2"/>
	<path class="st29" d="M305.9,206.1c0.3,0,0.6-0.3,0.6-0.6c0-0.3-0.3-0.6-0.6-0.6c-0.3,0-0.6,0.3-0.6,0.6
		C305.3,205.8,305.6,206.1,305.9,206.1"/>
	<path class="st29" d="M308.3,208.2c0.3,0,0.6-0.3,0.6-0.6s-0.3-0.6-0.6-0.6c-0.3,0-0.6,0.3-0.6,0.6S308,208.2,308.3,208.2"/>
	<path class="st29" d="M310.7,206.1c0.3,0,0.6-0.3,0.6-0.6c0-0.3-0.3-0.6-0.6-0.6c-0.3,0-0.6,0.3-0.6,0.6
		C310.1,205.8,310.4,206.1,310.7,206.1"/>
	<path class="st29" d="M313.1,207.6c0.3,0,0.6-0.3,0.6-0.6s-0.3-0.6-0.6-0.6c-0.3,0-0.6,0.3-0.6,0.6S312.8,207.6,313.1,207.6"/>
	<path class="st29" d="M308.3,218.7c-2.3,0-4.2-1.9-4.2-4.1v-3.1l4.2,2.4l0.2-0.1l4-2.3v3.1C312.5,216.8,310.6,218.7,308.3,218.7
		 M302.9,210.8v0.2v3.6c0,2.9,2.4,5.3,5.4,5.3c3,0,5.4-2.4,5.4-5.3V211v-0.2v-2.1c0-0.3-0.3-0.6-0.6-0.6c-0.3,0-0.6,0.3-0.6,0.6v0.9
		c0,0.3-0.3,0.6-0.6,0.6c-0.3,0-0.5-0.2-0.6-0.5l0,0v-0.1v-2.4c0-0.3-0.3-0.6-0.6-0.6c-0.3,0-0.6,0.3-0.6,0.6v2.9v1
		c0,0.3-0.3,0.6-0.6,0.6c-0.3,0-0.6-0.3-0.6-0.6v-0.3v-1.5c0-0.3-0.3-0.6-0.6-0.6c-0.3,0-0.6,0.3-0.6,0.6v1.5v0.3
		c0,0.3-0.3,0.6-0.6,0.6c-0.3,0-0.6-0.3-0.6-0.6v-1v-2.9c0-0.3-0.3-0.6-0.6-0.6c-0.3,0-0.6,0.3-0.6,0.6v2.4v0.1l0,0
		c0,0.3-0.3,0.5-0.6,0.5c-0.3,0-0.6-0.3-0.6-0.6v-0.9c0-0.3-0.3-0.6-0.6-0.6c-0.3,0-0.6,0.3-0.6,0.6V210.8z"/>
	<path class="st29" d="M303.5,206.5c0.3,0,0.6,0.3,0.6,0.6s-0.3,0.6-0.6,0.6c-0.3,0-0.6-0.3-0.6-0.6S303.2,206.5,303.5,206.5"/>
	<g class="st30">
		<g>
			<defs>
				<rect id="SVGID_17_" x="165.9" y="183.9" width="67.5" height="34.5"/>
			</defs>
			<clipPath id="SVGID_18_">
				<use xlink:href="#SVGID_17_"  style="overflow:visible;"/>
			</clipPath>
			<path class="st31" d="M199.6,217c4.8,0,8.7-3.1,8.7-6.9s-3.9-6.9-8.7-6.9c-4.8,0-8.7,3.1-8.7,6.9S194.8,217,199.6,217"/>
			<path class="st32" d="M199.7,206.8c0.2,0,0.3-0.1,0.3-0.3s-0.1-0.3-0.3-0.3c-0.2,0-0.3,0.1-0.3,0.3S199.6,206.8,199.7,206.8"/>
			<path class="st32" d="M201,207.9c0.2,0,0.3-0.1,0.3-0.3s-0.1-0.3-0.3-0.3c-0.2,0-0.3,0.1-0.3,0.3S200.8,207.9,201,207.9"/>
			<path class="st32" d="M202.3,206.8c0.2,0,0.3-0.1,0.3-0.3s-0.1-0.3-0.3-0.3c-0.2,0-0.3,0.1-0.3,0.3S202.1,206.8,202.3,206.8"/>
			<path class="st32" d="M203.5,207.7c0.2,0,0.3-0.1,0.3-0.3s-0.1-0.3-0.3-0.3c-0.2,0-0.3,0.1-0.3,0.3S203.4,207.7,203.5,207.7"/>
			<path class="st32" d="M201,213.5c-1.2,0-2.2-1-2.2-2.2v-1.6l2.2,1.3l0.1-0.1l2.1-1.2v1.6C203.2,212.5,202.2,213.5,201,213.5
				 M198.2,209.3L198.2,209.3v2c0,1.5,1.3,2.8,2.9,2.8s2.9-1.3,2.9-2.8v-1.9v-0.1v-1.1c0-0.2-0.1-0.3-0.3-0.3s-0.3,0.1-0.3,0.3v0.5
				c0,0.2-0.1,0.3-0.3,0.3c-0.2,0-0.3-0.1-0.3-0.3l0,0v-0.1v-1.3c0-0.2-0.1-0.3-0.3-0.3c-0.2,0-0.3,0.1-0.3,0.3v1.5v0.5
				c0,0.2-0.1,0.3-0.3,0.3c-0.2,0-0.3-0.1-0.3-0.3v-0.1v-0.8c0-0.2-0.1-0.3-0.3-0.3c-0.2,0-0.3,0.1-0.3,0.3v0.8v0.1
				c0,0.2-0.1,0.3-0.3,0.3s-0.3-0.1-0.3-0.3v-0.5v-1.5c0-0.2-0.1-0.3-0.3-0.3s-0.3,0.1-0.3,0.3v1.3v0.1l0,0c0,0.1-0.2,0.3-0.3,0.3
				c-0.2,0-0.3-0.1-0.3-0.3v-0.5c0-0.2-0.1-0.3-0.3-0.3c-0.2,0-0.3,0.1-0.3,0.3V209.3z"/>
			<path class="st32" d="M198.5,207c0.2,0,0.3,0.1,0.3,0.3s-0.1,0.3-0.3,0.3c-0.2,0-0.3-0.1-0.3-0.3S198.3,207,198.5,207"/>
			<path class="st32" d="M201,203.5c-3.7,0-6.7,3-6.7,6.6c0,3.6,3,6.6,6.7,6.6c3.7,0,6.7-3,6.7-6.6
				C207.7,206.5,204.7,203.5,201,203.5 M201,217.4c-4.1,0-7.4-3.3-7.4-7.3c0-4,3.3-7.3,7.4-7.3c4.1,0,7.4,3.3,7.4,7.3
				C208.4,214.2,205.1,217.4,201,217.4"/>
			<path class="st32" d="M198.3,217.4c-4.1,0-7.4-3.3-7.4-7.3c0-4,3.3-7.3,7.4-7.3v0.7c-3.7,0-6.7,3-6.7,6.6c0,3.6,3,6.6,6.7,6.6
				V217.4z"/>
			<rect x="198.3" y="202.9" class="st32" width="2.7" height="0.7"/>
			<rect x="198.3" y="216.8" class="st32" width="2.7" height="0.7"/>
		</g>
	</g>
	<g class="st33">
		<g>
			<defs>
				<rect id="SVGID_19_" x="171.5" y="183.9" width="67.5" height="34.5"/>
			</defs>
			<clipPath id="SVGID_20_">
				<use xlink:href="#SVGID_19_"  style="overflow:visible;"/>
			</clipPath>
			<path class="st34" d="M205.2,217c4.8,0,8.7-3.1,8.7-6.9s-3.9-6.9-8.7-6.9c-4.8,0-8.7,3.1-8.7,6.9S200.4,217,205.2,217"/>
			<path class="st35" d="M205.3,206.8c0.2,0,0.3-0.1,0.3-0.3s-0.1-0.3-0.3-0.3c-0.2,0-0.3,0.1-0.3,0.3S205.1,206.8,205.3,206.8"/>
			<path class="st35" d="M206.6,207.9c0.2,0,0.3-0.1,0.3-0.3s-0.1-0.3-0.3-0.3c-0.2,0-0.3,0.1-0.3,0.3S206.4,207.9,206.6,207.9"/>
			<path class="st35" d="M207.9,206.8c0.2,0,0.3-0.1,0.3-0.3s-0.1-0.3-0.3-0.3c-0.2,0-0.3,0.1-0.3,0.3S207.7,206.8,207.9,206.8"/>
			<path class="st35" d="M209.1,207.7c0.2,0,0.3-0.1,0.3-0.3s-0.1-0.3-0.3-0.3c-0.2,0-0.3,0.1-0.3,0.3S208.9,207.7,209.1,207.7"/>
			<path class="st35" d="M206.6,213.5c-1.2,0-2.2-1-2.2-2.2v-1.6l2.2,1.3l0.1-0.1l2.1-1.2v1.6C208.8,212.5,207.8,213.5,206.6,213.5
				 M203.7,209.3L203.7,209.3v2c0,1.5,1.3,2.8,2.9,2.8s2.9-1.3,2.9-2.8v-1.9v-0.1v-1.1c0-0.2-0.1-0.3-0.3-0.3s-0.3,0.1-0.3,0.3v0.5
				c0,0.2-0.1,0.3-0.3,0.3c-0.2,0-0.3-0.1-0.3-0.3l0,0v-0.1v-1.3c0-0.2-0.1-0.3-0.3-0.3c-0.2,0-0.3,0.1-0.3,0.3v1.5v0.5
				c0,0.2-0.1,0.3-0.3,0.3c-0.2,0-0.3-0.1-0.3-0.3v-0.1v-0.8c0-0.2-0.1-0.3-0.3-0.3c-0.2,0-0.3,0.1-0.3,0.3v0.8v0.1
				c0,0.2-0.1,0.3-0.3,0.3s-0.3-0.1-0.3-0.3v-0.5v-1.5c0-0.2-0.1-0.3-0.3-0.3s-0.3,0.1-0.3,0.3v1.3v0.1l0,0c0,0.1-0.2,0.3-0.3,0.3
				c-0.2,0-0.3-0.1-0.3-0.3v-0.5c0-0.2-0.1-0.3-0.3-0.3c-0.2,0-0.3,0.1-0.3,0.3V209.3z"/>
			<path class="st35" d="M204,207c0.2,0,0.3,0.1,0.3,0.3s-0.1,0.3-0.3,0.3c-0.2,0-0.3-0.1-0.3-0.3S203.9,207,204,207"/>
			<path class="st35" d="M206.6,203.5c-3.7,0-6.7,3-6.7,6.6c0,3.6,3,6.6,6.7,6.6c3.7,0,6.7-3,6.7-6.6
				C213.3,206.5,210.3,203.5,206.6,203.5 M206.6,217.4c-4.1,0-7.4-3.3-7.4-7.3c0-4,3.3-7.3,7.4-7.3c4.1,0,7.4,3.3,7.4,7.3
				C214,214.2,210.7,217.4,206.6,217.4"/>
			<path class="st35" d="M203.9,217.4c-4.1,0-7.4-3.3-7.4-7.3c0-4,3.3-7.3,7.4-7.3v0.7c-3.7,0-6.7,3-6.7,6.6c0,3.6,3,6.6,6.7,6.6
				V217.4z"/>
			<rect x="203.9" y="202.9" class="st35" width="2.7" height="0.7"/>
			<rect x="203.9" y="216.8" class="st35" width="2.7" height="0.7"/>
		</g>
	</g>
	<path class="st36" d="M212.2,217c4.8,0,8.7-3.1,8.7-6.9s-3.9-6.9-8.7-6.9c-4.8,0-8.7,3.1-8.7,6.9S207.4,217,212.2,217"/>
	<path class="st29" d="M212.3,206.8c0.2,0,0.3-0.1,0.3-0.3s-0.1-0.3-0.3-0.3c-0.2,0-0.3,0.1-0.3,0.3S212.1,206.8,212.3,206.8"/>
	<path class="st29" d="M213.6,207.9c0.2,0,0.3-0.1,0.3-0.3s-0.1-0.3-0.3-0.3c-0.2,0-0.3,0.1-0.3,0.3S213.4,207.9,213.6,207.9"/>
	<path class="st29" d="M214.8,206.8c0.2,0,0.3-0.1,0.3-0.3s-0.1-0.3-0.3-0.3c-0.2,0-0.3,0.1-0.3,0.3S214.7,206.8,214.8,206.8"/>
	<path class="st29" d="M216.1,207.7c0.2,0,0.3-0.1,0.3-0.3s-0.1-0.3-0.3-0.3c-0.2,0-0.3,0.1-0.3,0.3S215.9,207.7,216.1,207.7"/>
	<path class="st29" d="M213.6,213.5c-1.2,0-2.2-1-2.2-2.2v-1.6l2.2,1.3l0.1-0.1l2.1-1.2v1.6C215.8,212.5,214.8,213.5,213.6,213.5
		 M210.7,209.3L210.7,209.3v2c0,1.5,1.3,2.8,2.9,2.8s2.9-1.3,2.9-2.8v-1.9v-0.1v-1.1c0-0.2-0.1-0.3-0.3-0.3s-0.3,0.1-0.3,0.3v0.5
		c0,0.2-0.1,0.3-0.3,0.3c-0.2,0-0.3-0.1-0.3-0.3l0,0v-0.1v-1.3c0-0.2-0.1-0.3-0.3-0.3c-0.2,0-0.3,0.1-0.3,0.3v1.5v0.5
		c0,0.2-0.1,0.3-0.3,0.3c-0.2,0-0.3-0.1-0.3-0.3v-0.1v-0.8c0-0.2-0.1-0.3-0.3-0.3c-0.2,0-0.3,0.1-0.3,0.3v0.8v0.1
		c0,0.2-0.1,0.3-0.3,0.3s-0.3-0.1-0.3-0.3v-0.5v-1.5c0-0.2-0.1-0.3-0.3-0.3s-0.3,0.1-0.3,0.3v1.3v0.1l0,0c0,0.1-0.2,0.3-0.3,0.3
		c-0.2,0-0.3-0.1-0.3-0.3v-0.5c0-0.2-0.1-0.3-0.3-0.3c-0.2,0-0.3,0.1-0.3,0.3V209.3z"/>
	<path class="st29" d="M211,207c0.2,0,0.3,0.1,0.3,0.3s-0.1,0.3-0.3,0.3c-0.2,0-0.3-0.1-0.3-0.3S210.9,207,211,207"/>
	<path class="st29" d="M213.6,203.5c-3.7,0-6.7,3-6.7,6.6c0,3.6,3,6.6,6.7,6.6c3.7,0,6.7-3,6.7-6.6
		C220.3,206.5,217.3,203.5,213.6,203.5 M213.6,217.4c-4.1,0-7.4-3.3-7.4-7.3c0-4,3.3-7.3,7.4-7.3c4.1,0,7.4,3.3,7.4,7.3
		C221,214.2,217.7,217.4,213.6,217.4"/>
	<path class="st29" d="M210.9,217.4c-4.1,0-7.4-3.3-7.4-7.3c0-4,3.3-7.3,7.4-7.3v0.7c-3.7,0-6.7,3-6.7,6.6c0,3.6,3,6.6,6.7,6.6
		V217.4z"/>
</g>
<rect x="210.9" y="202.9" class="st37" width="2.7" height="0.7"/>
<rect x="210.9" y="216.8" class="st37" width="2.7" height="0.7"/>
<g>
	<defs>
		<rect id="SVGID_21_" x="-17" y="-86" width="595.3" height="841.9"/>
	</defs>
	<clipPath id="SVGID_22_">
		<use xlink:href="#SVGID_21_"  style="overflow:visible;"/>
	</clipPath>
	<path class="st38" d="M362.3,561.5c8,0,14.6-5.3,14.6-11.8c0-6.5-6.5-11.8-14.6-11.8c-8,0-14.6,5.3-14.6,11.8
		C347.7,556.3,354.2,561.5,362.3,561.5"/>
	<path class="st39" d="M362.4,544.1c0.3,0,0.5-0.2,0.5-0.5c0-0.3-0.2-0.5-0.5-0.5c-0.3,0-0.5,0.2-0.5,0.5
		C361.9,543.9,362.1,544.1,362.4,544.1"/>
	<path class="st39" d="M364.5,546c0.3,0,0.5-0.2,0.5-0.5c0-0.3-0.2-0.5-0.5-0.5c-0.3,0-0.5,0.2-0.5,0.5
		C364,545.7,364.3,546,364.5,546"/>
	<path class="st39" d="M366.7,544.1c0.3,0,0.5-0.2,0.5-0.5c0-0.3-0.2-0.5-0.5-0.5c-0.3,0-0.5,0.2-0.5,0.5
		C366.1,543.9,366.4,544.1,366.7,544.1"/>
	<path class="st39" d="M368.8,545.5c0.3,0,0.5-0.2,0.5-0.5c0-0.3-0.2-0.5-0.5-0.5c-0.3,0-0.5,0.2-0.5,0.5
		C368.2,545.3,368.5,545.5,368.8,545.5"/>
	<path class="st39" d="M364.5,555.5c-2,0-3.7-1.7-3.7-3.7v-2.8l3.7,2.2l0.2-0.1l3.5-2.1v2.8C368.2,553.8,366.6,555.5,364.5,555.5
		 M359.8,548.3v0.2v3.2c0,2.6,2.1,4.8,4.8,4.8c2.6,0,4.8-2.2,4.8-4.8v-3.2v-0.2v-1.9c0-0.3-0.2-0.5-0.5-0.5s-0.5,0.2-0.5,0.5v0.8
		c0,0.3-0.2,0.5-0.5,0.5c-0.3,0-0.5-0.2-0.5-0.4l0,0v-0.1v-2.2c0-0.3-0.2-0.5-0.5-0.5c-0.3,0-0.5,0.2-0.5,0.5v2.6v0.9
		c0,0.3-0.2,0.5-0.5,0.5c-0.3,0-0.5-0.2-0.5-0.5v-0.2v-1.3c0-0.3-0.2-0.5-0.5-0.5c-0.3,0-0.5,0.2-0.5,0.5v1.3v0.2
		c0,0.3-0.2,0.5-0.5,0.5c-0.3,0-0.5-0.2-0.5-0.5v-0.9v-2.6c0-0.3-0.2-0.5-0.5-0.5c-0.3,0-0.5,0.2-0.5,0.5v2.2v0.1l0,0
		c0,0.3-0.3,0.4-0.5,0.4c-0.3,0-0.5-0.2-0.5-0.5v-0.8c0-0.3-0.2-0.5-0.5-0.5s-0.5,0.2-0.5,0.5V548.3z"/>
	<path class="st39" d="M360.3,544.5c0.3,0,0.5,0.2,0.5,0.5c0,0.3-0.2,0.5-0.5,0.5c-0.3,0-0.5-0.2-0.5-0.5
		C359.8,544.7,360,544.5,360.3,544.5"/>
	<path class="st39" d="M364.5,538.5c-6.2,0-11.2,5.1-11.2,11.3c0,6.2,5,11.3,11.2,11.3c6.2,0,11.2-5.1,11.2-11.3
		C375.7,543.6,370.7,538.5,364.5,538.5 M364.5,562.2c-6.8,0-12.3-5.6-12.3-12.4c0-6.9,5.5-12.4,12.3-12.4c6.8,0,12.3,5.6,12.3,12.4
		C376.8,556.6,371.3,562.2,364.5,562.2"/>
	<path class="st39" d="M360,562.2c-6.8,0-12.3-5.6-12.3-12.4c0-6.9,5.5-12.4,12.3-12.4v1.1c-6.2,0-11.2,5.1-11.2,11.3
		c0,6.2,5,11.3,11.2,11.3V562.2z"/>
</g>
<rect x="360" y="537.4" class="st37" width="4.5" height="1.1"/>
<rect x="360" y="561.1" class="st37" width="4.5" height="1.1"/>
<g>
	<defs>
		<rect id="SVGID_23_" x="-17" y="-86" width="595.3" height="841.9"/>
	</defs>
	<clipPath id="SVGID_24_">
		<use xlink:href="#SVGID_23_"  style="overflow:visible;"/>
	</clipPath>
	<path class="st40" d="M347,570.6c8,0,14.6-5.3,14.6-11.8c0-6.5-6.5-11.8-14.6-11.8c-8,0-14.6,5.3-14.6,11.8
		C332.4,565.3,338.9,570.6,347,570.6"/>
	<path class="st41" d="M347.1,553.2c0.3,0,0.5-0.2,0.5-0.5c0-0.3-0.2-0.5-0.5-0.5c-0.3,0-0.5,0.2-0.5,0.5
		C346.6,552.9,346.8,553.2,347.1,553.2"/>
	<path class="st41" d="M349.2,555c0.3,0,0.5-0.2,0.5-0.5c0-0.3-0.2-0.5-0.5-0.5c-0.3,0-0.5,0.2-0.5,0.5
		C348.7,554.8,348.9,555,349.2,555"/>
	<path class="st41" d="M351.3,553.2c0.3,0,0.5-0.2,0.5-0.5c0-0.3-0.2-0.5-0.5-0.5c-0.3,0-0.5,0.2-0.5,0.5
		C350.8,552.9,351,553.2,351.3,553.2"/>
	<path class="st41" d="M353.4,554.6c0.3,0,0.5-0.2,0.5-0.5c0-0.3-0.2-0.5-0.5-0.5c-0.3,0-0.5,0.2-0.5,0.5
		C352.9,554.3,353.2,554.6,353.4,554.6"/>
	<path class="st41" d="M349.2,564.5c-2,0-3.7-1.7-3.7-3.7V558l3.7,2.2l0.2-0.1l3.5-2.1v2.8C352.9,562.8,351.3,564.5,349.2,564.5
		 M344.5,557.4v0.2v3.2c0,2.6,2.1,4.8,4.8,4.8c2.6,0,4.8-2.2,4.8-4.8v-3.2v-0.2v-1.9c0-0.3-0.2-0.5-0.5-0.5s-0.5,0.2-0.5,0.5v0.8
		c0,0.3-0.2,0.5-0.5,0.5c-0.3,0-0.5-0.2-0.5-0.4l0,0v-0.1v-2.2c0-0.3-0.2-0.5-0.5-0.5c-0.3,0-0.5,0.2-0.5,0.5v2.6v0.9
		c0,0.3-0.2,0.5-0.5,0.5c-0.3,0-0.5-0.2-0.5-0.5v-0.2V556c0-0.3-0.2-0.5-0.5-0.5c-0.3,0-0.5,0.2-0.5,0.5v1.3v0.2
		c0,0.3-0.2,0.5-0.5,0.5c-0.3,0-0.5-0.2-0.5-0.5v-0.9v-2.6c0-0.3-0.2-0.5-0.5-0.5c-0.3,0-0.5,0.2-0.5,0.5v2.2v0.1l0,0
		c0,0.3-0.3,0.4-0.5,0.4c-0.3,0-0.5-0.2-0.5-0.5v-0.8c0-0.3-0.2-0.5-0.5-0.5s-0.5,0.2-0.5,0.5V557.4z"/>
	<path class="st41" d="M345,553.5c0.3,0,0.5,0.2,0.5,0.5c0,0.3-0.2,0.5-0.5,0.5c-0.3,0-0.5-0.2-0.5-0.5
		C344.5,553.7,344.7,553.5,345,553.5"/>
	<path class="st41" d="M349.2,547.5c-6.2,0-11.2,5.1-11.2,11.3s5,11.3,11.2,11.3c6.2,0,11.2-5.1,11.2-11.3S355.4,547.5,349.2,547.5
		 M349.2,571.3c-6.8,0-12.3-5.6-12.3-12.4c0-6.9,5.5-12.4,12.3-12.4c6.8,0,12.3,5.6,12.3,12.4C361.5,565.7,356,571.3,349.2,571.3"/>
	<path class="st41" d="M344.7,571.3c-6.8,0-12.3-5.6-12.3-12.4c0-6.9,5.5-12.4,12.3-12.4v1.1c-6.2,0-11.2,5.1-11.2,11.3
		s5,11.3,11.2,11.3V571.3z"/>
</g>
<rect x="344.7" y="546.4" class="st37" width="4.5" height="1.1"/>
<rect x="344.7" y="570.2" class="st37" width="4.5" height="1.1"/>
<g>
	<defs>
		<rect id="SVGID_25_" x="-17" y="-86" width="595.3" height="841.9"/>
	</defs>
	<clipPath id="SVGID_26_">
		<use xlink:href="#SVGID_25_"  style="overflow:visible;"/>
	</clipPath>
	<path class="st42" d="M362.3,579.5c8,0,14.6-5.3,14.6-11.8s-6.5-11.8-14.6-11.8c-8,0-14.6,5.3-14.6,11.8S354.2,579.5,362.3,579.5"
		/>
	<path class="st43" d="M362.4,562.1c0.3,0,0.5-0.2,0.5-0.5c0-0.3-0.2-0.5-0.5-0.5c-0.3,0-0.5,0.2-0.5,0.5
		C361.9,561.9,362.1,562.1,362.4,562.1"/>
	<path class="st43" d="M364.5,564c0.3,0,0.5-0.2,0.5-0.5c0-0.3-0.2-0.5-0.5-0.5c-0.3,0-0.5,0.2-0.5,0.5
		C364,563.8,364.3,564,364.5,564"/>
	<path class="st43" d="M366.7,562.1c0.3,0,0.5-0.2,0.5-0.5c0-0.3-0.2-0.5-0.5-0.5c-0.3,0-0.5,0.2-0.5,0.5
		C366.1,561.9,366.4,562.1,366.7,562.1"/>
	<path class="st43" d="M368.8,563.5c0.3,0,0.5-0.2,0.5-0.5c0-0.3-0.2-0.5-0.5-0.5c-0.3,0-0.5,0.2-0.5,0.5
		C368.2,563.3,368.5,563.5,368.8,563.5"/>
	<path class="st43" d="M364.5,573.5c-2,0-3.7-1.7-3.7-3.7v-2.8l3.7,2.2l0.2-0.1l3.5-2.1v2.8C368.2,571.8,366.6,573.5,364.5,573.5
		 M359.8,566.4v0.2v3.2c0,2.6,2.1,4.8,4.8,4.8c2.6,0,4.8-2.2,4.8-4.8v-3.2v-0.2v-1.9c0-0.3-0.2-0.5-0.5-0.5s-0.5,0.2-0.5,0.5v0.8
		c0,0.3-0.2,0.5-0.5,0.5c-0.3,0-0.5-0.2-0.5-0.4l0,0v-0.1v-2.2c0-0.3-0.2-0.5-0.5-0.5c-0.3,0-0.5,0.2-0.5,0.5v2.6v0.9
		c0,0.3-0.2,0.5-0.5,0.5c-0.3,0-0.5-0.2-0.5-0.5v-0.2v-1.3c0-0.3-0.2-0.5-0.5-0.5c-0.3,0-0.5,0.2-0.5,0.5v1.3v0.2
		c0,0.3-0.2,0.5-0.5,0.5c-0.3,0-0.5-0.2-0.5-0.5v-0.9v-2.6c0-0.3-0.2-0.5-0.5-0.5c-0.3,0-0.5,0.2-0.5,0.5v2.2v0.1l0,0
		c0,0.3-0.3,0.4-0.5,0.4c-0.3,0-0.5-0.2-0.5-0.5v-0.8c0-0.3-0.2-0.5-0.5-0.5s-0.5,0.2-0.5,0.5V566.4z"/>
	<path class="st43" d="M360.3,562.5c0.3,0,0.5,0.2,0.5,0.5c0,0.3-0.2,0.5-0.5,0.5c-0.3,0-0.5-0.2-0.5-0.5
		C359.8,562.7,360,562.5,360.3,562.5"/>
	<path class="st43" d="M364.5,556.5c-6.2,0-11.2,5.1-11.2,11.3s5,11.3,11.2,11.3c6.2,0,11.2-5.1,11.2-11.3S370.7,556.5,364.5,556.5
		 M364.5,580.2c-6.8,0-12.3-5.6-12.3-12.4c0-6.9,5.5-12.4,12.3-12.4c6.8,0,12.3,5.6,12.3,12.4C376.8,574.7,371.3,580.2,364.5,580.2"
		/>
	<path class="st43" d="M360,580.2c-6.8,0-12.3-5.6-12.3-12.4c0-6.9,5.5-12.4,12.3-12.4v1.1c-6.2,0-11.2,5.1-11.2,11.3
		s5,11.3,11.2,11.3V580.2z"/>
</g>
<rect x="360" y="555.4" class="st37" width="4.5" height="1.1"/>
<rect x="360" y="579.1" class="st37" width="4.5" height="1.1"/>
<g>
	<defs>
		<rect id="SVGID_27_" x="-17" y="-86" width="595.3" height="841.9"/>
	</defs>
	<clipPath id="SVGID_28_">
		<use xlink:href="#SVGID_27_"  style="overflow:visible;"/>
	</clipPath>
	<path class="st44" d="M196,329.8c8,0,14.6-5.3,14.6-11.8s-6.5-11.8-14.6-11.8c-8,0-14.6,5.3-14.6,11.8S187.9,329.8,196,329.8"/>
	<path class="st45" d="M196.1,312.4c0.3,0,0.5-0.2,0.5-0.5c0-0.3-0.2-0.5-0.5-0.5c-0.3,0-0.5,0.2-0.5,0.5
		C195.6,312.1,195.8,312.4,196.1,312.4"/>
	<path class="st45" d="M198.2,314.3c0.3,0,0.5-0.2,0.5-0.5c0-0.3-0.2-0.5-0.5-0.5c-0.3,0-0.5,0.2-0.5,0.5
		C197.7,314,197.9,314.3,198.2,314.3"/>
	<path class="st45" d="M200.3,312.4c0.3,0,0.5-0.2,0.5-0.5c0-0.3-0.2-0.5-0.5-0.5c-0.3,0-0.5,0.2-0.5,0.5
		C199.8,312.1,200,312.4,200.3,312.4"/>
	<path class="st45" d="M202.4,313.8c0.3,0,0.5-0.2,0.5-0.5c0-0.3-0.2-0.5-0.5-0.5c-0.3,0-0.5,0.2-0.5,0.5
		C201.9,313.6,202.2,313.8,202.4,313.8"/>
	<path class="st45" d="M198.2,323.7c-2,0-3.7-1.7-3.7-3.7v-2.8l3.7,2.2l0.2-0.1l3.5-2.1v2.8C201.9,322.1,200.3,323.7,198.2,323.7
		 M193.5,316.6v0.2v3.2c0,2.6,2.1,4.8,4.8,4.8c2.6,0,4.8-2.2,4.8-4.8v-3.2v-0.2v-1.9c0-0.3-0.2-0.5-0.5-0.5c-0.3,0-0.5,0.2-0.5,0.5
		v0.8c0,0.3-0.2,0.5-0.5,0.5c-0.3,0-0.5-0.2-0.5-0.4l0,0v-0.1v-2.2c0-0.3-0.2-0.5-0.5-0.5s-0.5,0.2-0.5,0.5v2.6v0.9
		c0,0.3-0.2,0.5-0.5,0.5c-0.3,0-0.5-0.2-0.5-0.5v-0.2v-1.3c0-0.3-0.2-0.5-0.5-0.5c-0.3,0-0.5,0.2-0.5,0.5v1.3v0.2
		c0,0.3-0.2,0.5-0.5,0.5c-0.3,0-0.5-0.2-0.5-0.5v-0.9v-2.6c0-0.3-0.2-0.5-0.5-0.5s-0.5,0.2-0.5,0.5v2.2v0.1l0,0
		c0,0.3-0.3,0.4-0.5,0.4c-0.3,0-0.5-0.2-0.5-0.5v-0.8c0-0.3-0.2-0.5-0.5-0.5c-0.3,0-0.5,0.2-0.5,0.5V316.6z"/>
	<path class="st45" d="M194,312.7c0.3,0,0.5,0.2,0.5,0.5c0,0.3-0.2,0.5-0.5,0.5c-0.3,0-0.5-0.2-0.5-0.5
		C193.5,313,193.7,312.7,194,312.7"/>
	<path class="st45" d="M198.2,306.8c-6.2,0-11.2,5.1-11.2,11.3c0,6.2,5,11.3,11.2,11.3c6.2,0,11.2-5.1,11.2-11.3
		C209.4,311.8,204.4,306.8,198.2,306.8 M198.2,330.5c-6.8,0-12.3-5.6-12.3-12.4c0-6.9,5.5-12.4,12.3-12.4c6.8,0,12.3,5.6,12.3,12.4
		C210.5,324.9,205,330.5,198.2,330.5"/>
	<path class="st45" d="M193.7,330.5c-6.8,0-12.3-5.6-12.3-12.4c0-6.9,5.5-12.4,12.3-12.4v1.1c-6.2,0-11.2,5.1-11.2,11.3
		c0,6.2,5,11.3,11.2,11.3V330.5z"/>
</g>
<rect x="193.7" y="305.6" class="st37" width="4.5" height="1.1"/>
<rect x="193.7" y="329.4" class="st37" width="4.5" height="1.1"/>
<g>
	<defs>
		<rect id="SVGID_29_" x="-17" y="-86" width="595.3" height="841.9"/>
	</defs>
	<clipPath id="SVGID_30_">
		<use xlink:href="#SVGID_29_"  style="overflow:visible;"/>
	</clipPath>
	<path class="st46" d="M381.4,216.7h-2.7v-5.5h-4.9v5.5h-2.7V209h10.3V216.7z M374.6,211.9h3.3v4.8h-3.3V211.9z M371.9,204.2h1.2
		v1.7l-1.2,1.2V204.2z M380.8,208.3h-9.1l4.6-4.3L380.8,208.3z M382.1,208.4L382.1,208.4l-5.8-5.5l-2.4,2.3v-1.7h-2.8v4.3l-0.6,0.6
		l0,0c-0.1,0.1-0.1,0.2-0.1,0.3v8.4c0,0.2,0.2,0.4,0.4,0.4h3.1h4.9h3.1c0.2,0,0.4-0.2,0.4-0.4v-8.4
		C382.2,208.5,382.1,208.4,382.1,208.4"/>
</g>
<rect x="272.6" y="268" class="st47" width="16" height="30"/>
<rect x="272.6" y="265.7" class="st47" width="16" height="41.8"/>
<rect x="272.6" y="388.5" class="st47" width="16" height="40.3"/>
<rect x="272.6" y="503.7" class="st47" width="16" height="32.7"/>
<rect x="272.6" y="582.1" class="st47" width="16" height="16.6"/>
<text transform="matrix(1 0 0 1 258.0239 295.4237)"><tspan x="0" y="0" class="st7 st8 st9">T</tspan><tspan x="6.4" y="0" class="st7 st8 st9">r</tspan><tspan x="11" y="0" class="st7 st8 st9">ading</tspan></text>
<g>
	<defs>
		<rect id="SVGID_31_" x="-17" y="-86" width="595.3" height="841.9"/>
	</defs>
	<clipPath id="SVGID_32_">
		<use xlink:href="#SVGID_31_"  style="overflow:visible;"/>
	</clipPath>
	<path class="st48" d="M280.6,270.3c2.6,0,4.6-2.1,4.6-4.6c0-2.6-2.1-4.6-4.6-4.6c-2.6,0-4.6,2.1-4.6,4.6
		C276,268.3,278.1,270.3,280.6,270.3"/>
	<path class="st49" d="M280.6,270.3c2.6,0,4.6-2.1,4.6-4.6c0-2.6-2.1-4.6-4.6-4.6c-2.6,0-4.6,2.1-4.6,4.6
		C276,268.3,278.1,270.3,280.6,270.3z"/>
</g>
<text transform="matrix(1 0 0 1 254.688 412.5863)"><tspan x="0" y="0" class="st7 st8 st9">A</tspan><tspan x="8.3" y="0" class="st7 st8 st9">uditing</tspan></text>
<g>
	<defs>
		<rect id="SVGID_33_" x="-17" y="-86" width="595.3" height="841.9"/>
	</defs>
	<clipPath id="SVGID_34_">
		<use xlink:href="#SVGID_33_"  style="overflow:visible;"/>
	</clipPath>
	<path class="st50" d="M280.6,387.5c2.6,0,4.6-2.1,4.6-4.6c0-2.6-2.1-4.6-4.6-4.6c-2.6,0-4.6,2.1-4.6,4.6
		C276,385.4,278.1,387.5,280.6,387.5"/>
	<path class="st51" d="M280.6,387.5c2.6,0,4.6-2.1,4.6-4.6c0-2.6-2.1-4.6-4.6-4.6c-2.6,0-4.6,2.1-4.6,4.6
		C276,385.4,278.1,387.5,280.6,387.5z"/>
	<path class="st50" d="M280.6,505.2c2.6,0,4.6-2.1,4.6-4.6c0-2.6-2.1-4.6-4.6-4.6c-2.6,0-4.6,2.1-4.6,4.6
		C276,503.1,278.1,505.2,280.6,505.2"/>
	<path class="st51" d="M280.6,505.2c2.6,0,4.6-2.1,4.6-4.6c0-2.6-2.1-4.6-4.6-4.6c-2.6,0-4.6,2.1-4.6,4.6
		C276,503.1,278.1,505.2,280.6,505.2z"/>
</g>
<text transform="matrix(1 0 0 1 242.9399 530.2719)" class="st7 st8 st9">Redemption</text>
<g>
	<defs>
		<rect id="SVGID_35_" x="-17" y="-86" width="595.3" height="841.9"/>
	</defs>
	<clipPath id="SVGID_36_">
		<use xlink:href="#SVGID_35_"  style="overflow:visible;"/>
	</clipPath>
	<path class="st52" d="M280.6,571.3c6.9,0,12.4-5.6,12.4-12.4c0-6.9-5.6-12.4-12.4-12.4c-6.9,0-12.4,5.6-12.4,12.4
		C268.2,565.7,273.8,571.3,280.6,571.3"/>
</g>
<polyline class="st53" points="275.9,560.4 279.9,563.4 285.3,554.4 "/>
<g>
	<defs>
		<rect id="SVGID_37_" x="-17" y="-86" width="595.3" height="841.9"/>
	</defs>
	<clipPath id="SVGID_38_">
		<use xlink:href="#SVGID_37_"  style="overflow:visible;"/>
	</clipPath>
	<g class="st54">
		<g>
			<defs>
				<rect id="SVGID_39_" x="180.9" y="399.3" width="96.7" height="66.9"/>
			</defs>
			<clipPath id="SVGID_40_">
				<use xlink:href="#SVGID_39_"  style="overflow:visible;"/>
			</clipPath>
			<path class="st55" d="M258.3,444.2c-1.4-2-1-4.8,1-6.2c2-1.4,4.8-1,6.2,1c1.4,2,1,4.8-1,6.2C262.5,446.6,259.7,446.2,258.3,444.2
				 M228.8,462.5c-1,0.7-2.4,0.5-3.1-0.5c-0.7-1-0.5-2.4,0.5-3.1c1-0.7,2.4-0.5,3.1,0.5C230,460.4,229.8,461.8,228.8,462.5
				 M226.2,439.6c-2.2-3-1.5-7.2,1.6-9.4c3-2.2,7.2-1.5,9.4,1.6c2.2,3,1.5,7.2-1.6,9.4C232.5,443.3,228.3,442.6,226.2,439.6
				 M212.4,455c-2,1.4-4.8,1-6.2-1c-1.4-2-1-4.8,1-6.2c2-1.4,4.8-1,6.2,1C214.9,450.8,214.4,453.6,212.4,455 M193,431.7
				c-1.4-2-1-4.8,1-6.2c2-1.4,4.8-1,6.2,1c1.4,2,1,4.8-1,6.2C197.3,434.2,194.5,433.7,193,431.7 M234.5,408.9c1-0.7,2.4-0.5,3.1,0.5
				c0.7,1,0.5,2.4-0.5,3.1c-1,0.7-2.4,0.5-3.1-0.5C233.2,411.1,233.5,409.7,234.5,408.9 M267.4,437.7c-2.2-3-6.4-3.7-9.4-1.6
				c-0.9,0.7-1.7,1.5-2.1,2.5l-15.3-2.5c0.1-1.9-0.4-3.9-1.7-5.6c-1.2-1.7-2.9-2.8-4.7-3.4l2-12c0.8-0.1,1.5-0.3,2.2-0.8
				c2-1.4,2.5-4.2,1-6.2c-1.4-2-4.2-2.5-6.2-1c-2,1.4-2.5,4.2-1,6.2c0.5,0.7,1.1,1.2,1.8,1.5l-2,12c-1.9-0.1-3.9,0.5-5.6,1.7
				c-1.7,1.2-2.8,2.9-3.4,4.7l-19.8-3.3c0.2-1.6-0.2-3.3-1.2-4.7c-2.2-3-6.4-3.7-9.4-1.6c-3,2.2-3.7,6.4-1.6,9.4
				c2.2,3,6.4,3.7,9.4,1.6c0.9-0.7,1.7-1.5,2.1-2.5l20,3.3c-0.1,1.6,0.3,3.2,1.1,4.6l-9.2,6.6c-2.3-2.3-5.9-2.6-8.6-0.7
				c-3,2.2-3.7,6.4-1.6,9.4c2.2,3,6.4,3.7,9.4,1.6c2.7-1.9,3.5-5.5,2.1-8.4l9.2-6.6c1.1,1.2,2.5,2,4,2.5l-2,12
				c-0.8,0.1-1.5,0.3-2.2,0.8c-2,1.4-2.5,4.2-1,6.2c1.4,2,4.2,2.5,6.2,1c2-1.4,2.5-4.2,1-6.2c-0.5-0.7-1.1-1.2-1.8-1.5l2-12
				c1.9,0.1,3.9-0.5,5.6-1.7c1.7-1.2,2.8-2.9,3.4-4.7l15.1,2.5c-0.2,1.6,0.2,3.3,1.2,4.7c2.2,3,6.4,3.7,9.4,1.6
				C268.8,444.9,269.5,440.7,267.4,437.7"/>
		</g>
	</g>
	<g class="st54">
		<g>
			<defs>
				<rect id="SVGID_41_" x="283.9" y="399.3" width="96.7" height="66.9"/>
			</defs>
			<clipPath id="SVGID_42_">
				<use xlink:href="#SVGID_41_"  style="overflow:visible;"/>
			</clipPath>
			<path class="st56" d="M303.2,444.2c1.4-2,1-4.8-1-6.2c-2-1.4-4.8-1-6.2,1c-1.4,2-1,4.8,1,6.2C299,446.6,301.8,446.2,303.2,444.2
				 M332.7,462.5c1,0.7,2.4,0.5,3.1-0.5c0.7-1,0.5-2.4-0.5-3.1c-1-0.7-2.4-0.5-3.1,0.5C331.5,460.4,331.7,461.8,332.7,462.5
				 M335.4,439.6c2.2-3,1.5-7.2-1.6-9.4c-3-2.2-7.2-1.5-9.4,1.6c-2.2,3-1.5,7.2,1.6,9.4C329,443.3,333.2,442.6,335.4,439.6
				 M349.1,455c2,1.4,4.8,1,6.2-1c1.4-2,1-4.8-1-6.2c-2-1.4-4.8-1-6.2,1C346.7,450.8,347.1,453.6,349.1,455 M368.5,431.7
				c1.4-2,1-4.8-1-6.2c-2-1.4-4.8-1-6.2,1c-1.4,2-1,4.8,1,6.2C364.3,434.2,367.1,433.7,368.5,431.7 M327.1,408.9
				c-1-0.7-2.4-0.5-3.1,0.5c-0.7,1-0.5,2.4,0.5,3.1c1,0.7,2.4,0.5,3.1-0.5C328.3,411.1,328.1,409.7,327.1,408.9 M294.1,437.7
				c2.2-3,6.4-3.7,9.4-1.6c0.9,0.7,1.7,1.5,2.1,2.5l15.3-2.5c-0.1-1.9,0.4-3.9,1.7-5.6c1.2-1.7,2.9-2.8,4.7-3.4l-2-12
				c-0.8-0.1-1.5-0.3-2.2-0.8c-2-1.4-2.5-4.2-1-6.2c1.4-2,4.2-2.5,6.2-1c2,1.4,2.5,4.2,1,6.2c-0.5,0.7-1.1,1.2-1.8,1.5l2,12
				c1.9-0.1,3.9,0.5,5.6,1.7c1.7,1.2,2.8,2.9,3.4,4.7l19.8-3.3c-0.2-1.6,0.2-3.3,1.2-4.7c2.2-3,6.4-3.7,9.4-1.6
				c3,2.2,3.7,6.4,1.6,9.4c-2.2,3-6.4,3.7-9.4,1.6c-0.9-0.7-1.7-1.5-2.1-2.5l-20,3.3c0.1,1.6-0.3,3.2-1.1,4.6l9.2,6.6
				c2.3-2.3,5.9-2.6,8.6-0.7c3,2.2,3.7,6.4,1.6,9.4c-2.2,3-6.4,3.7-9.4,1.6c-2.7-1.9-3.5-5.5-2.1-8.4l-9.2-6.6c-1.1,1.2-2.5,2-4,2.5
				l2,12c0.8,0.1,1.5,0.3,2.2,0.8c2,1.4,2.5,4.2,1,6.2c-1.4,2-4.2,2.5-6.2,1c-2-1.4-2.5-4.2-1-6.2c0.5-0.7,1.1-1.2,1.8-1.5l-2-12
				c-1.9,0.1-3.9-0.5-5.6-1.7c-1.7-1.2-2.8-2.9-3.4-4.7l-15.1,2.5c0.2,1.6-0.2,3.3-1.2,4.7c-2.2,3-6.4,3.7-9.4,1.6
				C292.7,444.9,292,440.7,294.1,437.7"/>
		</g>
	</g>
	<path class="st57" d="M280.6,464.6c11.1,0,20-9,20-20c0-11.1-9-20-20-20c-11.1,0-20,9-20,20C260.6,455.7,269.6,464.6,280.6,464.6"
		/>
	<path class="st57" d="M231.4,445.1c5.1,0,9.2-4.1,9.2-9.2c0-5.1-4.1-9.2-9.2-9.2c-5.1,0-9.2,4.1-9.2,9.2
		C222.2,441,226.3,445.1,231.4,445.1"/>
	<path class="st57" d="M329.9,445.1c5.1,0,9.2-4.1,9.2-9.2c0-5.1-4.1-9.2-9.2-9.2c-5.1,0-9.2,4.1-9.2,9.2
		C320.6,441,324.8,445.1,329.9,445.1"/>
	<g class="st58">
		<g>
			<defs>
				<rect id="SVGID_43_" x="217" y="424.3" width="28.8" height="19"/>
			</defs>
			<clipPath id="SVGID_44_">
				<use xlink:href="#SVGID_43_"  style="overflow:visible;"/>
			</clipPath>
			<polyline class="st59" points="226.6,437.8 230.6,440.8 235.9,431.8 			"/>
		</g>
	</g>
	<g class="st58">
		<g>
			<defs>
				<rect id="SVGID_45_" x="315.5" y="424.3" width="28.8" height="19"/>
			</defs>
			<clipPath id="SVGID_46_">
				<use xlink:href="#SVGID_45_"  style="overflow:visible;"/>
			</clipPath>
			<polyline class="st60" points="325.1,437.8 329.1,440.8 334.4,431.8 			"/>
		</g>
	</g>
	<path class="st61" d="M289.6,441.1c0-0.5,0-1,0-1.5c0-0.4-0.3-0.7-0.8-0.7c-3.2,0-5.6-2.1-7.6-3.9c-0.3-0.3-0.8-0.3-1.1,0
		c-2,1.8-4.4,3.9-7.6,3.9c-0.4,0-0.8,0.3-0.8,0.7c0,0.5,0,1,0,1.5c-0.1,5-0.3,11.9,8.7,14.8l0.3,0l0.3,0
		C289.8,453,289.7,446.1,289.6,441.1"/>
	<path class="st62" d="M289.5,439.5c0-0.4-0.3-0.7-0.8-0.7c-3.2,0-5.6-2.1-7.6-3.9c-0.2-0.1-0.3-0.2-0.5-0.2v21.2l0.3,0
		c8.9-2.9,8.8-9.8,8.7-14.8C289.5,440.5,289.5,440,289.5,439.5"/>
	<path class="st57" d="M178.8,217.5c4.9,0,8.8-3.3,8.8-7.3s-3.9-7.3-8.8-7.3c-4.9,0-8.8,3.3-8.8,7.3S173.9,217.5,178.8,217.5"/>
	<path class="st62" d="M180.3,203.4c-3.7,0-6.6,3-6.6,6.6s3,6.6,6.6,6.6c3.7,0,6.6-3,6.6-6.6S183.9,203.4,180.3,203.4 M180.3,217.4
		c-4,0-7.3-3.3-7.3-7.3s3.3-7.3,7.3-7.3c4,0,7.3,3.3,7.3,7.3S184.3,217.4,180.3,217.4"/>
	<path class="st62" d="M177.6,217.4c-4,0-7.3-3.3-7.3-7.3s3.3-7.3,7.3-7.3v0.7c-3.7,0-6.6,3-6.6,6.6s3,6.6,6.6,6.6V217.4z"/>
</g>
<rect x="177.6" y="202.8" class="st37" width="2.7" height="0.7"/>
<rect x="177.6" y="216.7" class="st37" width="2.7" height="0.7"/>
<g>
	<defs>
		<rect id="SVGID_47_" x="-17" y="-86" width="595.3" height="841.9"/>
	</defs>
	<clipPath id="SVGID_48_">
		<use xlink:href="#SVGID_47_"  style="overflow:visible;"/>
	</clipPath>
	<path class="st63" d="M180.7,212.1v0.9h-0.8v-0.9c-0.5-0.1-1-0.3-1.4-0.6l0.4-0.8c0.4,0.4,1.1,0.6,1.5,0.6c0.3,0,0.5-0.1,0.5-0.4
		c0-0.7-2.2-0.3-2.2-1.8c0-0.6,0.4-1.1,1.2-1.2v-0.9h0.8v0.8c0.5,0.1,1,0.2,1.3,0.4l-0.4,0.8c-0.4-0.3-1-0.4-1.3-0.4
		c-0.3,0-0.5,0.1-0.5,0.3c0,0.7,2.2,0.3,2.2,1.8C182,211.6,181.5,212,180.7,212.1"/>
	<g class="st64">
		<g>
			<defs>
				<rect id="SVGID_49_" x="333.2" y="189.8" width="51.3" height="28.7"/>
			</defs>
			<clipPath id="SVGID_50_">
				<use xlink:href="#SVGID_49_"  style="overflow:visible;"/>
			</clipPath>
			<path class="st65" d="M367.2,210.1c0-3.9-3.7-7-8.4-7c-4.6,0-8.4,3.1-8.4,7c0,3.9,3.7,7,8.4,7C363.5,217.2,367.2,214,367.2,210.1
				"/>
			<path class="st66" d="M355.1,213.6h5.4v-4h-5.4V213.6z M360.8,214.1h-6c-0.2,0-0.3-0.1-0.3-0.3v-4.6c0-0.2,0.1-0.3,0.3-0.3h6
				c0.2,0,0.3,0.1,0.3,0.3v4.6C361,214,360.9,214.1,360.8,214.1"/>
			<path class="st66" d="M357,213.6h1.7v-2.5H357V213.6z M359.2,214.1h-2.8v-3.6h2.8V214.1z"/>
			<polygon class="st66" points="355.5,208.9 354.9,208.9 354.9,206.4 356.8,206.4 356.8,207.7 356.2,207.7 356.2,206.9 
				355.5,206.9 			"/>
			<path class="st66" d="M357.5,203.4c-3.7,0-6.6,3-6.6,6.7s3,6.7,6.6,6.7c3.7,0,6.6-3,6.6-6.7S361.2,203.4,357.5,203.4
				 M357.5,217.5c-4,0-7.3-3.3-7.3-7.4c0-4.1,3.3-7.4,7.3-7.4c4,0,7.3,3.3,7.3,7.4C364.8,214.2,361.5,217.5,357.5,217.5"/>
			<polygon class="st66" points="360.6,209.5 357.8,206.8 355,209.5 354.6,209.1 357.8,206 361,209.1 			"/>
			<path class="st66" d="M360.2,217.5c4,0,7.3-3.3,7.3-7.4c0-4.1-3.3-7.4-7.3-7.4v0.7c3.7,0,6.6,3,6.6,6.7s-3,6.7-6.6,6.7V217.5z"/>
			<rect x="357.5" y="202.8" class="st66" width="2.7" height="0.7"/>
			<rect x="357.5" y="216.8" class="st66" width="2.7" height="0.7"/>
		</g>
	</g>
	<g class="st67">
		<g>
			<defs>
				<rect id="SVGID_51_" x="326.1" y="189.8" width="51.3" height="28.7"/>
			</defs>
			<clipPath id="SVGID_52_">
				<use xlink:href="#SVGID_51_"  style="overflow:visible;"/>
			</clipPath>
			<path class="st68" d="M360.2,210.1c0-3.9-3.7-7-8.4-7c-4.6,0-8.4,3.1-8.4,7c0,3.9,3.7,7,8.4,7C356.4,217.2,360.2,214,360.2,210.1
				"/>
			<path class="st69" d="M348,213.6h5.4v-4H348V213.6z M353.7,214.1h-6c-0.2,0-0.3-0.1-0.3-0.3v-4.6c0-0.2,0.1-0.3,0.3-0.3h6
				c0.2,0,0.3,0.1,0.3,0.3v4.6C354,214,353.8,214.1,353.7,214.1"/>
			<path class="st69" d="M349.9,213.6h1.7v-2.5h-1.7V213.6z M352.1,214.1h-2.8v-3.6h2.8V214.1z"/>
			<polygon class="st69" points="348.4,208.9 347.8,208.9 347.8,206.4 349.7,206.4 349.7,207.7 349.1,207.7 349.1,206.9 
				348.4,206.9 			"/>
			<path class="st69" d="M350.4,203.4c-3.7,0-6.6,3-6.6,6.7s3,6.7,6.6,6.7c3.7,0,6.6-3,6.6-6.7S354.1,203.4,350.4,203.4
				 M350.4,217.5c-4,0-7.3-3.3-7.3-7.4c0-4.1,3.3-7.4,7.3-7.4c4,0,7.3,3.3,7.3,7.4C357.7,214.2,354.4,217.5,350.4,217.5"/>
			<polygon class="st69" points="353.5,209.5 350.7,206.8 347.9,209.5 347.5,209.1 350.7,206 353.9,209.1 			"/>
			<path class="st69" d="M353.1,217.5c4,0,7.3-3.3,7.3-7.4c0-4.1-3.3-7.4-7.3-7.4v0.7c3.7,0,6.6,3,6.6,6.7s-3,6.7-6.6,6.7V217.5z"/>
			<rect x="350.4" y="202.8" class="st69" width="2.7" height="0.7"/>
			<rect x="350.4" y="216.8" class="st69" width="2.7" height="0.7"/>
		</g>
	</g>
	<path class="st70" d="M353.1,210.1c0-3.9-3.7-7-8.4-7c-4.6,0-8.4,3.1-8.4,7c0,3.9,3.7,7,8.4,7C349.3,217.2,353.1,214,353.1,210.1"
		/>
	<path class="st63" d="M340.9,213.6h5.4v-4h-5.4V213.6z M346.6,214.1h-6c-0.2,0-0.3-0.1-0.3-0.3v-4.6c0-0.2,0.1-0.3,0.3-0.3h6
		c0.2,0,0.3,0.1,0.3,0.3v4.6C346.9,214,346.8,214.1,346.6,214.1"/>
</g>
<path class="st37" d="M342.8,213.6h1.7v-2.5h-1.7V213.6z M345,214.1h-2.8v-3.6h2.8V214.1z"/>
<polygon class="st37" points="341.3,208.9 340.7,208.9 340.7,206.4 342.6,206.4 342.6,207.7 342,207.7 342,206.9 341.3,206.9 "/>
<g>
	<defs>
		<rect id="SVGID_53_" x="-17" y="-86" width="595.3" height="841.9"/>
	</defs>
	<clipPath id="SVGID_54_">
		<use xlink:href="#SVGID_53_"  style="overflow:visible;"/>
	</clipPath>
	<path class="st71" d="M343.3,203.4c-3.7,0-6.6,3-6.6,6.7s3,6.7,6.6,6.7c3.7,0,6.6-3,6.6-6.7S347,203.4,343.3,203.4 M343.3,217.5
		c-4,0-7.3-3.3-7.3-7.4c0-4.1,3.3-7.4,7.3-7.4c4,0,7.3,3.3,7.3,7.4C350.6,214.2,347.3,217.5,343.3,217.5"/>
</g>
<polygon class="st37" points="346.4,209.5 343.6,206.8 340.8,209.5 340.4,209.1 343.6,206 346.8,209.1 "/>
<g>
	<defs>
		<rect id="SVGID_55_" x="-17" y="-86" width="595.3" height="841.9"/>
	</defs>
	<clipPath id="SVGID_56_">
		<use xlink:href="#SVGID_55_"  style="overflow:visible;"/>
	</clipPath>
	<path class="st72" d="M346,217.5c4,0,7.3-3.3,7.3-7.4c0-4.1-3.3-7.4-7.3-7.4v0.7c3.7,0,6.6,3,6.6,6.7s-3,6.7-6.6,6.7V217.5z"/>
</g>
<rect x="343.3" y="202.8" class="st37" width="2.7" height="0.7"/>
<rect x="343.3" y="216.8" class="st37" width="2.7" height="0.7"/>
<g>
	<defs>
		<rect id="SVGID_57_" x="-17" y="-86" width="595.3" height="841.9"/>
	</defs>
	<clipPath id="SVGID_58_">
		<use xlink:href="#SVGID_57_"  style="overflow:visible;"/>
	</clipPath>
	<path class="st73" d="M213.4,549.8c0-6.6-6.3-11.9-14.1-11.9c-7.8,0-14.1,5.3-14.1,11.9s6.3,11.9,14.1,11.9
		C207.1,561.7,213.4,556.3,213.4,549.8"/>
	<path class="st74" d="M192.9,555.6h9.1v-6.8h-9.1V555.6z M202.5,556.5h-10.1c-0.3,0-0.5-0.2-0.5-0.5v-7.7c0-0.3,0.2-0.5,0.5-0.5
		h10.1c0.3,0,0.5,0.2,0.5,0.5v7.7C202.9,556.3,202.7,556.5,202.5,556.5"/>
</g>
<path class="st37" d="M196,555.6h2.8v-4.1H196V555.6z M199.8,556.5h-4.7v-6h4.7V556.5z"/>
<polygon class="st37" points="193.5,547.7 192.6,547.7 192.6,543.5 195.7,543.5 195.7,545.6 194.8,545.6 194.8,544.4 193.5,544.4 
	"/>
<g>
	<defs>
		<rect id="SVGID_59_" x="-17" y="-86" width="595.3" height="841.9"/>
	</defs>
	<clipPath id="SVGID_60_">
		<use xlink:href="#SVGID_59_"  style="overflow:visible;"/>
	</clipPath>
	<path class="st75" d="M196.9,538.5c-6.2,0-11.2,5.1-11.2,11.3c0,6.2,5,11.3,11.2,11.3c6.2,0,11.2-5.1,11.2-11.3
		C208.1,543.6,203.1,538.5,196.9,538.5 M196.9,562.2c-6.8,0-12.3-5.6-12.3-12.4c0-6.9,5.5-12.4,12.3-12.4c6.8,0,12.3,5.6,12.3,12.4
		C209.2,556.6,203.7,562.2,196.9,562.2"/>
</g>
<polygon class="st37" points="202.1,548.7 197.4,544.2 192.7,548.7 192.1,548 197.4,542.9 202.8,548 "/>
<g>
	<defs>
		<rect id="SVGID_61_" x="-17" y="-86" width="595.3" height="841.9"/>
	</defs>
	<clipPath id="SVGID_62_">
		<use xlink:href="#SVGID_61_"  style="overflow:visible;"/>
	</clipPath>
	<path class="st76" d="M201.5,562.2c6.8,0,12.3-5.6,12.3-12.4c0-6.9-5.5-12.4-12.3-12.4v1.1c6.2,0,11.2,5.1,11.2,11.3
		c0,6.2-5,11.3-11.2,11.3V562.2z"/>
</g>
<rect x="196.9" y="537.4" class="st37" width="4.5" height="1.1"/>
<rect x="196.9" y="561.1" class="st37" width="4.5" height="1.1"/>
<g>
	<defs>
		<rect id="SVGID_63_" x="-17" y="-86" width="595.3" height="841.9"/>
	</defs>
	<clipPath id="SVGID_64_">
		<use xlink:href="#SVGID_63_"  style="overflow:visible;"/>
	</clipPath>
	<path class="st77" d="M227.9,558.8c0-6.6-6.3-11.9-14.1-11.9c-7.8,0-14.1,5.3-14.1,11.9c0,6.6,6.3,11.9,14.1,11.9
		C221.6,570.7,227.9,565.4,227.9,558.8"/>
	<path class="st78" d="M207.4,564.6h9.1v-6.8h-9.1V564.6z M217,565.6H207c-0.3,0-0.5-0.2-0.5-0.5v-7.7c0-0.3,0.2-0.5,0.5-0.5H217
		c0.3,0,0.5,0.2,0.5,0.5v7.7C217.5,565.4,217.3,565.6,217,565.6"/>
</g>
<path class="st37" d="M210.6,564.6h2.8v-4.1h-2.8V564.6z M214.3,565.6h-4.7v-6h4.7V565.6z"/>
<polygon class="st37" points="208.1,556.7 207.2,556.7 207.2,552.5 210.3,552.5 210.3,554.7 209.3,554.7 209.3,553.4 208.1,553.4 
	"/>
<g>
	<defs>
		<rect id="SVGID_65_" x="-17" y="-86" width="595.3" height="841.9"/>
	</defs>
	<clipPath id="SVGID_66_">
		<use xlink:href="#SVGID_65_"  style="overflow:visible;"/>
	</clipPath>
	<path class="st79" d="M211.5,547.5c-6.2,0-11.2,5.1-11.2,11.3s5,11.3,11.2,11.3c6.2,0,11.2-5.1,11.2-11.3S217.7,547.5,211.5,547.5
		 M211.5,571.3c-6.8,0-12.3-5.6-12.3-12.4c0-6.9,5.5-12.4,12.3-12.4c6.8,0,12.3,5.6,12.3,12.4C223.8,565.7,218.3,571.3,211.5,571.3"
		/>
</g>
<polygon class="st37" points="216.7,557.7 212,553.2 207.3,557.7 206.7,557 212,551.9 217.3,557 "/>
<g>
	<defs>
		<rect id="SVGID_67_" x="-17" y="-86" width="595.3" height="841.9"/>
	</defs>
	<clipPath id="SVGID_68_">
		<use xlink:href="#SVGID_67_"  style="overflow:visible;"/>
	</clipPath>
	<path class="st80" d="M216,571.3c6.8,0,12.3-5.6,12.3-12.4c0-6.9-5.5-12.4-12.3-12.4v1.1c6.2,0,11.2,5.1,11.2,11.3
		s-5,11.3-11.2,11.3V571.3z"/>
</g>
<rect x="211.5" y="546.4" class="st37" width="4.5" height="1.1"/>
<rect x="211.5" y="570.2" class="st37" width="4.5" height="1.1"/>
<g>
	<defs>
		<rect id="SVGID_69_" x="-17" y="-86" width="595.3" height="841.9"/>
	</defs>
	<clipPath id="SVGID_70_">
		<use xlink:href="#SVGID_69_"  style="overflow:visible;"/>
	</clipPath>
	<path class="st81" d="M213.4,567.8c0-6.6-6.3-11.9-14.1-11.9c-7.8,0-14.1,5.3-14.1,11.9s6.3,11.9,14.1,11.9
		C207.1,579.7,213.4,574.4,213.4,567.8"/>
	<path class="st82" d="M192.9,573.6h9.1v-6.8h-9.1V573.6z M202.5,574.5h-10.1c-0.3,0-0.5-0.2-0.5-0.5v-7.7c0-0.3,0.2-0.5,0.5-0.5
		h10.1c0.3,0,0.5,0.2,0.5,0.5v7.7C202.9,574.3,202.7,574.5,202.5,574.5"/>
</g>
<path class="st37" d="M196,573.6h2.8v-4.1H196V573.6z M199.8,574.5h-4.7v-6h4.7V574.5z"/>
<polygon class="st37" points="193.5,565.7 192.6,565.7 192.6,561.5 195.7,561.5 195.7,563.7 194.8,563.7 194.8,562.4 193.5,562.4 
	"/>
<g>
	<defs>
		<rect id="SVGID_71_" x="-17" y="-86" width="595.3" height="841.9"/>
	</defs>
	<clipPath id="SVGID_72_">
		<use xlink:href="#SVGID_71_"  style="overflow:visible;"/>
	</clipPath>
	<path class="st83" d="M196.9,556.5c-6.2,0-11.2,5.1-11.2,11.3c0,6.2,5,11.3,11.2,11.3c6.2,0,11.2-5.1,11.2-11.3
		C208.1,561.6,203.1,556.5,196.9,556.5 M196.9,580.2c-6.8,0-12.3-5.6-12.3-12.4c0-6.9,5.5-12.4,12.3-12.4c6.8,0,12.3,5.6,12.3,12.4
		C209.2,574.7,203.7,580.2,196.9,580.2"/>
</g>
<polygon class="st37" points="202.1,566.7 197.4,562.2 192.7,566.7 192.1,566 197.4,560.9 202.8,566 "/>
<g>
	<defs>
		<rect id="SVGID_73_" x="-17" y="-86" width="595.3" height="841.9"/>
	</defs>
	<clipPath id="SVGID_74_">
		<use xlink:href="#SVGID_73_"  style="overflow:visible;"/>
	</clipPath>
	<path class="st84" d="M201.5,580.2c6.8,0,12.3-5.6,12.3-12.4c0-6.9-5.5-12.4-12.3-12.4v1.1c6.2,0,11.2,5.1,11.2,11.3
		c0,6.2-5,11.3-11.2,11.3V580.2z"/>
</g>
<rect x="196.9" y="555.4" class="st37" width="4.5" height="1.1"/>
<rect x="196.9" y="579.1" class="st37" width="4.5" height="1.1"/>
<g>
	<defs>
		<rect id="SVGID_75_" x="-17" y="-86" width="595.3" height="841.9"/>
	</defs>
	<clipPath id="SVGID_76_">
		<use xlink:href="#SVGID_75_"  style="overflow:visible;"/>
	</clipPath>
	<path class="st85" d="M374.3,318.1c0-6.6-6.3-11.9-14.1-11.9s-14.1,5.3-14.1,11.9c0,6.6,6.3,11.9,14.1,11.9
		S374.3,324.6,374.3,318.1"/>
	<path class="st86" d="M353.8,323.9h9.1v-6.8h-9.1V323.9z M363.4,324.8h-10.1c-0.3,0-0.5-0.2-0.5-0.5v-7.7c0-0.3,0.2-0.5,0.5-0.5
		h10.1c0.3,0,0.5,0.2,0.5,0.5v7.7C363.9,324.6,363.7,324.8,363.4,324.8"/>
</g>
<path class="st37" d="M357,323.9h2.8v-4.1H357V323.9z M360.7,324.8H356v-6h4.7V324.8z"/>
<polygon class="st37" points="354.5,315.9 353.5,315.9 353.5,311.7 356.6,311.7 356.6,313.9 355.7,313.9 355.7,312.7 354.5,312.7 
	"/>
<g>
	<defs>
		<rect id="SVGID_77_" x="-17" y="-86" width="595.3" height="841.9"/>
	</defs>
	<clipPath id="SVGID_78_">
		<use xlink:href="#SVGID_77_"  style="overflow:visible;"/>
	</clipPath>
	<path class="st87" d="M357.9,306.8c-6.2,0-11.2,5.1-11.2,11.3c0,6.2,5,11.3,11.2,11.3c6.2,0,11.2-5.1,11.2-11.3
		C369.1,311.8,364.1,306.8,357.9,306.8 M357.9,330.5c-6.8,0-12.3-5.6-12.3-12.4c0-6.9,5.5-12.4,12.3-12.4c6.8,0,12.3,5.6,12.3,12.4
		C370.2,324.9,364.7,330.5,357.9,330.5"/>
</g>
<polygon class="st37" points="363.1,316.9 358.4,312.4 353.7,316.9 353,316.3 358.4,311.2 363.7,316.3 "/>
<g>
	<defs>
		<rect id="SVGID_79_" x="-17" y="-86" width="595.3" height="841.9"/>
	</defs>
	<clipPath id="SVGID_80_">
		<use xlink:href="#SVGID_79_"  style="overflow:visible;"/>
	</clipPath>
	<path class="st88" d="M362.4,330.5c6.8,0,12.3-5.6,12.3-12.4c0-6.9-5.5-12.4-12.3-12.4v1.1c6.2,0,11.2,5.1,11.2,11.3
		c0,6.2-5,11.3-11.2,11.3V330.5z"/>
</g>
<rect x="357.9" y="305.6" class="st37" width="4.5" height="1.1"/>
<rect x="357.9" y="329.4" class="st37" width="4.5" height="1.1"/>
<g>
	<defs>
		<rect id="SVGID_81_" x="-17" y="-86" width="595.3" height="841.9"/>
	</defs>
	<clipPath id="SVGID_82_">
		<use xlink:href="#SVGID_81_"  style="overflow:visible;"/>
	</clipPath>
	<path class="st89" d="M325.2,317.9c0-5.3-19.9-9.6-44.5-9.6c-24.6,0-44.5,4.3-44.5,9.6"/>
	<path class="st90" d="M289.2,317.9l-0.7,2.6c-0.1,0.3-0.4,0.5-0.7,0.5c-0.4,0-0.6-0.3-0.7-0.6l-0.3-2.7c-0.1-0.7,0.5-1.4,1.2-1.4
		C288.8,316.4,289.4,317.2,289.2,317.9"/>
	<path class="st91" d="M272.2,317.9l0.7,2.6c0.1,0.3,0.4,0.5,0.7,0.5c0.4,0,0.6-0.3,0.7-0.6l0.3-2.7c0.1-0.7-0.5-1.4-1.2-1.4
		C272.5,316.4,272,317.2,272.2,317.9"/>
</g>
<polygon class="st14" points="285.9,329.3 285.9,325.2 275.4,325.2 275.4,329.3 280.6,333.9 "/>
<g>
	<defs>
		<rect id="SVGID_83_" x="-17" y="-86" width="595.3" height="841.9"/>
	</defs>
	<clipPath id="SVGID_84_">
		<use xlink:href="#SVGID_83_"  style="overflow:visible;"/>
	</clipPath>
	<path class="st92" d="M294,331.2l-7.7-2c-0.1,0-0.2-0.1-0.3-0.1l-5.3,3.7l-5-3.8c-0.1,0.1-0.3,0.2-0.5,0.3l-7.7,2
		c-1.1,0.2-1.8,1.2-1.8,2.3v4.6c0,0.6,0.5,1.2,1.2,1.2h27.9c0.6,0,1.2-0.5,1.2-1.2v-4.6C295.7,332.4,295,331.4,294,331.2"/>
	<path class="st93" d="M275.4,325.1v4c6.6,2.5,10.5-3.1,10.5-3.1v-0.7h-10.5V325.1z"/>
	<path class="st94" d="M273.1,311.9l0.5,11.1c0,1,0.6,2,1.4,2.6l2.4,1.8c0.6,0.5,1.3,0.7,2.1,0.7h2.3c0.8,0,1.5-0.2,2.1-0.7l2.4-1.8
		c0.8-0.6,1.3-1.6,1.4-2.6l0.5-11.1H273.1z"/>
	<path class="st93" d="M278.9,314.2c2.3,0,5.8-0.6,6.6-2.3l-3.8-1l-8.7,1l0.5,11.1c0,1,0.6,2,1.4,2.6l2.4,1.8
		c0.6,0.5,1.3,0.7,2.1,0.7h1.2c-1.2,0-3.5-2.3-3.5-5.2v-7C277.2,315.3,277.7,314.2,278.9,314.2"/>
	<path class="st92" d="M269.8,335.4L266,332c-0.3,0.4-0.5,0.9-0.5,1.4v4.6c0,0.6,0.5,1.2,1.2,1.2h4.1v-1.6
		C270.8,336.7,270.4,335.9,269.8,335.4"/>
	<path class="st92" d="M291.5,335.4l3.8-3.4c0.3,0.4,0.5,0.9,0.5,1.4v4.6c0,0.6-0.5,1.2-1.2,1.2h-4.1v-1.6
		C290.5,336.7,290.9,335.9,291.5,335.4"/>
	<path class="st95" d="M286.6,309c0.9-2.1-1.3-2.3-1.3-2.3s-2.8,0.1-8,0.1s-5.4,5-5.4,8c0,2.8,1.3,0.9,1.4,4.2l0,0v-3.9
		c0-1.2,0.8-2.7,2.6-2.7c1.8,0,1,0,2.6,0c1.6,0,2.3-1.3,3.6-0.9c1.3,0.4,2.5,0.9,3.5,1.2c0.9,0.3,2.1,1.4,2.1,2.7v4.5
		c0.1-1.6,1.4-2.1,1.4-3.8v-4.3C289.1,310.3,287.6,309.2,286.6,309"/>
	<path class="st95" d="M284,315.8c-1.2,0-1.9,0.4-1.9,1.3c0,1,0.8,1.9,1.9,1.9c1,0,1.9-0.8,1.9-1.9
		C285.9,316.3,285.3,315.8,284,315.8 M284,319.8c-1.5,0-2.7-1.2-2.7-2.7c0-1.4,1-2.2,2.7-2.2c1.7,0,2.7,0.8,2.7,2.2
		C286.7,318.6,285.5,319.8,284,319.8"/>
	<path class="st95" d="M277.3,315.8c-1.2,0-1.9,0.4-1.9,1.3c0,1,0.8,1.9,1.9,1.9c1,0,1.9-0.8,1.9-1.9
		C279.1,316.3,278.5,315.8,277.3,315.8 M277.3,319.8c-1.5,0-2.7-1.2-2.7-2.7c0-1.4,1-2.2,2.7-2.2c1.7,0,2.7,0.8,2.7,2.2
		C280,318.6,278.8,319.8,277.3,319.8"/>
	<path class="st95" d="M281.5,317.5c-0.2-0.1-0.5-0.1-0.8-0.1c-0.3,0-0.6,0-0.8,0.1l-0.2-0.7c0.3-0.1,0.7-0.1,1.1-0.1
		c0.4,0,0.8,0,1.1,0.1L281.5,317.5z"/>
</g>
<rect x="273.2" y="316.6" class="st96" width="2" height="0.7"/>
<rect x="286.1" y="316.6" class="st96" width="2" height="0.7"/>
<g>
	<defs>
		<rect id="SVGID_85_" x="-17" y="-86" width="595.3" height="841.9"/>
	</defs>
	<clipPath id="SVGID_86_">
		<use xlink:href="#SVGID_85_"  style="overflow:visible;"/>
	</clipPath>
	<path class="st97" d="M285.4,306.6C285.4,306.6,285.4,306.6,285.4,306.6c0,0-0.1,0-0.2,0c-0.1,0-0.1,0-0.2,0c0-0.4-0.3-0.9-0.9-1.4
		c0.1,0.6-1.1,1.3-1.9,1.4c-1.2,0-2.8,0-4.8,0c-5.3,0-5.4,5-5.4,8c0,2.8,1.3,0.9,1.4,4.2l0,0v-3.9c0-1.2,0.8-2.7,2.6-2.7s1,0,2.6,0
		c0,0,0,0,0,0c0.1,0,0.1,0,0.2,0c8.6,0,9-5.6,9-5.6H285.4z"/>
	<path class="st98" d="M280.6,334.8c0.8,0,6.5-5.3,6.5-5.3l-0.9-0.2c-0.1,0-0.2-0.1-0.3-0.1l-5.3,3.7l-5-3.8
		c-0.1,0.1-0.3,0.2-0.5,0.3l-1.1,0.3C274,329.5,279.8,334.8,280.6,334.8"/>
	<path class="st99" d="M231.4,329.8c8,0,14.6-5.3,14.6-11.8s-6.5-11.8-14.6-11.8c-8,0-14.6,5.3-14.6,11.8S223.3,329.8,231.4,329.8"
		/>
	<path class="st97" d="M231.5,312.4c0.3,0,0.5-0.2,0.5-0.5c0-0.3-0.2-0.5-0.5-0.5c-0.3,0-0.5,0.2-0.5,0.5
		C231,312.1,231.3,312.4,231.5,312.4"/>
	<path class="st97" d="M233.7,314.3c0.3,0,0.5-0.2,0.5-0.5c0-0.3-0.2-0.5-0.5-0.5c-0.3,0-0.5,0.2-0.5,0.5
		C233.1,314,233.4,314.3,233.7,314.3"/>
	<path class="st97" d="M235.8,312.4c0.3,0,0.5-0.2,0.5-0.5c0-0.3-0.2-0.5-0.5-0.5c-0.3,0-0.5,0.2-0.5,0.5
		C235.2,312.1,235.5,312.4,235.8,312.4"/>
	<path class="st97" d="M237.9,313.8c0.3,0,0.5-0.2,0.5-0.5c0-0.3-0.2-0.5-0.5-0.5c-0.3,0-0.5,0.2-0.5,0.5
		C237.4,313.6,237.6,313.8,237.9,313.8"/>
	<path class="st97" d="M233.7,323.7c-2,0-3.7-1.7-3.7-3.7v-2.8l3.7,2.2l0.2-0.1l3.5-2.1v2.8C237.4,322.1,235.7,323.7,233.7,323.7
		 M228.9,316.6v0.2v3.2c0,2.6,2.1,4.8,4.8,4.8c2.6,0,4.8-2.2,4.8-4.8v-3.2v-0.2v-1.9c0-0.3-0.2-0.5-0.5-0.5c-0.3,0-0.5,0.2-0.5,0.5
		v0.8c0,0.3-0.2,0.5-0.5,0.5c-0.3,0-0.5-0.2-0.5-0.4l0,0v-0.1v-2.2c0-0.3-0.2-0.5-0.5-0.5s-0.5,0.2-0.5,0.5v2.6v0.9
		c0,0.3-0.2,0.5-0.5,0.5c-0.3,0-0.5-0.2-0.5-0.5v-0.2v-1.3c0-0.3-0.2-0.5-0.5-0.5c-0.3,0-0.5,0.2-0.5,0.5v1.3v0.2
		c0,0.3-0.2,0.5-0.5,0.5c-0.3,0-0.5-0.2-0.5-0.5v-0.9v-2.6c0-0.3-0.2-0.5-0.5-0.5s-0.5,0.2-0.5,0.5v2.2v0.1l0,0
		c0,0.3-0.3,0.4-0.5,0.4c-0.3,0-0.5-0.2-0.5-0.5v-0.8c0-0.3-0.2-0.5-0.5-0.5c-0.3,0-0.5,0.2-0.5,0.5V316.6z"/>
	<path class="st97" d="M229.4,312.7c0.3,0,0.5,0.2,0.5,0.5c0,0.3-0.2,0.5-0.5,0.5c-0.3,0-0.5-0.2-0.5-0.5
		C228.9,313,229.1,312.7,229.4,312.7"/>
	<path class="st97" d="M233.7,306.8c-6.2,0-11.2,5.1-11.2,11.3c0,6.2,5,11.3,11.2,11.3c6.2,0,11.2-5.1,11.2-11.3
		C244.8,311.8,239.8,306.8,233.7,306.8 M233.7,330.5c-6.8,0-12.3-5.6-12.3-12.4c0-6.9,5.5-12.4,12.3-12.4c6.8,0,12.3,5.6,12.3,12.4
		C246,324.9,240.4,330.5,233.7,330.5"/>
	<path class="st97" d="M229.1,330.5c-6.8,0-12.3-5.6-12.3-12.4c0-6.9,5.5-12.4,12.3-12.4v1.1c-6.2,0-11.2,5.1-11.2,11.3
		c0,6.2,5,11.3,11.2,11.3V330.5z"/>
</g>
<rect x="229.1" y="305.6" class="st37" width="4.5" height="1.1"/>
<rect x="229.1" y="329.4" class="st37" width="4.5" height="1.1"/>
<g>
	<defs>
		<rect id="SVGID_87_" x="-17" y="-86" width="595.3" height="841.9"/>
	</defs>
	<clipPath id="SVGID_88_">
		<use xlink:href="#SVGID_87_"  style="overflow:visible;"/>
	</clipPath>
	<path class="st100" d="M340.2,318.1c0-6.6-6.3-11.9-14.1-11.9s-14.1,5.3-14.1,11.9c0,6.6,6.3,11.9,14.1,11.9
		S340.2,324.6,340.2,318.1"/>
	<path class="st101" d="M319.7,323.9h9.1v-6.8h-9.1V323.9z M329.3,324.8h-10.1c-0.3,0-0.5-0.2-0.5-0.5v-7.7c0-0.3,0.2-0.5,0.5-0.5
		h10.1c0.3,0,0.5,0.2,0.5,0.5v7.7C329.8,324.6,329.6,324.8,329.3,324.8"/>
</g>
<path class="st37" d="M322.9,323.9h2.8v-4.1h-2.8V323.9z M326.6,324.8H322v-6h4.7V324.8z"/>
<polygon class="st37" points="320.4,315.9 319.4,315.9 319.4,311.7 322.5,311.7 322.5,313.9 321.6,313.9 321.6,312.7 320.4,312.7 
	"/>
<g>
	<defs>
		<rect id="SVGID_89_" x="-17" y="-86" width="595.3" height="841.9"/>
	</defs>
	<clipPath id="SVGID_90_">
		<use xlink:href="#SVGID_89_"  style="overflow:visible;"/>
	</clipPath>
	<path class="st102" d="M323.8,306.8c-6.2,0-11.2,5.1-11.2,11.3c0,6.2,5,11.3,11.2,11.3c6.2,0,11.2-5.1,11.2-11.3
		C335,311.8,330,306.8,323.8,306.8 M323.8,330.5c-6.8,0-12.3-5.6-12.3-12.4c0-6.9,5.5-12.4,12.3-12.4c6.8,0,12.3,5.6,12.3,12.4
		C336.1,324.9,330.6,330.5,323.8,330.5"/>
</g>
<polygon class="st37" points="329,316.9 324.3,312.4 319.6,316.9 318.9,316.3 324.3,311.2 329.6,316.3 "/>
<g>
	<defs>
		<rect id="SVGID_91_" x="-17" y="-86" width="595.3" height="841.9"/>
	</defs>
	<clipPath id="SVGID_92_">
		<use xlink:href="#SVGID_91_"  style="overflow:visible;"/>
	</clipPath>
	<path class="st103" d="M328.3,330.5c6.8,0,12.3-5.6,12.3-12.4c0-6.9-5.5-12.4-12.3-12.4v1.1c6.2,0,11.2,5.1,11.2,11.3
		c0,6.2-5,11.3-11.2,11.3V330.5z"/>
</g>
<rect x="323.8" y="305.6" class="st37" width="4.5" height="1.1"/>
<rect x="323.8" y="329.4" class="st37" width="4.5" height="1.1"/>
<g>
	<defs>
		<rect id="SVGID_93_" x="-17" y="-86" width="595.3" height="841.9"/>
	</defs>
	<clipPath id="SVGID_94_">
		<use xlink:href="#SVGID_93_"  style="overflow:visible;"/>
	</clipPath>
	<g class="st104">
		<g>
			<defs>
				<rect id="SVGID_95_" x="223.6" y="314.8" width="114" height="21.1"/>
			</defs>
			<clipPath id="SVGID_96_">
				<use xlink:href="#SVGID_95_"  style="overflow:visible;"/>
			</clipPath>
			<path class="st105" d="M236.1,321.8c0,5.3,19.9,9.6,44.5,9.6s44.5-4.3,44.5-9.6"/>
		</g>
	</g>
</g>
<polyline class="st106" points="253.6,303.4 249.6,311.1 256.6,316.4 "/>
<g>
	<defs>
		<rect id="SVGID_97_" x="-17" y="-86" width="595.3" height="841.9"/>
	</defs>
	<clipPath id="SVGID_98_">
		<use xlink:href="#SVGID_97_"  style="overflow:visible;"/>
	</clipPath>
	<g class="st107">
		<g>
			<defs>
				<rect id="SVGID_99_" x="244.2" y="294.5" width="27.6" height="23.2"/>
			</defs>
			<clipPath id="SVGID_100_">
				<use xlink:href="#SVGID_99_"  style="overflow:visible;"/>
			</clipPath>
			<polyline class="st108" points="259,302.5 254.7,310.1 261.6,315.6 			"/>
		</g>
	</g>
	<g class="st109">
		<g>
			<defs>
				<rect id="SVGID_101_" x="248.9" y="292.1" width="30" height="26.2"/>
			</defs>
			<clipPath id="SVGID_102_">
				<use xlink:href="#SVGID_101_"  style="overflow:visible;"/>
			</clipPath>
			<polyline class="st110" points="265.3,301.7 260.1,308.8 266.2,315 			"/>
		</g>
	</g>
</g>
<polyline class="st106" points="307.1,336.6 311.8,329 304.8,323.8 "/>
<g>
	<defs>
		<rect id="SVGID_103_" x="-17" y="-86" width="595.3" height="841.9"/>
	</defs>
	<clipPath id="SVGID_104_">
		<use xlink:href="#SVGID_103_"  style="overflow:visible;"/>
	</clipPath>
	<g class="st111">
		<g>
			<defs>
				<rect id="SVGID_105_" x="290.3" y="323.4" width="26.9" height="22.1"/>
			</defs>
			<clipPath id="SVGID_106_">
				<use xlink:href="#SVGID_105_"  style="overflow:visible;"/>
			</clipPath>
			<polyline class="st112" points="302.2,337.9 306.9,330.4 299.9,325.2 			"/>
		</g>
	</g>
	<g class="st113">
		<g>
			<defs>
				<rect id="SVGID_107_" x="285.8" y="324.1" width="26.9" height="22.1"/>
			</defs>
			<clipPath id="SVGID_108_">
				<use xlink:href="#SVGID_107_"  style="overflow:visible;"/>
			</clipPath>
			<polyline class="st114" points="297.7,338.6 302.4,331.1 295.4,325.9 			"/>
		</g>
	</g>
</g>
</svg>
