<?xml version="1.0" encoding="utf-8"?>
<!-- Generator: Adobe Illustrator 19.0.0, SVG Export Plug-In . SVG Version: 6.00 Build 0)  -->
<svg version="1.1" id="Layer_1" xmlns="http://www.w3.org/2000/svg" xmlns:xlink="http://www.w3.org/1999/xlink" x="0px" y="0px"
	 viewBox="0 0 559 524" style="enable-background:new 0 0 559 524;" xml:space="preserve">
<style type="text/css">
	.st0{opacity:0.5;clip-path:url(#SVGID_2_);}
	.st1{clip-path:url(#SVGID_4_);fill:#F2F0FC;}
	.st2{clip-path:url(#SVGID_6_);fill:#F2F0FC;}
	.st3{clip-path:url(#SVGID_8_);fill:#F2F0FC;}
	.st4{clip-path:url(#SVGID_10_);fill:#F2F0FC;}
	.st5{fill:#371BE1;}
	.st6{font-family:'Montserrat-Bold';}
	.st7{font-size:10px;}
	.st8{font-size:14px;}
	.st9{clip-path:url(#SVGID_12_);fill:#F2F0FC;}
	.st10{fill:#DEDEFF;}
	.st11{clip-path:url(#SVGID_14_);fill:#F2F0FC;}
	.st12{clip-path:url(#SVGID_16_);fill:#F2F0FC;}
	.st13{clip-path:url(#SVGID_18_);fill:#F2F0FC;}
	.st14{clip-path:url(#SVGID_20_);fill:#F2F0FC;}
	.st15{clip-path:url(#SVGID_22_);fill:#F2F0FC;}
	.st16{clip-path:url(#SVGID_24_);fill:#F2F0FC;}
	.st17{clip-path:url(#SVGID_26_);fill:#F2F0FC;}
	.st18{clip-path:url(#SVGID_28_);fill:#F2F0FC;}
	.st19{clip-path:url(#SVGID_30_);fill:#F2F0FC;}
	.st20{clip-path:url(#SVGID_32_);fill:#F2F0FC;}
	.st21{clip-path:url(#SVGID_34_);fill:#F2F0FC;}
	.st22{clip-path:url(#SVGID_36_);fill:#F2F0FC;}
	.st23{clip-path:url(#SVGID_38_);fill:#F2F0FC;}
	.st24{clip-path:url(#SVGID_40_);fill:#F2F0FC;}
	.st25{clip-path:url(#SVGID_42_);fill:#F2F0FC;}
	.st26{clip-path:url(#SVGID_44_);fill:#381CE0;}
	.st27{fill:#FFFFFF;}
	.st28{clip-path:url(#SVGID_46_);fill:#381CE0;}
	.st29{clip-path:url(#SVGID_48_);fill:#381CE0;}
	.st30{clip-path:url(#SVGID_50_);fill:#381CE0;}
	.st31{clip-path:url(#SVGID_52_);fill:#381CE0;}
	.st32{clip-path:url(#SVGID_54_);fill:#381CE0;}
	.st33{clip-path:url(#SVGID_56_);fill:#381CE0;}
	.st34{clip-path:url(#SVGID_58_);fill:#381CE0;}
	.st35{font-family:'Montserrat-Regular';}
	.st36{clip-path:url(#SVGID_60_);fill:#381CE0;}
</style>
<g>
	<defs>
		<rect id="SVGID_1_" x="-18" y="-221" width="595.3" height="841.9"/>
	</defs>
	<clipPath id="SVGID_2_">
		<use xlink:href="#SVGID_1_"  style="overflow:visible;"/>
	</clipPath>
	<g class="st0">
		<g>
			<defs>
				<rect id="SVGID_3_" x="4.4" y="44.3" width="550.2" height="48.4"/>
			</defs>
			<clipPath id="SVGID_4_">
				<use xlink:href="#SVGID_3_"  style="overflow:visible;"/>
			</clipPath>
			<path class="st1" d="M525.5,91.6H33.6c-11.1,0-20.2-9-20.2-20.2s9-20.2,20.2-20.2h491.9c11.1,0,20.2,9,20.2,20.2
				S536.6,91.6,525.5,91.6"/>
		</g>
	</g>
	<g class="st0">
		<g>
			<defs>
				<rect id="SVGID_5_" x="4.4" y="149.7" width="550.2" height="48.4"/>
			</defs>
			<clipPath id="SVGID_6_">
				<use xlink:href="#SVGID_5_"  style="overflow:visible;"/>
			</clipPath>
			<path class="st2" d="M525.5,197.1H33.6c-11.1,0-20.2-9-20.2-20.2c0-11.1,9-20.2,20.2-20.2h491.9c11.1,0,20.2,9,20.2,20.2
				C545.6,188,536.6,197.1,525.5,197.1"/>
		</g>
	</g>
	<g class="st0">
		<g>
			<defs>
				<rect id="SVGID_7_" x="4.4" y="255.8" width="550.2" height="48.4"/>
			</defs>
			<clipPath id="SVGID_8_">
				<use xlink:href="#SVGID_7_"  style="overflow:visible;"/>
			</clipPath>
			<path class="st3" d="M525.5,303.2H33.6c-11.1,0-20.2-9-20.2-20.2c0-11.1,9-20.2,20.2-20.2h491.9c11.1,0,20.2,9,20.2,20.2
				C545.6,294.2,536.6,303.2,525.5,303.2"/>
		</g>
	</g>
	<g class="st0">
		<g>
			<defs>
				<rect id="SVGID_9_" x="4.4" y="362.1" width="550.2" height="48.4"/>
			</defs>
			<clipPath id="SVGID_10_">
				<use xlink:href="#SVGID_9_"  style="overflow:visible;"/>
			</clipPath>
			<path class="st4" d="M525.5,409.5H33.6c-11.1,0-20.2-9-20.2-20.2c0-11.1,9-20.2,20.2-20.2h491.9c11.1,0,20.2,9,20.2,20.2
				C545.6,400.5,536.6,409.5,525.5,409.5"/>
		</g>
	</g>
</g>
<text transform="matrix(1 0 0 1 258.3877 71.515)"><tspan x="0" y="0" class="st5 st6 st7">A</tspan><tspan x="7.4" y="0" class="st5 st6 st7">cc</tspan><tspan x="19" y="0" class="st5 st6 st7">ount </tspan></text>
<text transform="matrix(1 0 0 1 257.6577 82.1146)" class="st5 st6 st7">Opening</text>
<text transform="matrix(1 0 0 1 419.1777 73.6449)"><tspan x="0" y="0" class="st5 st6 st7">K</tspan><tspan x="7.4" y="0" class="st5 st6 st7">Y</tspan><tspan x="14" y="0" class="st5 st6 st7">C / AML</tspan></text>
<text transform="matrix(1 0 0 1 101.0879 73.6449)"><tspan x="0" y="0" class="st5 st6 st7">K</tspan><tspan x="7.4" y="0" class="st5 st6 st7">Y</tspan><tspan x="14" y="0" class="st5 st6 st7">C / AML</tspan></text>
<text transform="matrix(1 0 0 1 401.6377 42.1346)" class="st5 st6 st8">Medusa</text>
<text transform="matrix(1 0 0 1 127.0977 42.1346)"><tspan x="0" y="0" class="st5 st6 st8">Mar</tspan><tspan x="28" y="0" class="st5 st6 st8">k</tspan><tspan x="36.9" y="0" class="st5 st6 st8">et</tspan></text>
<text transform="matrix(1 0 0 1 265.4731 119.3969)" class="st5 st6 st7">Asset</text>
<text transform="matrix(1 0 0 1 293.8027 119.3969)" class="st5 st6 st7"> </text>
<text transform="matrix(1 0 0 1 255.7031 130.3969)" class="st5 st6 st7">Selection</text>
<text transform="matrix(1 0 0 1 256.6333 174.3666)"><tspan x="0" y="0" class="st5 st6 st7">P</tspan><tspan x="7.3" y="0" class="st5 st6 st7">a</tspan><tspan x="13.4" y="0" class="st5 st6 st7">y</tspan><tspan x="19.4" y="0" class="st5 st6 st7">ment</tspan></text>
<text transform="matrix(1 0 0 1 302.6533 174.3666)" class="st5 st6 st7"> </text>
<text transform="matrix(1 0 0 1 255.7031 185.3666)" class="st5 st6 st7">Selection</text>
<text transform="matrix(1 0 0 1 249.5933 227.2064)"><tspan x="0" y="0" class="st5 st6 st7">T</tspan><tspan x="6" y="0" class="st5 st6 st7">r</tspan><tspan x="10.2" y="0" class="st5 st6 st7">ansaction</tspan></text>
<text transform="matrix(1 0 0 1 309.6836 227.2064)" class="st5 st6 st7"> </text>
<text transform="matrix(1 0 0 1 263.8032 238.2064)" class="st5 st6 st7">Limits</text>
<text transform="matrix(1 0 0 1 254.6333 287.1371)"><tspan x="0" y="0" class="st5 st6 st7">Insu</tspan><tspan x="22.4" y="0" class="st5 st6 st7">r</tspan><tspan x="26.5" y="0" class="st5 st6 st7">an</tspan><tspan x="39.6" y="0" class="st5 st6 st7">c</tspan><tspan x="45.4" y="0" class="st5 st6 st7">e</tspan></text>
<text transform="matrix(1 0 0 1 254.9829 332.8969)"><tspan x="0" y="0" class="st5 st6 st7">No Na</tspan><tspan x="31.7" y="0" class="st5 st6 st7">k</tspan><tspan x="38" y="0" class="st5 st6 st7">ed</tspan></text>
<text transform="matrix(1 0 0 1 304.293 332.8969)" class="st5 st6 st7"> </text>
<text transform="matrix(1 0 0 1 262.9233 343.8969)" class="st5 st6 st7">Period</text>
<text transform="matrix(1 0 0 1 237.7832 385.7367)"><tspan x="0" y="0" class="st5 st6 st7">No In</tspan><tspan x="27.6" y="0" class="st5 st6 st7">t</tspan><tspan x="32" y="0" class="st5 st6 st7">ermedia</tspan><tspan x="75.5" y="0" class="st5 st6 st7">r</tspan><tspan x="80" y="0" class="st5 st6 st7">y</tspan></text>
<text transform="matrix(1 0 0 1 268.7529 397.7367)" class="st5 st6 st7">Risk</text>
<text transform="matrix(1 0 0 1 269.5132 438.5765)" class="st5 st6 st7">Exit</text>
<text transform="matrix(1 0 0 1 261.9131 448.5765)" class="st5 st6 st7">Option</text>
<text transform="matrix(1 0 0 1 269.5132 494.2572)" class="st5 st6 st7">Exit</text>
<text transform="matrix(1 0 0 1 263.813 504.2572)" class="st5 st6 st7">Limits</text>
<g>
	<defs>
		<rect id="SVGID_11_" x="-18" y="-221" width="595.3" height="841.9"/>
	</defs>
	<clipPath id="SVGID_12_">
		<use xlink:href="#SVGID_11_"  style="overflow:visible;"/>
	</clipPath>
	<path class="st9" d="M184.6,439c1.1-5,6-8.1,11-7c5,1.1,8.1,6,7,11c-1.1,5-6,8.1-11,7C186.7,448.9,183.5,444,184.6,439"/>
</g>
<polygon class="st10" points="196,439.3 195.3,438.6 193.6,440.3 191.9,438.6 191.2,439.3 192.9,441 191.2,442.8 191.9,443.5 
	193.6,441.8 195.3,443.5 196,442.8 194.3,441 "/>
<g>
	<defs>
		<rect id="SVGID_13_" x="-18" y="-221" width="595.3" height="841.9"/>
	</defs>
	<clipPath id="SVGID_14_">
		<use xlink:href="#SVGID_13_"  style="overflow:visible;"/>
	</clipPath>
	<path class="st11" d="M117.9,386.8c1.1-5,6-8.1,11-7c5,1.1,8.1,6,7,11c-1.1,5-6,8.1-11,7C119.9,396.6,116.8,391.7,117.9,386.8"/>
</g>
<polygon class="st10" points="129.3,387 128.6,386.3 126.9,388 125.2,386.3 124.5,387 126.2,388.8 124.5,390.5 125.2,391.2 
	126.9,389.5 128.6,391.2 129.3,390.5 127.6,388.8 "/>
<g>
	<defs>
		<rect id="SVGID_15_" x="-18" y="-221" width="595.3" height="841.9"/>
	</defs>
	<clipPath id="SVGID_16_">
		<use xlink:href="#SVGID_15_"  style="overflow:visible;"/>
	</clipPath>
	<path class="st12" d="M52.2,386.8c1.1-5,6-8.1,11-7c5,1.1,8.1,6,7,11c-1.1,5-6,8.1-11,7C54.2,396.6,51.1,391.7,52.2,386.8"/>
</g>
<polygon class="st10" points="63.6,387 62.9,386.3 61.2,388 59.5,386.3 58.8,387 60.5,388.8 58.8,390.5 59.5,391.2 61.2,389.5 
	62.9,391.2 63.6,390.5 61.9,388.8 "/>
<g>
	<defs>
		<rect id="SVGID_17_" x="-18" y="-221" width="595.3" height="841.9"/>
	</defs>
	<clipPath id="SVGID_18_">
		<use xlink:href="#SVGID_17_"  style="overflow:visible;"/>
	</clipPath>
	<path class="st13" d="M183.8,386.8c1.1-5,6-8.1,11-7c5,1.1,8.1,6,7,11c-1.1,5-6,8.1-11,7C185.8,396.6,182.7,391.7,183.8,386.8"/>
</g>
<polygon class="st10" points="195.2,387 194.5,386.3 192.8,388 191.1,386.3 190.4,387 192.1,388.8 190.4,390.5 191.1,391.2 
	192.8,389.5 194.5,391.2 195.2,390.5 193.5,388.8 "/>
<g>
	<defs>
		<rect id="SVGID_19_" x="-18" y="-221" width="595.3" height="841.9"/>
	</defs>
	<clipPath id="SVGID_20_">
		<use xlink:href="#SVGID_19_"  style="overflow:visible;"/>
	</clipPath>
	<path class="st14" d="M356.7,386.8c1.1-5,6-8.1,11-7c5,1.1,8.1,6,7,11c-1.1,5-6,8.1-11,7C358.7,396.6,355.6,391.7,356.7,386.8"/>
</g>
<polygon class="st10" points="368.1,387 367.4,386.3 365.6,388 363.9,386.3 363.2,387 365,388.8 363.2,390.5 363.9,391.2 
	365.6,389.5 367.4,391.2 368.1,390.5 366.3,388.8 "/>
<g>
	<defs>
		<rect id="SVGID_21_" x="-18" y="-221" width="595.3" height="841.9"/>
	</defs>
	<clipPath id="SVGID_22_">
		<use xlink:href="#SVGID_21_"  style="overflow:visible;"/>
	</clipPath>
	<path class="st15" d="M422.9,386.8c1.1-5,6-8.1,11-7c5,1.1,8.1,6,7,11c-1.1,5-6,8.1-11,7C424.9,396.6,421.8,391.7,422.9,386.8"/>
</g>
<polygon class="st10" points="434.3,387 433.6,386.3 431.9,388 430.2,386.3 429.4,387 431.2,388.8 429.4,390.5 430.2,391.2 
	431.9,389.5 433.6,391.2 434.3,390.5 432.6,388.8 "/>
<g>
	<defs>
		<rect id="SVGID_23_" x="-18" y="-221" width="595.3" height="841.9"/>
	</defs>
	<clipPath id="SVGID_24_">
		<use xlink:href="#SVGID_23_"  style="overflow:visible;"/>
	</clipPath>
	<path class="st16" d="M422.9,334.5c1.1-5,6-8.1,11-7c5,1.1,8.1,6,7,11c-1.1,5-6,8.1-11,7C424.9,344.3,421.8,339.4,422.9,334.5"/>
</g>
<polygon class="st10" points="434.3,334.7 433.6,334 431.9,335.8 430.2,334 429.4,334.7 431.2,336.5 429.4,338.3 430.2,338.9 
	431.9,337.2 433.6,338.9 434.3,338.3 432.6,336.5 "/>
<g>
	<defs>
		<rect id="SVGID_25_" x="-18" y="-221" width="595.3" height="841.9"/>
	</defs>
	<clipPath id="SVGID_26_">
		<use xlink:href="#SVGID_25_"  style="overflow:visible;"/>
	</clipPath>
	<path class="st17" d="M356.7,334.5c1.1-5,6-8.1,11-7c5,1.1,8.1,6,7,11c-1.1,5-6,8.1-11,7C358.7,344.3,355.6,339.4,356.7,334.5"/>
</g>
<polygon class="st10" points="368.1,334.7 367.4,334 365.6,335.8 363.9,334 363.2,334.7 365,336.5 363.2,338.3 363.9,338.9 
	365.6,337.2 367.4,338.9 368.1,338.3 366.3,336.5 "/>
<g>
	<defs>
		<rect id="SVGID_27_" x="-18" y="-221" width="595.3" height="841.9"/>
	</defs>
	<clipPath id="SVGID_28_">
		<use xlink:href="#SVGID_27_"  style="overflow:visible;"/>
	</clipPath>
	<path class="st18" d="M422.9,282.1c1.1-5,6-8.1,11-7c5,1.1,8.1,6,7,11c-1.1,5-6,8.1-11,7C424.9,292,421.8,287.1,422.9,282.1"/>
</g>
<polygon class="st10" points="434.3,282.4 433.6,281.7 431.9,283.4 430.2,281.7 429.4,282.4 431.2,284.1 429.4,285.9 430.2,286.6 
	431.9,284.9 433.6,286.6 434.3,285.9 432.6,284.1 "/>
<g>
	<defs>
		<rect id="SVGID_29_" x="-18" y="-221" width="595.3" height="841.9"/>
	</defs>
	<clipPath id="SVGID_30_">
		<use xlink:href="#SVGID_29_"  style="overflow:visible;"/>
	</clipPath>
	<path class="st19" d="M184.6,282.1c1.1-5,6-8.1,11-7c5,1.1,8.1,6,7,11c-1.1,5-6,8.1-11,7C186.7,292,183.5,287.1,184.6,282.1"/>
</g>
<polygon class="st10" points="196,282.4 195.3,281.7 193.6,283.4 191.9,281.7 191.2,282.4 192.9,284.1 191.2,285.9 191.9,286.6 
	193.6,284.9 195.3,286.6 196,285.9 194.3,284.1 "/>
<g>
	<defs>
		<rect id="SVGID_31_" x="-18" y="-221" width="595.3" height="841.9"/>
	</defs>
	<clipPath id="SVGID_32_">
		<use xlink:href="#SVGID_31_"  style="overflow:visible;"/>
	</clipPath>
	<path class="st20" d="M184.6,336.9c1.1-5,6-8.1,11-7c5,1.1,8.1,6,7,11c-1.1,5-6,8.1-11,7C186.7,346.7,183.5,341.8,184.6,336.9"/>
</g>
<polygon class="st10" points="196,337.1 195.3,336.4 193.6,338.1 191.9,336.4 191.2,337.1 192.9,338.9 191.2,340.6 191.9,341.3 
	193.6,339.6 195.3,341.3 196,340.6 194.3,338.9 "/>
<g>
	<defs>
		<rect id="SVGID_33_" x="-18" y="-221" width="595.3" height="841.9"/>
	</defs>
	<clipPath id="SVGID_34_">
		<use xlink:href="#SVGID_33_"  style="overflow:visible;"/>
	</clipPath>
	<path class="st21" d="M356.7,282.1c1.1-5,6-8.1,11-7c5,1.1,8.1,6,7,11c-1.1,5-6,8.1-11,7C358.7,292,355.6,287.1,356.7,282.1"/>
</g>
<polygon class="st10" points="368.1,282.4 367.4,281.7 365.6,283.4 363.9,281.7 363.2,282.4 365,284.1 363.2,285.9 363.9,286.6 
	365.6,284.9 367.4,286.6 368.1,285.9 366.3,284.1 "/>
<g>
	<defs>
		<rect id="SVGID_35_" x="-18" y="-221" width="595.3" height="841.9"/>
	</defs>
	<clipPath id="SVGID_36_">
		<use xlink:href="#SVGID_35_"  style="overflow:visible;"/>
	</clipPath>
	<path class="st22" d="M118.4,282.1c1.1-5,6-8.1,11-7c5,1.1,8.1,6,7,11c-1.1,5-6,8.1-11,7C120.5,292,117.3,287.1,118.4,282.1"/>
</g>
<polygon class="st10" points="129.8,282.4 129.1,281.7 127.4,283.4 125.7,281.7 125,282.4 126.7,284.1 125,285.9 125.7,286.6 
	127.4,284.9 129.1,286.6 129.8,285.9 128.1,284.1 "/>
<g>
	<defs>
		<rect id="SVGID_37_" x="-18" y="-221" width="595.3" height="841.9"/>
	</defs>
	<clipPath id="SVGID_38_">
		<use xlink:href="#SVGID_37_"  style="overflow:visible;"/>
	</clipPath>
	<path class="st23" d="M118.4,336.9c1.1-5,6-8.1,11-7c5,1.1,8.1,6,7,11c-1.1,5-6,8.1-11,7C120.5,346.7,117.3,341.8,118.4,336.9"/>
</g>
<polygon class="st10" points="129.8,337.1 129.1,336.4 127.4,338.1 125.7,336.4 125,337.1 126.7,338.9 125,340.6 125.7,341.3 
	127.4,339.6 129.1,341.3 129.8,340.6 128.1,338.9 "/>
<g>
	<defs>
		<rect id="SVGID_39_" x="-18" y="-221" width="595.3" height="841.9"/>
	</defs>
	<clipPath id="SVGID_40_">
		<use xlink:href="#SVGID_39_"  style="overflow:visible;"/>
	</clipPath>
	<path class="st24" d="M52.2,282.1c1.1-5,6-8.1,11-7c5,1.1,8.1,6,7,11c-1.1,5-6,8.1-11,7C54.2,292,51.1,287.1,52.2,282.1"/>
</g>
<polygon class="st10" points="63.6,282.4 62.9,281.7 61.2,283.4 59.5,281.7 58.8,282.4 60.5,284.1 58.8,285.9 59.5,286.6 
	61.2,284.9 62.9,286.6 63.6,285.9 61.9,284.1 "/>
<g>
	<defs>
		<rect id="SVGID_41_" x="-18" y="-221" width="595.3" height="841.9"/>
	</defs>
	<clipPath id="SVGID_42_">
		<use xlink:href="#SVGID_41_"  style="overflow:visible;"/>
	</clipPath>
	<path class="st25" d="M52.2,334.5c1.1-5,6-8.1,11-7c5,1.1,8.1,6,7,11c-1.1,5-6,8.1-11,7C54.2,344.3,51.1,339.4,52.2,334.5"/>
</g>
<polygon class="st10" points="63.6,334.7 62.9,334 61.2,335.8 59.5,334 58.8,334.7 60.5,336.5 58.8,338.3 59.5,338.9 61.2,337.2 
	62.9,338.9 63.6,338.3 61.9,336.5 "/>
<g>
	<defs>
		<rect id="SVGID_43_" x="-18" y="-221" width="595.3" height="841.9"/>
	</defs>
	<clipPath id="SVGID_44_">
		<use xlink:href="#SVGID_43_"  style="overflow:visible;"/>
	</clipPath>
	<path class="st26" d="M356.7,439c1.1-5,6-8.1,11-7c5,1.1,8.1,6,7,11c-1.1,5-6,8.1-11,7C358.7,448.9,355.6,444,356.7,439"/>
</g>
<polygon class="st27" points="365.2,444 362.9,442.1 363.5,441.3 365,442.5 367.7,438.6 368.5,439.1 "/>
<g>
	<defs>
		<rect id="SVGID_45_" x="-18" y="-221" width="595.3" height="841.9"/>
	</defs>
	<clipPath id="SVGID_46_">
		<use xlink:href="#SVGID_45_"  style="overflow:visible;"/>
	</clipPath>
	<path class="st28" d="M422.9,439c1.1-5,6-8.1,11-7c5,1.1,8.1,6,7,11c-1.1,5-6,8.1-11,7C424.9,448.9,421.8,444,422.9,439"/>
</g>
<polygon class="st27" points="431.5,444 429.1,442.1 429.7,441.3 431.2,442.5 433.9,438.6 434.7,439.1 "/>
<g>
	<defs>
		<rect id="SVGID_47_" x="-18" y="-221" width="595.3" height="841.9"/>
	</defs>
	<clipPath id="SVGID_48_">
		<use xlink:href="#SVGID_47_"  style="overflow:visible;"/>
	</clipPath>
	<path class="st29" d="M489.1,282.1c1.1-5,6-8.1,11-7c5,1.1,8.1,6,7,11c-1.1,5-6,8.1-11,7C491.1,292,488,287.1,489.1,282.1"/>
</g>
<polygon class="st27" points="497.7,287.1 495.3,285.2 495.9,284.4 497.4,285.6 500.1,281.7 500.9,282.2 "/>
<g>
	<defs>
		<rect id="SVGID_49_" x="-18" y="-221" width="595.3" height="841.9"/>
	</defs>
	<clipPath id="SVGID_50_">
		<use xlink:href="#SVGID_49_"  style="overflow:visible;"/>
	</clipPath>
	<path class="st30" d="M489.1,334.5c1.1-5,6-8.1,11-7c5,1.1,8.1,6,7,11c-1.1,5-6,8.1-11,7C491.1,344.3,488,339.4,489.1,334.5"/>
</g>
<polygon class="st27" points="497.7,339.4 495.3,337.5 495.9,336.7 497.4,337.9 500.1,334 500.9,334.6 "/>
<g>
	<defs>
		<rect id="SVGID_51_" x="-18" y="-221" width="595.3" height="841.9"/>
	</defs>
	<clipPath id="SVGID_52_">
		<use xlink:href="#SVGID_51_"  style="overflow:visible;"/>
	</clipPath>
	<path class="st31" d="M489.1,386.5c1.1-5,6-8.1,11-7c5,1.1,8.1,6,7,11c-1.1,5-6,8.1-11,7C491.1,396.3,488,391.4,489.1,386.5"/>
</g>
<polygon class="st27" points="497.7,391.4 495.3,389.5 495.9,388.7 497.4,389.9 500.1,386 500.9,386.6 "/>
<g>
	<defs>
		<rect id="SVGID_53_" x="-18" y="-221" width="595.3" height="841.9"/>
	</defs>
	<clipPath id="SVGID_54_">
		<use xlink:href="#SVGID_53_"  style="overflow:visible;"/>
	</clipPath>
	<path class="st32" d="M489.1,439c1.1-5,6-8.1,11-7c5,1.1,8.1,6,7,11c-1.1,5-6,8.1-11,7C491.1,448.9,488,444,489.1,439"/>
</g>
<polygon class="st27" points="497.7,444 495.3,442.1 495.9,441.3 497.4,442.5 500.1,438.6 500.9,439.1 "/>
<g>
	<defs>
		<rect id="SVGID_55_" x="-18" y="-221" width="595.3" height="841.9"/>
	</defs>
	<clipPath id="SVGID_56_">
		<use xlink:href="#SVGID_55_"  style="overflow:visible;"/>
	</clipPath>
	<path class="st33" d="M52.2,439c1.1-5,6-8.1,11-7c5,1.1,8.1,6,7,11c-1.1,5-6,8.1-11,7C54.2,448.9,51.1,444,52.2,439"/>
</g>
<polygon class="st27" points="60.8,444 58.4,442.1 59.1,441.3 60.6,442.5 63.2,438.6 64.1,439.1 "/>
<g>
	<defs>
		<rect id="SVGID_57_" x="-18" y="-221" width="595.3" height="841.9"/>
	</defs>
	<clipPath id="SVGID_58_">
		<use xlink:href="#SVGID_57_"  style="overflow:visible;"/>
	</clipPath>
	<path class="st34" d="M118.4,439c1.1-5,6-8.1,11-7c5,1.1,8.1,6,7,11c-1.1,5-6,8.1-11,7C120.5,448.9,117.3,444,118.4,439"/>
</g>
<polygon class="st27" points="127,444 124.7,442.1 125.3,441.3 126.8,442.5 129.4,438.6 130.3,439.1 "/>
<text transform="matrix(1 0 0 1 48.9814 492.389)"><tspan x="0" y="0" class="st5 st35 st7">Hi</tspan><tspan x="11.2" y="0" class="st5 st35 st7">g</tspan><tspan x="18.3" y="0" class="st5 st35 st7">h</tspan></text>
<text transform="matrix(1 0 0 1 73.4214 492.389)" class="st5 st35 st7"> </text>
<text transform="matrix(1 0 0 1 53.0317 506.389)"><tspan x="0" y="0" class="st5 st35 st7">T</tspan><tspan x="5.9" y="0" class="st5 st35 st7">x</tspan><tspan x="11.4" y="0" class="st5 st35 st7">s</tspan></text>
<text transform="matrix(1 0 0 1 48.9814 225.4789)"><tspan x="0" y="0" class="st5 st35 st7">Hi</tspan><tspan x="11.2" y="0" class="st5 st35 st7">g</tspan><tspan x="18.3" y="0" class="st5 st35 st7">h</tspan></text>
<text transform="matrix(1 0 0 1 73.4214 225.4789)" class="st5 st35 st7"> </text>
<text transform="matrix(1 0 0 1 53.0317 239.4789)"><tspan x="0" y="0" class="st5 st35 st7">T</tspan><tspan x="5.9" y="0" class="st5 st35 st7">x</tspan><tspan x="11.4" y="0" class="st5 st35 st7">s</tspan></text>
<text transform="matrix(1 0 0 1 353.4316 225.4789)"><tspan x="0" y="0" class="st5 st35 st7">H</tspan><tspan x="8.3" y="0" class="st5 st35 st7">i</tspan><tspan x="11.2" y="0" class="st5 st35 st7">g</tspan><tspan x="18.3" y="0" class="st5 st35 st7">h</tspan></text>
<text transform="matrix(1 0 0 1 377.8721 225.4789)" class="st5 st35 st7"> </text>
<text transform="matrix(1 0 0 1 357.4814 239.4789)"><tspan x="0" y="0" class="st5 st35 st7">T</tspan><tspan x="5.9" y="0" class="st5 st35 st7">x</tspan><tspan x="11.4" y="0" class="st5 st35 st7">s</tspan></text>
<text transform="matrix(1 0 0 1 353.4316 492.389)"><tspan x="0" y="0" class="st5 st35 st7">H</tspan><tspan x="8.3" y="0" class="st5 st35 st7">i</tspan><tspan x="11.2" y="0" class="st5 st35 st7">g</tspan><tspan x="18.3" y="0" class="st5 st35 st7">h</tspan></text>
<text transform="matrix(1 0 0 1 377.8721 492.389)" class="st5 st35 st7"> </text>
<text transform="matrix(1 0 0 1 357.4814 506.389)"><tspan x="0" y="0" class="st5 st35 st7">T</tspan><tspan x="5.9" y="0" class="st5 st35 st7">x</tspan><tspan x="11.4" y="0" class="st5 st35 st7">s</tspan></text>
<text transform="matrix(1 0 0 1 115.2017 492.389)"><tspan x="0" y="0" class="st5 st35 st7">H</tspan><tspan x="8.3" y="0" class="st5 st35 st7">i</tspan><tspan x="11.2" y="0" class="st5 st35 st7">g</tspan><tspan x="18.3" y="0" class="st5 st35 st7">h</tspan></text>
<text transform="matrix(1 0 0 1 139.6416 492.389)" class="st5 st35 st7"> </text>
<text transform="matrix(1 0 0 1 119.2515 506.389)"><tspan x="0" y="0" class="st5 st35 st7">T</tspan><tspan x="5.9" y="0" class="st5 st35 st7">x</tspan><tspan x="11.4" y="0" class="st5 st35 st7">s</tspan></text>
<text transform="matrix(1 0 0 1 115.2017 225.4789)"><tspan x="0" y="0" class="st5 st35 st7">H</tspan><tspan x="8.3" y="0" class="st5 st35 st7">i</tspan><tspan x="11.2" y="0" class="st5 st35 st7">g</tspan><tspan x="18.3" y="0" class="st5 st35 st7">h</tspan></text>
<text transform="matrix(1 0 0 1 139.6416 225.4789)" class="st5 st35 st7"> </text>
<text transform="matrix(1 0 0 1 119.2515 239.4789)"><tspan x="0" y="0" class="st5 st35 st7">T</tspan><tspan x="5.9" y="0" class="st5 st35 st7">x</tspan><tspan x="11.4" y="0" class="st5 st35 st7">s</tspan></text>
<text transform="matrix(1 0 0 1 110.1519 174.3593)"><tspan x="0" y="0" class="st5 st35 st7">C</tspan><tspan x="7.4" y="0" class="st5 st35 st7">r</tspan><tspan x="11.9" y="0" class="st5 st35 st7">y</tspan><tspan x="17.5" y="0" class="st5 st35 st7">p</tspan><tspan x="24.4" y="0" class="st5 st35 st7">t</tspan><tspan x="28.6" y="0" class="st5 st35 st7">o</tspan></text>
<text transform="matrix(1 0 0 1 144.6914 174.3593)" class="st5 st35 st7"> </text>
<text transform="matrix(1 0 0 1 106.9814 188.3593)"><tspan x="0" y="0" class="st5 st35 st7">T</tspan><tspan x="5.6" y="0" class="st5 st35 st7">r</tspan><tspan x="9.6" y="0" class="st5 st35 st7">an</tspan><tspan x="22.6" y="0" class="st5 st35 st7">s</tspan><tspan x="27.7" y="0" class="st5 st35 st7">f</tspan><tspan x="31.2" y="0" class="st5 st35 st7">e</tspan><tspan x="37.4" y="0" class="st5 st35 st7">r</tspan></text>
<text transform="matrix(1 0 0 1 181.5415 174.3593)"><tspan x="0" y="0" class="st5 st35 st7">C</tspan><tspan x="7.4" y="0" class="st5 st35 st7">a</tspan><tspan x="13.5" y="0" class="st5 st35 st7">r</tspan><tspan x="17.7" y="0" class="st5 st35 st7">d</tspan></text>
<text transform="matrix(1 0 0 1 205.7314 174.3593)" class="st5 st35 st7"> </text>
<text transform="matrix(1 0 0 1 170.6318 188.3593)"><tspan x="0" y="0" class="st5 st35 st7">P</tspan><tspan x="7.4" y="0" class="st5 st35 st7">a</tspan><tspan x="13.3" y="0" class="st5 st35 st7">y</tspan><tspan x="19" y="0" class="st5 st35 st7">me</tspan><tspan x="36" y="0" class="st5 st35 st7">n</tspan><tspan x="43" y="0" class="st5 st35 st7">t</tspan></text>
<text transform="matrix(1 0 0 1 352.6016 174.3593)"><tspan x="0" y="0" class="st5 st35 st7">B</tspan><tspan x="7.7" y="0" class="st5 st35 st7">a</tspan><tspan x="13.8" y="0" class="st5 st35 st7">n</tspan><tspan x="20.8" y="0" class="st5 st35 st7">k</tspan></text>
<text transform="matrix(1 0 0 1 378.7012 174.3593)" class="st5 st35 st7"> </text>
<text transform="matrix(1 0 0 1 345.2119 188.3593)"><tspan x="0" y="0" class="st5 st35 st7">T</tspan><tspan x="5.6" y="0" class="st5 st35 st7">r</tspan><tspan x="9.6" y="0" class="st5 st35 st7">a</tspan><tspan x="15.7" y="0" class="st5 st35 st7">n</tspan><tspan x="22.6" y="0" class="st5 st35 st7">s</tspan><tspan x="27.7" y="0" class="st5 st35 st7">f</tspan><tspan x="31.2" y="0" class="st5 st35 st7">e</tspan><tspan x="37.4" y="0" class="st5 st35 st7">r</tspan></text>
<text transform="matrix(1 0 0 1 414.5918 174.3593)"><tspan x="0" y="0" class="st5 st35 st7">C</tspan><tspan x="7.4" y="0" class="st5 st35 st7">r</tspan><tspan x="11.8" y="0" class="st5 st35 st7">y</tspan><tspan x="17.5" y="0" class="st5 st35 st7">p</tspan><tspan x="24.4" y="0" class="st5 st35 st7">t</tspan><tspan x="28.6" y="0" class="st5 st35 st7">o</tspan></text>
<text transform="matrix(1 0 0 1 449.1318 174.3593)" class="st5 st35 st7"> </text>
<text transform="matrix(1 0 0 1 411.4219 188.3593)"><tspan x="0" y="0" class="st5 st35 st7">T</tspan><tspan x="5.6" y="0" class="st5 st35 st7">r</tspan><tspan x="9.6" y="0" class="st5 st35 st7">a</tspan><tspan x="15.7" y="0" class="st5 st35 st7">n</tspan><tspan x="22.6" y="0" class="st5 st35 st7">s</tspan><tspan x="27.7" y="0" class="st5 st35 st7">f</tspan><tspan x="31.2" y="0" class="st5 st35 st7">e</tspan><tspan x="37.4" y="0" class="st5 st35 st7">r</tspan></text>
<text transform="matrix(1 0 0 1 420.2412 126.3192)"><tspan x="0" y="0" class="st5 st35 st7">I</tspan><tspan x="3.2" y="0" class="st5 st35 st7">C</tspan><tspan x="10.5" y="0" class="st5 st35 st7">O</tspan><tspan x="19" y="0" class="st5 st35 st7">s</tspan></text>
<text transform="matrix(1 0 0 1 472.0713 119.9393)"><tspan x="0" y="0" class="st5 st35 st7">T</tspan><tspan x="5.2" y="0" class="st5 st35 st7">o</tspan><tspan x="11.7" y="0" class="st5 st35 st7">k</tspan><tspan x="17.7" y="0" class="st5 st35 st7">e</tspan><tspan x="23.9" y="0" class="st5 st35 st7">ni</tspan><tspan x="33.8" y="0" class="st5 st35 st7">z</tspan><tspan x="39" y="0" class="st5 st35 st7">e</tspan><tspan x="45.2" y="0" class="st5 st35 st7">d</tspan></text>
<text transform="matrix(1 0 0 1 524.0713 119.9393)" class="st5 st35 st7"> </text>
<text transform="matrix(1 0 0 1 481.8613 133.9393)"><tspan x="0" y="0" class="st5 st35 st7">Ass</tspan><tspan x="17.5" y="0" class="st5 st35 st7">et</tspan><tspan x="28" y="0" class="st5 st35 st7">s</tspan></text>
<text transform="matrix(1 0 0 1 348.3818 119.9393)"><tspan x="0" y="0" class="st5 st35 st7">C</tspan><tspan x="7.4" y="0" class="st5 st35 st7">r</tspan><tspan x="11.8" y="0" class="st5 st35 st7">yp</tspan><tspan x="24.4" y="0" class="st5 st35 st7">t</tspan><tspan x="28.6" y="0" class="st5 st35 st7">o</tspan></text>
<text transform="matrix(1 0 0 1 382.9219 119.9393)" class="st5 st35 st7"> </text>
<text transform="matrix(1 0 0 1 338.2812 133.9393)"><tspan x="0" y="0" class="st5 st35 st7">C</tspan><tspan x="7.4" y="0" class="st5 st35 st7">u</tspan><tspan x="14.3" y="0" class="st5 st35 st7">r</tspan><tspan x="18.5" y="0" class="st5 st35 st7">r</tspan><tspan x="22.7" y="0" class="st5 st35 st7">en</tspan><tspan x="35.9" y="0" class="st5 st35 st7">c</tspan><tspan x="41.7" y="0" class="st5 st35 st7">i</tspan><tspan x="44.6" y="0" class="st5 st35 st7">e</tspan><tspan x="50.9" y="0" class="st5 st35 st7">s</tspan></text>
<text transform="matrix(1 0 0 1 468.0215 174.3593)"><tspan x="0" y="0" class="st5 st35 st7">MPS</tspan><tspan x="23.5" y="0" class="st5 st35 st7"> </tspan><tspan x="26.3" y="0" class="st5 st35 st7">C</tspan><tspan x="33.7" y="0" class="st5 st35 st7">r</tspan><tspan x="38.1" y="0" class="st5 st35 st7">yp</tspan><tspan x="50.7" y="0" class="st5 st35 st7">t</tspan><tspan x="54.9" y="0" class="st5 st35 st7">o</tspan></text>
<text transform="matrix(1 0 0 1 528.1416 174.3593)" class="st5 st35 st7"> </text>
<text transform="matrix(1 0 0 1 475.082 188.3593)"><tspan x="0" y="0" class="st5 st35 st7">P</tspan><tspan x="7.4" y="0" class="st5 st35 st7">a</tspan><tspan x="13.3" y="0" class="st5 st35 st7">y</tspan><tspan x="19" y="0" class="st5 st35 st7">m</tspan><tspan x="29.8" y="0" class="st5 st35 st7">e</tspan><tspan x="36" y="0" class="st5 st35 st7">n</tspan><tspan x="43" y="0" class="st5 st35 st7">t</tspan></text>
<text transform="matrix(1 0 0 1 48.1616 174.3593)"><tspan x="0" y="0" class="st5 st35 st7">B</tspan><tspan x="7.7" y="0" class="st5 st35 st7">a</tspan><tspan x="13.8" y="0" class="st5 st35 st7">n</tspan><tspan x="20.8" y="0" class="st5 st35 st7">k</tspan></text>
<text transform="matrix(1 0 0 1 74.2617 174.3593)" class="st5 st35 st7"> </text>
<text transform="matrix(1 0 0 1 40.7715 188.3593)"><tspan x="0" y="0" class="st5 st35 st7">T</tspan><tspan x="5.6" y="0" class="st5 st35 st7">r</tspan><tspan x="9.6" y="0" class="st5 st35 st7">a</tspan><tspan x="15.7" y="0" class="st5 st35 st7">n</tspan><tspan x="22.6" y="0" class="st5 st35 st7">s</tspan><tspan x="27.7" y="0" class="st5 st35 st7">f</tspan><tspan x="31.2" y="0" class="st5 st35 st7">e</tspan><tspan x="37.4" y="0" class="st5 st35 st7">r</tspan></text>
<text transform="matrix(1 0 0 1 81.2915 124.9594)"><tspan x="0" y="0" class="st5 st35 st7">C</tspan><tspan x="7.4" y="0" class="st5 st35 st7">r</tspan><tspan x="11.9" y="0" class="st5 st35 st7">y</tspan><tspan x="17.5" y="0" class="st5 st35 st7">p</tspan><tspan x="24.4" y="0" class="st5 st35 st7">t</tspan><tspan x="28.6" y="0" class="st5 st35 st7">o</tspan><tspan x="35.1" y="0" class="st5 st35 st7"> C</tspan><tspan x="45.3" y="0" class="st5 st35 st7">urr</tspan><tspan x="60.6" y="0" class="st5 st35 st7">e</tspan><tspan x="66.9" y="0" class="st5 st35 st7">n</tspan><tspan x="73.8" y="0" class="st5 st35 st7">c</tspan><tspan x="79.7" y="0" class="st5 st35 st7">ie</tspan><tspan x="88.8" y="0" class="st5 st35 st7">s</tspan></text>
<text transform="matrix(1 0 0 1 419.6514 225.4789)"><tspan x="0" y="0" class="st5 st35 st7">H</tspan><tspan x="8.3" y="0" class="st5 st35 st7">i</tspan><tspan x="11.2" y="0" class="st5 st35 st7">g</tspan><tspan x="18.3" y="0" class="st5 st35 st7">h</tspan></text>
<text transform="matrix(1 0 0 1 444.0918 225.4789)" class="st5 st35 st7"> </text>
<text transform="matrix(1 0 0 1 423.7012 239.4789)"><tspan x="0" y="0" class="st5 st35 st7">T</tspan><tspan x="5.9" y="0" class="st5 st35 st7">x</tspan><tspan x="11.4" y="0" class="st5 st35 st7">s</tspan></text>
<text transform="matrix(1 0 0 1 183.2817 225.4789)"><tspan x="0" y="0" class="st5 st35 st7">L</tspan><tspan x="6.1" y="0" class="st5 st35 st7">ow</tspan></text>
<text transform="matrix(1 0 0 1 204.0015 225.4789)" class="st5 st35 st7"> </text>
<text transform="matrix(1 0 0 1 185.4717 239.4789)"><tspan x="0" y="0" class="st5 st35 st7">T</tspan><tspan x="5.9" y="0" class="st5 st35 st7">x</tspan><tspan x="11.4" y="0" class="st5 st35 st7">s</tspan></text>
<text transform="matrix(1 0 0 1 485.8721 225.4789)"><tspan x="0" y="0" class="st5 st35 st7">H</tspan><tspan x="8.3" y="0" class="st5 st35 st7">ig</tspan><tspan x="18.3" y="0" class="st5 st35 st7">h</tspan></text>
<text transform="matrix(1 0 0 1 510.3115 225.4789)" class="st5 st35 st7"> </text>
<text transform="matrix(1 0 0 1 489.9219 239.4789)"><tspan x="0" y="0" class="st5 st35 st7">T</tspan><tspan x="5.9" y="0" class="st5 st35 st7">x</tspan><tspan x="11.4" y="0" class="st5 st35 st7">s</tspan></text>
<text transform="matrix(1 0 0 1 419.6621 492.389)"><tspan x="0" y="0" class="st5 st35 st7">H</tspan><tspan x="8.3" y="0" class="st5 st35 st7">i</tspan><tspan x="11.2" y="0" class="st5 st35 st7">g</tspan><tspan x="18.3" y="0" class="st5 st35 st7">h</tspan></text>
<text transform="matrix(1 0 0 1 444.1016 492.389)" class="st5 st35 st7"> </text>
<text transform="matrix(1 0 0 1 423.7119 506.389)"><tspan x="0" y="0" class="st5 st35 st7">T</tspan><tspan x="5.9" y="0" class="st5 st35 st7">x</tspan><tspan x="11.4" y="0" class="st5 st35 st7">s</tspan></text>
<text transform="matrix(1 0 0 1 485.8721 492.389)"><tspan x="0" y="0" class="st5 st35 st7">Hi</tspan><tspan x="11.2" y="0" class="st5 st35 st7">g</tspan><tspan x="18.3" y="0" class="st5 st35 st7">h</tspan></text>
<text transform="matrix(1 0 0 1 510.3115 492.389)" class="st5 st35 st7"> </text>
<text transform="matrix(1 0 0 1 489.9219 506.389)"><tspan x="0" y="0" class="st5 st35 st7">T</tspan><tspan x="5.9" y="0" class="st5 st35 st7">x</tspan><tspan x="11.4" y="0" class="st5 st35 st7">s</tspan></text>
<text transform="matrix(1 0 0 1 186.4614 492.389)"><tspan x="0" y="0" class="st5 st35 st7">N</tspan><tspan x="8.3" y="0" class="st5 st35 st7">o</tspan></text>
<text transform="matrix(1 0 0 1 200.8315 492.389)" class="st5 st35 st7"> </text>
<text transform="matrix(1 0 0 1 183.8418 506.389)"><tspan x="0" y="0" class="st5 st35 st7">Exi</tspan><tspan x="15.3" y="0" class="st5 st35 st7">t</tspan></text>
<g>
	<defs>
		<rect id="SVGID_59_" x="-18" y="-221" width="595.3" height="841.9"/>
	</defs>
	<clipPath id="SVGID_60_">
		<use xlink:href="#SVGID_59_"  style="overflow:visible;"/>
	</clipPath>
	<path class="st36" d="M373.5,18.7c0.9,0,1.6-0.7,1.6-1.6s-0.7-1.6-1.6-1.6c-0.9,0-1.6,0.7-1.6,1.6S372.6,18.7,373.5,18.7"/>
	<path class="st36" d="M379.8,24.3c0.9,0,1.6-0.7,1.6-1.6c0-0.9-0.7-1.6-1.6-1.6c-0.9,0-1.6,0.7-1.6,1.6
		C378.2,23.6,378.9,24.3,379.8,24.3"/>
	<path class="st36" d="M386,18.7c0.9,0,1.6-0.7,1.6-1.6s-0.7-1.6-1.6-1.6c-0.9,0-1.6,0.7-1.6,1.6S385.2,18.7,386,18.7"/>
	<path class="st36" d="M392.3,22.9c0.9,0,1.6-0.7,1.6-1.6s-0.7-1.6-1.6-1.6c-0.9,0-1.6,0.7-1.6,1.6S391.5,22.9,392.3,22.9"/>
	<path class="st36" d="M379.8,52.4c-6,0-11-5-11-11.1V33l11,6.4l0.5-0.3l10.5-6.1v8.3C390.8,47.4,385.8,52.4,379.8,52.4 M365.6,31.3
		v0.5v9.6c0,7.8,6.4,14.2,14.1,14.2c7.8,0,14.1-6.4,14.1-14.2v-9.6v-0.5v-5.5c0-0.9-0.7-1.6-1.6-1.6c-0.9,0-1.6,0.7-1.6,1.6v2.4
		c0,0.9-0.7,1.6-1.6,1.6c-0.8,0-1.4-0.6-1.5-1.3l0,0v-0.3v-6.5c0-0.9-0.7-1.6-1.6-1.6c-0.9,0-1.6,0.7-1.6,1.6v7.6v2.6
		c0,0.9-0.7,1.6-1.6,1.6c-0.9,0-1.6-0.7-1.6-1.6V31v-3.9c0-0.9-0.7-1.6-1.6-1.6c-0.9,0-1.6,0.7-1.6,1.6V31v0.7
		c0,0.9-0.7,1.6-1.6,1.6c-0.9,0-1.6-0.7-1.6-1.6v-2.6v-7.6c0-0.9-0.7-1.6-1.6-1.6c-0.9,0-1.6,0.7-1.6,1.6v6.5v0.3l0,0
		c-0.1,0.7-0.8,1.3-1.5,1.3c-0.9,0-1.6-0.7-1.6-1.6v-2.4c0-0.9-0.7-1.6-1.6-1.6c-0.9,0-1.6,0.7-1.6,1.6V31.3z"/>
	<path class="st36" d="M367.2,19.8c0.9,0,1.6,0.7,1.6,1.6s-0.7,1.6-1.6,1.6c-0.9,0-1.6-0.7-1.6-1.6S366.3,19.8,367.2,19.8"/>
	<path class="st36" d="M99.9,31.3L96,30c-0.3-0.1-0.4-0.5-0.3-0.7l3.9-6.2c0.3-0.4,0.9-0.2,0.9,0.3v7.6
		C100.6,31.2,100.3,31.4,99.9,31.3 M102.6,23l3.9,6.2c0.2,0.3,0,0.6-0.3,0.7l-3.9,1.3c-0.3,0.1-0.7-0.1-0.7-0.5v-7.6
		C101.7,22.8,102.3,22.6,102.6,23 M101.3,32.8l6.7-2.2c0.3-0.1,0.4-0.5,0.3-0.7l-6.7-10.5c-0.2-0.3-0.6-0.3-0.8,0l-6.7,10.5
		c-0.2,0.3,0,0.6,0.3,0.7l6.7,2.2C101.1,32.9,101.2,32.9,101.3,32.8"/>
	<path class="st36" d="M100.6,34.5v2.7c0,0.5-0.7,0.8-1,0.3l-4.3-5.7c-0.2-0.2-0.5-0.3-0.8-0.1c-0.2,0.2-0.3,0.5-0.1,0.8l6.3,8.3
		c0.2,0.3,0.7,0.3,0.9,0l6.3-8.3c0.2-0.2,0.1-0.6-0.1-0.8c-0.2-0.2-0.6-0.1-0.8,0.1l-4.3,5.7c-0.3,0.4-1,0.2-1-0.3v-2.7
		c0-0.3-0.2-0.5-0.5-0.5C100.8,33.9,100.6,34.2,100.6,34.5"/>
	<path class="st36" d="M112.1,19.7c0.6,0,1.1,0.5,1.1,1.1c0,0.6-0.5,1.1-1.1,1.1c-0.6,0-1.1-0.5-1.1-1.1
		C111,20.2,111.5,19.7,112.1,19.7 M112.1,38.3c0.6,0,1.1,0.5,1.1,1.1c0,0.6-0.5,1.1-1.1,1.1c-0.6,0-1.1-0.5-1.1-1.1
		C111,38.8,111.5,38.3,112.1,38.3 M110.5,30.1c0,4.4-3,8.1-7.3,9.1l0.2,1.1c2.1-0.5,3.9-1.5,5.3-3l1.4,1.2c-0.1,0.3-0.2,0.6-0.2,1
		c0,1.2,1,2.2,2.2,2.2c1.2,0,2.2-1,2.2-2.2c0-1.2-1-2.2-2.2-2.2c-0.5,0-0.9,0.2-1.3,0.4l-1.4-1.2c1.3-1.8,2.1-4,2.1-6.3
		c0-2.4-0.8-4.6-2.1-6.3l1.4-1.2c0.4,0.3,0.8,0.4,1.3,0.4c1.2,0,2.2-1,2.2-2.2c0-1.2-1-2.2-2.2-2.2c-1.2,0-2.2,1-2.2,2.2
		c0,0.3,0.1,0.7,0.2,1l-1.4,1.2c-1.4-1.5-3.2-2.5-5.3-3l-0.2,1.1C107.5,22,110.5,25.7,110.5,30.1"/>
	<path class="st36" d="M85.2,46H117v0.5c0,0.9-0.7,1.6-1.6,1.6H86.9c-0.9,0-1.6-0.7-1.6-1.6V46z M106.1,51.5h-9.9v-2.2h9.9V51.5z
		 M84.1,46.6c0,1.5,1.2,2.7,2.7,2.7h8.2v2.2h-2.2v1.1h16.5v-1.1h-2.2v-2.2h8.2c1.5,0,2.7-1.2,2.7-2.7v-1.6h-34V46.6z"/>
	<path class="st36" d="M115.4,24.1H111v1.1h4.4c0.9,0,1.6,0.7,1.6,1.6v17h1.1v-17C118.1,25.3,116.9,24.1,115.4,24.1"/>
	<path class="st36" d="M85.2,26.8c0-0.9,0.7-1.6,1.6-1.6h4.4v-1.1h-4.4c-1.5,0-2.7,1.2-2.7,2.7v17h1.1V26.8z"/>
	<path class="st36" d="M90.2,19.7c0.6,0,1.1,0.5,1.1,1.1c0,0.6-0.5,1.1-1.1,1.1c-0.6,0-1.1-0.5-1.1-1.1
		C89.1,20.2,89.6,19.7,90.2,19.7 M90.2,40.5c-0.6,0-1.1-0.5-1.1-1.1s0.5-1.1,1.1-1.1c0.6,0,1.1,0.5,1.1,1.1S90.8,40.5,90.2,40.5
		 M90.2,23c0.5,0,0.9-0.2,1.3-0.4l1.4,1.2c-1.3,1.8-2.1,4-2.1,6.3s0.8,4.6,2.1,6.3l-1.4,1.2c-0.4-0.3-0.8-0.4-1.3-0.4
		c-1.2,0-2.2,1-2.2,2.2c0,1.2,1,2.2,2.2,2.2c1.2,0,2.2-1,2.2-2.2c0-0.3-0.1-0.7-0.2-1l1.4-1.2c1.4,1.5,3.2,2.5,5.3,3l0.2-1.1
		c-4.3-1-7.2-4.7-7.2-9.1s3-8.1,7.3-9.1l-0.2-1.1c-2.1,0.5-3.9,1.5-5.3,3l-1.4-1.2c0.1-0.3,0.2-0.6,0.2-1c0-1.2-1-2.2-2.2-2.2
		c-1.2,0-2.2,1-2.2,2.2C88,22,89,23,90.2,23"/>
</g>
</svg>
