<?xml version="1.0" encoding="utf-8"?>
<!-- Generator: Adobe Illustrator 19.0.0, SVG Export Plug-In . SVG Version: 6.00 Build 0)  -->
<svg version="1.1" id="Layer_1" xmlns="http://www.w3.org/2000/svg" xmlns:xlink="http://www.w3.org/1999/xlink" x="0px" y="0px"
	 viewBox="0 0 542 470" style="enable-background:new 0 0 542 470;" xml:space="preserve">
<style type="text/css">
	.st0{clip-path:url(#SVGID_2_);fill:#F2F0FC;}
	.st1{clip-path:url(#SVGID_2_);fill:#FFFFFF;}
	.st2{clip-path:url(#SVGID_2_);fill:#8C8CFC;}
	.st3{clip-path:url(#SVGID_2_);fill:#B5ABF2;}
	.st4{clip-path:url(#SVGID_2_);fill:#614FE5;}
	.st5{fill:#F2F0FC;}
	.st6{clip-path:url(#SVGID_4_);fill:#F2F0FC;}
	.st7{clip-path:url(#SVGID_4_);fill:#B5ABF2;}
	.st8{clip-path:url(#SVGID_4_);fill:#381CE0;}
	.st9{clip-path:url(#SVGID_4_);fill:#614FE5;}
	.st10{clip-path:url(#SVGID_4_);fill:#E3EBF5;}
	.st11{clip-path:url(#SVGID_4_);fill:#FFFFFF;}
	.st12{clip-path:url(#SVGID_4_);fill:#8C8CFC;}
	.st13{clip-path:url(#SVGID_4_);fill:#DEDEFF;}
	.st14{clip-path:url(#SVGID_6_);fill:#F2F0FC;}
	.st15{clip-path:url(#SVGID_6_);fill:#B5ABF2;}
	.st16{clip-path:url(#SVGID_6_);fill:#381CE0;}
	.st17{clip-path:url(#SVGID_6_);fill:#614FE5;}
	.st18{clip-path:url(#SVGID_6_);fill:#E3EBF5;}
	.st19{clip-path:url(#SVGID_8_);fill:#F2F0FC;}
	.st20{clip-path:url(#SVGID_8_);fill:#B5ABF2;}
	.st21{clip-path:url(#SVGID_8_);fill:#381CE0;}
	.st22{clip-path:url(#SVGID_8_);fill:#614FE5;}
	.st23{clip-path:url(#SVGID_8_);fill:#E3EBF5;}
	.st24{clip-path:url(#SVGID_8_);fill:#8C8CFC;}
	.st25{clip-path:url(#SVGID_8_);fill:#FFFFFF;}
	.st26{clip-path:url(#SVGID_10_);fill:#F2F0FC;}
	.st27{clip-path:url(#SVGID_10_);fill:#B5ABF2;}
	.st28{clip-path:url(#SVGID_10_);fill:#381CE0;}
	.st29{clip-path:url(#SVGID_10_);fill:#614FE5;}
	.st30{clip-path:url(#SVGID_10_);fill:#E3EBF5;}
	.st31{clip-path:url(#SVGID_12_);fill:#F2F0FC;}
	.st32{clip-path:url(#SVGID_12_);fill:#B5ABF2;}
	.st33{clip-path:url(#SVGID_12_);fill:#381CE0;}
	.st34{clip-path:url(#SVGID_12_);fill:#614FE5;}
	.st35{clip-path:url(#SVGID_12_);fill:#E3EBF5;}
	.st36{clip-path:url(#SVGID_14_);fill:#F2F0FC;}
	.st37{clip-path:url(#SVGID_14_);fill:#B5ABF2;}
	.st38{clip-path:url(#SVGID_14_);fill:#381CE0;}
	.st39{clip-path:url(#SVGID_14_);fill:#614FE5;}
	.st40{clip-path:url(#SVGID_14_);fill:#E3EBF5;}
	.st41{clip-path:url(#SVGID_16_);fill:#F2F0FC;}
	.st42{clip-path:url(#SVGID_16_);fill:#B5ABF2;}
	.st43{clip-path:url(#SVGID_16_);fill:#381CE0;}
	.st44{clip-path:url(#SVGID_16_);fill:#614FE5;}
	.st45{clip-path:url(#SVGID_16_);fill:#E3EBF5;}
	.st46{clip-path:url(#SVGID_18_);fill:#381CE0;}
	.st47{clip-path:url(#SVGID_18_);fill:#B5ABF2;}
	.st48{clip-path:url(#SVGID_18_);fill:#F2F0FC;}
	.st49{clip-path:url(#SVGID_18_);fill:#614FE5;}
	.st50{fill:#614FE5;}
	.st51{clip-path:url(#SVGID_20_);fill:#381CE0;}
	.st52{clip-path:url(#SVGID_20_);fill:#B5ABF2;}
	.st53{clip-path:url(#SVGID_20_);fill:#614FE5;}
	.st54{clip-path:url(#SVGID_22_);fill:#381CE0;}
	.st55{clip-path:url(#SVGID_22_);fill:#B5ABF2;}
	.st56{clip-path:url(#SVGID_22_);fill:#F2F0FC;}
	.st57{clip-path:url(#SVGID_22_);fill:#614FE5;}
	.st58{clip-path:url(#SVGID_24_);fill:#381CE0;}
	.st59{clip-path:url(#SVGID_24_);fill:#B5ABF2;}
	.st60{clip-path:url(#SVGID_24_);fill:#614FE5;}
	.st61{clip-path:url(#SVGID_26_);fill:#381CE0;}
	.st62{clip-path:url(#SVGID_26_);fill:#B5ABF2;}
	.st63{clip-path:url(#SVGID_26_);fill:#F2F0FC;}
	.st64{clip-path:url(#SVGID_26_);fill:#614FE5;}
	.st65{clip-path:url(#SVGID_28_);fill:#381CE0;}
	.st66{clip-path:url(#SVGID_28_);fill:#B5ABF2;}
	.st67{clip-path:url(#SVGID_28_);fill:#614FE5;}
	.st68{clip-path:url(#SVGID_30_);fill:#381CE0;}
	.st69{clip-path:url(#SVGID_30_);fill:#B5ABF2;}
	.st70{clip-path:url(#SVGID_30_);fill:#F2F0FC;}
	.st71{clip-path:url(#SVGID_30_);fill:#614FE5;}
	.st72{clip-path:url(#SVGID_32_);fill:#381CE0;}
	.st73{clip-path:url(#SVGID_32_);fill:#B5ABF2;}
	.st74{fill:#381CE0;}
	.st75{clip-path:url(#SVGID_34_);fill:#B5ABF2;}
	.st76{clip-path:url(#SVGID_34_);fill:#614FE5;}
	.st77{clip-path:url(#SVGID_36_);fill:#F2F0FC;}
	.st78{clip-path:url(#SVGID_36_);fill:#B5ABF2;}
	.st79{clip-path:url(#SVGID_36_);fill:#381CE0;}
	.st80{clip-path:url(#SVGID_36_);fill:#614FE5;}
	.st81{clip-path:url(#SVGID_36_);fill:#E3EBF5;}
	.st82{fill:#371BE1;}
	.st83{font-family:'Montserrat-Bold';}
	.st84{font-size:10px;}
	.st85{clip-path:url(#SVGID_38_);fill:#381CE0;}
	.st86{clip-path:url(#SVGID_38_);fill:#614FE5;}
	.st87{clip-path:url(#SVGID_40_);fill:#381CE0;}
	.st88{clip-path:url(#SVGID_40_);fill:#B5ABF2;}
	.st89{clip-path:url(#SVGID_40_);fill:#F2F0FC;}
	.st90{clip-path:url(#SVGID_40_);fill:#614FE5;}
	.st91{clip-path:url(#SVGID_42_);fill:#381CE0;}
	.st92{clip-path:url(#SVGID_42_);fill:#B5ABF2;}
	.st93{clip-path:url(#SVGID_42_);fill:#8C8CFC;}
	.st94{clip-path:url(#SVGID_42_);fill:#614FE5;}
	.st95{clip-path:url(#SVGID_44_);fill:#F2F0FC;}
	.st96{clip-path:url(#SVGID_44_);fill:#B5ABF2;}
	.st97{clip-path:url(#SVGID_44_);fill:#381CE0;}
	.st98{clip-path:url(#SVGID_44_);fill:#614FE5;}
	.st99{clip-path:url(#SVGID_44_);fill:#E3EBF5;}
	.st100{clip-path:url(#SVGID_44_);fill:#DEDEFF;}
</style>
<g>
	<defs>
		<rect id="SVGID_1_" x="-28" y="-140" width="595.3" height="841.9"/>
	</defs>
	<clipPath id="SVGID_2_">
		<use xlink:href="#SVGID_1_"  style="overflow:visible;"/>
	</clipPath>
	<path class="st0" d="M290.4,24.7C261.6,40,243,85.1,268.8,136.3c18.5,36.6,56.9,49.8,96.6,36.1c36.6-12.6,69.7-54.3,49.1-104
		C384.6-3.6,323.3,7.3,290.4,24.7"/>
	<path class="st0" d="M384.3,186.5c-28.8,15.3-51.6,56.6-25.7,107.8c18.5,36.6,56.9,49.8,96.6,36.1c36.6-12.6,79.3-62.4,58.6-112.1
		C483.9,146.3,417.2,169.1,384.3,186.5"/>
	<path class="st1" d="M325.9,119.7L325.9,119.7c0.5-0.2,0.9-0.4,1.4-0.5c-0.9,0-1.8,0-2.6,0C325.1,119.4,325.5,119.5,325.9,119.7"/>
	<path class="st1" d="M407.5,99.8c-5.2-5.9-14.3-6.5-20.3-1.3c-1.9,1.6-3.2,3.7-4,5.8l-43.3-2.7c-0.2-3.3-1.3-6.6-3.3-9.6L354.8,76
		c5.3,4.3,13.2,4.3,18.5-0.4c5.9-5.2,6.5-14.3,1.3-20.3c-5.2-5.9-14.3-6.5-20.3-1.3c-5.3,4.7-6.3,12.5-2.7,18.3l-18.2,16.1
		c-2.6-2.3-5.8-3.8-9.1-4.4l1.6-25.9c1.6-0.3,3.2-1,4.5-2.2c4-3.5,4.3-9.6,0.8-13.5c-3.5-4-9.6-4.3-13.5-0.8
		c-4,3.5-4.3,9.6-0.8,13.5c1.2,1.3,2.6,2.2,4.2,2.7l-1.6,25.9c-4.1,0.3-8.1,1.8-11.5,4.7c-1.2,1.1-2.3,2.3-3.2,3.6l1.9,1.4l1.2,2.8
		c0.8-1.5,1.9-2.9,3.2-4.1c5.9-5.2,15-4.7,20.3,1.3c5.2,5.9,4.7,15-1.3,20.3c-5.9,5.2-14.8,4.7-20.1-1.1l-2.7,4.1
		c1.8,1.7,3.9,3,6.1,3.9c2.7-0.1,4.9,0.2,7.4,0.7c-0.9-0.6-1.9-1-3-0.7l-1.5-0.3l1.5,0.3c1.1-0.3,2.1,0.1,3,0.7
		c0.8,0.2,1.6,0.3,2.5,0.5c1.2-0.2,2.3-0.5,3.4-0.9c-1.3-0.3-2.7-0.4-4.3,0.7c1.6-1,3-0.9,4.3-0.7c2.3-0.8,4.6-2,6.5-3.7
		c3.3-2.9,5.3-6.7,6.1-10.8l42.8,2.7c0,3.4,1.1,6.9,3.6,9.7c5.2,5.9,14.3,6.5,20.3,1.3C412.1,114.8,412.7,105.7,407.5,99.8"/>
	<path class="st1" d="M441.8,306.6c4-6.8,1.8-15.6-5-19.7c-2.1-1.3-4.5-1.9-6.8-2l-10.7-42.1c3.1-1.2,5.9-3.3,8.1-6l20.9,12.4
		c-2.5,6.4-0.1,13.9,6.1,17.5c6.8,4,15.6,1.8,19.7-5c4-6.8,1.8-15.6-5-19.7c-6.1-3.6-13.8-2.2-18.3,3.1l-20.9-12.4
		c1.4-3.2,1.8-6.7,1.4-10l25.1-6.4c0.8,1.5,1.9,2.7,3.5,3.6c4.5,2.7,10.4,1.2,13.1-3.3s1.2-10.4-3.3-13.1
		c-4.5-2.7-10.4-1.2-13.1,3.3c-0.9,1.5-1.3,3.2-1.3,4.8l-25.1,6.4c-1.5-3.8-4.2-7.2-8-9.5c-1.4-0.8-2.9-1.5-4.4-1.9l-0.7,2.2l-2.3,2
		c1.7,0.3,3.4,0.9,4.9,1.8c6.8,4,9.1,12.9,5,19.7c-4,6.8-12.9,9.1-19.7,5c-6.7-4-9-12.7-5.1-19.4l-4.7-1.3c-1.1,2.2-1.7,4.6-1.9,7
		c0.9,2.5,1.3,4.7,1.6,7.2c0.3-1.1,0.3-2.1-0.3-3.1l-0.1-1.6l0.1,1.6c0.6,1,0.5,2,0.3,3.1c0.1,0.8,0.2,1.7,0.3,2.6
		c0.5,1.1,1.2,2.1,1.9,3c-0.2-1.3-0.5-2.7-1.9-3.9c1.5,1.2,1.8,2.5,1.9,3.9c1.5,2,3.3,3.7,5.5,5.1c3.8,2.3,8.1,3,12.1,2.5l10.6,41.5
		c-3.3,1-6.2,3.2-8.1,6.4c-4,6.8-1.8,15.6,5,19.7C429,315.7,437.8,313.4,441.8,306.6"/>
	<path class="st0" d="M23.4,115.8c3.9,30.6,37.8,71.1,95,75c57.3,4,108.5-23.7,117.7-62.5c9-37.8-40.5-64.6-98.9-73
		C63.2,44.6,17,66.5,23.4,115.8"/>
	<path class="st1" d="M204.3,135.2c-4.3,3.1-10.3,2.1-13.4-2.2c-3.1-4.3-2.1-10.3,2.2-13.4c4.3-3.1,10.3-2.1,13.4,2.2
		C209.6,126.1,208.6,132.1,204.3,135.2 M142.3,126.6c-6.4,4.6-15.4,3.1-20-3.3c-4.6-6.4-3.1-15.4,3.3-20c6.4-4.6,15.4-3.1,20,3.3
		C150.2,113,148.7,122,142.3,126.6 M129,165.6c1.5,2.1,1,5.1-1.1,6.7c-2.1,1.5-5.1,1-6.7-1.1c-1.5-2.1-1-5.1,1.1-6.7
		C124.4,162.9,127.4,163.4,129,165.6 M92.8,156.1c-4.3,3.1-10.3,2.1-13.4-2.2s-2.1-10.3,2.2-13.4c4.3-3.1,10.3-2.1,13.4,2.2
		C98.1,147.1,97.1,153.1,92.8,156.1 M64.7,108.6c-4.3,3.1-10.3,2.1-13.4-2.2c-3.1-4.3-2.1-10.3,2.2-13.4c4.3-3.1,10.3-2.1,13.4,2.2
		C70,99.5,69,105.5,64.7,108.6 M210.4,119.1c-4.6-6.4-13.6-7.9-20-3.3c-2,1.4-3.5,3.3-4.6,5.4l-32.8-5.4c0.1-2.4-0.3-4.8-1.1-7.1
		c-1.3-3.6-3.6-6.8-6.7-9c-0.1,0-0.1-0.1-0.2-0.2c-0.2-0.1-0.4-0.2-0.5-0.4c-0.3-0.2-0.6-0.4-0.9-0.5c0,0-0.1,0-0.1-0.1
		c-1.3-0.8-2.7-1.4-4.1-1.8l0,0c-1.5-0.5-3.1-0.7-4.7-0.8l0,0c-2.5-0.1-5.1,0.3-7.5,1.2c-0.1,0-0.2,0.1-0.4,0.1
		c-0.3,0.1-0.6,0.3-0.9,0.4c-0.2,0.1-0.3,0.1-0.5,0.2c-0.3,0.1-0.5,0.3-0.8,0.4c-0.3,0.2-0.7,0.4-1,0.6c-0.2,0.1-0.4,0.2-0.5,0.4
		c-0.3,0.2-0.5,0.4-0.7,0.5c-0.1,0.1-0.2,0.2-0.3,0.3c-0.3,0.2-0.5,0.4-0.8,0.7c0,0-0.1,0.1-0.1,0.1c-0.8,0.8-1.6,1.6-2.3,2.5
		c-0.1,0.1-0.2,0.2-0.3,0.3c-0.2,0.2-0.3,0.4-0.5,0.7c-0.1,0.2-0.3,0.4-0.4,0.7c-0.1,0.2-0.2,0.3-0.3,0.5c-0.8,1.3-1.3,2.7-1.8,4.1
		l-42.3-7c0.4-3.4-0.4-7-2.6-10c-4.6-6.4-13.6-7.9-20-3.3c-6.4,4.6-7.9,13.6-3.3,20c4.6,6.4,13.6,7.9,20,3.3c2-1.4,3.5-3.3,4.6-5.4
		l42.8,7.1c-0.1,3.3,0.6,6.7,2.3,9.8l-19.8,14.1c-4.9-4.8-12.7-5.6-18.5-1.5c-6.4,4.6-7.9,13.6-3.3,20c4.6,6.4,13.6,7.9,20,3.3
		c5.8-4.1,7.6-11.8,4.5-18l19.8-14.1c2.4,2.6,5.4,4.4,8.6,5.3l-4.2,25.6c-1.7,0.1-3.3,0.7-4.7,1.7c-4.3,3.1-5.3,9.1-2.2,13.4
		c3.1,4.3,9.1,5.3,13.4,2.2c4.3-3.1,5.3-9.1,2.2-13.4c-1-1.4-2.4-2.5-3.9-3.1l4.2-25.6c4.1,0.2,8.3-1,11.9-3.5
		c3.6-2.6,6-6.2,7.2-10.1l32.3,5.4c-0.4,3.4,0.4,7,2.6,10c4.6,6.4,13.6,7.9,20,3.3C213.5,134.5,215,125.5,210.4,119.1"/>
	<path class="st2" d="M72.7,148.1c0-8,6.5-14.6,14.6-14.6s14.6,6.5,14.6,14.6c0,8-6.5,14.6-14.6,14.6S72.7,156.2,72.7,148.1"/>
	<path class="st1" d="M87.2,135.2c-7.2,0-13,5.8-13,13c0,7.2,5.8,13,13,13c7.2,0,13-5.8,13-13C100.2,141,94.4,135.2,87.2,135.2
		 M87.2,164.3c-8.9,0-16.2-7.2-16.2-16.2c0-8.9,7.2-16.2,16.2-16.2c8.9,0,16.2,7.2,16.2,16.2C103.4,157.1,96.1,164.3,87.2,164.3"/>
	<path class="st3" d="M94.2,134.2l-0.5,2.1c-0.1,0.2-0.3,0.4-0.5,0.4c-0.3,0-0.5-0.2-0.6-0.5l-0.3-2.2c-0.1-0.6,0.4-1.1,1-1.1h0
		C93.9,133,94.4,133.6,94.2,134.2"/>
	<path class="st4" d="M80.3,134.2l0.5,2.1c0.1,0.2,0.3,0.4,0.5,0.4c0.3,0,0.5-0.2,0.6-0.5l0.3-2.2c0.1-0.6-0.4-1.1-1-1.1h0
		C80.6,133,80.1,133.6,80.3,134.2"/>
</g>
<polygon class="st5" points="91.4,142.4 91.4,139.1 83,139.1 83,142.4 87.2,146.1 "/>
<g>
	<defs>
		<rect id="SVGID_3_" x="-28" y="-140" width="595.3" height="841.9"/>
	</defs>
	<clipPath id="SVGID_4_">
		<use xlink:href="#SVGID_3_"  style="overflow:visible;"/>
	</clipPath>
	<path class="st6" d="M97.9,143.9l-5.8-1.4c-0.1,0-0.2-0.1-0.2-0.1l-4.7,2.7l-4.5-2.9c-0.1,0.1-0.3,0.2-0.4,0.2l-5.8,1.4
		c-0.8,0.2-1.4,1-1.4,1.8v3.7c0,0.5,0.4,0.9,0.9,0.9h22.4c0.5,0,0.9-0.4,0.9-0.9v-3.7C99.4,144.8,98.8,144.1,97.9,143.9"/>
	<path class="st7" d="M83,139.1v3.4c5.3,1.9,8.4-2.9,8.4-2.9v-0.6L83,139.1L83,139.1z"/>
	<path class="st6" d="M81.2,128.4l0.4,8.9c0,0.8,0.4,1.6,1.1,2.1l1.9,1.4c0.5,0.4,1.1,0.6,1.7,0.6h1.9c0.6,0,1.2-0.2,1.7-0.6
		l1.9-1.4c0.7-0.5,1.1-1.3,1.1-2.1l0.4-8.9H81.2z"/>
	<path class="st7" d="M85.8,130.2c1.9,0,4.7-0.5,5.3-1.9h-10l0.4,8.9c0,0.8,0.4,1.6,1.1,2.1l1.9,1.4c0.5,0.4,1.1,0.6,1.7,0.6h0.9
		c-0.9,0-2.8-1.9-2.8-4.2v-5.6C84.4,131.2,84.9,130.2,85.8,130.2"/>
	<path class="st7" d="M78.5,147.3l-3-2.7c-0.3,0.3-0.4,0.7-0.4,1.2v3.7c0,0.5,0.4,0.9,0.9,0.9h3.3V149
		C79.3,148.3,79,147.7,78.5,147.3"/>
	<path class="st7" d="M95.9,147.3l3-2.7c0.3,0.3,0.4,0.7,0.4,1.2v3.7c0,0.5-0.4,0.9-0.9,0.9h-3.3V149
		C95.2,148.3,95.4,147.7,95.9,147.3"/>
	<path class="st7" d="M83,141.3l4.3,3.8c0,0-1.2,0.6-2.7,1.8c-0.3,0.3-0.8,0.1-0.9-0.2l-2-4.4l0.6-1C82.4,141.2,82.8,141.1,83,141.3
		"/>
	<path class="st7" d="M91.5,141.3l-4.3,3.8c0,0,1.2,0.6,2.7,1.8c0.3,0.3,0.8,0.1,0.9-0.2l2-4.4l-0.6-1
		C92,141.2,91.7,141.1,91.5,141.3"/>
	<path class="st7" d="M90.1,125.3l0.4,3.1c2,0.4,2.3,3.5,2.3,4.4c0,0.2,0.1,0.3,0.1,0.5l0.8,1.2c0,0-0.3-2,0.9-3.3
		C94.7,131.2,95.1,123.4,90.1,125.3"/>
	<path class="st8" d="M81.6,124.4l0.7,0.5c-3.1,2.3-2.5,6.3-2.5,6.3c0.9,0.9,0.9,3.3,0.9,3.3l0.9-0.9c0,0-0.4-2.7,1.4-3.7
		c1.6-1,3.1-0.5,4.5-0.5c3.9,0,5-1.5,4.8-3.3c-0.1-0.9-1.5-2.9-5.1-2.8C85.8,123.3,83,123.7,81.6,124.4"/>
	<path class="st9" d="M81.3,128.9c0,0-0.5-2,1-4c-3.1,2.3-2.5,6.3-2.5,6.3c0.9,0.9,0.9,3.3,0.9,3.3l0.9-0.9c0,0-0.4-2.7,1.4-3.7
		c1.6-1,3.1-0.5,4.5-0.5c0.6,0,1.2,0,1.7-0.1C86.2,129.3,84.5,127,81.3,128.9"/>
	<path class="st10" d="M93.3,149.4H90c-0.3,0-0.5,0.2-0.5,0.5v0.5h4.2v-0.5C93.8,149.6,93.6,149.4,93.3,149.4"/>
	<path class="st6" d="M86.1,279.8c4.7,30.5,53.1,61.2,110.4,65.2c68.4,4.8,120.4-9.7,121.3-60.8c1.2-67.6-57.7-78.1-117.9-78.3
		C131.2,205.5,76.5,218.2,86.1,279.8"/>
	<path class="st8" d="M320.5,101.8c-0.4,0-0.8-0.2-1.1-0.5c-0.3-0.3-0.5-0.7-0.5-1.1c0-0.4,0.2-0.8,0.5-1.1c0.6-0.6,1.6-0.6,2.2,0
		c0.3,0.3,0.5,0.7,0.5,1.1c0,0.4-0.2,0.8-0.5,1.1C321.3,101.7,320.9,101.8,320.5,101.8"/>
	<path class="st8" d="M315,108c-0.7-0.5-0.9-1.5-0.4-2.2c0.5-0.7,1.5-0.9,2.2-0.4c0.7,0.5,0.9,1.5,0.4,2.2c-0.3,0.4-0.8,0.7-1.3,0.7
		C315.6,108.3,315.3,108.2,315,108 M310.5,114.5c-0.7-0.5-0.9-1.5-0.4-2.2c0.5-0.7,1.5-0.9,2.2-0.4c0.7,0.5,0.9,1.5,0.4,2.2
		c-0.3,0.4-0.8,0.7-1.3,0.7C311.1,114.8,310.8,114.7,310.5,114.5 M305.9,121c-0.7-0.5-0.9-1.5-0.4-2.2c0.5-0.7,1.5-0.9,2.2-0.4
		c0.7,0.5,0.9,1.5,0.4,2.2c-0.3,0.4-0.8,0.7-1.3,0.7C306.5,121.3,306.2,121.2,305.9,121 M301.4,127.5c-0.7-0.5-0.9-1.5-0.4-2.2
		c0.5-0.7,1.5-0.9,2.2-0.4c0.7,0.5,0.9,1.5,0.4,2.2c-0.3,0.4-0.8,0.7-1.3,0.7C302,127.8,301.7,127.7,301.4,127.5 M296.8,134
		c-0.7-0.5-0.9-1.5-0.4-2.2c0.5-0.7,1.5-0.9,2.2-0.4c0.7,0.5,0.9,1.5,0.4,2.2c-0.3,0.4-0.8,0.7-1.3,0.7
		C297.4,134.3,297.1,134.2,296.8,134 M292.3,140.5c-0.7-0.5-0.9-1.5-0.4-2.2c0.5-0.7,1.5-0.9,2.2-0.4c0.7,0.5,0.9,1.5,0.4,2.2
		c-0.3,0.4-0.8,0.7-1.3,0.7C292.9,140.8,292.6,140.7,292.3,140.5 M287.7,147c-0.7-0.5-0.9-1.5-0.4-2.2c0.5-0.7,1.5-0.9,2.2-0.4
		c0.7,0.5,0.9,1.5,0.4,2.2c-0.3,0.4-0.8,0.7-1.3,0.7C288.3,147.3,288,147.2,287.7,147 M283.2,153.5c-0.7-0.5-0.9-1.5-0.4-2.2
		c0.5-0.7,1.5-0.9,2.2-0.4c0.7,0.5,0.9,1.5,0.4,2.2c-0.3,0.4-0.8,0.7-1.3,0.7C283.8,153.8,283.4,153.7,283.2,153.5 M278.6,160
		c-0.7-0.5-0.9-1.5-0.4-2.2c0.5-0.7,1.5-0.9,2.2-0.4c0.7,0.5,0.9,1.5,0.4,2.2c-0.3,0.4-0.8,0.7-1.3,0.7
		C279.2,160.2,278.9,160.2,278.6,160 M274.1,166.5c-0.7-0.5-0.9-1.5-0.4-2.2c0.5-0.7,1.5-0.9,2.2-0.4c0.7,0.5,0.9,1.5,0.4,2.2
		c-0.3,0.4-0.8,0.7-1.3,0.7C274.6,166.7,274.3,166.6,274.1,166.5 M269.5,172.9c-0.7-0.5-0.9-1.5-0.4-2.2c0.5-0.7,1.5-0.9,2.2-0.4
		c0.7,0.5,0.9,1.5,0.4,2.2c-0.3,0.4-0.8,0.7-1.3,0.7C270.1,173.2,269.8,173.1,269.5,172.9 M265,179.4c-0.7-0.5-0.9-1.5-0.4-2.2
		c0.5-0.7,1.5-0.9,2.2-0.4c0.7,0.5,0.9,1.5,0.4,2.2c-0.3,0.4-0.8,0.7-1.3,0.7C265.5,179.7,265.2,179.6,265,179.4 M260.4,185.9
		c-0.7-0.5-0.9-1.5-0.4-2.2c0.5-0.7,1.5-0.9,2.2-0.4c0.7,0.5,0.9,1.5,0.4,2.2c-0.3,0.4-0.8,0.7-1.3,0.7
		C261,186.2,260.7,186.1,260.4,185.9 M255.8,192.4c-0.7-0.5-0.9-1.5-0.4-2.2c0.5-0.7,1.5-0.9,2.2-0.4c0.7,0.5,0.9,1.5,0.4,2.2
		c-0.3,0.4-0.8,0.7-1.3,0.7C256.4,192.7,256.1,192.6,255.8,192.4 M251.3,198.9c-0.7-0.5-0.9-1.5-0.4-2.2c0.5-0.7,1.5-0.9,2.2-0.4
		c0.7,0.5,0.9,1.5,0.4,2.2c-0.3,0.4-0.8,0.7-1.3,0.7C251.9,199.2,251.6,199.1,251.3,198.9 M246.7,205.4c-0.7-0.5-0.9-1.5-0.4-2.2
		c0.5-0.7,1.5-0.9,2.2-0.4c0.7,0.5,0.9,1.5,0.4,2.2c-0.3,0.4-0.8,0.7-1.3,0.7C247.3,205.7,247,205.6,246.7,205.4 M242.2,211.9
		c-0.7-0.5-0.9-1.5-0.4-2.2c0.5-0.7,1.5-0.9,2.2-0.4c0.7,0.5,0.9,1.5,0.4,2.2c-0.3,0.4-0.8,0.7-1.3,0.7
		C242.8,212.2,242.4,212.1,242.2,211.9 M237.6,218.4c-0.7-0.5-0.9-1.5-0.4-2.2c0.5-0.7,1.5-0.9,2.2-0.4c0.7,0.5,0.9,1.5,0.4,2.2
		c-0.3,0.4-0.8,0.7-1.3,0.7C238.2,218.7,237.9,218.6,237.6,218.4 M233.1,224.9c-0.7-0.5-0.9-1.5-0.4-2.2c0.5-0.7,1.5-0.9,2.2-0.4
		c0.7,0.5,0.9,1.5,0.4,2.2c-0.3,0.4-0.8,0.7-1.3,0.7C233.7,225.1,233.3,225,233.1,224.9 M228.5,231.4c-0.7-0.5-0.9-1.5-0.4-2.2
		c0.5-0.7,1.5-0.9,2.2-0.4c0.7,0.5,0.9,1.5,0.4,2.2c-0.3,0.4-0.8,0.7-1.3,0.7C229.1,231.6,228.8,231.5,228.5,231.4 M224,237.8
		c-0.7-0.5-0.9-1.5-0.4-2.2c0.5-0.7,1.5-0.9,2.2-0.4c0.7,0.5,0.9,1.5,0.4,2.2c-0.3,0.4-0.8,0.7-1.3,0.7
		C224.6,238.1,224.2,238,224,237.8 M219.4,244.3c-0.7-0.5-0.9-1.5-0.4-2.2c0.5-0.7,1.5-0.9,2.2-0.4c0.7,0.5,0.9,1.5,0.4,2.2
		c-0.3,0.4-0.8,0.7-1.3,0.7C220,244.6,219.7,244.5,219.4,244.3 M214.8,250.8c-0.7-0.5-0.9-1.5-0.4-2.2c0.5-0.7,1.5-0.9,2.2-0.4
		c0.7,0.5,0.9,1.5,0.4,2.2c-0.3,0.4-0.8,0.7-1.3,0.7C215.4,251.1,215.1,251,214.8,250.8 M210.3,257.3c-0.7-0.5-0.9-1.5-0.4-2.2
		c0.5-0.7,1.5-0.9,2.2-0.4c0.7,0.5,0.9,1.5,0.4,2.2c-0.3,0.4-0.8,0.7-1.3,0.7C210.9,257.6,210.6,257.5,210.3,257.3"/>
	<path class="st8" d="M206.6,264.1c-0.4,0-0.8-0.2-1.1-0.5c-0.3-0.3-0.5-0.7-0.5-1.1c0-0.4,0.2-0.8,0.5-1.1c0.6-0.6,1.6-0.6,2.2,0
		c0.3,0.3,0.5,0.7,0.5,1.1c0,0.4-0.2,0.8-0.5,1.1C207.5,263.9,207.1,264.1,206.6,264.1"/>
	<path class="st8" d="M136,122.6c-0.4-0.8-0.1-1.7,0.7-2.1c0.8-0.4,1.7-0.1,2.1,0.7c0.4,0.8,0.1,1.7-0.7,2.1
		c-0.2,0.1-0.5,0.2-0.7,0.2C136.8,123.4,136.3,123.1,136,122.6 M139.4,129.6c-0.4-0.8-0.1-1.7,0.7-2.1c0.8-0.4,1.7-0.1,2.1,0.7
		c0.4,0.8,0,1.7-0.7,2.1c-0.2,0.1-0.5,0.2-0.7,0.2C140.3,130.5,139.7,130.2,139.4,129.6 M142.9,136.6c-0.4-0.8-0.1-1.7,0.7-2.1
		c0.8-0.4,1.7-0.1,2.1,0.7c0.4,0.8,0.1,1.7-0.7,2.1c-0.2,0.1-0.5,0.2-0.7,0.2C143.7,137.5,143.2,137.2,142.9,136.6 M146.4,143.7
		c-0.4-0.8-0.1-1.7,0.7-2.1c0.8-0.4,1.7-0.1,2.1,0.7c0.4,0.8,0.1,1.7-0.7,2.1c-0.2,0.1-0.5,0.2-0.7,0.2
		C147.2,144.5,146.6,144.2,146.4,143.7 M149.8,150.7c-0.4-0.8-0.1-1.7,0.7-2.1c0.8-0.4,1.7-0.1,2.1,0.7c0.4,0.8,0.1,1.7-0.7,2.1
		c-0.2,0.1-0.5,0.2-0.7,0.2C150.7,151.6,150.1,151.3,149.8,150.7 M153.3,157.7c-0.4-0.8-0.1-1.7,0.7-2.1c0.8-0.4,1.7-0.1,2.1,0.7
		c0.4,0.8,0.1,1.7-0.7,2.1c-0.2,0.1-0.5,0.2-0.7,0.2C154.1,158.6,153.6,158.3,153.3,157.7 M156.7,164.8c-0.4-0.8-0.1-1.7,0.7-2.1
		c0.8-0.4,1.7-0.1,2.1,0.7c0.4,0.8,0.1,1.7-0.7,2.1c-0.2,0.1-0.5,0.2-0.7,0.2C157.6,165.6,157,165.3,156.7,164.8 M160.2,171.8
		c-0.4-0.8-0.1-1.7,0.7-2.1c0.8-0.4,1.7-0.1,2.1,0.7c0.4,0.8,0,1.7-0.7,2.1c-0.2,0.1-0.5,0.2-0.7,0.2
		C161.1,172.7,160.5,172.3,160.2,171.8 M163.7,178.8c-0.4-0.8-0.1-1.7,0.7-2.1c0.8-0.4,1.7-0.1,2.1,0.7c0.4,0.8,0.1,1.7-0.7,2.1
		c-0.2,0.1-0.5,0.2-0.7,0.2C164.5,179.7,164,179.4,163.7,178.8 M167.1,185.9c-0.4-0.8-0.1-1.7,0.7-2.1c0.8-0.4,1.7-0.1,2.1,0.7
		c0.4,0.8,0.1,1.7-0.7,2.1c-0.2,0.1-0.5,0.2-0.7,0.2C168,186.7,167.4,186.4,167.1,185.9 M170.6,192.9c-0.4-0.8-0.1-1.7,0.7-2.1
		c0.8-0.4,1.7-0.1,2.1,0.7c0.4,0.8,0.1,1.7-0.7,2.1c-0.2,0.1-0.5,0.2-0.7,0.2C171.4,193.8,170.9,193.4,170.6,192.9 M174.1,199.9
		c-0.4-0.8-0.1-1.7,0.7-2.1c0.8-0.4,1.7-0.1,2.1,0.7c0.4,0.8,0.1,1.7-0.7,2.1c-0.2,0.1-0.5,0.2-0.7,0.2
		C174.9,200.8,174.3,200.5,174.1,199.9 M177.5,206.9c-0.4-0.8-0.1-1.7,0.7-2.1c0.8-0.4,1.7-0.1,2.1,0.7c0.4,0.8,0.1,1.7-0.7,2.1
		c-0.2,0.1-0.5,0.2-0.7,0.2C178.4,207.8,177.8,207.5,177.5,206.9 M181,214c-0.4-0.8-0.1-1.7,0.7-2.1c0.8-0.4,1.7-0.1,2.1,0.7
		c0.4,0.8,0.1,1.7-0.7,2.1c-0.2,0.1-0.5,0.2-0.7,0.2C181.8,214.9,181.3,214.5,181,214 M184.4,221c-0.4-0.8-0.1-1.7,0.7-2.1
		c0.8-0.4,1.7-0.1,2.1,0.7c0.4,0.8,0.1,1.7-0.7,2.1c-0.2,0.1-0.5,0.2-0.7,0.2C185.3,221.9,184.7,221.6,184.4,221 M187.9,228
		c-0.4-0.8-0.1-1.7,0.7-2.1c0.8-0.4,1.7-0.1,2.1,0.7c0.4,0.8,0,1.7-0.7,2.1c-0.2,0.1-0.5,0.2-0.7,0.2
		C188.8,228.9,188.2,228.6,187.9,228 M191.4,235.1c-0.4-0.8-0.1-1.7,0.7-2.1c0.8-0.4,1.7,0,2.1,0.7c0.4,0.8,0.1,1.7-0.7,2.1
		c-0.2,0.1-0.5,0.2-0.7,0.2C192.2,236,191.6,235.6,191.4,235.1 M194.8,242.1c-0.4-0.8-0.1-1.7,0.7-2.1c0.8-0.4,1.7-0.1,2.1,0.7
		c0.4,0.8,0.1,1.7-0.7,2.1c-0.2,0.1-0.5,0.2-0.7,0.2C195.7,243,195.1,242.7,194.8,242.1 M198.3,249.1c-0.4-0.8-0.1-1.7,0.7-2.1
		c0.8-0.4,1.7-0.1,2.1,0.7c0.4,0.8,0.1,1.7-0.7,2.1c-0.2,0.1-0.5,0.2-0.7,0.2C199.1,250,198.6,249.7,198.3,249.1 M201.8,256.2
		c-0.4-0.8-0.1-1.7,0.7-2.1c0.8-0.4,1.7-0.1,2.1,0.7c0.4,0.8,0.1,1.7-0.7,2.1c-0.2,0.1-0.5,0.2-0.7,0.2
		C202.6,257.1,202,256.7,201.8,256.2"/>
	<path class="st8" d="M133.9,116.4c-0.4,0-0.8-0.2-1.1-0.5c-0.3-0.3-0.5-0.7-0.5-1.1c0-0.4,0.2-0.8,0.5-1.1c0.6-0.6,1.6-0.6,2.2,0
		c0.3,0.3,0.5,0.7,0.5,1.1c0,0.4-0.2,0.8-0.5,1.1C134.8,116.2,134.4,116.4,133.9,116.4"/>
	<path class="st11" d="M277,282.8c-4.3,3.1-10.3,2.1-13.4-2.2c-3.1-4.3-2.1-10.3,2.2-13.4c4.3-3.1,10.3-2.1,13.4,2.2
		C282.3,273.7,281.3,279.7,277,282.8 M201.7,313.1c1.5,2.1,1,5.1-1.1,6.7c-2.1,1.5-5.1,1-6.7-1.1c-1.5-2.1-1-5.1,1.1-6.7
		C197.2,310.5,200.1,311,201.7,313.1 M165.5,303.7c-4.3,3.1-10.3,2.1-13.4-2.2c-3.1-4.3-2.1-10.3,2.2-13.4
		c4.3-3.1,10.3-2.1,13.4,2.2C170.8,294.6,169.8,300.6,165.5,303.7 M137.4,256.2c-4.3,3.1-10.3,2.1-13.4-2.2
		c-3.1-4.3-2.1-10.3,2.2-13.4c4.3-3.1,10.3-2.1,13.4,2.2C142.7,247.1,141.7,253.1,137.4,256.2 M283.1,266.6
		c-4.6-6.4-13.6-7.9-20-3.3c-2,1.4-3.5,3.3-4.6,5.4l-32.8-5.4c0.2-4.1-1-8.3-3.5-11.9c-0.3-0.5-0.7-1-1.1-1.4l-5.2,1.6
		c0.9,0.7,1.7,1.6,2.4,2.6c4.6,6.4,3.1,15.4-3.3,20c-6.4,4.6-15.4,3.1-20-3.3c-4.6-6.4-3.1-15.4,3.3-20c1.8-1.3,3.8-2.1,5.9-2.5
		l-0.6-4.7c-2.8,0.5-5.6,1.5-8.1,3.3c-3.6,2.6-6,6.2-7.2,10.1l-42.3-7c0.4-3.4-0.4-7-2.6-10c-4.6-6.4-13.6-7.9-20-3.3
		c-6.4,4.6-7.9,13.6-3.3,20c4.6,6.4,13.6,7.9,20,3.3c2-1.4,3.5-3.3,4.6-5.4l42.8,7.1c-0.1,3.4,0.6,6.7,2.3,9.8l-19.8,14.1
		c-4.9-4.8-12.7-5.6-18.5-1.5c-6.4,4.6-7.9,13.6-3.3,20s13.6,7.9,20,3.3c5.8-4.1,7.6-11.8,4.5-18l19.8-14.1c2.4,2.6,5.4,4.4,8.6,5.3
		l-4.2,25.6c-1.7,0.1-3.3,0.7-4.7,1.7c-4.3,3.1-5.3,9.1-2.2,13.4c3.1,4.3,9.1,5.3,13.4,2.2c4.3-3.1,5.3-9.1,2.2-13.4
		c-1-1.4-2.4-2.5-3.9-3.1l4.2-25.6c4.1,0.2,8.3-1,11.9-3.5c3.6-2.6,6-6.2,7.2-10.1l32.3,5.4c-0.4,3.4,0.4,7,2.6,10
		c4.6,6.4,13.6,7.9,20,3.3C286.3,282,287.7,273.1,283.1,266.6"/>
	<path class="st12" d="M117.2,248.4c0-8,6.5-14.6,14.6-14.6c8,0,14.6,6.5,14.6,14.6c0,8-6.5,14.6-14.6,14.6
		C123.8,263,117.2,256.4,117.2,248.4"/>
	<path class="st11" d="M131.8,235.4c-7.2,0-13,5.8-13,13c0,7.2,5.8,13,13,13c7.2,0,13-5.8,13-13C144.8,241.2,139,235.4,131.8,235.4
		 M131.8,264.5c-8.9,0-16.2-7.2-16.2-16.2c0-8.9,7.2-16.2,16.2-16.2c8.9,0,16.2,7.2,16.2,16.2C148,257.3,140.7,264.5,131.8,264.5"/>
	<path class="st11" d="M256.9,275c0-8,6.5-14.6,14.6-14.6c8,0,14.6,6.5,14.6,14.6c0,8-6.5,14.6-14.6,14.6
		C263.4,289.5,256.9,283,256.9,275"/>
	<path class="st12" d="M145.4,295.9c0-8,6.5-14.6,14.6-14.6s14.6,6.5,14.6,14.6c0,8-6.5,14.6-14.6,14.6S145.4,304,145.4,295.9"/>
	<path class="st11" d="M159.9,282.9c-7.2,0-13,5.8-13,13c0,7.2,5.8,13,13,13c7.2,0,13-5.8,13-13
		C172.9,288.8,167.1,282.9,159.9,282.9 M159.9,312.1c-8.9,0-16.2-7.2-16.2-16.2c0-8.9,7.2-16.2,16.2-16.2c8.9,0,16.2,7.2,16.2,16.2
		C176.1,304.8,168.9,312.1,159.9,312.1"/>
	<path class="st13" d="M184.2,315.9c0-8,6.5-14.6,14.6-14.6c8,0,14.6,6.5,14.6,14.6c0,8-6.5,14.6-14.6,14.6
		C190.7,330.5,184.2,324,184.2,315.9"/>
	<path class="st11" d="M198.7,302.9c-7.2,0-13,5.8-13,13c0,7.2,5.8,13,13,13c7.2,0,13-5.8,13-13
		C211.7,308.8,205.9,302.9,198.7,302.9 M198.7,332.1c-8.9,0-16.2-7.2-16.2-16.2c0-8.9,7.2-16.2,16.2-16.2c8.9,0,16.2,7.2,16.2,16.2
		C214.9,324.8,207.7,332.1,198.7,332.1"/>
	<path class="st13" d="M110.4,168.4c0-8,6.5-14.6,14.6-14.6c8,0,14.6,6.5,14.6,14.6c0,8-6.5,14.6-14.6,14.6
		C116.9,182.9,110.4,176.4,110.4,168.4"/>
	<path class="st11" d="M124.9,155.4c-7.2,0-13,5.8-13,13c0,7.2,5.8,13,13,13c7.2,0,13-5.8,13-13
		C137.9,161.2,132.1,155.4,124.9,155.4 M124.9,184.5c-8.9,0-16.2-7.2-16.2-16.2c0-8.9,7.2-16.2,16.2-16.2c8.9,0,16.2,7.2,16.2,16.2
		C141.1,177.3,133.8,184.5,124.9,184.5"/>
	<path class="st13" d="M184.5,127.4c0-8,6.5-14.6,14.6-14.6s14.6,6.5,14.6,14.6c0,8-6.5,14.6-14.6,14.6S184.5,135.5,184.5,127.4"/>
	<path class="st11" d="M199.1,114.4c-7.2,0-13,5.8-13,13c0,7.2,5.8,13,13,13c7.2,0,13-5.8,13-13
		C212.1,120.2,206.2,114.4,199.1,114.4 M199.1,143.6c-8.9,0-16.2-7.2-16.2-16.2c0-8.9,7.2-16.2,16.2-16.2c8.9,0,16.2,7.2,16.2,16.2
		C215.2,136.3,208,143.6,199.1,143.6"/>
	<path class="st13" d="M44.5,101.1c0-8,6.5-14.6,14.6-14.6c8,0,14.6,6.5,14.6,14.6c0,8-6.5,14.6-14.6,14.6
		C51.1,115.7,44.5,109.1,44.5,101.1"/>
	<path class="st11" d="M59.1,88.1c-7.2,0-13,5.8-13,13c0,7.2,5.8,13,13,13c7.2,0,13-5.8,13-13C72.1,93.9,66.3,88.1,59.1,88.1
		 M59.1,117.2c-8.9,0-16.2-7.2-16.2-16.2c0-8.9,7.2-16.2,16.2-16.2s16.2,7.2,16.2,16.2C75.3,110,68,117.2,59.1,117.2"/>
	<path class="st13" d="M310.5,46.6c1.8-7.9,9.5-12.8,17.4-11c7.9,1.8,12.8,9.5,11,17.4c-1.8,7.9-9.5,12.8-17.4,11
		C313.7,62.3,308.8,54.5,310.5,46.6"/>
	<path class="st11" d="M324.7,36.8c-2.4,0-4.8,0.7-6.9,2c-2.9,1.9-5,4.7-5.7,8.1c-1.6,7,2.9,13.9,9.8,15.5c3.4,0.8,6.9,0.1,9.8-1.7
		c2.9-1.9,5-4.7,5.7-8.1c0.8-3.4,0.1-6.9-1.7-9.8c-1.9-2.9-4.7-5-8.1-5.7C326.6,36.9,325.7,36.8,324.7,36.8 M324.8,66
		c-1.2,0-2.4-0.1-3.5-0.4C312.5,63.6,307,55,309,46.3l1.5,0.3l-1.5-0.3c0.9-4.2,3.5-7.8,7.1-10.1c3.6-2.3,8-3.1,12.2-2.1
		c4.2,0.9,7.8,3.5,10.1,7.1c2.3,3.6,3.1,8,2.1,12.2c-0.9,4.2-3.5,7.8-7.1,10.1C330.8,65.1,327.8,66,324.8,66"/>
	<path class="st13" d="M450.7,209c1.8-7.9,9.5-12.8,17.4-11c7.9,1.8,12.8,9.5,11,17.4c-1.8,7.9-9.5,12.8-17.4,11
		C453.9,224.6,449,216.8,450.7,209"/>
	<path class="st11" d="M452.3,209.3c-1.6,7,2.9,13.9,9.8,15.5c3.4,0.8,6.9,0.1,9.8-1.7c2.9-1.9,5-4.7,5.7-8.1
		c1.6-7-2.9-13.9-9.8-15.5c-3.4-0.7-6.9-0.1-9.8,1.7C455,203,453,205.9,452.3,209.3 M465,228.3c-1.2,0-2.4-0.1-3.5-0.4
		c-8.7-1.9-14.2-10.6-12.2-19.3c0.9-4.2,3.5-7.8,7.1-10.1c3.6-2.3,8-3.1,12.2-2.1c8.7,1.9,14.2,10.6,12.2,19.3
		c-0.9,4.2-3.5,7.8-7.1,10.1C471,227.4,468,228.3,465,228.3"/>
	<path class="st12" d="M447.9,251.5c1.8-7.9,9.5-12.8,17.4-11c7.9,1.8,12.8,9.5,11,17.4c-1.8,7.9-9.5,12.8-17.4,11
		C451.1,267.1,446.2,259.3,447.9,251.5"/>
	<path class="st11" d="M462.1,241.7c-2.4,0-4.8,0.7-6.9,2c-2.9,1.9-5,4.7-5.7,8.1c-1.6,7,2.9,13.9,9.8,15.5c3.4,0.8,6.9,0.1,9.8-1.7
		c2.9-1.9,5-4.7,5.7-8.1c0.8-3.4,0.1-6.9-1.7-9.8c-1.9-2.9-4.7-5-8.1-5.7C464,241.8,463.1,241.7,462.1,241.7 M462.2,270.8
		c-1.2,0-2.4-0.1-3.5-0.4c-8.7-1.9-14.2-10.6-12.2-19.3c0.9-4.2,3.5-7.8,7.1-10.1c3.6-2.3,8-3.1,12.2-2.1c4.2,0.9,7.8,3.5,10.1,7.1
		c2.3,3.6,3.1,8,2.1,12.2c-0.9,4.2-3.5,7.8-7.1,10.1C468.2,269.9,465.2,270.8,462.2,270.8"/>
	<path class="st12" d="M415.6,295.9c1.8-7.9,9.5-12.8,17.4-11c7.9,1.8,12.8,9.5,11,17.4c-1.8,7.9-9.5,12.8-17.4,11
		C418.8,311.6,413.9,303.8,415.6,295.9"/>
	<path class="st11" d="M429.8,286.1c-5.9,0-11.3,4.1-12.7,10.2c-1.6,7,2.9,13.9,9.8,15.5c3.4,0.8,6.9,0.1,9.8-1.7
		c2.9-1.9,5-4.7,5.7-8.1c1.6-7-2.9-13.9-9.8-15.5C431.7,286.2,430.8,286.1,429.8,286.1 M429.9,315.3c-1.2,0-2.4-0.1-3.5-0.4
		c-8.7-1.9-14.2-10.6-12.2-19.3l1.5,0.3l-1.5-0.3c1.9-8.7,10.6-14.2,19.3-12.2c8.7,1.9,14.2,10.6,12.2,19.3
		c-0.9,4.2-3.5,7.8-7.1,10.1C435.9,314.4,432.9,315.3,429.9,315.3"/>
	<path class="st7" d="M138.8,234.4l-0.5,2.1c-0.1,0.2-0.3,0.4-0.5,0.4c-0.3,0-0.5-0.2-0.6-0.5l-0.3-2.2c-0.1-0.6,0.4-1.1,1-1.1
		C138.5,233.2,138.9,233.8,138.8,234.4"/>
	<path class="st9" d="M124.9,234.4l0.5,2.1c0.1,0.2,0.3,0.4,0.5,0.4c0.3,0,0.5-0.2,0.6-0.5l0.3-2.2c0.1-0.6-0.4-1.1-1-1.1h0
		C125.2,233.2,124.7,233.8,124.9,234.4"/>
</g>
<polygon class="st5" points="136,242.5 136,239.3 127.6,239.3 127.6,242.5 131.8,246.3 "/>
<g>
	<defs>
		<rect id="SVGID_5_" x="-28" y="-140" width="595.3" height="841.9"/>
	</defs>
	<clipPath id="SVGID_6_">
		<use xlink:href="#SVGID_5_"  style="overflow:visible;"/>
	</clipPath>
	<path class="st14" d="M142.5,244l-5.8-1.4c-0.1,0-0.2-0.1-0.2-0.1l-4.7,2.7l-4.5-2.9c-0.1,0.1-0.3,0.2-0.4,0.2l-5.8,1.4
		c-0.8,0.2-1.4,0.9-1.4,1.8v3.7c0,0.5,0.4,0.9,0.9,0.9H143c0.5,0,0.9-0.4,0.9-0.9v-3.7C143.9,245,143.3,244.2,142.5,244"/>
	<path class="st15" d="M127.6,239.3v3.4c5.3,1.9,8.4-2.9,8.4-2.9v-0.6H127.6z"/>
	<path class="st14" d="M125.8,228.5l0.4,8.9c0,0.8,0.4,1.6,1.1,2.1l1.9,1.4c0.5,0.4,1.1,0.6,1.7,0.6h1.9c0.6,0,1.2-0.2,1.7-0.6
		l1.9-1.4c0.7-0.5,1.1-1.3,1.1-2.1l0.4-8.9H125.8z"/>
	<path class="st15" d="M130.4,230.4c1.9,0,4.7-0.5,5.3-1.9h-10l0.4,8.9c0,0.8,0.4,1.6,1.1,2.1l1.9,1.4c0.5,0.4,1.1,0.6,1.7,0.6h0.9
		c-0.9,0-2.8-1.9-2.8-4.2v-5.6C129,231.3,129.5,230.4,130.4,230.4"/>
	<path class="st15" d="M123.1,247.4l-3-2.7c-0.3,0.3-0.4,0.7-0.4,1.2v3.7c0,0.5,0.4,0.9,0.9,0.9h3.3v-1.3
		C123.9,248.5,123.6,247.9,123.1,247.4"/>
	<path class="st15" d="M140.5,247.4l3-2.7c0.3,0.3,0.4,0.7,0.4,1.2v3.7c0,0.5-0.4,0.9-0.9,0.9h-3.3v-1.3
		C139.7,248.5,140,247.9,140.5,247.4"/>
	<path class="st15" d="M127.6,241.5l4.3,3.8c0,0-1.2,0.6-2.7,1.8c-0.3,0.3-0.8,0.1-0.9-0.2l-2-4.4l0.6-1
		C127,241.3,127.3,241.3,127.6,241.5"/>
	<path class="st15" d="M136.1,241.5l-4.3,3.8c0,0,1.2,0.6,2.7,1.8c0.3,0.3,0.8,0.1,0.9-0.2l2-4.4l-0.6-1
		C136.6,241.3,136.3,241.3,136.1,241.5"/>
	<path class="st15" d="M134.6,225.4l0.4,3.1c2,0.4,2.3,3.5,2.3,4.4c0,0.2,0.1,0.3,0.1,0.5l0.8,1.2c0,0-0.3-2,0.9-3.3
		C139.2,231.3,139.7,223.6,134.6,225.4"/>
	<path class="st16" d="M126.2,224.6l0.7,0.5c-3.1,2.3-2.5,6.3-2.5,6.3c0.9,0.9,0.9,3.3,0.9,3.3l0.9-0.9c0,0-0.4-2.7,1.4-3.7
		c1.6-1,3.1-0.5,4.5-0.5c3.9,0,5-1.5,4.8-3.3c-0.1-0.9-1.5-2.9-5.1-2.8C130.4,223.4,127.6,223.9,126.2,224.6"/>
	<path class="st17" d="M125.9,229.1c0,0-0.5-2,1-4c-3.1,2.3-2.5,6.3-2.5,6.3c0.9,0.9,0.9,3.3,0.9,3.3l0.9-0.9c0,0-0.4-2.7,1.4-3.7
		c1.6-1,3.1-0.5,4.5-0.5c0.6,0,1.2,0,1.7-0.1C130.8,229.5,129,227.2,125.9,229.1"/>
	<path class="st18" d="M137.9,249.5h-3.3c-0.3,0-0.5,0.2-0.5,0.5v0.5h4.2V250C138.3,249.7,138.1,249.5,137.9,249.5"/>
	<path class="st15" d="M278.4,260.9l-0.5,2.1c-0.1,0.2-0.3,0.4-0.5,0.4c-0.3,0-0.5-0.2-0.6-0.5l-0.3-2.2c-0.1-0.6,0.4-1.1,1-1.1
		C278.1,259.7,278.6,260.2,278.4,260.9"/>
	<path class="st17" d="M264.5,260.9l0.5,2.1c0.1,0.2,0.3,0.4,0.5,0.4c0.3,0,0.5-0.2,0.6-0.5l0.3-2.2c0.1-0.6-0.4-1.1-1-1.1
		C264.8,259.7,264.3,260.2,264.5,260.9"/>
</g>
<polygon class="st5" points="275.7,269 275.7,265.7 267.3,265.7 267.3,269 271.5,272.7 "/>
<g>
	<defs>
		<rect id="SVGID_7_" x="-28" y="-140" width="595.3" height="841.9"/>
	</defs>
	<clipPath id="SVGID_8_">
		<use xlink:href="#SVGID_7_"  style="overflow:visible;"/>
	</clipPath>
	<path class="st19" d="M282.1,270.5l-5.8-1.4c-0.1,0-0.2-0.1-0.2-0.1l-4.7,2.7l-4.5-2.9c-0.1,0.1-0.3,0.2-0.4,0.2l-5.8,1.4
		c-0.8,0.2-1.4,0.9-1.4,1.8v3.7c0,0.5,0.4,0.9,0.9,0.9h22.4c0.5,0,0.9-0.4,0.9-0.9v-3.7C283.6,271.5,283,270.7,282.1,270.5"/>
	<path class="st20" d="M267.3,265.7v3.4c5.3,1.9,8.4-2.9,8.4-2.9v-0.6H267.3z"/>
	<path class="st19" d="M265.4,255l0.4,8.9c0,0.8,0.4,1.6,1.1,2.1l1.9,1.4c0.5,0.4,1.1,0.6,1.7,0.6h1.9c0.6,0,1.2-0.2,1.7-0.6
		l1.9-1.4c0.7-0.5,1.1-1.3,1.1-2.1l0.4-8.9H265.4z"/>
	<path class="st20" d="M270.1,256.9c1.9,0,4.7-0.5,5.3-1.9h-10l0.4,8.9c0,0.8,0.4,1.6,1.1,2.1l1.9,1.4c0.5,0.4,1.1,0.6,1.7,0.6h0.9
		c-0.9,0-2.8-1.9-2.8-4.2v-5.6C268.7,257.8,269.1,256.9,270.1,256.9"/>
	<path class="st20" d="M262.8,273.9l-3-2.7c-0.3,0.3-0.4,0.7-0.4,1.2v3.7c0,0.5,0.4,0.9,0.9,0.9h3.3v-1.3
		C263.5,275,263.3,274.3,262.8,273.9"/>
	<path class="st20" d="M280.2,273.9l3-2.7c0.3,0.3,0.4,0.7,0.4,1.2v3.7c0,0.5-0.4,0.9-0.9,0.9h-3.3v-1.3
		C279.4,275,279.7,274.3,280.2,273.9"/>
	<path class="st20" d="M267.2,267.9l4.3,3.8c0,0-1.2,0.6-2.7,1.8c-0.3,0.3-0.8,0.1-0.9-0.2l-2-4.4l0.6-1
		C266.7,267.8,267,267.8,267.2,267.9"/>
	<path class="st20" d="M275.7,267.9l-4.3,3.8c0,0,1.2,0.6,2.7,1.8c0.3,0.3,0.8,0.1,0.9-0.2l2-4.4l-0.6-1
		C276.3,267.8,275.9,267.8,275.7,267.9"/>
	<path class="st20" d="M274.3,251.9l0.4,3.1c2,0.4,2.3,3.5,2.3,4.4c0,0.2,0.1,0.3,0.1,0.5l0.8,1.2c0,0-0.3-2,0.9-3.3
		C278.9,257.8,279.3,250,274.3,251.9"/>
	<path class="st21" d="M265.8,251.1l0.7,0.5c-3.1,2.3-2.5,6.3-2.5,6.3c0.9,0.9,0.9,3.3,0.9,3.3l0.9-0.9c0,0-0.4-2.7,1.4-3.7
		c1.6-1,3.1-0.5,4.5-0.5c3.9,0,5-1.5,4.8-3.3c-0.1-0.9-1.5-2.9-5.1-2.8C270,249.9,267.3,250.3,265.8,251.1"/>
	<path class="st22" d="M265.6,255.5c0,0-0.5-2,1-4c-3.1,2.3-2.5,6.3-2.5,6.3c0.9,0.9,0.9,3.3,0.9,3.3l0.9-0.9c0,0-0.4-2.7,1.4-3.7
		c1.6-1,3.1-0.5,4.5-0.5c0.6,0,1.2,0,1.7-0.1C270.5,255.9,268.7,253.6,265.6,255.5"/>
	<path class="st23" d="M277.5,276h-3.3c-0.3,0-0.5,0.2-0.5,0.5v0.5h4.2v-0.5C278,276.2,277.8,276,277.5,276"/>
	<path class="st24" d="M382.5,106.1c1.8-7.9,9.5-12.8,17.4-11c7.9,1.8,12.8,9.5,11,17.4c-1.8,7.9-9.5,12.8-17.4,11
		S380.7,114,382.5,106.1"/>
	<path class="st25" d="M396.7,96.3c-2.4,0-4.8,0.7-6.9,2c-2.9,1.9-5,4.7-5.7,8.1c-1.6,7,2.9,13.9,9.8,15.5c3.4,0.8,6.9,0.1,9.8-1.7
		c2.9-1.9,5-4.7,5.7-8.1c0.8-3.4,0.1-6.9-1.7-9.8c-1.9-2.9-4.7-5-8.1-5.7C398.6,96.4,397.6,96.3,396.7,96.3 M396.7,125.4
		c-1.2,0-2.4-0.1-3.5-0.4c-8.7-1.9-14.2-10.6-12.2-19.3c0.9-4.2,3.5-7.8,7.1-10.1c3.6-2.3,8-3.1,12.2-2.1c4.2,0.9,7.8,3.5,10.1,7.1
		c2.3,3.6,3.1,8,2.1,12.2c-0.9,4.2-3.5,7.8-7.1,10.1C402.7,124.6,399.8,125.4,396.7,125.4"/>
	<path class="st24" d="M349.6,61.7c1.8-7.9,9.5-12.8,17.4-11c7.9,1.8,12.8,9.5,11,17.4c-1.8,7.9-9.5,12.8-17.4,11
		C352.8,77.3,347.9,69.5,349.6,61.7"/>
	<path class="st25" d="M363.9,51.9c-5.9,0-11.3,4.1-12.7,10.2c-1.6,7,2.9,13.9,9.8,15.5c7,1.6,13.9-2.9,15.5-9.8
		c1.6-7-2.9-13.9-9.8-15.5C365.7,52,364.8,51.9,363.9,51.9 M363.9,81c-1.2,0-2.3-0.1-3.5-0.4c-8.7-1.9-14.2-10.6-12.2-19.3
		c1.9-8.7,10.6-14.2,19.3-12.2c8.7,1.9,14.2,10.6,12.2,19.3C378,75.9,371.3,81,363.9,81"/>
	<path class="st20" d="M370.8,50.4l-0.5,2.1c-0.1,0.2-0.3,0.4-0.5,0.4c-0.3,0-0.5-0.2-0.6-0.5l-0.3-2.2c-0.1-0.6,0.4-1.1,1-1.1h0
		C370.5,49.2,371,49.8,370.8,50.4"/>
	<path class="st22" d="M356.9,50.4l0.5,2.1c0.1,0.2,0.3,0.4,0.5,0.4c0.3,0,0.5-0.2,0.6-0.5l0.3-2.2c0.1-0.6-0.4-1.1-1-1.1h0
		C357.2,49.2,356.7,49.8,356.9,50.4"/>
</g>
<polygon class="st5" points="368.1,58.5 368.1,55.3 359.7,55.3 359.7,58.5 363.9,62.3 "/>
<g>
	<defs>
		<rect id="SVGID_9_" x="-28" y="-140" width="595.3" height="841.9"/>
	</defs>
	<clipPath id="SVGID_10_">
		<use xlink:href="#SVGID_9_"  style="overflow:visible;"/>
	</clipPath>
	<path class="st26" d="M374.5,60l-5.8-1.4c-0.1,0-0.2-0.1-0.2-0.1l-4.7,2.7l-4.5-2.9c-0.1,0.1-0.3,0.2-0.4,0.2l-5.8,1.4
		c-0.8,0.2-1.4,1-1.4,1.8v3.7c0,0.5,0.4,0.9,0.9,0.9h22.4c0.5,0,0.9-0.4,0.9-0.9v-3.7C376,61,375.4,60.2,374.5,60"/>
	<path class="st27" d="M359.7,55.3v3.4c5.3,1.9,8.4-2.9,8.4-2.9v-0.6H359.7z"/>
	<path class="st26" d="M357.8,44.5l0.4,8.9c0,0.8,0.4,1.6,1.1,2.1l1.9,1.4c0.5,0.4,1.1,0.6,1.7,0.6h1.9c0.6,0,1.2-0.2,1.7-0.6
		l1.9-1.4c0.7-0.5,1.1-1.3,1.1-2.1l0.4-8.9H357.8z"/>
	<path class="st27" d="M362.5,46.4c1.9,0,4.7-0.5,5.3-1.9h-10l0.4,8.9c0,0.8,0.4,1.6,1.1,2.1l1.9,1.4c0.5,0.4,1.1,0.6,1.7,0.6h0.9
		c-0.9,0-2.8-1.9-2.8-4.2v-5.6C361.1,47.3,361.5,46.4,362.5,46.4"/>
	<path class="st27" d="M355.2,63.4l-3-2.7c-0.3,0.3-0.4,0.7-0.4,1.2v3.7c0,0.5,0.4,0.9,0.9,0.9h3.3v-1.3
		C355.9,64.5,355.7,63.9,355.2,63.4"/>
	<path class="st27" d="M372.6,63.4l3-2.7c0.3,0.3,0.4,0.7,0.4,1.2v3.7c0,0.5-0.4,0.9-0.9,0.9h-3.3v-1.3
		C371.8,64.5,372.1,63.9,372.6,63.4"/>
	<path class="st27" d="M359.6,57.5l4.3,3.8c0,0-1.2,0.6-2.7,1.8c-0.3,0.3-0.8,0.1-0.9-0.2l-2-4.4l0.6-1
		C359.1,57.3,359.4,57.3,359.6,57.5"/>
	<path class="st27" d="M368.1,57.5l-4.3,3.8c0,0,1.2,0.6,2.7,1.8c0.3,0.3,0.8,0.1,0.9-0.2l2-4.4l-0.6-1
		C368.7,57.3,368.3,57.3,368.1,57.5"/>
	<path class="st27" d="M366.7,41.4l0.4,3.1c2,0.4,2.3,3.5,2.3,4.4c0,0.2,0.1,0.3,0.1,0.5l0.8,1.2c0,0-0.3-2,0.9-3.3
		C371.3,47.3,371.7,39.6,366.7,41.4"/>
	<path class="st28" d="M358.2,40.6l0.7,0.5c-3.1,2.3-2.5,6.3-2.5,6.3c0.9,0.9,0.9,3.3,0.9,3.3l0.9-0.9c0,0-0.4-2.7,1.4-3.7
		c1.6-1,3.1-0.5,4.5-0.5c3.9,0,5-1.5,4.8-3.3c-0.1-0.9-1.5-2.9-5.1-2.8C362.4,39.4,359.7,39.9,358.2,40.6"/>
	<path class="st29" d="M358,45.1c0,0-0.5-2,1-4c-3.1,2.3-2.5,6.3-2.5,6.3c0.9,0.9,0.9,3.3,0.9,3.3l0.9-0.9c0,0-0.4-2.7,1.4-3.7
		c1.6-1,3.1-0.5,4.5-0.5c0.6,0,1.2,0,1.7-0.1C362.9,45.5,361.1,43.2,358,45.1"/>
	<path class="st30" d="M369.9,65.5h-3.3c-0.3,0-0.5,0.2-0.5,0.5v0.5h4.2V66C370.4,65.7,370.2,65.5,369.9,65.5"/>
	<path class="st27" d="M403.7,95.4l-0.5,2.1c-0.1,0.2-0.3,0.4-0.5,0.4c-0.3,0-0.5-0.2-0.6-0.5l-0.3-2.2c-0.1-0.6,0.4-1.1,1-1.1
		C403.4,94.2,403.8,94.8,403.7,95.4"/>
	<path class="st29" d="M389.7,95.4l0.5,2.1c0.1,0.2,0.3,0.4,0.5,0.4c0.3,0,0.5-0.2,0.6-0.5l0.3-2.2c0.1-0.6-0.4-1.1-1-1.1
		C390,94.2,389.6,94.8,389.7,95.4"/>
</g>
<polygon class="st5" points="400.9,103.5 400.9,100.2 392.5,100.2 392.5,103.5 396.7,107.2 "/>
<g>
	<defs>
		<rect id="SVGID_11_" x="-28" y="-140" width="595.3" height="841.9"/>
	</defs>
	<clipPath id="SVGID_12_">
		<use xlink:href="#SVGID_11_"  style="overflow:visible;"/>
	</clipPath>
	<path class="st31" d="M407.4,105l-5.8-1.4c-0.1,0-0.2-0.1-0.2-0.1l-4.7,2.7l-4.5-2.9c-0.1,0.1-0.3,0.2-0.4,0.2L386,105
		c-0.8,0.2-1.4,1-1.4,1.8v3.7c0,0.5,0.4,0.9,0.9,0.9h22.4c0.5,0,0.9-0.4,0.9-0.9v-3.7C408.8,106,408.2,105.2,407.4,105"/>
	<path class="st32" d="M392.5,100.2v3.4c5.3,1.9,8.4-2.9,8.4-2.9v-0.6H392.5z"/>
	<path class="st31" d="M390.6,89.5l0.4,8.9c0,0.8,0.4,1.6,1.1,2.1l1.9,1.4c0.5,0.4,1.1,0.6,1.7,0.6h1.9c0.6,0,1.2-0.2,1.7-0.6
		l1.9-1.4c0.7-0.5,1.1-1.3,1.1-2.1l0.4-8.9H390.6z"/>
	<path class="st32" d="M395.3,91.4c1.9,0,4.7-0.5,5.3-1.9h-10l0.4,8.9c0,0.8,0.4,1.6,1.1,2.1l1.9,1.4c0.5,0.4,1.1,0.6,1.7,0.6h0.9
		c-0.9,0-2.8-1.9-2.8-4.2v-5.6C393.9,92.3,394.4,91.4,395.3,91.4"/>
	<path class="st32" d="M388,108.4l-3-2.7c-0.3,0.3-0.4,0.7-0.4,1.2v3.7c0,0.5,0.4,0.9,0.9,0.9h3.3v-1.3
		C388.8,109.5,388.5,108.9,388,108.4"/>
	<path class="st32" d="M405.4,108.4l3-2.7c0.3,0.3,0.4,0.7,0.4,1.2v3.7c0,0.5-0.4,0.9-0.9,0.9h-3.3v-1.3
		C404.6,109.5,404.9,108.9,405.4,108.4"/>
	<path class="st32" d="M392.4,102.5l4.3,3.8c0,0-1.2,0.6-2.7,1.8c-0.3,0.3-0.8,0.1-0.9-0.2l-2-4.4l0.6-1
		C391.9,102.3,392.2,102.3,392.4,102.5"/>
	<path class="st32" d="M401,102.5l-4.3,3.8c0,0,1.2,0.6,2.7,1.8c0.3,0.3,0.8,0.1,0.9-0.2l2-4.4l-0.6-1
		C401.5,102.3,401.2,102.3,401,102.5"/>
	<path class="st32" d="M399.5,86.4l0.4,3.1c2,0.4,2.3,3.5,2.3,4.4c0,0.2,0.1,0.3,0.1,0.5l0.8,1.2c0,0-0.3-2,0.9-3.3
		C404.1,92.3,404.5,84.6,399.5,86.4"/>
	<path class="st33" d="M391.1,85.6l0.7,0.5c-3.1,2.3-2.5,6.3-2.5,6.3c0.9,0.9,0.9,3.3,0.9,3.3l0.9-0.9c0,0-0.4-2.7,1.4-3.7
		c1.6-1,3.1-0.5,4.5-0.5c3.9,0,5-1.5,4.8-3.3c-0.1-0.9-1.5-2.9-5.1-2.8C395.2,84.4,392.5,84.9,391.1,85.6"/>
	<path class="st34" d="M390.8,90c0,0-0.5-2,1-4c-3.1,2.3-2.5,6.3-2.5,6.3c0.9,0.9,0.9,3.3,0.9,3.3l0.9-0.9c0,0-0.4-2.7,1.4-3.7
		c1.6-1,3.1-0.5,4.5-0.5c0.6,0,1.2,0,1.7-0.1C395.7,90.4,393.9,88.2,390.8,90"/>
	<path class="st35" d="M402.8,110.5h-3.3c-0.3,0-0.5,0.2-0.5,0.5v0.5h4.2V111C403.2,110.7,403,110.5,402.8,110.5"/>
	<path class="st32" d="M436.8,285.7l-0.5,2.1c-0.1,0.2-0.3,0.4-0.5,0.4c-0.3,0-0.5-0.2-0.6-0.5l-0.3-2.2c-0.1-0.6,0.4-1.1,1-1.1
		C436.5,284.5,437,285.1,436.8,285.7"/>
	<path class="st34" d="M422.9,285.7l0.5,2.1c0.1,0.2,0.3,0.4,0.5,0.4c0.3,0,0.5-0.2,0.6-0.5l0.3-2.2c0.1-0.6-0.4-1.1-1-1.1h0
		C423.2,284.5,422.7,285.1,422.9,285.7"/>
</g>
<polygon class="st5" points="434,293.9 434,290.6 425.6,290.6 425.6,293.9 429.8,297.6 "/>
<g>
	<defs>
		<rect id="SVGID_13_" x="-28" y="-140" width="595.3" height="841.9"/>
	</defs>
	<clipPath id="SVGID_14_">
		<use xlink:href="#SVGID_13_"  style="overflow:visible;"/>
	</clipPath>
	<path class="st36" d="M440.5,295.4l-5.8-1.4c-0.1,0-0.2-0.1-0.2-0.1l-4.7,2.7l-4.5-2.9c-0.1,0.1-0.3,0.2-0.4,0.2l-5.8,1.4
		c-0.8,0.2-1.4,1-1.4,1.8v3.7c0,0.5,0.4,0.9,0.9,0.9H441c0.5,0,0.9-0.4,0.9-0.9v-3.7C442,296.3,441.4,295.6,440.5,295.4"/>
	<path class="st37" d="M425.6,290.6v3.4c5.3,1.9,8.4-2.9,8.4-2.9v-0.6H425.6z"/>
	<path class="st36" d="M423.8,279.9l0.4,8.9c0,0.8,0.4,1.6,1.1,2.1l1.9,1.4c0.5,0.4,1.1,0.6,1.7,0.6h1.9c0.6,0,1.2-0.2,1.7-0.6
		l1.9-1.4c0.7-0.5,1.1-1.3,1.1-2.1l0.4-8.9H423.8z"/>
	<path class="st37" d="M428.4,281.7c1.9,0,4.7-0.5,5.3-1.9h-10l0.4,8.9c0,0.8,0.4,1.6,1.1,2.1l1.9,1.4c0.5,0.4,1.1,0.6,1.7,0.6h0.9
		c-0.9,0-2.8-1.9-2.8-4.2v-5.6C427,282.7,427.5,281.7,428.4,281.7"/>
	<path class="st37" d="M421.1,298.8l-3-2.7c-0.3,0.3-0.4,0.7-0.4,1.2v3.7c0,0.5,0.4,0.9,0.9,0.9h3.3v-1.3
		C421.9,299.8,421.6,299.2,421.1,298.8"/>
	<path class="st37" d="M438.5,298.8l3-2.7c0.3,0.3,0.4,0.7,0.4,1.2v3.7c0,0.5-0.4,0.9-0.9,0.9h-3.3v-1.3
		C437.8,299.8,438,299.2,438.5,298.8"/>
	<path class="st37" d="M425.6,292.8l4.3,3.8c0,0-1.2,0.6-2.7,1.8c-0.3,0.3-0.8,0.1-0.9-0.2l-2-4.4l0.6-1
		C425,292.7,425.4,292.6,425.6,292.8"/>
	<path class="st37" d="M434.1,292.8l-4.3,3.8c0,0,1.2,0.6,2.7,1.8c0.3,0.3,0.8,0.1,0.9-0.2l2-4.4l-0.6-1
		C434.6,292.7,434.3,292.6,434.1,292.8"/>
	<path class="st37" d="M432.7,276.8l0.4,3.1c2,0.4,2.3,3.5,2.3,4.4c0,0.2,0.1,0.3,0.1,0.5l0.8,1.2c0,0-0.3-2,0.9-3.3
		C437.3,282.7,437.7,274.9,432.7,276.8"/>
	<path class="st38" d="M424.2,276l0.7,0.5c-3.1,2.3-2.5,6.2-2.5,6.2c0.9,0.9,0.9,3.3,0.9,3.3l0.9-0.9c0,0-0.4-2.7,1.4-3.7
		c1.6-1,3.1-0.5,4.5-0.5c3.9,0,5-1.5,4.8-3.3c-0.1-0.9-1.5-2.9-5.1-2.8C428.4,274.8,425.6,275.2,424.2,276"/>
	<path class="st39" d="M423.9,280.4c0,0-0.5-2,1-4c-3.1,2.3-2.5,6.3-2.5,6.3c0.9,0.9,0.9,3.3,0.9,3.3l0.9-0.9c0,0-0.4-2.7,1.4-3.7
		c1.6-1,3.1-0.5,4.5-0.5c0.6,0,1.2,0,1.7-0.1C428.8,280.8,427.1,278.5,423.9,280.4"/>
	<path class="st40" d="M435.9,300.9h-3.3c-0.3,0-0.5,0.2-0.5,0.5v0.5h4.2v-0.5C436.4,301.1,436.2,300.9,435.9,300.9"/>
	<path class="st37" d="M166.9,282l-0.5,2.1c-0.1,0.2-0.3,0.4-0.5,0.4c-0.3,0-0.5-0.2-0.6-0.5l-0.3-2.2c-0.1-0.6,0.4-1.1,1-1.1
		C166.6,280.8,167.1,281.4,166.9,282"/>
	<path class="st39" d="M153,282l0.5,2.1c0.1,0.2,0.3,0.4,0.5,0.4c0.3,0,0.5-0.2,0.6-0.5l0.3-2.2c0.1-0.6-0.4-1.1-1-1.1
		C153.3,280.8,152.8,281.4,153,282"/>
</g>
<polygon class="st5" points="164.1,290.2 164.1,286.9 155.7,286.9 155.7,290.2 159.9,293.9 "/>
<g>
	<defs>
		<rect id="SVGID_15_" x="-28" y="-140" width="595.3" height="841.9"/>
	</defs>
	<clipPath id="SVGID_16_">
		<use xlink:href="#SVGID_15_"  style="overflow:visible;"/>
	</clipPath>
	<path class="st41" d="M170.6,291.7l-5.8-1.4c-0.1,0-0.2-0.1-0.2-0.1l-4.7,2.7l-4.5-2.9c-0.1,0.1-0.3,0.2-0.4,0.2l-5.8,1.4
		c-0.8,0.2-1.4,0.9-1.4,1.8v3.7c0,0.5,0.4,0.9,0.9,0.9h22.4c0.5,0,0.9-0.4,0.9-0.9v-3.7C172.1,292.6,171.5,291.9,170.6,291.7"/>
	<path class="st42" d="M155.8,286.9v3.4c5.3,1.9,8.4-2.9,8.4-2.9v-0.6H155.8z"/>
	<path class="st41" d="M153.9,276.2l0.4,8.9c0,0.8,0.4,1.6,1.1,2.1l1.9,1.4c0.5,0.4,1.1,0.6,1.7,0.6h1.9c0.6,0,1.2-0.2,1.7-0.6
		l1.9-1.4c0.7-0.5,1.1-1.3,1.1-2.1l0.4-8.9H153.9z"/>
	<path class="st42" d="M158.5,278c1.9,0,4.7-0.5,5.3-1.9h-10l0.4,8.9c0,0.8,0.4,1.6,1.1,2.1l1.9,1.4c0.5,0.4,1.1,0.6,1.7,0.6h0.9
		c-0.9,0-2.8-1.9-2.8-4.2v-5.6C157.1,279,157.6,278,158.5,278"/>
	<path class="st42" d="M151.2,295.1l-3-2.7c-0.3,0.3-0.4,0.7-0.4,1.2v3.7c0,0.5,0.4,0.9,0.9,0.9h3.3v-1.3
		C152,296.1,151.7,295.5,151.2,295.1"/>
	<path class="st42" d="M168.6,295.1l3-2.7c0.3,0.3,0.4,0.7,0.4,1.2v3.7c0,0.5-0.4,0.9-0.9,0.9h-3.3v-1.3
		C167.9,296.1,168.2,295.5,168.6,295.1"/>
	<path class="st42" d="M155.7,289.1l4.3,3.8c0,0-1.2,0.6-2.7,1.8c-0.3,0.3-0.8,0.1-0.9-0.2l-2-4.4l0.6-1
		C155.1,289,155.5,288.9,155.7,289.1"/>
	<path class="st42" d="M164.2,289.1l-4.3,3.8c0,0,1.2,0.6,2.7,1.8c0.3,0.3,0.8,0.1,0.9-0.2l2-4.4l-0.6-1
		C164.8,289,164.4,288.9,164.2,289.1"/>
	<path class="st42" d="M162.8,273.1l0.4,3.1c2,0.4,2.3,3.5,2.3,4.4c0,0.2,0.1,0.3,0.1,0.5l0.8,1.2c0,0-0.3-2,0.9-3.3
		C167.4,279,167.8,271.2,162.8,273.1"/>
	<path class="st43" d="M154.3,272.3l0.7,0.5c-3.1,2.3-2.5,6.3-2.5,6.3c0.9,0.9,0.9,3.3,0.9,3.3l0.9-0.9c0,0-0.4-2.7,1.4-3.7
		c1.6-1,3.1-0.5,4.5-0.5c3.9,0,5-1.5,4.8-3.3c-0.1-0.9-1.5-2.9-5.1-2.8C158.5,271.1,155.8,271.5,154.3,272.3"/>
	<path class="st44" d="M154.1,276.7c0,0-0.5-2,1-4c-3.1,2.3-2.5,6.3-2.5,6.3c0.9,0.9,0.9,3.3,0.9,3.3l0.9-0.9c0,0-0.4-2.7,1.4-3.7
		c1.6-1,3.1-0.5,4.5-0.5c0.6,0,1.2,0,1.7-0.1C158.9,277.1,157.2,274.8,154.1,276.7"/>
	<path class="st45" d="M166,297.2h-3.3c-0.3,0-0.5,0.2-0.5,0.5v0.5h4.2v-0.5C166.5,297.4,166.3,297.2,166,297.2"/>
	<path class="st43" d="M187.6,262.5c0-10.5,8.5-19.1,19.1-19.1c10.5,0,19.1,8.5,19.1,19.1c0,10.5-8.5,19.1-19.1,19.1
		C196.1,281.6,187.6,273,187.6,262.5"/>
	<path class="st44" d="M215.5,250.5l-0.7,2.7c-0.1,0.3-0.4,0.5-0.7,0.5c-0.4,0-0.7-0.3-0.7-0.6l-0.3-2.8c-0.1-0.7,0.5-1.4,1.2-1.4h0
		C215.1,248.9,215.7,249.7,215.5,250.5"/>
	<path class="st43" d="M197.9,250.5l0.7,2.7c0.1,0.3,0.4,0.5,0.7,0.5c0.4,0,0.7-0.3,0.7-0.6l0.3-2.8c0.1-0.7-0.5-1.4-1.2-1.4h0
		C198.3,248.9,197.7,249.7,197.9,250.5"/>
</g>
<polygon class="st5" points="212.1,262.2 212.1,258 201.2,258 201.2,262.2 206.6,267 "/>
<g>
	<defs>
		<rect id="SVGID_17_" x="-28" y="-140" width="595.3" height="841.9"/>
	</defs>
	<clipPath id="SVGID_18_">
		<use xlink:href="#SVGID_17_"  style="overflow:visible;"/>
	</clipPath>
	<path class="st46" d="M220.4,264.2l-8-2c-0.1,0-0.2-0.1-0.3-0.1l-5.5,3.8l-5.2-4c-0.2,0.1-0.3,0.2-0.5,0.3l-8,2
		c-1.1,0.3-1.9,1.2-1.9,2.3v4.7c0,0.7,0.5,1.2,1.2,1.2h28.9c0.7,0,1.2-0.5,1.2-1.2v-4.7C222.3,265.4,221.5,264.5,220.4,264.2"/>
	<path class="st47" d="M201.2,257.9v4.1c6.8,2.6,10.8-3.2,10.8-3.2V258h-10.8V257.9z"/>
	<path class="st48" d="M198.8,244.2l0.5,11.5c0,1.1,0.6,2.1,1.4,2.7l2.5,1.9c0.6,0.5,1.4,0.7,2.2,0.7h2.4c0.8,0,1.5-0.3,2.2-0.7
		l2.5-1.9c0.9-0.6,1.4-1.6,1.4-2.7l0.5-11.5H198.8z"/>
	<path class="st47" d="M204.8,246.6c2.4,0,6-0.6,6.9-2.4l-3.9-1l-9,1l0.5,11.5c0,1.1,0.6,2.1,1.4,2.7l2.5,1.9
		c0.6,0.5,1.4,0.7,2.2,0.7h1.2c-1.2,0-3.6-2.4-3.6-5.4v-7.2C203,247.8,203.6,246.6,204.8,246.6"/>
	<path class="st46" d="M195.4,268.6l-3.9-3.5c-0.3,0.4-0.5,0.9-0.5,1.5v4.7c0,0.7,0.5,1.2,1.2,1.2h4.2v-1.7
		C196.4,269.9,196.1,269.1,195.4,268.6"/>
	<path class="st46" d="M217.9,268.6l3.9-3.5c0.3,0.4,0.5,0.9,0.5,1.5v4.7c0,0.7-0.5,1.2-1.2,1.2h-4.2v-1.7
		C216.9,269.9,217.2,269.1,217.9,268.6"/>
	<path class="st49" d="M212.8,241.2c0.9-2.1-1.3-2.4-1.3-2.4s-2.9,0.1-8.3,0.1c-5.4,0-5.6,5.2-5.6,8.2c0,2.9,1.4,0.9,1.4,4.4l0,0
		v-4.1c0-1.3,0.8-2.8,2.7-2.8c1.9,0,1,0,2.7,0c1.7,0,2.4-1.4,3.7-1c1.3,0.4,2.6,0.9,3.6,1.2c1,0.3,2.2,1.4,2.2,2.8v4.7
		c0.1-1.7,1.5-2.2,1.5-3.9v-4.5C215.4,242.5,213.8,241.4,212.8,241.2"/>
	<path class="st49" d="M210.1,248.3c-1.3,0-1.9,0.5-1.9,1.4c0,1.1,0.9,1.9,1.9,1.9c1.1,0,1.9-0.9,1.9-1.9
		C212.1,248.7,211.4,248.3,210.1,248.3 M210.1,252.4c-1.5,0-2.8-1.3-2.8-2.8c0-1.4,1-2.2,2.8-2.2c1.8,0,2.8,0.8,2.8,2.2
		C212.9,251.2,211.7,252.4,210.1,252.4"/>
	<path class="st49" d="M203.2,248.3c-1.3,0-1.9,0.5-1.9,1.4c0,1.1,0.9,1.9,1.9,1.9c1.1,0,1.9-0.9,1.9-1.9
		C205.1,248.7,204.4,248.3,203.2,248.3 M203.2,252.4c-1.5,0-2.8-1.3-2.8-2.8c0-1.4,1-2.2,2.8-2.2c1.8,0,2.8,0.8,2.8,2.2
		C206,251.2,204.7,252.4,203.2,252.4"/>
	<path class="st49" d="M207.5,250c-0.2-0.1-0.5-0.1-0.9-0.1c-0.3,0-0.6,0-0.9,0.1l-0.2-0.7c0.3-0.1,0.7-0.1,1.1-0.1
		c0.4,0,0.8,0.1,1.1,0.1L207.5,250z"/>
</g>
<rect x="198.9" y="249.1" class="st50" width="2.1" height="0.8"/>
<rect x="212.3" y="249.1" class="st50" width="2.1" height="0.8"/>
<g>
	<defs>
		<rect id="SVGID_19_" x="-28" y="-140" width="595.3" height="841.9"/>
	</defs>
	<clipPath id="SVGID_20_">
		<use xlink:href="#SVGID_19_"  style="overflow:visible;"/>
	</clipPath>
	<path class="st51" d="M211.6,238.7C211.5,238.7,211.5,238.7,211.6,238.7c0,0-0.1,0-0.2,0c-0.1,0-0.1,0-0.3,0c0-0.4-0.3-0.9-1-1.4
		c0.1,0.6-1.2,1.4-2,1.5c-1.3,0-2.9,0-4.9,0c-5.4,0-5.6,5.2-5.6,8.2c0,2.9,1.4,0.9,1.4,4.4l0,0v-4.1c0-1.3,0.8-2.8,2.7-2.8
		c1.9,0,1,0,2.7,0c0,0,0,0,0,0c0.1,0,0.1,0,0.2,0c8.9,0,9.3-5.8,9.3-5.8H211.6z"/>
	<path class="st52" d="M206.6,267.9c0.8,0,6.7-5.5,6.7-5.5l-0.9-0.2c-0.1,0-0.2-0.1-0.3-0.1l-5.5,3.8l-5.2-4
		c-0.1,0.1-0.3,0.2-0.5,0.3l-1.1,0.3C199.7,262.4,205.8,267.9,206.6,267.9"/>
	<path class="st51" d="M114.9,114.8c0-10.5,8.5-19.1,19.1-19.1c10.5,0,19.1,8.5,19.1,19.1c0,10.5-8.5,19.1-19.1,19.1
		C123.4,133.9,114.9,125.4,114.9,114.8"/>
	<path class="st53" d="M142.8,102.8l-0.7,2.7c-0.1,0.3-0.4,0.5-0.7,0.5c-0.4,0-0.7-0.3-0.7-0.6l-0.3-2.8c-0.1-0.7,0.5-1.4,1.2-1.4h0
		C142.4,101.2,143,102,142.8,102.8"/>
	<path class="st51" d="M125.2,102.8l0.7,2.7c0.1,0.3,0.4,0.5,0.7,0.5c0.4,0,0.7-0.3,0.7-0.6l0.3-2.8c0.1-0.7-0.5-1.4-1.2-1.4h0
		C125.6,101.2,125,102,125.2,102.8"/>
</g>
<polygon class="st5" points="139.4,114.5 139.4,110.3 128.5,110.3 128.5,114.5 133.9,119.4 "/>
<g>
	<defs>
		<rect id="SVGID_21_" x="-28" y="-140" width="595.3" height="841.9"/>
	</defs>
	<clipPath id="SVGID_22_">
		<use xlink:href="#SVGID_21_"  style="overflow:visible;"/>
	</clipPath>
	<path class="st54" d="M147.7,116.5l-8-2c-0.1,0-0.2-0.1-0.3-0.1l-5.5,3.8l-5.2-4c-0.2,0.1-0.3,0.2-0.5,0.3l-8,2
		c-1.1,0.3-1.9,1.2-1.9,2.3v4.7c0,0.7,0.5,1.2,1.2,1.2h28.9c0.7,0,1.2-0.5,1.2-1.2v-4.7C149.6,117.7,148.8,116.8,147.7,116.5"/>
	<path class="st55" d="M128.5,110.2v4.1c6.8,2.6,10.8-3.2,10.8-3.2v-0.8h-10.8V110.2z"/>
	<path class="st56" d="M126.1,96.5l0.5,11.5c0.1,1.1,0.6,2.1,1.4,2.7l2.5,1.9c0.6,0.5,1.4,0.7,2.2,0.7h2.4c0.8,0,1.5-0.3,2.2-0.7
		l2.5-1.9c0.9-0.6,1.4-1.6,1.4-2.7l0.5-11.5H126.1z"/>
	<path class="st55" d="M132.1,98.9c2.4,0,6-0.6,6.9-2.4l-3.9-1l-9,1l0.5,11.5c0,1.1,0.6,2.1,1.4,2.7l2.5,1.9
		c0.6,0.5,1.4,0.7,2.2,0.7h1.2c-1.2,0-3.6-2.4-3.6-5.4v-7.2C130.3,100.1,130.9,98.9,132.1,98.9"/>
	<path class="st54" d="M122.7,120.9l-3.9-3.5c-0.3,0.4-0.5,0.9-0.5,1.5v4.7c0,0.7,0.5,1.2,1.2,1.2h4.2v-1.7
		C123.7,122.3,123.3,121.4,122.7,120.9"/>
	<path class="st54" d="M145.2,120.9l3.9-3.5c0.3,0.4,0.5,0.9,0.5,1.5v4.7c0,0.7-0.5,1.2-1.2,1.2h-4.2v-1.7
		C144.2,122.3,144.5,121.4,145.2,120.9"/>
	<path class="st57" d="M140.1,93.5c0.9-2.1-1.3-2.4-1.3-2.4s-2.9,0.1-8.3,0.1c-5.4,0-5.6,5.2-5.6,8.2c0,2.9,1.4,0.9,1.4,4.4l0,0
		v-4.1c0-1.3,0.8-2.8,2.7-2.8c1.9,0,1,0,2.7,0c1.7,0,2.4-1.4,3.7-1c1.3,0.4,2.6,0.9,3.6,1.2c1,0.3,2.2,1.4,2.2,2.8v4.7
		c0.1-1.7,1.5-2.2,1.5-3.9v-4.5C142.6,94.8,141.1,93.7,140.1,93.5"/>
	<path class="st57" d="M137.4,100.6c-1.3,0-1.9,0.5-1.9,1.4c0,1.1,0.9,1.9,1.9,1.9c1.1,0,1.9-0.9,1.9-1.9
		C139.4,101.1,138.7,100.6,137.4,100.6 M137.4,104.8c-1.5,0-2.8-1.3-2.8-2.8c0-1.4,1-2.2,2.8-2.2c1.8,0,2.8,0.8,2.8,2.2
		C140.2,103.5,139,104.8,137.4,104.8"/>
	<path class="st57" d="M130.4,100.6c-1.3,0-1.9,0.5-1.9,1.4c0,1.1,0.9,1.9,1.9,1.9c1.1,0,1.9-0.9,1.9-1.9
		C132.4,101.1,131.7,100.6,130.4,100.6 M130.4,104.8c-1.5,0-2.8-1.3-2.8-2.8c0-1.4,1-2.2,2.8-2.2c1.8,0,2.8,0.8,2.8,2.2
		C133.2,103.5,132,104.8,130.4,104.8"/>
	<path class="st57" d="M134.8,102.3c-0.2-0.1-0.5-0.1-0.9-0.1c-0.3,0-0.6,0-0.9,0.1l-0.2-0.7c0.3-0.1,0.7-0.1,1.1-0.1
		c0.4,0,0.8,0.1,1.1,0.1L134.8,102.3z"/>
</g>
<rect x="126.2" y="101.4" class="st50" width="2.1" height="0.8"/>
<rect x="139.6" y="101.4" class="st50" width="2.1" height="0.8"/>
<g>
	<defs>
		<rect id="SVGID_23_" x="-28" y="-140" width="595.3" height="841.9"/>
	</defs>
	<clipPath id="SVGID_24_">
		<use xlink:href="#SVGID_23_"  style="overflow:visible;"/>
	</clipPath>
	<path class="st58" d="M138.9,91.1C138.8,91.1,138.8,91.1,138.9,91.1c0,0-0.1,0-0.2,0c-0.1,0-0.1,0-0.3,0c0-0.4-0.3-0.9-1-1.4
		c0.1,0.6-1.2,1.4-2,1.5c-1.3,0-2.9,0-4.9,0c-5.4,0-5.6,5.2-5.6,8.2c0,2.9,1.4,0.9,1.4,4.4l0,0v-4.1c0-1.3,0.8-2.8,2.7-2.8
		s1,0,2.7,0h0c0.1,0,0.1,0,0.2,0c8.9,0,9.3-5.8,9.3-5.8H138.9z"/>
	<path class="st59" d="M133.9,120.2c0.8,0,6.7-5.5,6.7-5.5l-0.9-0.2c-0.1,0-0.2-0.1-0.3-0.1l-5.5,3.8l-5.2-4
		c-0.2,0.1-0.3,0.2-0.5,0.3l-1.1,0.3C127,114.8,133.1,120.2,133.9,120.2"/>
	<path class="st58" d="M320.4,101.2c-0.5-0.7-0.3-1.7,0.4-2.2c0.7-0.5,1.7-0.4,2.2,0.4c0.5,0.7,0.4,1.7-0.3,2.2
		c-0.3,0.2-0.6,0.3-0.9,0.3C321.2,101.8,320.7,101.6,320.4,101.2 M325.1,107.6c-0.5-0.7-0.3-1.7,0.4-2.2c0.7-0.5,1.7-0.3,2.2,0.4
		c0.5,0.7,0.4,1.7-0.3,2.2c-0.3,0.2-0.6,0.3-0.9,0.3C325.9,108.3,325.4,108,325.1,107.6 M329.7,114c-0.5-0.7-0.3-1.7,0.4-2.2
		c0.7-0.5,1.7-0.3,2.2,0.4c0.5,0.7,0.4,1.7-0.3,2.2c-0.3,0.2-0.6,0.3-0.9,0.3C330.5,114.7,330,114.4,329.7,114 M334.3,120.4
		c-0.5-0.7-0.3-1.7,0.4-2.2c0.7-0.5,1.7-0.3,2.2,0.3c0.5,0.7,0.3,1.7-0.3,2.2c-0.3,0.2-0.6,0.3-0.9,0.3
		C335.1,121.1,334.6,120.8,334.3,120.4 M339,126.8c-0.5-0.7-0.3-1.7,0.4-2.2c0.7-0.5,1.7-0.3,2.2,0.3c0.5,0.7,0.3,1.7-0.3,2.2
		c-0.3,0.2-0.6,0.3-0.9,0.3C339.8,127.5,339.3,127.3,339,126.8 M343.6,133.3c-0.5-0.7-0.3-1.7,0.3-2.2c0.7-0.5,1.7-0.3,2.2,0.4
		c0.5,0.7,0.3,1.7-0.3,2.2c-0.3,0.2-0.6,0.3-0.9,0.3C344.4,133.9,343.9,133.7,343.6,133.3 M348.3,139.7c-0.5-0.7-0.3-1.7,0.3-2.2
		c0.7-0.5,1.7-0.3,2.2,0.4c0.5,0.7,0.3,1.7-0.4,2.2c-0.3,0.2-0.6,0.3-0.9,0.3C349.1,140.3,348.6,140.1,348.3,139.7 M352.9,146.1
		c-0.5-0.7-0.3-1.7,0.4-2.2c0.7-0.5,1.7-0.3,2.2,0.4c0.5,0.7,0.3,1.7-0.4,2.2c-0.3,0.2-0.6,0.3-0.9,0.3
		C353.7,146.8,353.2,146.5,352.9,146.1 M357.5,152.5c-0.5-0.7-0.4-1.7,0.3-2.2c0.7-0.5,1.7-0.3,2.2,0.3c0.5,0.7,0.3,1.7-0.4,2.2
		c-0.3,0.2-0.6,0.3-0.9,0.3C358.3,153.2,357.8,152.9,357.5,152.5 M362.2,158.9c-0.5-0.7-0.4-1.7,0.3-2.2c0.7-0.5,1.7-0.3,2.2,0.3
		c0.5,0.7,0.3,1.7-0.4,2.2c-0.3,0.2-0.6,0.3-0.9,0.3C363,159.6,362.5,159.4,362.2,158.9 M366.8,165.3c-0.5-0.7-0.4-1.7,0.3-2.2
		c0.7-0.5,1.7-0.3,2.2,0.4c0.5,0.7,0.3,1.7-0.4,2.2c-0.3,0.2-0.6,0.3-0.9,0.3C367.6,166,367.1,165.8,366.8,165.3 M371.5,171.8
		c-0.5-0.7-0.4-1.7,0.3-2.2c0.7-0.5,1.7-0.3,2.2,0.4c0.5,0.7,0.3,1.7-0.4,2.2c-0.3,0.2-0.6,0.3-0.9,0.3
		C372.3,172.4,371.8,172.2,371.5,171.8 M376.1,178.2c-0.5-0.7-0.4-1.7,0.3-2.2c0.7-0.5,1.7-0.3,2.2,0.4c0.5,0.7,0.3,1.7-0.4,2.2
		c-0.3,0.2-0.6,0.3-0.9,0.3C376.9,178.8,376.4,178.6,376.1,178.2 M380.7,184.6c-0.5-0.7-0.4-1.7,0.3-2.2c0.7-0.5,1.7-0.3,2.2,0.3
		c0.5,0.7,0.3,1.7-0.4,2.2c-0.3,0.2-0.6,0.3-0.9,0.3C381.5,185.3,381,185,380.7,184.6 M385.4,191c-0.5-0.7-0.4-1.7,0.3-2.2
		c0.7-0.5,1.7-0.3,2.2,0.4c0.5,0.7,0.3,1.7-0.4,2.2c-0.3,0.2-0.6,0.3-0.9,0.3C386.2,191.7,385.7,191.4,385.4,191 M390,197.4
		c-0.5-0.7-0.4-1.7,0.3-2.2c0.7-0.5,1.7-0.3,2.2,0.4c0.5,0.7,0.3,1.7-0.4,2.2c-0.3,0.2-0.6,0.3-0.9,0.3
		C390.8,198.1,390.3,197.9,390,197.4 M394.7,203.8c-0.5-0.7-0.3-1.7,0.4-2.2c0.7-0.5,1.7-0.3,2.2,0.4c0.5,0.7,0.4,1.7-0.3,2.2
		c-0.3,0.2-0.6,0.3-0.9,0.3C395.4,204.5,395,204.3,394.7,203.8 M399.3,210.3c-0.5-0.7-0.3-1.7,0.4-2.2c0.7-0.5,1.7-0.3,2.2,0.4
		c0.5,0.7,0.4,1.7-0.3,2.2c-0.3,0.2-0.6,0.3-0.9,0.3C400.1,210.9,399.6,210.7,399.3,210.3 M403.9,216.7c-0.5-0.7-0.3-1.7,0.4-2.2
		c0.7-0.5,1.7-0.4,2.2,0.3c0.5,0.7,0.4,1.7-0.3,2.2c-0.3,0.2-0.6,0.3-0.9,0.3C404.7,217.3,404.2,217.1,403.9,216.7 M408.6,223.1
		c-0.5-0.7-0.3-1.7,0.4-2.2c0.7-0.5,1.7-0.3,2.2,0.3c0.5,0.7,0.4,1.7-0.3,2.2c-0.3,0.2-0.6,0.3-0.9,0.3
		C409.4,223.8,408.9,223.5,408.6,223.1"/>
	<path class="st58" d="M393.2,225.2c0-10.5,8.5-19.1,19.1-19.1c10.5,0,19.1,8.5,19.1,19.1c0,10.5-8.5,19.1-19.1,19.1
		C401.8,244.2,393.2,235.7,393.2,225.2"/>
	<path class="st60" d="M421.2,213.1l-0.7,2.7c-0.1,0.3-0.4,0.5-0.7,0.5c-0.4,0-0.7-0.3-0.7-0.6l-0.3-2.8c-0.1-0.7,0.5-1.4,1.2-1.4h0
		C420.8,211.6,421.4,212.3,421.2,213.1"/>
	<path class="st58" d="M403.5,213.1l0.7,2.7c0.1,0.3,0.4,0.5,0.7,0.5c0.4,0,0.7-0.3,0.7-0.6l0.3-2.8c0.1-0.7-0.5-1.4-1.2-1.4
		C403.9,211.6,403.3,212.3,403.5,213.1"/>
</g>
<polygon class="st5" points="417.7,224.9 417.7,220.7 406.9,220.7 406.9,224.9 412.3,229.7 "/>
<g>
	<defs>
		<rect id="SVGID_25_" x="-28" y="-140" width="595.3" height="841.9"/>
	</defs>
	<clipPath id="SVGID_26_">
		<use xlink:href="#SVGID_25_"  style="overflow:visible;"/>
	</clipPath>
	<path class="st61" d="M426.1,226.9l-8-2c-0.1,0-0.2-0.1-0.3-0.1l-5.5,3.8l-5.2-4c-0.1,0.1-0.3,0.2-0.5,0.3l-8,2
		c-1.1,0.3-1.9,1.2-1.9,2.3v4.7c0,0.7,0.5,1.2,1.2,1.2h28.9c0.7,0,1.2-0.5,1.2-1.2v-4.7C427.9,228.1,427.2,227.1,426.1,226.9"/>
	<path class="st62" d="M406.9,220.5v4.1c6.8,2.6,10.8-3.2,10.8-3.2v-0.8h-10.8V220.5z"/>
	<path class="st63" d="M404.5,206.8l0.5,11.5c0,1.1,0.6,2.1,1.4,2.7l2.5,1.9c0.6,0.5,1.4,0.7,2.2,0.7h2.4c0.8,0,1.5-0.3,2.2-0.7
		l2.5-1.9c0.9-0.6,1.4-1.6,1.4-2.7l0.5-11.5H404.5z"/>
	<path class="st62" d="M410.5,209.2c2.4,0,6-0.6,6.9-2.4l-3.9-1l-9,1l0.5,11.5c0,1.1,0.6,2.1,1.4,2.7l2.5,1.9
		c0.6,0.5,1.4,0.7,2.2,0.7h1.2c-1.2,0-3.6-2.4-3.6-5.4V211C408.7,210.4,409.3,209.2,410.5,209.2"/>
	<path class="st61" d="M401.1,231.2l-3.9-3.5c-0.3,0.4-0.5,0.9-0.5,1.5v4.7c0,0.7,0.5,1.2,1.2,1.2h4.2v-1.7
		C402.1,232.6,401.7,231.8,401.1,231.2"/>
	<path class="st61" d="M423.5,231.2l3.9-3.5c0.3,0.4,0.5,0.9,0.5,1.5v4.7c0,0.7-0.5,1.2-1.2,1.2h-4.2v-1.7
		C422.5,232.6,422.9,231.8,423.5,231.2"/>
	<path class="st64" d="M418.5,203.8c0.9-2.1-1.3-2.4-1.3-2.4s-2.9,0.1-8.3,0.1c-5.4,0-5.6,5.2-5.6,8.2c0,2.9,1.4,0.9,1.4,4.4l0,0
		V210c0-1.3,0.8-2.8,2.7-2.8c1.9,0,1,0,2.7,0c1.7,0,2.4-1.4,3.7-1c1.3,0.4,2.6,0.9,3.6,1.2c1,0.3,2.2,1.4,2.2,2.8v4.7
		c0.1-1.7,1.5-2.2,1.5-3.9v-4.5C421,205.2,419.5,204.1,418.5,203.8"/>
	<path class="st64" d="M415.8,210.9c-1.3,0-1.9,0.5-1.9,1.4c0,1.1,0.9,1.9,1.9,1.9c1.1,0,1.9-0.9,1.9-1.9
		C417.7,211.4,417.1,210.9,415.8,210.9 M415.8,215.1c-1.5,0-2.8-1.3-2.8-2.8c0-1.4,1-2.2,2.8-2.2c1.8,0,2.8,0.8,2.8,2.2
		C418.6,213.8,417.3,215.1,415.8,215.1"/>
	<path class="st64" d="M408.8,210.9c-1.3,0-1.9,0.5-1.9,1.4c0,1.1,0.9,1.9,1.9,1.9c1.1,0,1.9-0.9,1.9-1.9
		C410.7,211.4,410.1,210.9,408.8,210.9 M408.8,215.1c-1.5,0-2.8-1.3-2.8-2.8c0-1.4,1-2.2,2.8-2.2c1.8,0,2.8,0.8,2.8,2.2
		C411.6,213.8,410.4,215.1,408.8,215.1"/>
	<path class="st64" d="M413.2,212.6c-0.2-0.1-0.5-0.1-0.9-0.1c-0.3,0-0.6,0-0.9,0.1l-0.2-0.7c0.3-0.1,0.7-0.1,1.1-0.1
		c0.4,0,0.8,0.1,1.1,0.1L413.2,212.6z"/>
</g>
<rect x="404.6" y="211.8" class="st50" width="2.1" height="0.8"/>
<rect x="418" y="211.8" class="st50" width="2.1" height="0.8"/>
<g>
	<defs>
		<rect id="SVGID_27_" x="-28" y="-140" width="595.3" height="841.9"/>
	</defs>
	<clipPath id="SVGID_28_">
		<use xlink:href="#SVGID_27_"  style="overflow:visible;"/>
	</clipPath>
	<path class="st65" d="M417.2,201.4C417.2,201.4,417.2,201.4,417.2,201.4c0,0-0.1,0-0.2,0c-0.1,0-0.1,0-0.3,0c0-0.4-0.3-0.9-1-1.4
		c0.1,0.6-1.2,1.4-2,1.5c-1.3,0-2.9,0-4.9,0c-5.4,0-5.6,5.2-5.6,8.2c0,2.9,1.4,0.9,1.4,4.4l0,0V210c0-1.3,0.8-2.8,2.7-2.8s1,0,2.7,0
		c0,0,0,0,0,0c0.1,0,0.1,0,0.2,0c8.9,0,9.3-5.8,9.3-5.8H417.2z"/>
	<path class="st66" d="M412.3,230.5c0.8,0,6.7-5.5,6.7-5.5l-0.9-0.2c-0.1,0-0.2-0.1-0.3-0.1l-5.5,3.8l-5.2-4
		c-0.1,0.1-0.3,0.2-0.5,0.3l-1.1,0.3C405.4,225.1,411.5,230.5,412.3,230.5"/>
	<path class="st65" d="M301.4,101.7c0-10.5,8.5-19.1,19.1-19.1c10.5,0,19.1,8.5,19.1,19.1c0,10.5-8.5,19.1-19.1,19.1
		C310,120.8,301.4,112.3,301.4,101.7"/>
	<path class="st67" d="M329.4,89.7l-0.7,2.7c-0.1,0.3-0.4,0.5-0.7,0.5c-0.4,0-0.7-0.3-0.7-0.6l-0.3-2.8c-0.1-0.7,0.5-1.4,1.2-1.4h0
		C329,88.1,329.6,88.9,329.4,89.7"/>
	<path class="st65" d="M311.7,89.7l0.7,2.7c0.1,0.3,0.4,0.5,0.7,0.5c0.4,0,0.7-0.3,0.7-0.6l0.3-2.8c0.1-0.7-0.5-1.4-1.2-1.4
		C312.1,88.1,311.5,88.9,311.7,89.7"/>
</g>
<polygon class="st5" points="325.9,101.5 325.9,97.2 315.1,97.2 315.1,101.5 320.5,106.3 "/>
<g>
	<defs>
		<rect id="SVGID_29_" x="-28" y="-140" width="595.3" height="841.9"/>
	</defs>
	<clipPath id="SVGID_30_">
		<use xlink:href="#SVGID_29_"  style="overflow:visible;"/>
	</clipPath>
	<path class="st68" d="M334.3,103.4l-8-2c-0.1,0-0.2-0.1-0.3-0.1l-5.5,3.8l-5.2-4c-0.1,0.1-0.3,0.2-0.5,0.3l-8,2
		c-1.1,0.3-1.9,1.2-1.9,2.3v4.7c0,0.7,0.5,1.2,1.2,1.2H335c0.7,0,1.2-0.5,1.2-1.2v-4.7C336.2,104.6,335.4,103.7,334.3,103.4"/>
	<path class="st69" d="M315.1,97.1v4.1c6.8,2.6,10.8-3.2,10.8-3.2v-0.8h-10.8V97.1z"/>
	<path class="st70" d="M312.7,83.4l0.5,11.5c0,1.1,0.6,2.1,1.4,2.7l2.5,1.9c0.6,0.5,1.4,0.7,2.2,0.7h2.4c0.8,0,1.5-0.3,2.2-0.7
		l2.5-1.9c0.9-0.6,1.4-1.6,1.4-2.7l0.5-11.5H312.7z"/>
	<path class="st69" d="M318.7,85.8c2.4,0,6-0.6,6.9-2.4l-3.9-1l-9,1l0.5,11.5c0,1.1,0.6,2.1,1.4,2.7l2.5,1.9
		c0.6,0.5,1.4,0.7,2.2,0.7h1.2c-1.2,0-3.6-2.4-3.6-5.4v-7.2C316.9,87,317.5,85.8,318.7,85.8"/>
	<path class="st68" d="M309.3,107.8l-3.9-3.5c-0.3,0.4-0.5,0.9-0.5,1.5v4.7c0,0.7,0.5,1.2,1.2,1.2h4.2V110
		C310.3,109.2,309.9,108.3,309.3,107.8"/>
	<path class="st68" d="M331.7,107.8l3.9-3.5c0.3,0.4,0.5,0.9,0.5,1.5v4.7c0,0.7-0.5,1.2-1.2,1.2h-4.2V110
		C330.7,109.2,331.1,108.3,331.7,107.8"/>
	<path class="st71" d="M326.7,80.4c0.9-2.1-1.3-2.4-1.3-2.4s-2.9,0.1-8.3,0.1s-5.6,5.2-5.6,8.2c0,2.9,1.4,0.9,1.4,4.3l0,0v-4.1
		c0-1.3,0.8-2.8,2.7-2.8c1.9,0,1,0,2.7,0c1.7,0,2.4-1.4,3.7-1c1.3,0.4,2.6,0.9,3.6,1.2c1,0.3,2.2,1.4,2.2,2.8v4.7
		c0.1-1.7,1.5-2.2,1.5-3.9v-4.5C329.2,81.7,327.7,80.7,326.7,80.4"/>
	<path class="st71" d="M324,87.5c-1.3,0-1.9,0.5-1.9,1.4c0,1.1,0.9,1.9,1.9,1.9c1.1,0,1.9-0.9,1.9-1.9C325.9,88,325.3,87.5,324,87.5
		 M324,91.7c-1.5,0-2.8-1.3-2.8-2.8c0-1.4,1-2.2,2.8-2.2c1.8,0,2.8,0.8,2.8,2.2C326.8,90.4,325.6,91.7,324,91.7"/>
	<path class="st71" d="M317,87.5c-1.3,0-1.9,0.5-1.9,1.4c0,1.1,0.9,1.9,1.9,1.9c1.1,0,1.9-0.9,1.9-1.9C319,88,318.3,87.5,317,87.5
		 M317,91.7c-1.5,0-2.8-1.3-2.8-2.8c0-1.4,1-2.2,2.8-2.2c1.8,0,2.8,0.8,2.8,2.2C319.8,90.4,318.6,91.7,317,91.7"/>
	<path class="st71" d="M321.4,89.2c-0.2-0.1-0.5-0.1-0.9-0.1c-0.3,0-0.6,0-0.9,0.1l-0.2-0.7c0.3-0.1,0.7-0.1,1.1-0.1
		c0.4,0,0.8,0.1,1.1,0.1L321.4,89.2z"/>
</g>
<rect x="312.8" y="88.3" class="st50" width="2.1" height="0.8"/>
<rect x="326.2" y="88.3" class="st50" width="2.1" height="0.8"/>
<g>
	<defs>
		<rect id="SVGID_31_" x="-28" y="-140" width="595.3" height="841.9"/>
	</defs>
	<clipPath id="SVGID_32_">
		<use xlink:href="#SVGID_31_"  style="overflow:visible;"/>
	</clipPath>
	<path class="st72" d="M325.4,78C325.4,78,325.4,78,325.4,78c0,0-0.1,0-0.2,0c-0.1,0-0.1,0-0.3,0c0-0.4-0.3-0.9-1-1.4
		c0.1,0.6-1.2,1.4-2,1.5c-1.3,0-2.9,0-4.9,0c-5.4,0-5.6,5.2-5.6,8.2c0,2.9,1.4,0.9,1.4,4.4l0,0v-4.1c0-1.3,0.8-2.8,2.7-2.8
		s1,0,2.7,0c0,0,0,0,0,0c0.1,0,0.1,0,0.2,0c8.9,0,9.3-5.8,9.3-5.8H325.4z"/>
	<path class="st73" d="M320.5,107.1c0.8,0,6.7-5.5,6.7-5.5l-0.9-0.2c-0.1,0-0.2-0.1-0.3-0.1l-5.5,3.8l-5.2-4
		c-0.1,0.1-0.3,0.2-0.5,0.3l-1.1,0.3C313.6,101.7,319.7,107.1,320.5,107.1"/>
	<path class="st72" d="M55.8,106.1c0-1.7,1.3-2.9,2.1-3.4c0.5-0.3,0.8-0.9,0.8-1.6c0-0.7-0.3-1.3-0.8-1.6c-0.8-0.5-2.1-1.6-2.1-3.4
		v-1.6h6.7l0,1.6c0,1.7-1.3,2.9-2.1,3.4c-0.5,0.3-0.8,0.9-0.8,1.6c0,0.7,0.3,1.3,0.8,1.6c0.8,0.5,2.1,1.6,2.1,3.4v1.6h-6.7V106.1z
		 M64.4,107.7h-0.9v-1.6c0-1.6-0.9-3.1-2.5-4.2c-0.2-0.1-0.3-0.4-0.3-0.8c0-0.3,0.1-0.6,0.3-0.8c1.6-1.1,2.5-2.6,2.5-4.2v-1.6h0.9
		c0.3,0,0.5-0.2,0.5-0.5c0-0.3-0.2-0.5-0.5-0.5H53.8c-0.3,0-0.5,0.2-0.5,0.5c0,0.3,0.2,0.5,0.5,0.5h0.9v1.6c0,1.6,0.9,3.1,2.5,4.2
		c0.2,0.1,0.3,0.4,0.3,0.8c0,0.3-0.1,0.6-0.3,0.8c-1.6,1.1-2.5,2.6-2.5,4.2v1.6h-0.9c-0.3,0-0.5,0.2-0.5,0.5c0,0.3,0.2,0.5,0.5,0.5
		h10.6c0.3,0,0.5-0.2,0.5-0.5C64.9,108,64.7,107.7,64.4,107.7"/>
	<path class="st72" d="M59.1,98.8c1,0,1.7-0.8,1.7-1.7h-3.5C57.4,98,58.1,98.8,59.1,98.8"/>
	<path class="st72" d="M121.6,173.4c0-1.7,1.3-2.8,2.1-3.4c0.5-0.3,0.8-1,0.8-1.6c0-0.7-0.3-1.3-0.8-1.6c-0.8-0.5-2.1-1.6-2.1-3.4
		v-1.6h6.7v1.6c0,1.7-1.3,2.9-2.1,3.4c-0.5,0.3-0.8,1-0.8,1.6c0,0.7,0.3,1.3,0.8,1.6c0.8,0.5,2.1,1.6,2.1,3.4v1.6h-6.7V173.4z
		 M130.2,175h-0.9v-1.6c0-1.6-0.9-3.1-2.5-4.2c-0.2-0.1-0.3-0.4-0.3-0.8c0-0.3,0.1-0.6,0.3-0.8c1.6-1.1,2.5-2.6,2.5-4.2v-1.6h0.9
		c0.3,0,0.5-0.2,0.5-0.5s-0.2-0.5-0.5-0.5h-10.6c-0.3,0-0.5,0.2-0.5,0.5s0.2,0.5,0.5,0.5h0.9v1.6c0,1.6,0.9,3.1,2.5,4.2
		c0.2,0.1,0.3,0.4,0.3,0.8c0,0.3-0.1,0.6-0.3,0.8c-1.6,1.1-2.5,2.6-2.5,4.2v1.6h-0.9c-0.3,0-0.5,0.2-0.5,0.5c0,0.3,0.2,0.5,0.5,0.5
		h10.6c0.3,0,0.5-0.2,0.5-0.5C130.8,175.2,130.5,175,130.2,175"/>
	<path class="st72" d="M124.9,166.1c1,0,1.7-0.8,1.7-1.7h-3.5C123.2,165.3,124,166.1,124.9,166.1"/>
	<path class="st72" d="M461.6,217.1c0-1.7,1.3-2.9,2.1-3.4c0.5-0.3,0.8-0.9,0.8-1.6c0-0.7-0.3-1.3-0.8-1.6c-0.8-0.5-2.1-1.6-2.1-3.4
		v-1.6h6.7l0,1.6c0,1.7-1.3,2.9-2.1,3.4c-0.5,0.3-0.8,0.9-0.8,1.6c0,0.7,0.3,1.3,0.8,1.6c0.8,0.5,2.1,1.6,2.1,3.4v1.6h-6.7V217.1z
		 M470.2,218.8h-0.9v-1.6c0-1.6-0.9-3.1-2.5-4.2c-0.2-0.1-0.3-0.4-0.3-0.8c0-0.3,0.1-0.6,0.3-0.8c1.6-1.1,2.5-2.6,2.5-4.2v-1.6h0.9
		c0.3,0,0.5-0.2,0.5-0.5c0-0.3-0.2-0.5-0.5-0.5h-10.6c-0.3,0-0.5,0.2-0.5,0.5c0,0.3,0.2,0.5,0.5,0.5h0.9v1.6c0,1.6,0.9,3.1,2.5,4.2
		c0.2,0.1,0.3,0.4,0.3,0.8c0,0.3-0.1,0.6-0.3,0.8c-1.6,1.1-2.5,2.6-2.5,4.2v1.6h-0.9c-0.3,0-0.5,0.2-0.5,0.5c0,0.3,0.2,0.5,0.5,0.5
		h10.6c0.3,0,0.5-0.2,0.5-0.5C470.8,219,470.5,218.8,470.2,218.8"/>
	<path class="st72" d="M464.9,209.9c1,0,1.7-0.8,1.7-1.7h-3.5C463.2,209.1,464,209.9,464.9,209.9"/>
</g>
<polygon class="st74" points="198.5,131.9 194.8,129 195.8,127.7 198.2,129.6 202.4,123.4 203.7,124.3 "/>
<polygon class="st74" points="324.1,54.4 320.4,51.5 321.4,50.2 323.8,52.1 328,45.9 329.3,46.8 "/>
<polygon class="st74" points="198.1,320.5 194.4,317.6 195.4,316.3 197.8,318.2 202,312 203.3,312.9 "/>
<g>
	<defs>
		<rect id="SVGID_33_" x="-28" y="-140" width="595.3" height="841.9"/>
	</defs>
	<clipPath id="SVGID_34_">
		<use xlink:href="#SVGID_33_"  style="overflow:visible;"/>
	</clipPath>
	<path class="st75" d="M469.1,240.8l-0.5,2.1c-0.1,0.2-0.3,0.4-0.5,0.4c-0.3,0-0.5-0.2-0.6-0.5l-0.3-2.2c-0.1-0.6,0.4-1.1,1-1.1h0
		C468.8,239.6,469.2,240.2,469.1,240.8"/>
	<path class="st76" d="M455.2,240.8l0.5,2.1c0.1,0.2,0.3,0.4,0.5,0.4c0.3,0,0.5-0.2,0.6-0.5l0.3-2.2c0.1-0.6-0.4-1.1-1-1.1h0
		C455.5,239.6,455,240.2,455.2,240.8"/>
</g>
<polygon class="st5" points="466.3,248.9 466.3,245.7 457.9,245.7 457.9,248.9 462.1,252.7 "/>
<g>
	<defs>
		<rect id="SVGID_35_" x="-28" y="-140" width="595.3" height="841.9"/>
	</defs>
	<clipPath id="SVGID_36_">
		<use xlink:href="#SVGID_35_"  style="overflow:visible;"/>
	</clipPath>
	<path class="st77" d="M472.8,250.5l-5.8-1.4c-0.1,0-0.2-0.1-0.2-0.1l-4.7,2.7l-4.5-2.9c-0.1,0.1-0.3,0.2-0.4,0.2l-5.8,1.4
		c-0.8,0.2-1.4,1-1.4,1.8v3.7c0,0.5,0.4,0.9,0.9,0.9h22.4c0.5,0,0.9-0.4,0.9-0.9v-3.7C474.3,251.4,473.7,250.7,472.8,250.5"/>
	<path class="st78" d="M457.9,245.7v3.4c5.3,1.9,8.4-2.9,8.4-2.9v-0.6H457.9z"/>
	<path class="st77" d="M456.1,234.9l0.4,8.9c0,0.8,0.4,1.6,1.1,2.1l1.9,1.4c0.5,0.4,1.1,0.6,1.7,0.6h1.9c0.6,0,1.2-0.2,1.7-0.6
		l1.9-1.4c0.7-0.5,1.1-1.3,1.1-2.1l0.4-8.9H456.1z"/>
	<path class="st78" d="M460.7,236.8c1.9,0,4.7-0.5,5.3-1.9h-10l0.4,8.9c0,0.8,0.4,1.6,1.1,2.1l1.9,1.4c0.5,0.4,1.1,0.6,1.7,0.6h0.9
		c-0.9,0-2.8-1.9-2.8-4.2v-5.6C459.3,237.7,459.8,236.8,460.7,236.8"/>
	<path class="st78" d="M453.4,253.8l-3-2.7c-0.3,0.3-0.4,0.7-0.4,1.2v3.7c0,0.5,0.4,0.9,0.9,0.9h3.3v-1.3
		C454.2,254.9,453.9,254.3,453.4,253.8"/>
	<path class="st78" d="M470.8,253.8l3-2.7c0.3,0.3,0.4,0.7,0.4,1.2v3.7c0,0.5-0.4,0.9-0.9,0.9h-3.3v-1.3
		C470.1,254.9,470.3,254.3,470.8,253.8"/>
	<path class="st78" d="M457.9,247.9l4.3,3.8c0,0-1.2,0.6-2.7,1.8c-0.3,0.3-0.8,0.1-0.9-0.2l-2-4.4l0.6-1
		C457.3,247.7,457.7,247.7,457.9,247.9"/>
	<path class="st78" d="M466.4,247.9l-4.3,3.8c0,0,1.2,0.6,2.7,1.8c0.3,0.3,0.8,0.1,0.9-0.2l2-4.4l-0.6-1
		C466.9,247.7,466.6,247.7,466.4,247.9"/>
	<path class="st78" d="M465,231.9l0.4,3.1c2,0.4,2.3,3.5,2.3,4.4c0,0.2,0.1,0.3,0.1,0.5l0.8,1.2c0,0-0.3-2,0.9-3.3
		C469.6,237.7,470,230,465,231.9"/>
	<path class="st79" d="M456.5,231l0.7,0.5c-3.1,2.3-2.5,6.3-2.5,6.3c0.9,0.9,0.9,3.3,0.9,3.3l0.9-0.9c0,0-0.4-2.7,1.4-3.7
		c1.6-1,3.1-0.5,4.5-0.5c3.9,0,5-1.5,4.8-3.3c-0.1-0.9-1.5-2.9-5.1-2.8C460.7,229.8,457.9,230.3,456.5,231"/>
	<path class="st80" d="M456.2,235.5c0,0-0.5-2,1-4c-3.1,2.3-2.5,6.3-2.5,6.3c0.9,0.9,0.9,3.3,0.9,3.3l0.9-0.9c0,0-0.4-2.7,1.4-3.7
		c1.6-1,3.1-0.5,4.5-0.5c0.6,0,1.2,0,1.7-0.1C461.1,235.9,459.3,233.6,456.2,235.5"/>
	<path class="st81" d="M468.2,255.9h-3.3c-0.3,0-0.5,0.2-0.5,0.5v0.5h4.2v-0.5C468.7,256.1,468.4,255.9,468.2,255.9"/>
</g>
<text transform="matrix(1 0 0 1 234.415 318.5072)"><tspan x="0" y="0" class="st82 st83 st84">Y</tspan><tspan x="6.1" y="0" class="st82 st83 st84">ou</tspan></text>
<text transform="matrix(1 0 0 1 93.5449 78.3368)" class="st82 st83 st84">DoS 1</text>
<text transform="matrix(1 0 0 1 269.6846 76.7968)" class="st82 st83 st84">DoS 1</text>
<text transform="matrix(1 0 0 1 371.6055 275.037)" class="st82 st83 st84">DoS 2</text>
<text transform="matrix(1 0 0 1 95.7549 439.6771)"><tspan x="0" y="0" class="st82 st83 st84">A</tspan><tspan x="7.4" y="0" class="st82 st83 st84">gent</tspan></text>
<text transform="matrix(1 0 0 1 174.585 439.6771)"><tspan x="0" y="0" class="st82 st83 st84">T</tspan><tspan x="6" y="0" class="st82 st83 st84">r</tspan><tspan x="10.2" y="0" class="st82 st83 st84">ading Client</tspan></text>
<text transform="matrix(1 0 0 1 370.6455 439.6771)"><tspan x="0" y="0" class="st82 st83 st84">Client </tspan><tspan x="33.8" y="0" class="st82 st83 st84">w</tspan><tspan x="42.9" y="0" class="st82 st83 st84">aiting</tspan></text>
<text transform="matrix(1 0 0 1 442.2744 439.6771)" class="st82 st83 st84"> </text>
<text transform="matrix(1 0 0 1 384.0049 451.6771)"><tspan x="0" y="0" class="st82 st83 st84">appr</tspan><tspan x="24.3" y="0" class="st82 st83 st84">ov</tspan><tspan x="36.5" y="0" class="st82 st83 st84">al</tspan></text>
<text transform="matrix(1 0 0 1 286.2646 439.6771)"><tspan x="0" y="0" class="st82 st83 st84">Appr</tspan><tspan x="25.8" y="0" class="st82 st83 st84">ov</tspan><tspan x="38" y="0" class="st82 st83 st84">ed</tspan></text>
<text transform="matrix(1 0 0 1 336.5352 439.6771)" class="st82 st83 st84"> </text>
<text transform="matrix(1 0 0 1 296.8848 451.6771)" class="st82 st83 st84">client</text>
<g>
	<defs>
		<rect id="SVGID_37_" x="-28" y="-140" width="595.3" height="841.9"/>
	</defs>
	<clipPath id="SVGID_38_">
		<use xlink:href="#SVGID_37_"  style="overflow:visible;"/>
	</clipPath>
	<path class="st85" d="M92.7,401.3c0-10.2,8.3-18.5,18.5-18.5c10.2,0,18.5,8.3,18.5,18.5c0,10.2-8.3,18.5-18.5,18.5
		C101,419.8,92.7,411.5,92.7,401.3"/>
	<path class="st86" d="M119.9,389.6l-0.7,2.6c-0.1,0.3-0.4,0.5-0.7,0.5c-0.4,0-0.7-0.3-0.7-0.6l-0.3-2.7c-0.1-0.7,0.5-1.4,1.2-1.4
		C119.5,388.1,120.1,388.8,119.9,389.6"/>
	<path class="st85" d="M102.8,389.6l0.7,2.6c0.1,0.3,0.4,0.5,0.7,0.5c0.4,0,0.7-0.3,0.7-0.6l0.3-2.7c0.1-0.7-0.5-1.4-1.2-1.4
		C103.1,388.1,102.6,388.8,102.8,389.6"/>
</g>
<polygon class="st5" points="116.5,401 116.5,396.9 106,396.9 106,401 111.3,405.7 "/>
<g>
	<defs>
		<rect id="SVGID_39_" x="-28" y="-140" width="595.3" height="841.9"/>
	</defs>
	<clipPath id="SVGID_40_">
		<use xlink:href="#SVGID_39_"  style="overflow:visible;"/>
	</clipPath>
	<path class="st87" d="M124.7,402.9l-7.8-2c-0.1,0-0.2-0.1-0.3-0.1l-5.3,3.7l-5.1-3.9c-0.1,0.1-0.3,0.2-0.5,0.3l-7.8,2
		c-1.1,0.2-1.8,1.2-1.8,2.3v4.6c0,0.6,0.5,1.2,1.2,1.2h28.1c0.6,0,1.2-0.5,1.2-1.2v-4.6C126.5,404.1,125.7,403.2,124.7,402.9"/>
	<path class="st88" d="M106,396.8v4c6.6,2.5,10.5-3.2,10.5-3.2v-0.7H106V396.8z"/>
	<path class="st89" d="M103.7,383.5l0.5,11.2c0,1,0.6,2,1.4,2.6l2.4,1.8c0.6,0.5,1.3,0.7,2.1,0.7h2.3c0.8,0,1.5-0.2,2.1-0.7l2.4-1.8
		c0.8-0.6,1.4-1.6,1.4-2.6l0.5-11.2H103.7z"/>
	<path class="st88" d="M109.5,385.8c2.3,0,5.8-0.6,6.7-2.3l-3.8-1l-8.7,1l0.5,11.2c0,1,0.6,2,1.4,2.6l2.4,1.8
		c0.6,0.5,1.3,0.7,2.1,0.7h1.2c-1.2,0-3.5-2.3-3.5-5.3v-7C107.8,387,108.4,385.8,109.5,385.8"/>
	<path class="st87" d="M100.4,407.2l-3.8-3.4c-0.3,0.4-0.5,0.9-0.5,1.5v4.6c0,0.6,0.5,1.2,1.2,1.2h4.1v-1.6
		C101.3,408.5,101,407.7,100.4,407.2"/>
	<path class="st87" d="M122.2,407.2l3.8-3.4c0.3,0.4,0.5,0.9,0.5,1.5v4.6c0,0.6-0.5,1.2-1.2,1.2h-4.1v-1.6
		C121.2,408.5,121.6,407.7,122.2,407.2"/>
	<path class="st90" d="M117.3,380.5c0.9-2.1-1.3-2.4-1.3-2.4s-2.8,0.1-8.1,0.1c-5.3,0-5.4,5.1-5.4,8c0,2.8,1.3,0.9,1.4,4.2l0,0v-4
		c0-1.2,0.8-2.7,2.6-2.7c1.8,0,1,0,2.6,0c1.6,0,2.3-1.3,3.6-0.9c1.3,0.4,2.5,0.9,3.5,1.2c1,0.3,2.1,1.4,2.1,2.7v4.6
		c0.1-1.6,1.4-2.1,1.4-3.8v-4.3C119.7,381.8,118.3,380.8,117.3,380.5"/>
	<path class="st90" d="M114.7,387.4c-1.3,0-1.9,0.4-1.9,1.3c0,1,0.8,1.9,1.9,1.9c1,0,1.9-0.8,1.9-1.9
		C116.6,387.9,115.9,387.4,114.7,387.4 M114.7,391.5c-1.5,0-2.7-1.2-2.7-2.7c0-1.4,1-2.2,2.7-2.2c1.7,0,2.7,0.8,2.7,2.2
		C117.4,390.3,116.2,391.5,114.7,391.5"/>
	<path class="st90" d="M107.9,387.4c-1.3,0-1.9,0.4-1.9,1.3c0,1,0.8,1.9,1.9,1.9c1,0,1.9-0.8,1.9-1.9
		C109.8,387.9,109.1,387.4,107.9,387.4 M107.9,391.5c-1.5,0-2.7-1.2-2.7-2.7c0-1.4,1-2.2,2.7-2.2c1.7,0,2.7,0.8,2.7,2.2
		C110.6,390.3,109.4,391.5,107.9,391.5"/>
	<path class="st90" d="M112.1,389.1c-0.2-0.1-0.5-0.1-0.9-0.1c-0.3,0-0.6,0-0.8,0.1l-0.2-0.7c0.3-0.1,0.7-0.1,1.1-0.1
		c0.4,0,0.8,0,1.1,0.1L112.1,389.1z"/>
</g>
<rect x="103.8" y="388.2" class="st50" width="2" height="0.7"/>
<rect x="116.8" y="388.2" class="st50" width="2" height="0.7"/>
<g>
	<defs>
		<rect id="SVGID_41_" x="-28" y="-140" width="595.3" height="841.9"/>
	</defs>
	<clipPath id="SVGID_42_">
		<use xlink:href="#SVGID_41_"  style="overflow:visible;"/>
	</clipPath>
	<path class="st91" d="M116.1,378.2C116,378.2,116,378.2,116.1,378.2c0,0-0.1,0-0.2,0c-0.1,0-0.1,0-0.2,0c0-0.4-0.3-0.9-0.9-1.4
		c0.1,0.6-1.1,1.3-2,1.4c-1.3,0-2.9,0-4.8,0c-5.3,0-5.4,5.1-5.4,8c0,2.8,1.3,0.9,1.4,4.2l0,0v-4c0-1.2,0.8-2.7,2.6-2.7
		c1.8,0,1,0,2.6,0c0,0,0,0,0,0c0.1,0,0.1,0,0.2,0c8.6,0,9.1-5.7,9.1-5.7H116.1z"/>
	<path class="st92" d="M111.3,406.5c0.8,0,6.5-5.3,6.5-5.3l-0.9-0.2c-0.1,0-0.2-0.1-0.3-0.1l-5.3,3.7l-5.1-3.9
		c-0.1,0.1-0.3,0.2-0.5,0.3l-1.1,0.3C104.6,401.2,110.5,406.5,111.3,406.5"/>
	<path class="st93" d="M191.8,398.7c2.1-9.4,11.4-15.3,20.7-13.2c9.4,2.1,15.2,11.4,13.2,20.7c-2.1,9.4-11.4,15.3-20.7,13.2
		C195.6,417.3,189.7,408,191.8,398.7"/>
	<path class="st92" d="M217,385.9l-0.6,2.5c-0.1,0.3-0.3,0.5-0.6,0.5c-0.3,0-0.6-0.3-0.7-0.6l-0.3-2.6c-0.1-0.7,0.4-1.3,1.1-1.3
		C216.7,384.5,217.2,385.2,217,385.9"/>
	<path class="st94" d="M200.4,385.9l0.6,2.5c0.1,0.3,0.3,0.5,0.6,0.5c0.3,0,0.6-0.3,0.7-0.6l0.3-2.6c0.1-0.7-0.4-1.3-1.1-1.3h0
		C200.8,384.5,200.3,385.2,200.4,385.9"/>
</g>
<polygon class="st5" points="213.7,395.6 213.7,391.7 203.7,391.7 203.7,395.6 208.7,400.1 "/>
<g>
	<defs>
		<rect id="SVGID_43_" x="-28" y="-140" width="595.3" height="841.9"/>
	</defs>
	<clipPath id="SVGID_44_">
		<use xlink:href="#SVGID_43_"  style="overflow:visible;"/>
	</clipPath>
	<path class="st95" d="M221.5,397.5l-6.9-1.6c-0.1,0-0.2-0.1-0.3-0.1l-5.6,3.3l-5.4-3.4c-0.1,0.1-0.3,0.2-0.5,0.3l-6.9,1.6
		c-1,0.2-1.7,1.1-1.7,2.2v4.4c0,0.6,0.5,1.1,1.1,1.1h26.7c0.6,0,1.1-0.5,1.1-1.1v-4.4C223.2,398.6,222.5,397.7,221.5,397.5"/>
	<path class="st96" d="M203.7,391.7v4.1c6.3,2.3,10-3.4,10-3.4v-0.7H203.7z"/>
	<path class="st95" d="M201.5,378.9l0.5,10.7c0,1,0.5,1.9,1.3,2.5l2.3,1.7c0.6,0.4,1.3,0.7,2,0.7h2.2c0.7,0,1.4-0.2,2-0.7l2.3-1.7
		c0.8-0.6,1.3-1.5,1.3-2.5l0.5-10.7H201.5z"/>
	<path class="st96" d="M207.1,381.2c2.2,0,5.6-0.6,6.3-2.2h-11.9l0.5,10.7c0,1,0.5,1.9,1.3,2.5l2.3,1.7c0.6,0.4,1.3,0.7,2,0.7h1.1
		c-1.1,0-3.3-2.2-3.3-5v-6.7C205.4,382.3,206,381.2,207.1,381.2"/>
	<path class="st96" d="M198.4,401.5l-3.6-3.2c-0.3,0.4-0.5,0.9-0.5,1.4v4.4c0,0.6,0.5,1.1,1.1,1.1h3.9v-1.5
		C199.3,402.8,199,402,198.4,401.5"/>
	<path class="st96" d="M219.1,401.5l3.6-3.2c0.3,0.4,0.5,0.9,0.5,1.4v4.4c0,0.6-0.5,1.1-1.1,1.1h-3.9v-1.5
		C218.2,402.8,218.5,402,219.1,401.5"/>
	<path class="st96" d="M203.7,394.4l5.1,4.6c0,0-1.4,0.7-3.2,2.2c-0.4,0.3-0.9,0.2-1.1-0.2l-2.4-5.3l0.8-1.1
		C203,394.2,203.4,394.2,203.7,394.4"/>
	<path class="st96" d="M213.8,394.4l-5.1,4.6c0,0,1.4,0.7,3.2,2.2c0.4,0.3,0.9,0.2,1.1-0.2l2.4-5.3l-0.8-1.1
		C214.5,394.2,214.1,394.2,213.8,394.4"/>
	<path class="st96" d="M212.1,375.3l0.5,3.7c2.4,0.5,2.7,4.2,2.8,5.3c0,0.2,0.1,0.4,0.2,0.5l0.9,1.4c0,0-0.3-2.3,1.1-3.9
		C217.6,382.3,218.1,373,212.1,375.3"/>
	<path class="st97" d="M202,374.3l0.8,0.6c-3.7,2.7-3,7.5-3,7.5c1.1,1.1,1.1,3.9,1.1,3.9l1.1-1.1c0,0-0.4-3.2,1.7-4.4
		c1.9-1.1,3.6-0.6,5.4-0.6c4.7,0,6-1.8,5.7-3.9c-0.1-1.1-1.8-3.4-6.1-3.3C207,372.9,203.7,373.4,202,374.3"/>
	<path class="st98" d="M201.7,379.6c0,0-0.6-2.3,1.1-4.7c-3.7,2.7-3,7.5-3,7.5c1.1,1.1,1.1,3.9,1.1,3.9l1.1-1.1c0,0-0.4-3.2,1.7-4.4
		c1.9-1.1,3.6-0.6,5.4-0.6c0.8,0,1.4-0.1,2-0.1C207.5,380,205.4,377.3,201.7,379.6"/>
	<path class="st99" d="M216,404h-3.9c-0.3,0-0.6,0.2-0.6,0.6v0.6h5v-0.6C216.5,404.2,216.3,404,216,404"/>
	<path class="st100" d="M389.9,399.1c2-9.2,11.1-14.9,20.3-12.9c9.2,2,14.9,11.1,12.9,20.3c-2,9.2-11.1,14.9-20.3,12.9
		C393.6,417.4,387.8,408.3,389.9,399.1"/>
	<path class="st97" d="M402.6,408.7c0-2,1.5-3.3,2.4-3.9c0.6-0.4,0.9-1.1,0.9-1.9c0-0.8-0.3-1.5-0.9-1.9c-0.9-0.6-2.4-1.9-2.4-3.9
		v-1.9h7.8v1.9c0,2-1.5,3.3-2.4,3.9c-0.6,0.4-0.9,1.1-0.9,1.9c0,0.8,0.3,1.5,0.9,1.9c0.9,0.6,2.4,1.9,2.4,3.9v1.9h-7.8V408.7z
		 M412.7,410.6h-1.1v-1.9c0-1.9-1-3.7-3-5c-0.2-0.2-0.4-0.5-0.4-0.9c0-0.4,0.1-0.7,0.4-0.9c1.9-1.3,3-3,3-5v-1.9h1.1
		c0.3,0,0.6-0.3,0.6-0.6c0-0.3-0.3-0.6-0.6-0.6h-12.4c-0.3,0-0.6,0.3-0.6,0.6c0,0.3,0.3,0.6,0.6,0.6h1.1v1.9c0,1.9,1.1,3.7,3,5
		c0.2,0.2,0.4,0.5,0.4,0.9c0,0.4-0.1,0.7-0.4,0.9c-1.9,1.3-3,3-3,5v1.9h-1.1c-0.3,0-0.6,0.3-0.6,0.6s0.3,0.6,0.6,0.6h12.4
		c0.3,0,0.6-0.3,0.6-0.6S413,410.6,412.7,410.6"/>
	<path class="st97" d="M406.5,400.2c1.1,0,2-0.9,2-2h-4.1C404.4,399.3,405.3,400.2,406.5,400.2"/>
	<path class="st100" d="M294.4,402.8c0-9.4,7.6-17,17-17c9.4,0,17,7.6,17,17c0,9.4-7.6,17-17,17C302,419.8,294.4,412.2,294.4,402.8"
		/>
</g>
<polygon class="st74" points="310.7,408.2 306.3,404.7 307.5,403.3 310.3,405.5 315.2,398.3 316.7,399.3 "/>
</svg>
