<?xml version="1.0" encoding="utf-8"?>
<!-- Generator: Adobe Illustrator 19.0.0, SVG Export Plug-In . SVG Version: 6.00 Build 0)  -->
<svg version="1.1" id="Layer_1" xmlns="http://www.w3.org/2000/svg" xmlns:xlink="http://www.w3.org/1999/xlink" x="0px" y="0px"
	 viewBox="0 0 327.3 102" style="enable-background:new 0 0 327.3 102;" xml:space="preserve">
<style type="text/css">
	.st0{fill:none;stroke:#D9D6FA;stroke-miterlimit:10;}
	.st1{fill:#371BE1;}
	.st2{font-family:'Avenir-Heavy';}
	.st3{font-size:10px;}
	.st4{font-family:'Avenir-Book';}
	.st5{font-size:11px;}
</style>
<line class="st0" x1="16.1" y1="16.6" x2="110.8" y2="16.6"/>
<line class="st0" x1="16.6" y1="45.6" x2="16.6" y2="17.1"/>
<line class="st0" x1="110.8" y1="16.6" x2="205.5" y2="16.6"/>
<line class="st0" x1="110.8" y1="45.6" x2="110.8" y2="17.1"/>
<line class="st0" x1="205.5" y1="16.6" x2="307.8" y2="16.6"/>
<line class="st0" x1="205.5" y1="45.6" x2="205.5" y2="17.1"/>
<line class="st0" x1="307.3" y1="45.6" x2="307.3" y2="17.1"/>
<line class="st0" x1="16.1" y1="46.1" x2="110.8" y2="46.1"/>
<line class="st0" x1="16.6" y1="86" x2="16.6" y2="46.6"/>
<line class="st0" x1="110.8" y1="46.1" x2="205.5" y2="46.1"/>
<line class="st0" x1="110.8" y1="86" x2="110.8" y2="46.6"/>
<line class="st0" x1="205.5" y1="46.1" x2="307.8" y2="46.1"/>
<line class="st0" x1="205.5" y1="86" x2="205.5" y2="46.6"/>
<line class="st0" x1="307.3" y1="86" x2="307.3" y2="46.6"/>
<line class="st0" x1="16.1" y1="86.5" x2="110.8" y2="86.5"/>
<line class="st0" x1="110.8" y1="86.5" x2="205.5" y2="86.5"/>
<line class="st0" x1="205.5" y1="86.5" x2="307.8" y2="86.5"/>
<text transform="matrix(1 0 0 1 43.3465 36.3842)" class="st1 st2 st3">Buy Side</text>
<text transform="matrix(1 0 0 1 145.2865 36.3842)" class="st1 st2 st3">CCed</text>
<text transform="matrix(1 0 0 1 242.2366 36.3842)" class="st1 st2 st3">CCing</text>
<text transform="matrix(1 0 0 1 31.9564 71.2845)" class="st4 st3">AfD per agent</text>
<text transform="matrix(1 0 0 1 122.4969 71.7865)" class="st4 st5">33% or $1,000</text>
<text transform="matrix(1 0 0 1 220.7493 71.7865)" class="st4 st5">33% or $1,000</text>
</svg>
