<?xml version="1.0" encoding="utf-8"?>
<!-- Generator: Adobe Illustrator 19.0.0, SVG Export Plug-In . SVG Version: 6.00 Build 0)  -->
<svg version="1.1" id="Layer_1" xmlns="http://www.w3.org/2000/svg" xmlns:xlink="http://www.w3.org/1999/xlink" x="0px" y="0px"
	 viewBox="-293 125.1 327.1 310.9" style="enable-background:new -293 125.1 327.1 310.9;" xml:space="preserve">
<style type="text/css">
	.st0{fill:none;stroke:#F1EFFD;stroke-width:3;stroke-linecap:round;stroke-linejoin:round;stroke-dasharray:0,5.977;}
	.st1{fill:none;stroke:#F1EFFD;stroke-width:3;stroke-linecap:round;stroke-linejoin:round;}
	.st2{clip-path:url(#SVGID_2_);fill:#FFFFFF;}
	.st3{clip-path:url(#SVGID_4_);fill:none;stroke:#371BE1;}
	.st4{fill:#FFFFFF;}
	.st5{fill:#371BE1;}
	.st6{font-family:'Montserrat-Bold';}
	.st7{font-size:10px;}
	.st8{clip-path:url(#SVGID_6_);fill:#FFFFFF;}
	.st9{clip-path:url(#SVGID_8_);fill:none;stroke:#371BE1;}
	.st10{clip-path:url(#SVGID_10_);fill:#FFFFFF;}
	.st11{clip-path:url(#SVGID_12_);fill:none;stroke:#371BE1;}
	.st12{clip-path:url(#SVGID_14_);fill:#FFFFFF;}
	.st13{clip-path:url(#SVGID_16_);fill:none;stroke:#371BE1;}
	.st14{clip-path:url(#SVGID_18_);fill:#FFFFFF;}
	.st15{clip-path:url(#SVGID_20_);fill:none;stroke:#371BE1;}
	.st16{clip-path:url(#SVGID_22_);fill:#FFFFFF;}
	.st17{clip-path:url(#SVGID_24_);fill:none;stroke:#371BE1;}
	.st18{font-family:'Montserrat-Regular';}
</style>
<line class="st0" x1="-276.8" y1="161.8" x2="-276.8" y2="391.9"/>
<path class="st1" d="M-276.8,394.9L-276.8,394.9 M-276.8,155.8L-276.8,155.8"/>
<g>
	<g>
		<defs>
			<rect id="SVGID_1_" x="-354.3" y="-63.2" width="595.3" height="841.9"/>
		</defs>
		<clipPath id="SVGID_2_">
			<use xlink:href="#SVGID_1_"  style="overflow:visible;"/>
		</clipPath>
		<path class="st2" d="M-276.8,166.8c6.9,0,12.4-5.6,12.4-12.4c0-6.9-5.6-12.4-12.4-12.4c-6.9,0-12.4,5.6-12.4,12.4
			S-283.6,166.8-276.8,166.8"/>
	</g>
	<g>
		<defs>
			<rect id="SVGID_3_" x="-354.3" y="-63.2" width="595.3" height="841.9"/>
		</defs>
		<clipPath id="SVGID_4_">
			<use xlink:href="#SVGID_3_"  style="overflow:visible;"/>
		</clipPath>
		<circle class="st3" cx="-276.8" cy="154.3" r="12.4"/>
	</g>
</g>
<rect x="-284.2" y="147.6" class="st4" width="14.9" height="14.6"/>
<text transform="matrix(1 0 0 1 -278.8358 157.2366)" class="st5 st6 st7">1</text>
<g>
	<g>
		<defs>
			<rect id="SVGID_5_" x="-354.3" y="-63.2" width="595.3" height="841.9"/>
		</defs>
		<clipPath id="SVGID_6_">
			<use xlink:href="#SVGID_5_"  style="overflow:visible;"/>
		</clipPath>
		<path class="st8" d="M-276.8,214.8c6.9,0,12.4-5.6,12.4-12.4c0-6.9-5.6-12.4-12.4-12.4c-6.9,0-12.4,5.6-12.4,12.4
			C-289.2,209.3-283.6,214.8-276.8,214.8"/>
	</g>
	<g>
		<defs>
			<rect id="SVGID_7_" x="-354.3" y="-63.2" width="595.3" height="841.9"/>
		</defs>
		<clipPath id="SVGID_8_">
			<use xlink:href="#SVGID_7_"  style="overflow:visible;"/>
		</clipPath>
		<circle class="st9" cx="-276.8" cy="202.4" r="12.4"/>
	</g>
</g>
<rect x="-284.2" y="195.6" class="st4" width="14.9" height="14.6"/>
<text transform="matrix(1 0 0 1 -279.7758 205.3152)" class="st5 st6 st7">2</text>
<g>
	<g>
		<defs>
			<rect id="SVGID_9_" x="-354.3" y="-63.2" width="595.3" height="841.9"/>
		</defs>
		<clipPath id="SVGID_10_">
			<use xlink:href="#SVGID_9_"  style="overflow:visible;"/>
		</clipPath>
		<path class="st10" d="M-276.8,262.9c6.9,0,12.4-5.6,12.4-12.4c0-6.9-5.6-12.4-12.4-12.4c-6.9,0-12.4,5.6-12.4,12.4
			C-289.2,257.4-283.6,262.9-276.8,262.9"/>
	</g>
	<g>
		<defs>
			<rect id="SVGID_11_" x="-354.3" y="-63.2" width="595.3" height="841.9"/>
		</defs>
		<clipPath id="SVGID_12_">
			<use xlink:href="#SVGID_11_"  style="overflow:visible;"/>
		</clipPath>
		<circle class="st11" cx="-276.8" cy="250.5" r="12.4"/>
	</g>
</g>
<rect x="-284.2" y="243.7" class="st4" width="14.9" height="14.6"/>
<text transform="matrix(1 0 0 1 -279.5658 253.3939)" class="st5 st6 st7">3</text>
<g>
	<g>
		<defs>
			<rect id="SVGID_13_" x="-354.3" y="-63.2" width="595.3" height="841.9"/>
		</defs>
		<clipPath id="SVGID_14_">
			<use xlink:href="#SVGID_13_"  style="overflow:visible;"/>
		</clipPath>
		<path class="st12" d="M-276.8,311c6.9,0,12.4-5.6,12.4-12.4c0-6.9-5.6-12.4-12.4-12.4c-6.9,0-12.4,5.6-12.4,12.4
			C-289.2,305.4-283.6,311-276.8,311"/>
	</g>
	<g>
		<defs>
			<rect id="SVGID_15_" x="-354.3" y="-63.2" width="595.3" height="841.9"/>
		</defs>
		<clipPath id="SVGID_16_">
			<use xlink:href="#SVGID_15_"  style="overflow:visible;"/>
		</clipPath>
		<circle class="st13" cx="-276.8" cy="298.6" r="12.4"/>
	</g>
</g>
<rect x="-284.2" y="291.8" class="st4" width="14.9" height="14.6"/>
<text transform="matrix(1 0 0 1 -279.9408 301.473)" class="st5 st6 st7">4</text>
<g>
	<g>
		<defs>
			<rect id="SVGID_17_" x="-354.3" y="-63.2" width="595.3" height="841.9"/>
		</defs>
		<clipPath id="SVGID_18_">
			<use xlink:href="#SVGID_17_"  style="overflow:visible;"/>
		</clipPath>
		<path class="st14" d="M-276.8,359.1c6.9,0,12.4-5.6,12.4-12.4c0-6.9-5.6-12.4-12.4-12.4c-6.9,0-12.4,5.6-12.4,12.4
			S-283.6,359.1-276.8,359.1"/>
	</g>
	<g>
		<defs>
			<rect id="SVGID_19_" x="-354.3" y="-63.2" width="595.3" height="841.9"/>
		</defs>
		<clipPath id="SVGID_20_">
			<use xlink:href="#SVGID_19_"  style="overflow:visible;"/>
		</clipPath>
		<circle class="st15" cx="-276.8" cy="346.7" r="12.4"/>
	</g>
</g>
<rect x="-284.2" y="339.9" class="st4" width="14.9" height="14.6"/>
<text transform="matrix(1 0 0 1 -279.7509 349.5516)" class="st5 st6 st7">5</text>
<g>
	<g>
		<defs>
			<rect id="SVGID_21_" x="-354.3" y="-63.2" width="595.3" height="841.9"/>
		</defs>
		<clipPath id="SVGID_22_">
			<use xlink:href="#SVGID_21_"  style="overflow:visible;"/>
		</clipPath>
		<path class="st16" d="M-276.8,407.2c6.9,0,12.4-5.6,12.4-12.4c0-6.9-5.6-12.4-12.4-12.4c-6.9,0-12.4,5.6-12.4,12.4
			S-283.6,407.2-276.8,407.2"/>
	</g>
	<g>
		<defs>
			<rect id="SVGID_23_" x="-354.3" y="-63.2" width="595.3" height="841.9"/>
		</defs>
		<clipPath id="SVGID_24_">
			<use xlink:href="#SVGID_23_"  style="overflow:visible;"/>
		</clipPath>
		<circle class="st17" cx="-276.8" cy="394.7" r="12.4"/>
	</g>
</g>
<rect x="-284.2" y="388" class="st4" width="14.9" height="14.6"/>
<text transform="matrix(1 0 0 1 -279.9359 397.6302)" class="st5 st6 st7">6</text>
<text transform="matrix(1 0 0 1 -250.6957 158.2005)" class="st5 st18 st7">Open up an </text>
<text transform="matrix(1 0 0 1 -188.6957 158.2005)" class="st5 st18 st7">A</text>
<text transform="matrix(1 0 0 1 -181.7957 158.2005)" class="st5 st18 st7">gent a</text>
<text transform="matrix(1 0 0 1 -149.4957 158.2005)" class="st5 st18 st7">c</text>
<text transform="matrix(1 0 0 1 -144.0957 158.2005)" class="st5 st18 st7">c</text>
<text transform="matrix(1 0 0 1 -138.6957 158.2005)" class="st5 st18 st7">ount on the si</text>
<text transform="matrix(1 0 0 1 -69.4957 158.2005)" class="st5 st18 st7">t</text>
<text transform="matrix(1 0 0 1 -65.4957 158.2005)" class="st5 st18 st7">e</text>
<text transform="matrix(1 0 0 1 -250.6957 206.0604)" class="st5 st18 st7">Pass K</text>
<text transform="matrix(1 0 0 1 -218.0957 206.0604)" class="st5 st18 st7">Y</text>
<text transform="matrix(1 0 0 1 -212.0957 206.0604)" class="st5 st18 st7">C &amp; AML</text>
<text transform="matrix(1 0 0 1 -250.6957 253.47)" class="st5 st18 st7">Pass our a</text>
<text transform="matrix(1 0 0 1 -199.6957 253.47)" class="st5 st18 st7">c</text>
<text transform="matrix(1 0 0 1 -194.2957 253.47)" class="st5 st18 st7">creditation pro</text>
<text transform="matrix(1 0 0 1 -119.6957 253.47)" class="st5 st18 st7">c</text>
<text transform="matrix(1 0 0 1 -114.2957 253.47)" class="st5 st18 st7">ess</text>
<text transform="matrix(1 0 0 1 -250.6957 298.3704)" class="st5 st18 st7">Sign the </text>
<text transform="matrix(1 0 0 1 -206.0957 298.3704)" class="st5 st18 st7">A</text>
<text transform="matrix(1 0 0 1 -199.1957 298.3704)" class="st5 st18 st7">gent &amp; </text>
<text transform="matrix(1 0 0 1 -163.4957 298.3704)" class="st5 st18 st7">C</text>
<text transform="matrix(1 0 0 1 -156.4957 298.3704)" class="st5 st18 st7">ommission </text>
<text transform="matrix(1 0 0 1 -98.1957 298.3704)" class="st5 st18 st7">A</text>
<text transform="matrix(1 0 0 1 -91.2957 298.3704)" class="st5 st18 st7">greements</text>
<text transform="matrix(1 0 0 1 -250.6957 348.74)" class="st5 st18 st7">P</text>
<text transform="matrix(1 0 0 1 -243.4957 348.74)" class="st5 st18 st7">a</text>
<text transform="matrix(1 0 0 1 -237.7957 348.74)" class="st5 st18 st7">y their </text>
<text transform="matrix(1 0 0 1 -203.5957 348.74)" class="st5 st18 st7">A</text>
<text transform="matrix(1 0 0 1 -196.5957 348.74)" class="st5 st18 st7">gent </text>
<text transform="matrix(1 0 0 1 -170.2957 348.74)" class="st5 st18 st7">f</text>
<text transform="matrix(1 0 0 1 -166.9957 348.74)" class="st5 st18 st7">ees in Medusa </text>
<text transform="matrix(1 0 0 1 -92.7957 348.74)" class="st5 st18 st7">t</text>
<text transform="matrix(1 0 0 1 -88.7957 348.74)" class="st5 st18 st7">o</text>
<text transform="matrix(1 0 0 1 -82.4957 348.74)" class="st5 st18 st7">k</text>
<text transform="matrix(1 0 0 1 -76.7957 348.74)" class="st5 st18 st7">ens </text>
<text transform="matrix(1 0 0 1 -250.6957 397.7503)" class="st5 st18 st7">Introdu</text>
<text transform="matrix(1 0 0 1 -213.0957 397.7503)" class="st5 st18 st7">c</text>
<text transform="matrix(1 0 0 1 -207.5957 397.7503)" class="st5 st18 st7">e a Client or another </text>
<text transform="matrix(1 0 0 1 -103.0957 397.7503)" class="st5 st18 st7">A</text>
<text transform="matrix(1 0 0 1 -96.0957 397.7503)" class="st5 st18 st7">gent </text>
<text transform="matrix(1 0 0 1 -69.7957 397.7503)" class="st5 st18 st7">t</text>
<text transform="matrix(1 0 0 1 -65.7957 397.7503)" class="st5 st18 st7">o the plat</text>
<text transform="matrix(1 0 0 1 -17.9957 397.7503)" class="st5 st18 st7">f</text>
<text transform="matrix(1 0 0 1 -14.6957 397.7503)" class="st5 st18 st7">orm</text>
</svg>
