<?xml version="1.0" encoding="utf-8"?>
<!-- Generator: Adobe Illustrator 19.0.0, SVG Export Plug-In . SVG Version: 6.00 Build 0)  -->
<svg version="1.1" id="Layer_1" xmlns="http://www.w3.org/2000/svg" xmlns:xlink="http://www.w3.org/1999/xlink" x="0px" y="0px"
	 viewBox="0 0 487.3 390.5" style="enable-background:new 0 0 487.3 390.5;" xml:space="preserve">
<style type="text/css">
	.st0{fill:#6B61E3;}
	.st1{fill:#361AE0;}
	.st2{fill:none;stroke:#D9D6FA;stroke-miterlimit:10;}
	.st3{fill:#371BE1;}
	.st4{font-family:'Avenir-Heavy';}
	.st5{font-size:9px;}
	.st6{font-family:'Avenir-Book';}
	.st7{font-size:10px;}
	.st8{fill:#FFFFFF;}
	.st9{letter-spacing:-1;}
</style>
<path class="st0" d="M254.2,313.1h212.1v29.5H254.2V313.1z M105.2,313.1h149v29.5h-149V313.1z M20.7,313.1h84.5v29.5H20.7V313.1z"/>
<path class="st1" d="M254.2,342.6h212.1v29.5H254.2V342.6z M105.2,342.6h149v29.5h-149V342.6z M20.7,342.6h84.5v29.5H20.7V342.6z"/>
<line class="st2" x1="20.2" y1="18.4" x2="105.2" y2="18.4"/>
<line class="st2" x1="20.7" y1="47.4" x2="20.7" y2="18.9"/>
<line class="st2" x1="105.2" y1="18.4" x2="254.2" y2="18.4"/>
<line class="st2" x1="105.2" y1="47.4" x2="105.2" y2="18.9"/>
<line class="st2" x1="254.2" y1="18.4" x2="466.8" y2="18.4"/>
<line class="st2" x1="254.2" y1="47.4" x2="254.2" y2="18.9"/>
<line class="st2" x1="466.3" y1="47.4" x2="466.3" y2="18.9"/>
<line class="st2" x1="20.2" y1="47.9" x2="105.2" y2="47.9"/>
<line class="st2" x1="20.7" y1="76.9" x2="20.7" y2="48.4"/>
<line class="st2" x1="105.2" y1="47.9" x2="254.2" y2="47.9"/>
<line class="st2" x1="105.2" y1="76.9" x2="105.2" y2="48.4"/>
<line class="st2" x1="254.2" y1="47.9" x2="466.8" y2="47.9"/>
<line class="st2" x1="254.2" y1="76.9" x2="254.2" y2="48.4"/>
<line class="st2" x1="466.3" y1="76.9" x2="466.3" y2="48.4"/>
<line class="st2" x1="20.2" y1="77.4" x2="105.2" y2="77.4"/>
<line class="st2" x1="20.7" y1="106.4" x2="20.7" y2="77.9"/>
<line class="st2" x1="105.2" y1="77.4" x2="254.2" y2="77.4"/>
<line class="st2" x1="105.2" y1="106.4" x2="105.2" y2="77.9"/>
<line class="st2" x1="254.2" y1="77.4" x2="466.8" y2="77.4"/>
<line class="st2" x1="254.2" y1="106.4" x2="254.2" y2="77.9"/>
<line class="st2" x1="466.3" y1="106.4" x2="466.3" y2="77.9"/>
<line class="st2" x1="20.2" y1="106.9" x2="105.2" y2="106.9"/>
<line class="st2" x1="20.7" y1="135.8" x2="20.7" y2="107.4"/>
<line class="st2" x1="105.2" y1="106.9" x2="254.2" y2="106.9"/>
<line class="st2" x1="105.2" y1="135.8" x2="105.2" y2="107.4"/>
<line class="st2" x1="254.2" y1="106.9" x2="466.8" y2="106.9"/>
<line class="st2" x1="254.2" y1="135.8" x2="254.2" y2="107.4"/>
<line class="st2" x1="466.3" y1="135.8" x2="466.3" y2="107.4"/>
<line class="st2" x1="20.2" y1="136.3" x2="105.2" y2="136.3"/>
<line class="st2" x1="20.7" y1="165.3" x2="20.7" y2="136.8"/>
<line class="st2" x1="105.2" y1="136.3" x2="254.2" y2="136.3"/>
<line class="st2" x1="105.2" y1="165.3" x2="105.2" y2="136.8"/>
<line class="st2" x1="254.2" y1="136.3" x2="466.8" y2="136.3"/>
<line class="st2" x1="254.2" y1="165.3" x2="254.2" y2="136.8"/>
<line class="st2" x1="466.3" y1="165.3" x2="466.3" y2="136.8"/>
<line class="st2" x1="20.2" y1="165.8" x2="105.2" y2="165.8"/>
<line class="st2" x1="20.7" y1="194.8" x2="20.7" y2="166.3"/>
<line class="st2" x1="105.2" y1="165.8" x2="254.2" y2="165.8"/>
<line class="st2" x1="105.2" y1="194.8" x2="105.2" y2="166.3"/>
<line class="st2" x1="254.2" y1="165.8" x2="466.8" y2="165.8"/>
<line class="st2" x1="254.2" y1="194.8" x2="254.2" y2="166.3"/>
<line class="st2" x1="466.3" y1="194.8" x2="466.3" y2="166.3"/>
<line class="st2" x1="20.2" y1="195.3" x2="105.2" y2="195.3"/>
<line class="st2" x1="20.7" y1="224.2" x2="20.7" y2="195.8"/>
<line class="st2" x1="105.2" y1="195.3" x2="254.2" y2="195.3"/>
<line class="st2" x1="105.2" y1="224.2" x2="105.2" y2="195.8"/>
<line class="st2" x1="254.2" y1="195.3" x2="466.8" y2="195.3"/>
<line class="st2" x1="254.2" y1="224.2" x2="254.2" y2="195.8"/>
<line class="st2" x1="466.3" y1="224.2" x2="466.3" y2="195.8"/>
<line class="st2" x1="20.2" y1="224.7" x2="105.2" y2="224.7"/>
<line class="st2" x1="20.7" y1="253.7" x2="20.7" y2="225.2"/>
<line class="st2" x1="105.2" y1="224.7" x2="254.2" y2="224.7"/>
<line class="st2" x1="105.2" y1="253.7" x2="105.2" y2="225.2"/>
<line class="st2" x1="254.2" y1="224.7" x2="466.8" y2="224.7"/>
<line class="st2" x1="254.2" y1="253.7" x2="254.2" y2="225.2"/>
<line class="st2" x1="466.3" y1="253.7" x2="466.3" y2="225.2"/>
<line class="st2" x1="20.2" y1="254.2" x2="105.2" y2="254.2"/>
<line class="st2" x1="20.7" y1="283.2" x2="20.7" y2="254.7"/>
<line class="st2" x1="105.2" y1="254.2" x2="254.2" y2="254.2"/>
<line class="st2" x1="105.2" y1="283.2" x2="105.2" y2="254.7"/>
<line class="st2" x1="254.2" y1="254.2" x2="466.8" y2="254.2"/>
<line class="st2" x1="254.2" y1="283.2" x2="254.2" y2="254.7"/>
<line class="st2" x1="466.3" y1="283.2" x2="466.3" y2="254.7"/>
<line class="st2" x1="20.2" y1="283.7" x2="105.2" y2="283.7"/>
<line class="st2" x1="20.7" y1="312.6" x2="20.7" y2="284.2"/>
<line class="st2" x1="105.2" y1="283.7" x2="254.2" y2="283.7"/>
<line class="st2" x1="105.2" y1="312.6" x2="105.2" y2="284.2"/>
<line class="st2" x1="254.2" y1="283.7" x2="466.8" y2="283.7"/>
<line class="st2" x1="254.2" y1="312.6" x2="254.2" y2="284.2"/>
<line class="st2" x1="466.3" y1="312.6" x2="466.3" y2="284.2"/>
<line class="st2" x1="20.2" y1="313.1" x2="105.2" y2="313.1"/>
<line class="st2" x1="20.7" y1="342.1" x2="20.7" y2="313.6"/>
<line class="st2" x1="105.2" y1="313.1" x2="254.2" y2="313.1"/>
<line class="st2" x1="105.2" y1="342.1" x2="105.2" y2="313.6"/>
<line class="st2" x1="254.2" y1="313.1" x2="466.8" y2="313.1"/>
<line class="st2" x1="254.2" y1="342.1" x2="254.2" y2="313.6"/>
<line class="st2" x1="466.3" y1="342.1" x2="466.3" y2="313.6"/>
<line class="st2" x1="20.2" y1="342.6" x2="105.2" y2="342.6"/>
<line class="st2" x1="20.7" y1="371.6" x2="20.7" y2="343.1"/>
<line class="st2" x1="105.2" y1="342.6" x2="254.2" y2="342.6"/>
<line class="st2" x1="105.2" y1="371.6" x2="105.2" y2="343.1"/>
<line class="st2" x1="254.2" y1="342.6" x2="466.8" y2="342.6"/>
<line class="st2" x1="254.2" y1="371.6" x2="254.2" y2="343.1"/>
<line class="st2" x1="466.3" y1="371.6" x2="466.3" y2="343.1"/>
<line class="st2" x1="20.2" y1="372.1" x2="105.2" y2="372.1"/>
<line class="st2" x1="105.2" y1="372.1" x2="254.2" y2="372.1"/>
<line class="st2" x1="254.2" y1="372.1" x2="466.8" y2="372.1"/>
<text transform="matrix(1 0 0 1 162.3615 37.6811)"><tspan x="0" y="0" class="st3 st4 st5">Mon</tspan><tspan x="19" y="0" class="st3 st4 st5">t</tspan><tspan x="22.5" y="0" class="st3 st4 st5">hly</tspan></text>
<text transform="matrix(1 0 0 1 347.5998 37.6811)"><tspan x="0" y="0" class="st3 st4 st5">Y</tspan><tspan x="4.9" y="0" class="st3 st4 st5">early</tspan></text>
<text transform="matrix(1 0 0 1 35.7937 67.6504)" class="st6 st7">Success Fee</text>
<text transform="matrix(1 0 0 1 171.3635 67.6504)" class="st6 st7">$44 </text>
<text transform="matrix(1 0 0 1 349.1633 67.6504)" class="st6 st7">$444</text>
<text transform="matrix(1 0 0 1 49.3337 97.1206)" class="st6 st7">DoS 1</text>
<text transform="matrix(1 0 0 1 152.8537 97.1206)" class="st6 st7">8% or $3.52</text>
<text transform="matrix(1 0 0 1 330.6535 97.1206)" class="st6 st7">8% or $35.52</text>
<text transform="matrix(1 0 0 1 49.3435 126.5908)" class="st6 st7">DoS 2</text>
<text transform="matrix(1 0 0 1 152.8635 126.5908)" class="st6 st7">8% or $3.52</text>
<text transform="matrix(1 0 0 1 330.6633 126.5908)" class="st6 st7">8% or $35.52</text>
<text transform="matrix(1 0 0 1 49.3537 156.0605)" class="st6 st7">DoS 3</text>
<text transform="matrix(1 0 0 1 152.8737 156.0605)" class="st6 st7">8% or $3.52</text>
<text transform="matrix(1 0 0 1 330.673 156.0605)" class="st6 st7">8% or $35.52</text>
<text transform="matrix(1 0 0 1 49.3635 185.5303)" class="st6 st7">DoS 4</text>
<text transform="matrix(1 0 0 1 152.8835 185.5303)" class="st6 st7">8% or $3.52</text>
<text transform="matrix(1 0 0 1 330.6838 185.5303)" class="st6 st7">8% or $35.52</text>
<text transform="matrix(1 0 0 1 49.3737 215.001)" class="st6 st7">DoS 5</text>
<text transform="matrix(1 0 0 1 152.8938 215.001)" class="st6 st7">8% or $3.52</text>
<text transform="matrix(1 0 0 1 330.6935 215.001)" class="st6 st7">8% or $35.52</text>
<text transform="matrix(1 0 0 1 49.3835 244.4707)" class="st6 st7">DoS 6</text>
<text transform="matrix(1 0 0 1 152.9035 244.4707)" class="st6 st7">8% or $3.52</text>
<text transform="matrix(1 0 0 1 330.7033 244.4707)" class="st6 st7">8% or $35.52</text>
<text transform="matrix(1 0 0 1 49.3937 273.9404)" class="st6 st7">DoS 7</text>
<text transform="matrix(1 0 0 1 152.9138 273.9404)" class="st6 st7">8% or $3.52</text>
<text transform="matrix(1 0 0 1 330.7131 273.9404)" class="st6 st7">8% or $35.52</text>
<text transform="matrix(1 0 0 1 49.4035 303.4101)" class="st6 st7">DoS 8</text>
<text transform="matrix(1 0 0 1 152.9235 303.4101)" class="st6 st7">8% or $3.52</text>
<text transform="matrix(1 0 0 1 330.7238 303.4101)" class="st6 st7">8% or $35.52</text>
<text transform="matrix(1 0 0 1 51.7336 332.8808)"><tspan x="0" y="0" class="st8 st4 st7 st9">T</tspan><tspan x="4.6" y="0" class="st8 st4 st7">otal</tspan></text>
<text transform="matrix(1 0 0 1 151.5734 332.8808)" class="st8 st4 st7">64% $28.16</text>
<text transform="matrix(1 0 0 1 322.7131 332.8808)" class="st8 st4 st7">64% or $284.16</text>
<text transform="matrix(1 0 0 1 37.8337 362.3506)" class="st8 st6 st7">Bonus Pool</text>
<text transform="matrix(1 0 0 1 153.3835 362.3506)" class="st8 st6 st7">36% $15.84</text>
<text transform="matrix(1 0 0 1 325.1633 362.3506)" class="st8 st6 st7">36% or $159.84</text>
<path class="st0" d="M254.2,313.1h212.1v29.5H254.2V313.1z M105.2,313.1h149v29.5h-149V313.1z M20.7,313.1h84.5v29.5H20.7V313.1z"/>
<path class="st1" d="M254.2,342.6h212.1v29.5H254.2V342.6z M105.2,342.6h149v29.5h-149V342.6z M20.7,342.6h84.5v29.5H20.7V342.6z"/>
<line class="st2" x1="20.2" y1="18.4" x2="105.2" y2="18.4"/>
<line class="st2" x1="20.7" y1="47.4" x2="20.7" y2="18.9"/>
<line class="st2" x1="105.2" y1="18.4" x2="254.2" y2="18.4"/>
<line class="st2" x1="105.2" y1="47.4" x2="105.2" y2="18.9"/>
<line class="st2" x1="254.2" y1="18.4" x2="466.8" y2="18.4"/>
<line class="st2" x1="254.2" y1="47.4" x2="254.2" y2="18.9"/>
<line class="st2" x1="466.3" y1="47.4" x2="466.3" y2="18.9"/>
<line class="st2" x1="20.2" y1="47.9" x2="105.2" y2="47.9"/>
<line class="st2" x1="20.7" y1="76.9" x2="20.7" y2="48.4"/>
<line class="st2" x1="105.2" y1="47.9" x2="254.2" y2="47.9"/>
<line class="st2" x1="105.2" y1="76.9" x2="105.2" y2="48.4"/>
<line class="st2" x1="254.2" y1="47.9" x2="466.8" y2="47.9"/>
<line class="st2" x1="254.2" y1="76.9" x2="254.2" y2="48.4"/>
<line class="st2" x1="466.3" y1="76.9" x2="466.3" y2="48.4"/>
<line class="st2" x1="20.2" y1="77.4" x2="105.2" y2="77.4"/>
<line class="st2" x1="20.7" y1="106.4" x2="20.7" y2="77.9"/>
<line class="st2" x1="105.2" y1="77.4" x2="254.2" y2="77.4"/>
<line class="st2" x1="105.2" y1="106.4" x2="105.2" y2="77.9"/>
<line class="st2" x1="254.2" y1="77.4" x2="466.8" y2="77.4"/>
<line class="st2" x1="254.2" y1="106.4" x2="254.2" y2="77.9"/>
<line class="st2" x1="466.3" y1="106.4" x2="466.3" y2="77.9"/>
<line class="st2" x1="20.2" y1="106.9" x2="105.2" y2="106.9"/>
<line class="st2" x1="20.7" y1="135.8" x2="20.7" y2="107.4"/>
<line class="st2" x1="105.2" y1="106.9" x2="254.2" y2="106.9"/>
<line class="st2" x1="105.2" y1="135.8" x2="105.2" y2="107.4"/>
<line class="st2" x1="254.2" y1="106.9" x2="466.8" y2="106.9"/>
<line class="st2" x1="254.2" y1="135.8" x2="254.2" y2="107.4"/>
<line class="st2" x1="466.3" y1="135.8" x2="466.3" y2="107.4"/>
<line class="st2" x1="20.2" y1="136.3" x2="105.2" y2="136.3"/>
<line class="st2" x1="20.7" y1="165.3" x2="20.7" y2="136.8"/>
<line class="st2" x1="105.2" y1="136.3" x2="254.2" y2="136.3"/>
<line class="st2" x1="105.2" y1="165.3" x2="105.2" y2="136.8"/>
<line class="st2" x1="254.2" y1="136.3" x2="466.8" y2="136.3"/>
<line class="st2" x1="254.2" y1="165.3" x2="254.2" y2="136.8"/>
<line class="st2" x1="466.3" y1="165.3" x2="466.3" y2="136.8"/>
<line class="st2" x1="20.2" y1="165.8" x2="105.2" y2="165.8"/>
<line class="st2" x1="20.7" y1="194.8" x2="20.7" y2="166.3"/>
<line class="st2" x1="105.2" y1="165.8" x2="254.2" y2="165.8"/>
<line class="st2" x1="105.2" y1="194.8" x2="105.2" y2="166.3"/>
<line class="st2" x1="254.2" y1="165.8" x2="466.8" y2="165.8"/>
<line class="st2" x1="254.2" y1="194.8" x2="254.2" y2="166.3"/>
<line class="st2" x1="466.3" y1="194.8" x2="466.3" y2="166.3"/>
<line class="st2" x1="20.2" y1="195.3" x2="105.2" y2="195.3"/>
<line class="st2" x1="20.7" y1="224.2" x2="20.7" y2="195.8"/>
<line class="st2" x1="105.2" y1="195.3" x2="254.2" y2="195.3"/>
<line class="st2" x1="105.2" y1="224.2" x2="105.2" y2="195.8"/>
<line class="st2" x1="254.2" y1="195.3" x2="466.8" y2="195.3"/>
<line class="st2" x1="254.2" y1="224.2" x2="254.2" y2="195.8"/>
<line class="st2" x1="466.3" y1="224.2" x2="466.3" y2="195.8"/>
<line class="st2" x1="20.2" y1="224.7" x2="105.2" y2="224.7"/>
<line class="st2" x1="20.7" y1="253.7" x2="20.7" y2="225.2"/>
<line class="st2" x1="105.2" y1="224.7" x2="254.2" y2="224.7"/>
<line class="st2" x1="105.2" y1="253.7" x2="105.2" y2="225.2"/>
<line class="st2" x1="254.2" y1="224.7" x2="466.8" y2="224.7"/>
<line class="st2" x1="254.2" y1="253.7" x2="254.2" y2="225.2"/>
<line class="st2" x1="466.3" y1="253.7" x2="466.3" y2="225.2"/>
<line class="st2" x1="20.2" y1="254.2" x2="105.2" y2="254.2"/>
<line class="st2" x1="20.7" y1="283.2" x2="20.7" y2="254.7"/>
<line class="st2" x1="105.2" y1="254.2" x2="254.2" y2="254.2"/>
<line class="st2" x1="105.2" y1="283.2" x2="105.2" y2="254.7"/>
<line class="st2" x1="254.2" y1="254.2" x2="466.8" y2="254.2"/>
<line class="st2" x1="254.2" y1="283.2" x2="254.2" y2="254.7"/>
<line class="st2" x1="466.3" y1="283.2" x2="466.3" y2="254.7"/>
<line class="st2" x1="20.2" y1="283.7" x2="105.2" y2="283.7"/>
<line class="st2" x1="20.7" y1="312.6" x2="20.7" y2="284.2"/>
<line class="st2" x1="105.2" y1="283.7" x2="254.2" y2="283.7"/>
<line class="st2" x1="105.2" y1="312.6" x2="105.2" y2="284.2"/>
<line class="st2" x1="254.2" y1="283.7" x2="466.8" y2="283.7"/>
<line class="st2" x1="254.2" y1="312.6" x2="254.2" y2="284.2"/>
<line class="st2" x1="466.3" y1="312.6" x2="466.3" y2="284.2"/>
<line class="st2" x1="20.2" y1="313.1" x2="105.2" y2="313.1"/>
<line class="st2" x1="20.7" y1="342.1" x2="20.7" y2="313.6"/>
<line class="st2" x1="105.2" y1="313.1" x2="254.2" y2="313.1"/>
<line class="st2" x1="105.2" y1="342.1" x2="105.2" y2="313.6"/>
<line class="st2" x1="254.2" y1="313.1" x2="466.8" y2="313.1"/>
<line class="st2" x1="254.2" y1="342.1" x2="254.2" y2="313.6"/>
<line class="st2" x1="466.3" y1="342.1" x2="466.3" y2="313.6"/>
<line class="st2" x1="20.2" y1="342.6" x2="105.2" y2="342.6"/>
<line class="st2" x1="20.7" y1="371.6" x2="20.7" y2="343.1"/>
<line class="st2" x1="105.2" y1="342.6" x2="254.2" y2="342.6"/>
<line class="st2" x1="105.2" y1="371.6" x2="105.2" y2="343.1"/>
<line class="st2" x1="254.2" y1="342.6" x2="466.8" y2="342.6"/>
<line class="st2" x1="254.2" y1="371.6" x2="254.2" y2="343.1"/>
<line class="st2" x1="466.3" y1="371.6" x2="466.3" y2="343.1"/>
<line class="st2" x1="20.2" y1="372.1" x2="105.2" y2="372.1"/>
<line class="st2" x1="105.2" y1="372.1" x2="254.2" y2="372.1"/>
<line class="st2" x1="254.2" y1="372.1" x2="466.8" y2="372.1"/>
<text transform="matrix(1 0 0 1 162.3615 37.6811)"><tspan x="0" y="0" class="st3 st4 st5">Mon</tspan><tspan x="19" y="0" class="st3 st4 st5">t</tspan><tspan x="22.5" y="0" class="st3 st4 st5">hly</tspan></text>
<text transform="matrix(1 0 0 1 347.5998 37.6811)"><tspan x="0" y="0" class="st3 st4 st5">Y</tspan><tspan x="4.9" y="0" class="st3 st4 st5">early</tspan></text>
<text transform="matrix(1 0 0 1 35.7937 67.6504)" class="st6 st7">Success Fee</text>
<text transform="matrix(1 0 0 1 171.3635 67.6504)" class="st6 st7">$44 </text>
<text transform="matrix(1 0 0 1 349.1633 67.6504)" class="st6 st7">$444</text>
<text transform="matrix(1 0 0 1 49.3337 97.1206)" class="st6 st7">DoS 1</text>
<text transform="matrix(1 0 0 1 152.8537 97.1206)" class="st6 st7">8% or $3.52</text>
<text transform="matrix(1 0 0 1 330.6535 97.1206)" class="st6 st7">8% or $35.52</text>
<text transform="matrix(1 0 0 1 49.3435 126.5908)" class="st6 st7">DoS 2</text>
<text transform="matrix(1 0 0 1 152.8635 126.5908)" class="st6 st7">8% or $3.52</text>
<text transform="matrix(1 0 0 1 330.6633 126.5908)" class="st6 st7">8% or $35.52</text>
<text transform="matrix(1 0 0 1 49.3537 156.0605)" class="st6 st7">DoS 3</text>
<text transform="matrix(1 0 0 1 152.8737 156.0605)" class="st6 st7">8% or $3.52</text>
<text transform="matrix(1 0 0 1 330.673 156.0605)" class="st6 st7">8% or $35.52</text>
<text transform="matrix(1 0 0 1 49.3635 185.5303)" class="st6 st7">DoS 4</text>
<text transform="matrix(1 0 0 1 152.8835 185.5303)" class="st6 st7">8% or $3.52</text>
<text transform="matrix(1 0 0 1 330.6838 185.5303)" class="st6 st7">8% or $35.52</text>
<text transform="matrix(1 0 0 1 49.3737 215.001)" class="st6 st7">DoS 5</text>
<text transform="matrix(1 0 0 1 152.8938 215.001)" class="st6 st7">8% or $3.52</text>
<text transform="matrix(1 0 0 1 330.6935 215.001)" class="st6 st7">8% or $35.52</text>
<text transform="matrix(1 0 0 1 49.3835 244.4707)" class="st6 st7">DoS 6</text>
<text transform="matrix(1 0 0 1 152.9035 244.4707)" class="st6 st7">8% or $3.52</text>
<text transform="matrix(1 0 0 1 330.7033 244.4707)" class="st6 st7">8% or $35.52</text>
<text transform="matrix(1 0 0 1 49.3937 273.9404)" class="st6 st7">DoS 7</text>
<text transform="matrix(1 0 0 1 152.9138 273.9404)" class="st6 st7">8% or $3.52</text>
<text transform="matrix(1 0 0 1 330.7131 273.9404)" class="st6 st7">8% or $35.52</text>
<text transform="matrix(1 0 0 1 49.4035 303.4101)" class="st6 st7">DoS 8</text>
<text transform="matrix(1 0 0 1 152.9235 303.4101)" class="st6 st7">8% or $3.52</text>
<text transform="matrix(1 0 0 1 330.7238 303.4101)" class="st6 st7">8% or $35.52</text>
<text transform="matrix(1 0 0 1 51.7336 332.8808)"><tspan x="0" y="0" class="st8 st4 st7 st9">T</tspan><tspan x="4.6" y="0" class="st8 st4 st7">otal</tspan></text>
<text transform="matrix(1 0 0 1 151.5734 332.8808)" class="st8 st4 st7">64% $28.16</text>
<text transform="matrix(1 0 0 1 322.7131 332.8808)" class="st8 st4 st7">64% or $284.16</text>
<text transform="matrix(1 0 0 1 37.8337 362.3506)" class="st8 st6 st7">Bonus Pool</text>
<text transform="matrix(1 0 0 1 153.3835 362.3506)" class="st8 st6 st7">36% $15.84</text>
<text transform="matrix(1 0 0 1 325.1633 362.3506)" class="st8 st6 st7">36% or $159.84</text>
</svg>
