<?xml version="1.0" encoding="utf-8"?>
<!-- Generator: Adobe Illustrator 19.0.0, SVG Export Plug-In . SVG Version: 6.00 Build 0)  -->
<svg version="1.1" id="Layer_1" xmlns="http://www.w3.org/2000/svg" xmlns:xlink="http://www.w3.org/1999/xlink" x="0px" y="0px"
	 viewBox="0 0 484.6 389.6" style="enable-background:new 0 0 484.6 389.6;" xml:space="preserve">
<style type="text/css">
	.st0{fill:#6B61E3;}
	.st1{fill:#361AE0;}
	.st2{fill:none;stroke:#D9D6FA;stroke-miterlimit:10;}
	.st3{fill:#371BE1;}
	.st4{font-family:'Avenir-Heavy';}
	.st5{font-size:9px;}
	.st6{font-family:'Avenir-Book';}
	.st7{font-size:10px;}
	.st8{fill:#FFFFFF;}
	.st9{letter-spacing:-1;}
</style>
<path class="st0" d="M252.4,313.3h212.1v29.5H252.4V313.3z M103.4,313.3h149v29.5h-149V313.3z M18.9,313.3h84.5v29.5H18.9V313.3z"/>
<path class="st1" d="M252.4,342.8h212.1v29.5H252.4V342.8z M103.4,342.8h149v29.5h-149V342.8z M18.9,342.8h84.5v29.5H18.9V342.8z"/>
<line class="st2" x1="18.4" y1="18.6" x2="103.4" y2="18.6"/>
<line class="st2" x1="18.9" y1="47.6" x2="18.9" y2="19.1"/>
<line class="st2" x1="103.4" y1="18.6" x2="252.4" y2="18.6"/>
<line class="st2" x1="103.4" y1="47.6" x2="103.4" y2="19.1"/>
<line class="st2" x1="252.4" y1="18.6" x2="465" y2="18.6"/>
<line class="st2" x1="252.4" y1="47.6" x2="252.4" y2="19.1"/>
<line class="st2" x1="464.5" y1="47.6" x2="464.5" y2="19.1"/>
<line class="st2" x1="18.4" y1="48.1" x2="103.4" y2="48.1"/>
<line class="st2" x1="18.9" y1="77.1" x2="18.9" y2="48.6"/>
<line class="st2" x1="103.4" y1="48.1" x2="252.4" y2="48.1"/>
<line class="st2" x1="103.4" y1="77.1" x2="103.4" y2="48.6"/>
<line class="st2" x1="252.4" y1="48.1" x2="465" y2="48.1"/>
<line class="st2" x1="252.4" y1="77.1" x2="252.4" y2="48.6"/>
<line class="st2" x1="464.5" y1="77.1" x2="464.5" y2="48.6"/>
<line class="st2" x1="18.4" y1="77.6" x2="103.4" y2="77.6"/>
<line class="st2" x1="18.9" y1="106.6" x2="18.9" y2="78.1"/>
<line class="st2" x1="103.4" y1="77.6" x2="252.4" y2="77.6"/>
<line class="st2" x1="103.4" y1="106.6" x2="103.4" y2="78.1"/>
<line class="st2" x1="252.4" y1="77.6" x2="465" y2="77.6"/>
<line class="st2" x1="252.4" y1="106.6" x2="252.4" y2="78.1"/>
<line class="st2" x1="464.5" y1="106.6" x2="464.5" y2="78.1"/>
<line class="st2" x1="18.4" y1="107.1" x2="103.4" y2="107.1"/>
<line class="st2" x1="18.9" y1="136" x2="18.9" y2="107.6"/>
<line class="st2" x1="103.4" y1="107.1" x2="252.4" y2="107.1"/>
<line class="st2" x1="103.4" y1="136" x2="103.4" y2="107.6"/>
<line class="st2" x1="252.4" y1="107.1" x2="465" y2="107.1"/>
<line class="st2" x1="252.4" y1="136" x2="252.4" y2="107.6"/>
<line class="st2" x1="464.5" y1="136" x2="464.5" y2="107.6"/>
<line class="st2" x1="18.4" y1="136.5" x2="103.4" y2="136.5"/>
<line class="st2" x1="18.9" y1="165.5" x2="18.9" y2="137"/>
<line class="st2" x1="103.4" y1="136.5" x2="252.4" y2="136.5"/>
<line class="st2" x1="103.4" y1="165.5" x2="103.4" y2="137"/>
<line class="st2" x1="252.4" y1="136.5" x2="465" y2="136.5"/>
<line class="st2" x1="252.4" y1="165.5" x2="252.4" y2="137"/>
<line class="st2" x1="464.5" y1="165.5" x2="464.5" y2="137"/>
<line class="st2" x1="18.4" y1="166" x2="103.4" y2="166"/>
<line class="st2" x1="18.9" y1="195" x2="18.9" y2="166.5"/>
<line class="st2" x1="103.4" y1="166" x2="252.4" y2="166"/>
<line class="st2" x1="103.4" y1="195" x2="103.4" y2="166.5"/>
<line class="st2" x1="252.4" y1="166" x2="465" y2="166"/>
<line class="st2" x1="252.4" y1="195" x2="252.4" y2="166.5"/>
<line class="st2" x1="464.5" y1="195" x2="464.5" y2="166.5"/>
<line class="st2" x1="18.4" y1="195.5" x2="103.4" y2="195.5"/>
<line class="st2" x1="18.9" y1="224.4" x2="18.9" y2="196"/>
<line class="st2" x1="103.4" y1="195.5" x2="252.4" y2="195.5"/>
<line class="st2" x1="103.4" y1="224.4" x2="103.4" y2="196"/>
<line class="st2" x1="252.4" y1="195.5" x2="465" y2="195.5"/>
<line class="st2" x1="252.4" y1="224.4" x2="252.4" y2="196"/>
<line class="st2" x1="464.5" y1="224.4" x2="464.5" y2="196"/>
<line class="st2" x1="18.4" y1="224.9" x2="103.4" y2="224.9"/>
<line class="st2" x1="18.9" y1="253.9" x2="18.9" y2="225.4"/>
<line class="st2" x1="103.4" y1="224.9" x2="252.4" y2="224.9"/>
<line class="st2" x1="103.4" y1="253.9" x2="103.4" y2="225.4"/>
<line class="st2" x1="252.4" y1="224.9" x2="465" y2="224.9"/>
<line class="st2" x1="252.4" y1="253.9" x2="252.4" y2="225.4"/>
<line class="st2" x1="464.5" y1="253.9" x2="464.5" y2="225.4"/>
<line class="st2" x1="18.4" y1="254.4" x2="103.4" y2="254.4"/>
<line class="st2" x1="18.9" y1="283.4" x2="18.9" y2="254.9"/>
<line class="st2" x1="103.4" y1="254.4" x2="252.4" y2="254.4"/>
<line class="st2" x1="103.4" y1="283.4" x2="103.4" y2="254.9"/>
<line class="st2" x1="252.4" y1="254.4" x2="465" y2="254.4"/>
<line class="st2" x1="252.4" y1="283.4" x2="252.4" y2="254.9"/>
<line class="st2" x1="464.5" y1="283.4" x2="464.5" y2="254.9"/>
<line class="st2" x1="18.4" y1="283.9" x2="103.4" y2="283.9"/>
<line class="st2" x1="18.9" y1="312.8" x2="18.9" y2="284.4"/>
<line class="st2" x1="103.4" y1="283.9" x2="252.4" y2="283.9"/>
<line class="st2" x1="103.4" y1="312.8" x2="103.4" y2="284.4"/>
<line class="st2" x1="252.4" y1="283.9" x2="465" y2="283.9"/>
<line class="st2" x1="252.4" y1="312.8" x2="252.4" y2="284.4"/>
<line class="st2" x1="464.5" y1="312.8" x2="464.5" y2="284.4"/>
<line class="st2" x1="18.4" y1="313.3" x2="103.4" y2="313.3"/>
<line class="st2" x1="18.9" y1="342.3" x2="18.9" y2="313.8"/>
<line class="st2" x1="103.4" y1="313.3" x2="252.4" y2="313.3"/>
<line class="st2" x1="103.4" y1="342.3" x2="103.4" y2="313.8"/>
<line class="st2" x1="252.4" y1="313.3" x2="465" y2="313.3"/>
<line class="st2" x1="252.4" y1="342.3" x2="252.4" y2="313.8"/>
<line class="st2" x1="464.5" y1="342.3" x2="464.5" y2="313.8"/>
<line class="st2" x1="18.4" y1="342.8" x2="103.4" y2="342.8"/>
<line class="st2" x1="18.9" y1="371.8" x2="18.9" y2="343.3"/>
<line class="st2" x1="103.4" y1="342.8" x2="252.4" y2="342.8"/>
<line class="st2" x1="103.4" y1="371.8" x2="103.4" y2="343.3"/>
<line class="st2" x1="252.4" y1="342.8" x2="465" y2="342.8"/>
<line class="st2" x1="252.4" y1="371.8" x2="252.4" y2="343.3"/>
<line class="st2" x1="464.5" y1="371.8" x2="464.5" y2="343.3"/>
<line class="st2" x1="18.4" y1="372.3" x2="103.4" y2="372.3"/>
<line class="st2" x1="103.4" y1="372.3" x2="252.4" y2="372.3"/>
<line class="st2" x1="252.4" y1="372.3" x2="465" y2="372.3"/>
<text transform="matrix(1 0 0 1 168.4803 37.8812)" class="st3 st4 st5">33%</text>
<text transform="matrix(1 0 0 1 349.0565 37.8812)" class="st3 st4 st5">66%</text>
<text transform="matrix(1 0 0 1 28.5389 67.8509)" class="st6 st7">AfD per Agent</text>
<text transform="matrix(1 0 0 1 162.5989 67.8509)" class="st6 st7">$1,000</text>
<text transform="matrix(1 0 0 1 343.1785 67.8509)" class="st6 st7">$2,000</text>
<text transform="matrix(1 0 0 1 47.5189 97.3211)" class="st6 st7">DoS 1</text>
<text transform="matrix(1 0 0 1 155.2088 97.3211)" class="st6 st7">8% or $80</text>
<text transform="matrix(1 0 0 1 333.0086 97.3211)" class="st6 st7">8% or $160</text>
<text transform="matrix(1 0 0 1 47.5286 126.7908)" class="st6 st7">DoS 2</text>
<text transform="matrix(1 0 0 1 155.2186 126.7908)" class="st6 st7">8% or $80</text>
<text transform="matrix(1 0 0 1 333.0184 126.7908)" class="st6 st7">8% or $160</text>
<text transform="matrix(1 0 0 1 47.5389 156.2611)" class="st6 st7">DoS 3</text>
<text transform="matrix(1 0 0 1 155.2288 156.2611)" class="st6 st7">8% or $80</text>
<text transform="matrix(1 0 0 1 333.0291 156.2611)" class="st6 st7">8% or $160</text>
<text transform="matrix(1 0 0 1 47.5486 185.7308)" class="st6 st7">DoS 4</text>
<text transform="matrix(1 0 0 1 155.2386 185.7308)" class="st6 st7">8% or $80</text>
<text transform="matrix(1 0 0 1 333.0389 185.7308)" class="st6 st7">8% or $160</text>
<text transform="matrix(1 0 0 1 47.5589 215.201)" class="st6 st7">DoS 5</text>
<text transform="matrix(1 0 0 1 155.2488 215.201)" class="st6 st7">8% or $80</text>
<text transform="matrix(1 0 0 1 333.0486 215.201)" class="st6 st7">8% or $160</text>
<text transform="matrix(1 0 0 1 47.5687 244.6707)" class="st6 st7">DoS 6</text>
<text transform="matrix(1 0 0 1 155.2586 244.6707)" class="st6 st7">8% or $80</text>
<text transform="matrix(1 0 0 1 333.0584 244.6707)" class="st6 st7">8% or $160</text>
<text transform="matrix(1 0 0 1 47.5789 274.141)" class="st6 st7">DoS 7</text>
<text transform="matrix(1 0 0 1 155.2689 274.141)" class="st6 st7">8% or $80</text>
<text transform="matrix(1 0 0 1 333.0692 274.141)" class="st6 st7">8% or $160</text>
<text transform="matrix(1 0 0 1 47.5887 303.6107)" class="st6 st7">DoS 8</text>
<text transform="matrix(1 0 0 1 155.2786 303.6107)" class="st6 st7">8% or $80</text>
<text transform="matrix(1 0 0 1 333.0789 303.6107)" class="st6 st7">8% or $160</text>
<text transform="matrix(1 0 0 1 49.9188 333.0814)"><tspan x="0" y="0" class="st8 st4 st7 st9">T</tspan><tspan x="4.6" y="0" class="st8 st4 st7">otal</tspan></text>
<text transform="matrix(1 0 0 1 147.7191 333.0814)" class="st8 st4 st7">64% or $640</text>
<text transform="matrix(1 0 0 1 323.8592 333.0814)" class="st8 st4 st7">64% or $1,280</text>
<text transform="matrix(1 0 0 1 36.0189 362.5511)" class="st8 st6 st7">Bonus Pool</text>
<text transform="matrix(1 0 0 1 149.7191 362.5511)" class="st8 st6 st7">36% or $360</text>
<text transform="matrix(1 0 0 1 330.2986 362.5511)" class="st8 st6 st7">3</text>
<text transform="matrix(1 0 0 1 335.8592 362.5511)" class="st8 st6 st7">6% or $720</text>
</svg>
