<?xml version="1.0" encoding="utf-8"?>
<!-- Generator: Adobe Illustrator 19.0.0, SVG Export Plug-In . SVG Version: 6.00 Build 0)  -->
<svg version="1.1" id="Layer_1" xmlns="http://www.w3.org/2000/svg" xmlns:xlink="http://www.w3.org/1999/xlink" x="0px" y="0px"
	 viewBox="0 0 141 353" style="enable-background:new 0 0 141 353;" xml:space="preserve">
<style type="text/css">
	.st0{clip-path:url(#XMLID_32_);}
	.st1{opacity:0.5;clip-path:url(#XMLID_33_);}
	.st2{clip-path:url(#XMLID_34_);fill:#F2F0FC;}
	.st3{fill:#371BE1;}
	.st4{font-family:'Montserrat-Bold';}
	.st5{font-size:9px;}
</style>
<g id="XMLID_2_">
	<defs>
		<rect id="XMLID_3_" x="-1.9" y="-28.8" width="595.3" height="841.9"/>
	</defs>
	<clipPath id="XMLID_32_">
		<use xlink:href="#XMLID_3_"  style="overflow:visible;"/>
	</clipPath>
	<g id="XMLID_8_" class="st0">
		<defs>
			<rect id="XMLID_9_" x="-1.9" y="-28.8" width="595.3" height="841.9"/>
		</defs>
		<clipPath id="XMLID_33_">
			<use xlink:href="#XMLID_9_"  style="overflow:visible;"/>
		</clipPath>
		<g id="XMLID_10_" class="st1">
			<g id="XMLID_11_">
				<defs>
					<rect id="XMLID_12_" x="-121.1" y="1.8" width="271.2" height="347.8"/>
				</defs>
				<clipPath id="XMLID_34_">
					<use xlink:href="#XMLID_12_"  style="overflow:visible;"/>
				</clipPath>
				<path id="XMLID_18_" class="st2" d="M14.5,87.5c7.3,0,13.2-5.9,13.2-13.2c0-7.3-5.9-13.2-13.2-13.2S1.3,67.1,1.3,74.4
					C1.3,81.6,7.2,87.5,14.5,87.5"/>
				<path id="XMLID_17_" class="st2" d="M67.2,41.2c7.3,0,13.2-5.9,13.2-13.2c0-7.3-5.9-13.2-13.2-13.2C59.9,14.8,54,20.7,54,28
					C54,35.3,59.9,41.2,67.2,41.2"/>
				<path id="XMLID_16_" class="st2" d="M119.9,76.2c7.3,0,13.2-5.9,13.2-13.2c0-7.3-5.9-13.2-13.2-13.2c-7.3,0-13.2,5.9-13.2,13.2
					C106.8,70.3,112.7,76.2,119.9,76.2"/>
				<path id="XMLID_13_" class="st2" d="M14.5,321.8c-50.7,0-92.2-41.6-92.2-92.2v-69.3l92.2,53.3l4.1-2.4l88.1-50.9v69.3
					C106.8,280.3,65.2,321.8,14.5,321.8 M-104.1,146v3.9V230c0,65.2,53.4,118.6,118.6,118.6S133.1,295.2,133.1,230v-80.1V146V99.9
					c0-7.2-5.9-13.2-13.2-13.2c-7.3,0-13.2,5.9-13.2,13.2v19.6c0,7.2-5.9,13.2-13.2,13.2c-6.5,0-11.9-4.8-13-11l-0.2,0.1v-2.3V64.9
					c0-7.2-5.9-13.2-13.2-13.2C60,51.7,54,57.6,54,64.9v63.7v21.3c0,7.2-5.9,13.2-13.2,13.2c-7.2,0-13.2-5.9-13.2-13.2v-6.1v-32.6
					c0-7.2-5.9-13.2-13.2-13.2c-7.2,0-13.2,5.9-13.2,13.2v32.6v6.1c0,7.2-5.9,13.2-13.2,13.2c-7.2,0-13.2-5.9-13.2-13.2v-21.3V64.9
					c0-7.2-5.9-13.2-13.2-13.2c-7.2,0-13.2,5.9-13.2,13.2v54.6v2.3l-0.2-0.1c-1.1,6.2-6.5,11-13,11c-7.3,0-13.2-5.9-13.2-13.2V99.9
					c0-7.2-5.9-13.2-13.2-13.2c-7.2,0-13.2,5.9-13.2,13.2V146z"/>
			</g>
		</g>
	</g>
	<g id="XMLID_7_" class="st0">
		<text transform="matrix(1 0 0 1 67.2463 357.0718)" class="st3 st4 st5"> </text>
	</g>
	<g id="XMLID_6_" class="st0">
		<text transform="matrix(1 0 0 1 67.2463 373.0737)" class="st3 st4 st5"> </text>
	</g>
	<g id="XMLID_5_" class="st0">
		<text transform="matrix(1 0 0 1 67.2463 389.0757)" class="st3 st4 st5"> </text>
	</g>
	<g id="XMLID_4_" class="st0">
		<text transform="matrix(1 0 0 1 67.2463 405.0776)" class="st3 st4 st5"> </text>
	</g>
</g>
</svg>
