<?xml version="1.0" encoding="utf-8"?>
<!-- Generator: Adobe Illustrator 19.0.0, SVG Export Plug-In . SVG Version: 6.00 Build 0)  -->
<svg version="1.1" id="Layer_1" xmlns="http://www.w3.org/2000/svg" xmlns:xlink="http://www.w3.org/1999/xlink" x="0px" y="0px"
	 viewBox="-354 174.4 438.1 213.6" style="enable-background:new -354 174.4 438.1 213.6;" xml:space="preserve">
<style type="text/css">
	.st0{opacity:0.15;}
	.st1{fill:#371BE1;}
	.st2{fill:#FFFFFF;}
	.st3{fill:none;stroke:#371BE1;stroke-width:7;stroke-linecap:round;stroke-linejoin:round;stroke-miterlimit:10;}
	.st4{fill:none;stroke:#371BE1;stroke-width:7;stroke-linecap:round;stroke-linejoin:round;}
	.st5{fill:none;stroke:#371BE1;stroke-width:7;stroke-linecap:round;stroke-linejoin:round;stroke-dasharray:26.3071,18.1429;}
	
		.st6{fill:none;stroke:#371BE1;stroke-width:7;stroke-linecap:round;stroke-linejoin:round;stroke-dasharray:10.8857,13.6071,26.3071,18.1429;}
</style>
<g id="XMLID_68_" class="st0">
	<circle id="XMLID_78_" class="st1" cx="73.2" cy="211.5" r="5.7"/>
	<circle id="XMLID_77_" class="st1" cx="53.1" cy="234.5" r="5.7"/>
	<circle id="XMLID_76_" class="st1" cx="73.2" cy="257.4" r="5.7"/>
	<circle id="XMLID_75_" class="st1" cx="58" cy="188.6" r="5.7"/>
	<circle id="XMLID_74_" class="st1" cx="73.2" cy="303.2" r="5.7"/>
	<circle id="XMLID_73_" class="st1" cx="53.1" cy="326.1" r="5.7"/>
	<circle id="XMLID_72_" class="st1" cx="73.2" cy="349" r="5.7"/>
	<circle id="XMLID_71_" class="st1" cx="58" cy="371.9" r="5.7"/>
	<path id="XMLID_70_" class="st1" d="M58,274.5c-3.2,0-5.7,2.6-5.7,5.7l0,0l0,0c0,3.2,2.6,5.7,5.7,5.7c3.2,0,5.7-2.6,5.7-5.7l0,0
		l0,0C63.7,277.1,61.2,274.5,58,274.5z"/>
	<path id="XMLID_69_" class="st1" d="M42,366.2h-8.5c-3.1,0-5.7-2.6-5.7-5.7c0-2.8,2.1-5.2,4.8-5.6v-0.1h1h23.7
		c3.2,0,5.7-2.6,5.7-5.7c0-3.1-2.6-5.7-5.7-5.7H29.6h-9.3c-3.1,0-5.7-2.6-5.7-5.7c0-3.2,2.6-5.7,5.7-5.7H23h14
		c3.1,0,5.7-2.6,5.7-5.7c0-3.1-2.6-5.7-5.7-5.7H22.8h-2.7c-3.1,0-5.7-2.6-5.7-5.7c0-3.1,2.6-5.7,5.7-5.7h9.3h27.7
		c3.2,0,5.7-2.6,5.7-5.7c0-3.2-2.6-5.7-5.7-5.7H33.4h-1v-0.1c-2.7-0.5-4.8-2.8-4.8-5.6c0-3.2,2.6-5.7,5.7-5.7h8.5
		c2.5,0,4.6-1.6,5.4-3.8c0.2-0.6,0.4-1.2,0.4-1.9l0,0l0,0c0-0.8-0.2-1.5-0.5-2.2c-0.9-2.1-2.9-3.5-5.3-3.5h-8.5
		c-3.1,0-5.7-2.6-5.7-5.7c0-2.8,2.1-5.2,4.8-5.6v-0.1h1h23.7c3.2,0,5.7-2.6,5.7-5.7c0-3.1-2.6-5.7-5.7-5.7H29.4h-9.3
		c-3.1,0-5.7-2.6-5.7-5.7c0-3.2,2.6-5.7,5.7-5.7h2.7H37c3.1,0,5.7-2.6,5.7-5.7s-2.6-5.7-5.7-5.7H22.8h-2.7c-3.1,0-5.7-2.6-5.7-5.7
		s2.6-5.7,5.7-5.7h9.3h27.7c3.2,0,5.7-2.6,5.7-5.7c0-3.2-2.6-5.7-5.7-5.7H33.4h-1v-0.1c-2.7-0.5-4.8-2.8-4.8-5.6
		c0-3.2,2.6-5.7,5.7-5.7h8.5c3.1,0,5.7-2.6,5.7-5.7c0-3.1-2.6-5.7-5.7-5.7H21.7H20h-45.4L1,275.4h-26.4l-10.5,103.1H20h1.7H42
		c3.1,0,5.7-2.6,5.7-5.7C47.7,368.8,45.1,366.2,42,366.2z"/>
</g>
<g id="XMLID_50_">
	<path id="XMLID_67_" class="st2" d="M-23.9,374.2h-224.4c-17.4,0-31.5-14.1-31.5-31.5V218c0-17.4,14.1-31.5,31.5-31.5h224.4
		c17.4,0,31.5,14.1,31.5,31.5v124.7C7.5,360.1-6.6,374.2-23.9,374.2z"/>
	<path id="XMLID_51_" class="st1" d="M-23.9,377.7h-224.4c-19.3,0-35-15.7-35-35V218c0-19.3,15.7-35,35-35h224.4
		c19.3,0,35,15.7,35,35v124.7C11,362-4.7,377.7-23.9,377.7z M-248.3,190c-15.4,0-28,12.5-28,28v124.7c0,15.4,12.5,28,28,28h224.4
		c15.4,0,28-12.5,28-28V218c0-15.4-12.5-28-28-28C-23.9,190-248.3,190-248.3,190z"/>
</g>
<g id="XMLID_33_">
	<g id="XMLID_46_">
		<path id="XMLID_47_" class="st1" d="M-224,268.3h-18.9c-4.9,0-8.9-4-8.9-8.9v-33.2c0-4.9,4-8.9,8.9-8.9h18.9V268.3z M-242.9,224.3
			c-1,0-1.9,0.8-1.9,1.9v33.2c0,1,0.8,1.9,1.9,1.9h11.9v-37H-242.9z"/>
	</g>
	<g id="XMLID_44_">
		<path id="XMLID_45_" class="st1" d="M-191.3,268.3h-15.4v-7h15.4c1,0,1.9-0.8,1.9-1.9v-24h7v24
			C-182.5,264.3-186.5,268.3-191.3,268.3z"/>
	</g>
	<g id="XMLID_42_">
		<path id="XMLID_43_" class="st1" d="M-203.2,268.3H-231v-51h39.6c4.9,0,8.9,4,8.9,8.9V239h-13.4v-7h6.4v-5.8c0-1-0.8-1.9-1.9-1.9
			H-224v37h13.8v-14h7V268.3z"/>
	</g>
	<g id="XMLID_38_">
		<path id="XMLID_39_" class="st1" d="M-224,253.6h-27.7V232h27.7V253.6z M-244.7,246.6h13.7v-7.7h-13.7V246.6z"/>
	</g>
	<g id="XMLID_34_">
		<path id="XMLID_35_" class="st1" d="M-182.5,253.6h-27.7v-11.7c0-5.5,4.5-10,10-10h17.8v21.7H-182.5z M-203.2,246.6h13.8v-7.7
			h-10.8c-1.6,0-3,1.3-3,3V246.6z"/>
	</g>
</g>
<line id="XMLID_11_" class="st3" x1="-244" y1="319.3" x2="-182.5" y2="319.3"/>
<g id="XMLID_4_">
	<g id="XMLID_83_">
		<line id="XMLID_87_" class="st4" x1="-244" y1="340.8" x2="-238" y2="340.8"/>
		<line id="XMLID_86_" class="st5" x1="-224.4" y1="340.8" x2="-189" y2="340.8"/>
		<line id="XMLID_85_" class="st6" x1="-179.9" y1="340.8" x2="-120" y2="340.8"/>
		<line id="XMLID_84_" class="st4" x1="-111" y1="340.8" x2="-105" y2="340.8"/>
	</g>
</g>
<line id="XMLID_3_" class="st3" x1="-167" y1="319.3" x2="-105.5" y2="319.3"/>
<line id="XMLID_2_" class="st3" x1="-90.3" y1="319.3" x2="-28.8" y2="319.3"/>
</svg>
