<?xml version="1.0" encoding="utf-8"?>
<!-- Generator: Adobe Illustrator 19.0.0, SVG Export Plug-In . SVG Version: 6.00 Build 0)  -->
<svg version="1.1" id="Layer_1" xmlns="http://www.w3.org/2000/svg" xmlns:xlink="http://www.w3.org/1999/xlink" x="0px" y="0px"
	 viewBox="0 0 375.1 213.6" style="enable-background:new 0 0 375.1 213.6;" xml:space="preserve">
<style type="text/css">
	.st0{fill-rule:evenodd;clip-rule:evenodd;fill:#371BE1;}
	.st1{fill:#FFFFFF;}
	.st2{fill:#371BE1;}
	.st3{fill:none;stroke:#371BE1;stroke-width:7;stroke-linecap:round;stroke-linejoin:round;stroke-miterlimit:10;}
	.st4{fill:none;stroke:#371BE1;stroke-width:7;stroke-linecap:round;stroke-linejoin:round;}
	.st5{fill:none;stroke:#371BE1;stroke-width:7;stroke-linecap:round;stroke-linejoin:round;stroke-dasharray:26.3071,18.1429;}
	
		.st6{fill:none;stroke:#371BE1;stroke-width:7;stroke-linecap:round;stroke-linejoin:round;stroke-dasharray:10.8857,13.6071,26.3071,18.1429;}
</style>
<g id="XMLID_68_">
	<circle id="XMLID_78_" class="st0" cx="365.4" cy="39.1" r="5.7"/>
	<circle id="XMLID_77_" class="st0" cx="345.2" cy="62.1" r="5.7"/>
	<circle id="XMLID_76_" class="st0" cx="365.4" cy="85" r="5.7"/>
	<circle id="XMLID_75_" class="st0" cx="350.2" cy="16.2" r="5.7"/>
	<circle id="XMLID_74_" class="st0" cx="365.4" cy="130.8" r="5.7"/>
	<circle id="XMLID_73_" class="st0" cx="345.2" cy="153.7" r="5.7"/>
	<circle id="XMLID_72_" class="st0" cx="365.4" cy="176.6" r="5.7"/>
	<circle id="XMLID_71_" class="st0" cx="350.2" cy="199.5" r="5.7"/>
	<path id="XMLID_70_" class="st0" d="M350.2,102.1c-3.2,0-5.7,2.6-5.7,5.7v0c0,0,0,0,0,0c0,3.2,2.6,5.7,5.7,5.7
		c3.2,0,5.7-2.6,5.7-5.7c0,0,0,0,0,0v0C355.9,104.7,353.3,102.1,350.2,102.1z"/>
	<path id="XMLID_69_" class="st0" d="M334.1,193.8h-8.5c-3.1,0-5.7-2.6-5.7-5.7c0-2.8,2.1-5.2,4.8-5.6l0-0.1h1h23.7
		c3.2,0,5.7-2.6,5.7-5.7c0-3.1-2.6-5.7-5.7-5.7h-27.7h-9.3c-3.1,0-5.7-2.6-5.7-5.7c0-3.2,2.6-5.7,5.7-5.7h2.7h14.2
		c3.1,0,5.7-2.6,5.7-5.7c0-3.1-2.6-5.7-5.7-5.7H315h-2.7c-3.1,0-5.7-2.6-5.7-5.7c0-3.1,2.6-5.7,5.7-5.7h9.3h27.7
		c3.2,0,5.7-2.6,5.7-5.7c0-3.2-2.6-5.7-5.7-5.7h-23.7h-1l0-0.1c-2.7-0.5-4.8-2.8-4.8-5.6c0-3.2,2.6-5.7,5.7-5.7h8.5
		c2.5,0,4.6-1.6,5.4-3.8c0.2-0.6,0.4-1.2,0.4-1.9c0,0,0,0,0,0v0c0-0.8-0.2-1.5-0.5-2.2c-0.9-2.1-2.9-3.5-5.3-3.5h-8.5
		c-3.1,0-5.7-2.6-5.7-5.7c0-2.8,2.1-5.2,4.8-5.6l0-0.1h1h23.7c3.2,0,5.7-2.6,5.7-5.7c0-3.1-2.6-5.7-5.7-5.7h-27.7h-9.3
		c-3.1,0-5.7-2.6-5.7-5.7c0-3.2,2.6-5.7,5.7-5.7h2.7h14.2c3.1,0,5.7-2.6,5.7-5.7c0-3.1-2.6-5.7-5.7-5.7H315h-2.7
		c-3.1,0-5.7-2.6-5.7-5.7c0-3.1,2.6-5.7,5.7-5.7h9.3h27.7c3.2,0,5.7-2.6,5.7-5.7c0-3.2-2.6-5.7-5.7-5.7h-23.7h-1l0-0.1
		c-2.7-0.5-4.8-2.8-4.8-5.6c0-3.2,2.6-5.7,5.7-5.7h8.5c3.1,0,5.7-2.6,5.7-5.7c0-3.1-2.6-5.7-5.7-5.7h-20.1h-1.7H267l26.4,91.6H267
		l-10.5,103.1h55.9h1.7h20.1c3.1,0,5.7-2.6,5.7-5.7C339.9,196.4,337.3,193.8,334.1,193.8z"/>
</g>
<g id="XMLID_50_">
	<path id="XMLID_67_" class="st1" d="M268.2,201.8H43.8c-17.4,0-31.5-14.1-31.5-31.5V45.6c0-17.4,14.1-31.5,31.5-31.5h224.4
		c17.4,0,31.5,14.1,31.5,31.5v124.7C299.7,187.7,285.6,201.8,268.2,201.8z"/>
	<path id="XMLID_51_" class="st2" d="M268.2,205.3H43.8c-19.3,0-35-15.7-35-35V45.6c0-19.3,15.7-35,35-35h224.4
		c19.3,0,35,15.7,35,35v124.7C303.2,189.6,287.5,205.3,268.2,205.3z M43.8,17.6c-15.4,0-28,12.5-28,28v124.7c0,15.4,12.5,28,28,28
		h224.4c15.4,0,28-12.5,28-28V45.6c0-15.4-12.5-28-28-28H43.8z"/>
</g>
<g id="XMLID_33_">
	<g id="XMLID_46_">
		<path id="XMLID_47_" class="st2" d="M68.2,95.9H49.3c-4.9,0-8.9-4-8.9-8.9V53.8c0-4.9,4-8.9,8.9-8.9h18.9V95.9z M49.3,51.9
			c-1,0-1.9,0.8-1.9,1.9V87c0,1,0.8,1.9,1.9,1.9h11.9v-37H49.3z"/>
	</g>
	<g id="XMLID_44_">
		<path id="XMLID_45_" class="st2" d="M100.8,95.9H85.4v-7h15.4c1,0,1.9-0.8,1.9-1.9v-24h7v24C109.7,91.9,105.7,95.9,100.8,95.9z"/>
	</g>
	<g id="XMLID_42_">
		<path id="XMLID_43_" class="st2" d="M88.9,95.9H61.2v-51h39.6c4.9,0,8.9,4,8.9,8.9v12.8H96.3v-7h6.4v-5.8c0-1-0.8-1.9-1.9-1.9
			H68.2v37h13.8v-14h7V95.9z"/>
	</g>
	<g id="XMLID_38_">
		<path id="XMLID_39_" class="st2" d="M68.2,81.2H40.4V59.6h27.7V81.2z M47.4,74.2h13.8v-7.7H47.4V74.2z"/>
	</g>
	<g id="XMLID_34_">
		<path id="XMLID_35_" class="st2" d="M109.7,81.2H81.9V69.5c0-5.5,4.5-10,10-10h17.8V81.2z M88.9,74.2h13.8v-7.7H91.9
			c-1.6,0-3,1.3-3,3V74.2z"/>
	</g>
</g>
<g id="XMLID_12_">
	<path id="XMLID_32_" class="st0" d="M228.5,97.8c1.9,0,3.5-1.6,3.5-3.5c0-1.9-1.6-3.5-3.5-3.5c-1.9,0-3.5,1.6-3.5,3.5
		C225,96.3,226.5,97.8,228.5,97.8L228.5,97.8z"/>
	<path id="XMLID_31_" class="st0" d="M242.5,110.1c1.9,0,3.5-1.6,3.5-3.5c0-1.9-1.6-3.5-3.5-3.5c-1.9,0-3.5,1.6-3.5,3.5
		C239,108.6,240.5,110.1,242.5,110.1L242.5,110.1z"/>
	<path id="XMLID_30_" class="st0" d="M256.5,97.8c1.9,0,3.5-1.6,3.5-3.5c0-1.9-1.6-3.5-3.5-3.5c-1.9,0-3.5,1.6-3.5,3.5
		C253,96.3,254.5,97.8,256.5,97.8L256.5,97.8z"/>
	<path id="XMLID_29_" class="st0" d="M270.5,107.1c1.9,0,3.5-1.6,3.5-3.5c0-1.9-1.6-3.5-3.5-3.5c-1.9,0-3.5,1.6-3.5,3.5
		C267,105.5,268.5,107.1,270.5,107.1L270.5,107.1z"/>
	<path id="XMLID_14_" class="st0" d="M210.9,125.7v1V148c0,17.3,14.2,31.5,31.5,31.5S274,165.3,274,148v-21.3v-1v-12.3
		c0-1.9-1.6-3.5-3.5-3.5l0,0c-1.9,0-3.5,1.6-3.5,3.5v5.2c0,1.9-1.6,3.5-3.5,3.5l0,0c-1.7,0-3.2-1.3-3.5-2.9l0,0v-0.6v-14.5
		c0-1.9-1.6-3.5-3.5-3.5l0,0c-1.9,0-3.5,1.6-3.5,3.5V121v5.7c0,1.9-1.6,3.5-3.5,3.5l0,0c-1.9,0-3.5-1.6-3.5-3.5v-1.6v-8.7
		c0-1.9-1.6-3.5-3.5-3.5l0,0c-1.9,0-3.5,1.6-3.5,3.5v8.7v1.6c0,1.9-1.6,3.5-3.5,3.5l0,0c-1.9,0-3.5-1.6-3.5-3.5V121v-16.9
		c0-1.9-1.6-3.5-3.5-3.5l0,0c-1.9,0-3.5,1.6-3.5,3.5v14.5v0.6l0,0c-0.3,1.7-1.7,2.9-3.5,2.9l0,0c-1.9,0-3.5-1.6-3.5-3.5v-5.2
		c0-1.9-1.6-3.5-3.5-3.5l0,0c-1.9,0-3.5,1.6-3.5,3.5V125.7L210.9,125.7z M242.5,172.4c-13.5,0-24.5-11-24.5-24.5v-18.4l24.5,14.1
		l1.1-0.6l23.4-13.5v18.4C267,161.3,255.9,172.4,242.5,172.4L242.5,172.4z"/>
	<path id="XMLID_13_" class="st0" d="M214.4,100.1c1.9,0,3.5,1.6,3.5,3.5c0,1.9-1.6,3.5-3.5,3.5c-1.9,0-3.5-1.6-3.5-3.5
		C210.9,101.7,212.5,100.1,214.4,100.1L214.4,100.1z"/>
</g>
<line id="XMLID_11_" class="st3" x1="48.2" y1="146.9" x2="109.7" y2="146.9"/>
<g id="XMLID_4_">
	<g id="XMLID_83_">
		<line id="XMLID_87_" class="st4" x1="48.2" y1="168.4" x2="54.2" y2="168.4"/>
		<line id="XMLID_86_" class="st5" x1="67.8" y1="168.4" x2="103.2" y2="168.4"/>
		<line id="XMLID_85_" class="st6" x1="112.3" y1="168.4" x2="172.1" y2="168.4"/>
		<line id="XMLID_84_" class="st4" x1="181.2" y1="168.4" x2="187.2" y2="168.4"/>
	</g>
</g>
<line id="XMLID_3_" class="st3" x1="125.2" y1="146.9" x2="186.7" y2="146.9"/>
</svg>
