<?xml version="1.0" encoding="utf-8"?>
<!-- Generator: Adobe Illustrator 19.0.0, SVG Export Plug-In . SVG Version: 6.00 Build 0)  -->
<svg version="1.1" id="Layer_1" xmlns="http://www.w3.org/2000/svg" xmlns:xlink="http://www.w3.org/1999/xlink" x="0px" y="0px"
	 viewBox="0 0 378.7 213.6" style="enable-background:new 0 0 378.7 213.6;" xml:space="preserve">
<style type="text/css">
	.st0{opacity:0.2;}
	.st1{fill-rule:evenodd;clip-rule:evenodd;fill:#371BE1;}
	.st2{fill:#FFFFFF;}
	.st3{fill:#371BE1;}
	.st4{fill:none;stroke:#371BE1;stroke-width:7;stroke-linecap:round;stroke-linejoin:round;stroke-miterlimit:10;}
	.st5{fill:none;stroke:#371BE1;stroke-width:7;stroke-linecap:round;stroke-linejoin:round;}
	.st6{fill:none;stroke:#371BE1;stroke-width:7;stroke-linecap:round;stroke-linejoin:round;stroke-dasharray:26.3071,18.1429;}
	
		.st7{fill:none;stroke:#371BE1;stroke-width:7;stroke-linecap:round;stroke-linejoin:round;stroke-dasharray:10.8857,13.6071,26.3071,18.1429;}
</style>
<g id="XMLID_108_" class="st0">
	<circle id="XMLID_126_" class="st1" cx="361.8" cy="38.9" r="5.3"/>
	<circle id="XMLID_113_" class="st1" cx="343.1" cy="60.1" r="5.3"/>
	<circle id="XMLID_112_" class="st1" cx="361.8" cy="81.3" r="5.3"/>
	<circle id="XMLID_111_" class="st1" cx="347.7" cy="102.5" r="5.3"/>
	<circle id="XMLID_110_" class="st1" cx="347.7" cy="17.7" r="5.3"/>
	<path id="XMLID_109_" class="st1" d="M298.1,107.8h14.6h1.6h18.6c2.9,0,5.3-2.4,5.3-5.3c0-2.9-2.4-5.3-5.3-5.3h-7.9
		c-2.9,0-5.3-2.4-5.3-5.3c0-2.6,1.9-4.8,4.4-5.2l0-0.1h0.9h22c2.9,0,5.3-2.4,5.3-5.3c0-2.9-2.4-5.3-5.3-5.3h-25.7h-8.6
		c-2.9,0-5.3-2.4-5.3-5.3c0-2.9,2.4-5.3,5.3-5.3h2.5h13.1c2.9,0,5.3-2.4,5.3-5.3c0-2.9-2.4-5.3-5.3-5.3h-13.1h-2.5
		c-2.9,0-5.3-2.4-5.3-5.3c0-2.9,2.4-5.3,5.3-5.3h8.6h25.7c2.9,0,5.3-2.4,5.3-5.3c0-2.9-2.4-5.3-5.3-5.3h-22H324l0-0.1
		c-2.5-0.4-4.4-2.6-4.4-5.2c0-2.9,2.4-5.3,5.3-5.3h7.9c2.9,0,5.3-2.4,5.3-5.3c0-2.9-2.4-5.3-5.3-5.3h-18.6h-1.6h-42.1L298.1,107.8z"
		/>
</g>
<g id="XMLID_103_">
	<path id="XMLID_107_" class="st2" d="M271.9,203.6H47.5c-17.4,0-31.5-14.1-31.5-31.5V47.4C16,30,30.1,15.9,47.5,15.9h224.4
		c17.4,0,31.5,14.1,31.5,31.5v124.7C303.3,189.5,289.3,203.6,271.9,203.6z"/>
	<path id="XMLID_104_" class="st3" d="M271.9,207.1H47.5c-19.3,0-35-15.7-35-35V47.4c0-19.3,15.7-35,35-35h224.4
		c19.3,0,35,15.7,35,35v124.7C306.8,191.4,291.2,207.1,271.9,207.1z M47.5,19.4c-15.4,0-28,12.5-28,28v124.7c0,15.4,12.5,28,28,28
		h224.4c15.4,0,28-12.5,28-28V47.4c0-15.4-12.5-28-28-28H47.5z"/>
</g>
<g id="XMLID_86_">
	<g id="XMLID_99_">
		<path id="XMLID_100_" class="st3" d="M71.8,97.7H53c-4.9,0-8.9-4-8.9-8.9V55.6c0-4.9,4-8.9,8.9-8.9h18.9V97.7z M53,53.7
			c-1,0-1.9,0.8-1.9,1.9v33.3c0,1,0.8,1.9,1.9,1.9h11.9v-37H53z"/>
	</g>
	<g id="XMLID_97_">
		<path id="XMLID_98_" class="st3" d="M104.5,97.7H89.1v-7h15.4c1,0,1.9-0.8,1.9-1.9v-24h7v24C113.3,93.8,109.4,97.7,104.5,97.7z"/>
	</g>
	<g id="XMLID_95_">
		<path id="XMLID_96_" class="st3" d="M92.6,97.7H64.8v-51h39.6c4.9,0,8.9,4,8.9,8.9v12.8H100v-7h6.4v-5.8c0-1-0.8-1.9-1.9-1.9H71.8
			v37h13.8v-14h7V97.7z"/>
	</g>
	<g id="XMLID_91_">
		<path id="XMLID_92_" class="st3" d="M71.8,83.1H44.1V61.4h27.7V83.1z M51.1,76.1h13.7v-7.7H51.1V76.1z"/>
	</g>
	<g id="XMLID_87_">
		<path id="XMLID_88_" class="st3" d="M113.3,83.1H85.6V71.4c0-5.5,4.5-10,10-10h17.8V83.1z M92.6,76.1h13.8v-7.7H95.6
			c-1.6,0-3,1.3-3,3V76.1z"/>
	</g>
</g>
<g id="XMLID_77_">
	<path id="XMLID_85_" class="st1" d="M232.1,99.7c1.9,0,3.5-1.6,3.5-3.5c0-1.9-1.6-3.5-3.5-3.5c-1.9,0-3.5,1.6-3.5,3.5
		C228.6,98.1,230.2,99.7,232.1,99.7L232.1,99.7z"/>
	<path id="XMLID_84_" class="st1" d="M246.1,112c1.9,0,3.5-1.6,3.5-3.5c0-1.9-1.6-3.5-3.5-3.5c-1.9,0-3.5,1.6-3.5,3.5
		C242.6,110.4,244.2,112,246.1,112L246.1,112z"/>
	<path id="XMLID_83_" class="st1" d="M260.1,99.7c1.9,0,3.5-1.6,3.5-3.5c0-1.9-1.6-3.5-3.5-3.5c-1.9,0-3.5,1.6-3.5,3.5
		C256.6,98.1,258.2,99.7,260.1,99.7L260.1,99.7z"/>
	<path id="XMLID_82_" class="st1" d="M274.1,109c1.9,0,3.5-1.6,3.5-3.5c0-1.9-1.6-3.5-3.5-3.5c-1.9,0-3.5,1.6-3.5,3.5
		C270.6,107.4,272.2,109,274.1,109L274.1,109z"/>
	<path id="XMLID_79_" class="st1" d="M214.6,127.5v1v21.3c0,17.3,14.2,31.5,31.5,31.5c17.3,0,31.5-14.2,31.5-31.5v-21.3v-1v-12.3
		c0-1.9-1.6-3.5-3.5-3.5l0,0c-1.9,0-3.5,1.6-3.5,3.5v5.2c0,1.9-1.6,3.5-3.5,3.5l0,0c-1.7,0-3.2-1.3-3.5-2.9l0,0v-0.6V106
		c0-1.9-1.6-3.5-3.5-3.5l0,0c-1.9,0-3.5,1.6-3.5,3.5v16.9v5.7c0,1.9-1.6,3.5-3.5,3.5l0,0c-1.9,0-3.5-1.6-3.5-3.5v-1.6v-8.7
		c0-1.9-1.6-3.5-3.5-3.5l0,0c-1.9,0-3.5,1.6-3.5,3.5v8.7v1.6c0,1.9-1.6,3.5-3.5,3.5l0,0c-1.9,0-3.5-1.6-3.5-3.5v-5.7V106
		c0-1.9-1.6-3.5-3.5-3.5l0,0c-1.9,0-3.5,1.6-3.5,3.5v14.5v0.6l0,0c-0.3,1.7-1.7,2.9-3.5,2.9l0,0c-1.9,0-3.5-1.6-3.5-3.5v-5.2
		c0-1.9-1.6-3.5-3.5-3.5l0,0c-1.9,0-3.5,1.6-3.5,3.5V127.5L214.6,127.5z M246.1,174.2c-13.5,0-24.5-11-24.5-24.5v-18.4l24.5,14.1
		l1.1-0.6l23.4-13.5v18.4C270.6,163.2,259.6,174.2,246.1,174.2L246.1,174.2z"/>
	<path id="XMLID_78_" class="st1" d="M218.1,102c1.9,0,3.5,1.6,3.5,3.5c0,1.9-1.6,3.5-3.5,3.5c-1.9,0-3.5-1.6-3.5-3.5
		C214.6,103.5,216.2,102,218.1,102L218.1,102z"/>
</g>
<line id="XMLID_76_" class="st4" x1="51.8" y1="148.8" x2="113.3" y2="148.8"/>
<g id="XMLID_69_">
	<g id="XMLID_71_">
		<line id="XMLID_75_" class="st5" x1="20.8" y1="707.3" x2="26.8" y2="707.3"/>
		<line id="XMLID_74_" class="st6" x1="40.5" y1="707.3" x2="75.8" y2="707.3"/>
		<line id="XMLID_73_" class="st7" x1="84.9" y1="707.3" x2="144.8" y2="707.3"/>
		<line id="XMLID_72_" class="st5" x1="153.8" y1="707.3" x2="159.8" y2="707.3"/>
	</g>
</g>
<line id="XMLID_68_" class="st4" x1="128.8" y1="148.8" x2="190.3" y2="148.8"/>
</svg>
