<?xml version="1.0" encoding="utf-8"?>
<!-- Generator: Adobe Illustrator 19.0.0, SVG Export Plug-In . SVG Version: 6.00 Build 0)  -->
<svg version="1.1" id="Layer_1" xmlns="http://www.w3.org/2000/svg" xmlns:xlink="http://www.w3.org/1999/xlink" x="0px" y="0px"
	 viewBox="0 0 375.1 213.6" style="enable-background:new 0 0 375.1 213.6;" xml:space="preserve">
<style type="text/css">
	.st0{fill-rule:evenodd;clip-rule:evenodd;fill:#371BE1;}
	.st1{fill:#FFFFFF;}
	.st2{fill:#371BE1;}
	.st3{fill:none;stroke:#371BE1;stroke-width:7;stroke-linecap:round;stroke-linejoin:round;stroke-miterlimit:10;}
	.st4{fill:none;stroke:#371BE1;stroke-width:7;stroke-linecap:round;stroke-linejoin:round;}
	.st5{fill:none;stroke:#371BE1;stroke-width:7;stroke-linecap:round;stroke-linejoin:round;stroke-dasharray:26.3071,18.1429;}
	
		.st6{fill:none;stroke:#371BE1;stroke-width:7;stroke-linecap:round;stroke-linejoin:round;stroke-dasharray:10.8857,13.6071,26.3071,18.1429;}
</style>
<g id="XMLID_68_">
	<circle id="XMLID_74_" class="st0" cx="360.9" cy="37.5" r="5.3"/>
	<circle id="XMLID_73_" class="st0" cx="342.2" cy="58.7" r="5.3"/>
	<circle id="XMLID_72_" class="st0" cx="360.9" cy="79.9" r="5.3"/>
	<circle id="XMLID_71_" class="st0" cx="346.8" cy="101.2" r="5.3"/>
	<circle id="XMLID_70_" class="st0" cx="346.8" cy="16.3" r="5.3"/>
	<path id="XMLID_69_" class="st0" d="M297.2,106.5h14.6h1.6h18.6c2.9,0,5.3-2.4,5.3-5.3c0-2.9-2.4-5.3-5.3-5.3H324
		c-2.9,0-5.3-2.4-5.3-5.3c0-2.6,1.9-4.8,4.4-5.2l0-0.1h0.9h22c2.9,0,5.3-2.4,5.3-5.3c0-2.9-2.4-5.3-5.3-5.3h-25.7h-8.6
		c-2.9,0-5.3-2.4-5.3-5.3c0-2.9,2.4-5.3,5.3-5.3h2.5h13.1c2.9,0,5.3-2.4,5.3-5.3c0-2.9-2.4-5.3-5.3-5.3h-13.1h-2.5
		c-2.9,0-5.3-2.4-5.3-5.3c0-2.9,2.4-5.3,5.3-5.3h8.6H346c2.9,0,5.3-2.4,5.3-5.3c0-2.9-2.4-5.3-5.3-5.3h-22h-0.9l0-0.1
		c-2.5-0.4-4.4-2.6-4.4-5.2c0-2.9,2.4-5.3,5.3-5.3h7.9c2.9,0,5.3-2.4,5.3-5.3c0-2.9-2.4-5.3-5.3-5.3h-18.6h-1.6h-42.1L297.2,106.5z"
		/>
</g>
<g id="XMLID_50_">
	<path id="XMLID_67_" class="st1" d="M271,202.2H46.6c-17.4,0-31.5-14.1-31.5-31.5V46c0-17.4,14.1-31.5,31.5-31.5H271
		c17.4,0,31.5,14.1,31.5,31.5v124.7C302.5,188.1,288.4,202.2,271,202.2z"/>
	<path id="XMLID_51_" class="st2" d="M271,205.7H46.6c-19.3,0-35-15.7-35-35V46c0-19.3,15.7-35,35-35H271c19.3,0,35,15.7,35,35
		v124.7C306,190,290.3,205.7,271,205.7z M46.6,18c-15.4,0-28,12.5-28,28v124.7c0,15.4,12.5,28,28,28H271c15.4,0,28-12.5,28-28V46
		c0-15.4-12.5-28-28-28H46.6z"/>
</g>
<g id="XMLID_33_">
	<g id="XMLID_46_">
		<path id="XMLID_47_" class="st2" d="M70.9,96.3H52.1c-4.9,0-8.9-4-8.9-8.9V54.2c0-4.9,4-8.9,8.9-8.9h18.9V96.3z M52.1,52.3
			c-1,0-1.9,0.8-1.9,1.9v33.3c0,1,0.8,1.9,1.9,1.9h11.9v-37H52.1z"/>
	</g>
	<g id="XMLID_44_">
		<path id="XMLID_45_" class="st2" d="M103.6,96.3H88.2v-7h15.4c1,0,1.9-0.8,1.9-1.9v-24h7v24C112.4,92.4,108.5,96.3,103.6,96.3z"/>
	</g>
	<g id="XMLID_42_">
		<path id="XMLID_43_" class="st2" d="M91.7,96.3H63.9v-51h39.6c4.9,0,8.9,4,8.9,8.9V67H99.1v-7h6.4v-5.8c0-1-0.8-1.9-1.9-1.9H70.9
			v37h13.8v-14h7V96.3z"/>
	</g>
	<g id="XMLID_38_">
		<path id="XMLID_39_" class="st2" d="M70.9,81.7H43.2V60h27.8V81.7z M50.2,74.7h13.8V67H50.2V74.7z"/>
	</g>
	<g id="XMLID_34_">
		<path id="XMLID_35_" class="st2" d="M112.4,81.7H84.7V70c0-5.5,4.5-10,10-10h17.8V81.7z M91.7,74.7h13.8V67H94.7c-1.6,0-3,1.3-3,3
			V74.7z"/>
	</g>
</g>
<g id="XMLID_12_">
	<path id="XMLID_32_" class="st0" d="M231.2,98.3c1.9,0,3.5-1.6,3.5-3.5c0-1.9-1.6-3.5-3.5-3.5c-1.9,0-3.5,1.6-3.5,3.5
		C227.7,96.7,229.3,98.3,231.2,98.3L231.2,98.3z"/>
	<path id="XMLID_31_" class="st0" d="M245.2,110.6c1.9,0,3.5-1.6,3.5-3.5c0-1.9-1.6-3.5-3.5-3.5c-1.9,0-3.5,1.6-3.5,3.5
		C241.7,109,243.3,110.6,245.2,110.6L245.2,110.6z"/>
	<path id="XMLID_30_" class="st0" d="M259.2,98.3c1.9,0,3.5-1.6,3.5-3.5c0-1.9-1.6-3.5-3.5-3.5c-1.9,0-3.5,1.6-3.5,3.5
		C255.7,96.7,257.3,98.3,259.2,98.3L259.2,98.3z"/>
	<path id="XMLID_29_" class="st0" d="M273.2,107.6c1.9,0,3.5-1.6,3.5-3.5c0-1.9-1.6-3.5-3.5-3.5c-1.9,0-3.5,1.6-3.5,3.5
		C269.7,106,271.3,107.6,273.2,107.6L273.2,107.6z"/>
	<path id="XMLID_14_" class="st0" d="M213.7,126.1v1v21.3c0,17.3,14.2,31.5,31.5,31.5c17.3,0,31.5-14.2,31.5-31.5v-21.3v-1v-12.3
		c0-1.9-1.6-3.5-3.5-3.5l0,0c-1.9,0-3.5,1.6-3.5,3.5v5.2c0,1.9-1.6,3.5-3.5,3.5l0,0c-1.7,0-3.2-1.3-3.5-2.9l0,0v-0.6v-14.5
		c0-1.9-1.6-3.5-3.5-3.5l0,0c-1.9,0-3.5,1.6-3.5,3.5v16.9v5.7c0,1.9-1.6,3.5-3.5,3.5l0,0c-1.9,0-3.5-1.6-3.5-3.5v-1.6v-8.7
		c0-1.9-1.6-3.5-3.5-3.5l0,0c-1.9,0-3.5,1.6-3.5,3.5v8.7v1.6c0,1.9-1.6,3.5-3.5,3.5l0,0c-1.9,0-3.5-1.6-3.5-3.5v-5.7v-16.9
		c0-1.9-1.6-3.5-3.5-3.5l0,0c-1.9,0-3.5,1.6-3.5,3.5v14.5v0.6l0,0c-0.3,1.7-1.7,2.9-3.5,2.9l0,0c-1.9,0-3.5-1.6-3.5-3.5v-5.2
		c0-1.9-1.6-3.5-3.5-3.5l0,0c-1.9,0-3.5,1.6-3.5,3.5V126.1L213.7,126.1z M245.2,172.9c-13.5,0-24.5-11-24.5-24.5v-18.4l24.5,14.1
		l1.1-0.6l23.4-13.5v18.4C269.7,161.8,258.7,172.9,245.2,172.9L245.2,172.9z"/>
	<path id="XMLID_13_" class="st0" d="M217.2,100.6c1.9,0,3.5,1.6,3.5,3.5c0,1.9-1.6,3.5-3.5,3.5c-1.9,0-3.5-1.6-3.5-3.5
		C213.7,102.1,215.3,100.6,217.2,100.6L217.2,100.6z"/>
</g>
<line id="XMLID_11_" class="st3" x1="51" y1="147.4" x2="112.5" y2="147.4"/>
<g id="XMLID_4_">
	<g id="XMLID_79_">
		<line id="XMLID_83_" class="st4" x1="51" y1="168.9" x2="57" y2="168.9"/>
		<line id="XMLID_82_" class="st5" x1="70.6" y1="168.9" x2="105.9" y2="168.9"/>
		<line id="XMLID_81_" class="st6" x1="115" y1="168.9" x2="174.9" y2="168.9"/>
		<line id="XMLID_80_" class="st4" x1="184" y1="168.9" x2="190" y2="168.9"/>
	</g>
</g>
<line id="XMLID_3_" class="st3" x1="128" y1="147.4" x2="189.5" y2="147.4"/>
</svg>
