<?xml version="1.0" encoding="utf-8"?>
<!-- Generator: Adobe Illustrator 19.0.0, SVG Export Plug-In . SVG Version: 6.00 Build 0)  -->
<svg version="1.1" id="Layer_1" xmlns="http://www.w3.org/2000/svg" xmlns:xlink="http://www.w3.org/1999/xlink" x="0px" y="0px"
	 viewBox="0 0 316.3 213.6" style="enable-background:new 0 0 316.3 213.6;" xml:space="preserve">
<style type="text/css">
	.st0{opacity:0.2;clip-path:url(#XMLID_4_);}
	.st1{fill-rule:evenodd;clip-rule:evenodd;fill:#371BE1;}
	.st2{fill:none;stroke:#371BE1;stroke-width:7;stroke-miterlimit:10;}
	.st3{fill:#371BE1;}
	.st4{fill:none;stroke:#371BE1;stroke-width:7;stroke-linecap:round;stroke-linejoin:round;stroke-miterlimit:10;}
	.st5{fill:none;stroke:#371BE1;stroke-width:7;stroke-linecap:round;stroke-linejoin:round;}
	.st6{fill:none;stroke:#371BE1;stroke-width:7;stroke-linecap:round;stroke-linejoin:round;stroke-dasharray:26.3071,18.1429;}
	
		.st7{fill:none;stroke:#371BE1;stroke-width:7;stroke-linecap:round;stroke-linejoin:round;stroke-dasharray:10.8857,13.6071,26.3071,18.1429;}
	.st8{fill:none;}
	.st9{font-family:'Montserrat-Bold';}
	.st10{font-size:32px;}
	.st11{letter-spacing:2;}
</style>
<g id="XMLID_32_">
	<defs>
		<path id="XMLID_33_" d="M119.9,11.3c-19.7,47,50.7,187.7-5.7,187.7s160.4,0,160.4,0l20.7-9.9l10.4-22.3V43.1l-7.3-18l-20.3-13.3
			L119.9,11.3z"/>
	</defs>
	<clipPath id="XMLID_4_">
		<use xlink:href="#XMLID_33_"  style="overflow:visible;"/>
	</clipPath>
	<g id="XMLID_34_" class="st0">
		<path id="XMLID_42_" class="st1" d="M206.1,38.9c4.1,0,7.5-3.4,7.5-7.5c0-4.1-3.3-7.5-7.5-7.5c-4.1,0-7.5,3.4-7.5,7.5
			C198.6,35.6,202,38.9,206.1,38.9L206.1,38.9z"/>
		<path id="XMLID_41_" class="st1" d="M236,65.3c4.1,0,7.5-3.3,7.5-7.5c0-4.1-3.4-7.5-7.5-7.5c-4.1,0-7.5,3.4-7.5,7.5
			C228.5,61.9,231.9,65.3,236,65.3L236,65.3z"/>
		<path id="XMLID_40_" class="st1" d="M265.9,38.9c4.1,0,7.5-3.4,7.5-7.5c0-4.1-3.4-7.5-7.5-7.5c-4.1,0-7.5,3.4-7.5,7.5
			C258.5,35.6,261.8,38.9,265.9,38.9L265.9,38.9z"/>
		<path id="XMLID_39_" class="st1" d="M295.9,58.8c4.1,0,7.5-3.3,7.5-7.5c0-4.1-3.3-7.5-7.5-7.5c-4.1,0-7.5,3.3-7.5,7.5
			C288.4,55.5,291.7,58.8,295.9,58.8L295.9,58.8z"/>
		<path id="XMLID_36_" class="st1" d="M168.7,98.5v2.2v45.5c0,37,30.3,67.3,67.3,67.3c37,0,67.3-30.3,67.3-67.3v-45.5v-2.2V72.3
			c0-4.1-3.4-7.5-7.5-7.5l0,0c-4.1,0-7.5,3.4-7.5,7.5v11.2c0,4.1-3.4,7.5-7.5,7.5l0,0c-3.7,0-6.8-2.7-7.4-6.2l-0.1,0.1v-1.3v-31
			c0-4.1-3.4-7.5-7.5-7.5l0,0c-4.1,0-7.5,3.4-7.5,7.5v36.2v12.1c0,4.1-3.4,7.5-7.5,7.5l0,0c-4.1,0-7.5-3.4-7.5-7.5v-3.5V78.7
			c0-4.1-3.4-7.5-7.5-7.5l0,0c-4.1,0-7.5,3.4-7.5,7.5v18.5v3.5c0,4.1-3.4,7.5-7.5,7.5l0,0c-4.1,0-7.5-3.4-7.5-7.5V88.6V52.4
			c0-4.1-3.4-7.5-7.5-7.5l0,0c-4.1,0-7.5,3.4-7.5,7.5v31v1.3l-0.1-0.1c-0.6,3.5-3.7,6.2-7.4,6.2l0,0c-4.1,0-7.5-3.4-7.5-7.5V72.3
			c0-4.1-3.4-7.5-7.5-7.5l0,0c-4.1,0-7.5,3.4-7.5,7.5V98.5L168.7,98.5z M236,198.3c-28.8,0-52.4-23.6-52.4-52.4v-39.4l52.4,30.2
			l2.3-1.3l50-28.9v39.4C288.4,174.7,264.8,198.3,236,198.3L236,198.3z"/>
		<path id="XMLID_35_" class="st1" d="M176.2,43.8c4.1,0,7.5,3.3,7.5,7.5c0,4.1-3.4,7.5-7.5,7.5c-4.1,0-7.5-3.3-7.5-7.5
			C168.7,47.2,172,43.8,176.2,43.8L176.2,43.8z"/>
	</g>
</g>
<path id="XMLID_31_" class="st2" d="M270.5,199H46.1c-17.4,0-31.5-14.1-31.5-31.5V42.8c0-17.4,14.1-31.5,31.5-31.5h224.4
	c17.4,0,31.5,14.1,31.5,31.5v124.7C301.9,184.9,287.8,199,270.5,199z"/>
<g id="XMLID_14_">
	<g id="XMLID_27_">
		<path id="XMLID_28_" class="st3" d="M70.4,93.1H51.5c-4.9,0-8.9-4-8.9-8.9V51c0-4.9,4-8.9,8.9-8.9h18.9V93.1z M51.5,49.1
			c-1,0-1.9,0.8-1.9,1.9v33.3c0,1,0.8,1.9,1.9,1.9h11.9v-37H51.5z"/>
	</g>
	<g id="XMLID_25_">
		<path id="XMLID_26_" class="st3" d="M103,93.1H87.7v-7H103c1,0,1.9-0.8,1.9-1.9v-24h7v24C111.9,89.1,107.9,93.1,103,93.1z"/>
	</g>
	<g id="XMLID_23_">
		<path id="XMLID_24_" class="st3" d="M91.2,93.1H63.4v-51H103c4.9,0,8.9,4,8.9,8.9v12.8H98.5v-7h6.4V51c0-1-0.8-1.9-1.9-1.9H70.4
			v37h13.8v-14h7V93.1z"/>
	</g>
	<g id="XMLID_19_">
		<path id="XMLID_20_" class="st3" d="M70.4,78.4H42.7V56.8h27.7V78.4z M49.7,71.4h13.8v-7.7H49.7V71.4z"/>
	</g>
	<g id="XMLID_15_">
		<path id="XMLID_16_" class="st3" d="M111.9,78.4H84.2V66.8c0-5.5,4.5-10,10-10h17.8V78.4z M91.2,71.4h13.8v-7.7H94.1
			c-1.6,0-3,1.3-3,3V71.4z"/>
	</g>
</g>
<line id="XMLID_13_" class="st4" x1="50.4" y1="144.2" x2="111.9" y2="144.2"/>
<g id="XMLID_6_">
	<g id="XMLID_46_">
		<line id="XMLID_50_" class="st5" x1="50.4" y1="165.7" x2="56.4" y2="165.7"/>
		<line id="XMLID_49_" class="st6" x1="70" y1="165.7" x2="105.4" y2="165.7"/>
		<line id="XMLID_48_" class="st7" x1="114.5" y1="165.7" x2="174.3" y2="165.7"/>
		<line id="XMLID_47_" class="st5" x1="183.4" y1="165.7" x2="189.4" y2="165.7"/>
	</g>
</g>
<line id="XMLID_5_" class="st4" x1="127.4" y1="144.2" x2="188.9" y2="144.2"/>
<rect id="XMLID_1_" x="158.2" y="145.5" class="st8" width="120" height="62.5"/>
<text id="XMLID_3_" transform="matrix(1 0 0 1 198.6494 169.2108)" class="st3 st9 st10 st11">MPS</text>
</svg>
