<?xml version="1.0" encoding="utf-8"?>
<!-- Generator: Adobe Illustrator 19.0.0, SVG Export Plug-In . SVG Version: 6.00 Build 0)  -->
<svg version="1.1" id="Layer_1" xmlns="http://www.w3.org/2000/svg" xmlns:xlink="http://www.w3.org/1999/xlink" x="0px" y="0px"
	 viewBox="0 0 306.8 271.9" style="enable-background:new 0 0 306.8 271.9;" xml:space="preserve">
<style type="text/css">
	.st0{opacity:0.15;}
	.st1{fill-rule:evenodd;clip-rule:evenodd;fill:#371BE1;}
	.st2{fill:#FFFFFF;}
	.st3{fill:#371BE1;}
	.st4{fill:none;stroke:#371BE1;stroke-width:7;stroke-linecap:round;stroke-linejoin:round;stroke-miterlimit:10;}
	.st5{fill:none;stroke:#371BE1;stroke-width:7;stroke-linecap:round;stroke-linejoin:round;}
	.st6{fill:none;stroke:#371BE1;stroke-width:7;stroke-linecap:round;stroke-linejoin:round;stroke-dasharray:26.3071,18.1429;}
	
		.st7{fill:none;stroke:#371BE1;stroke-width:7;stroke-linecap:round;stroke-linejoin:round;stroke-dasharray:10.8857,13.6071,26.3071,18.1429;}
</style>
<g id="XMLID_80_" class="st0">
	<circle id="XMLID_115_" class="st1" cx="39.4" cy="15.8" r="5.7"/>
	<circle id="XMLID_114_" class="st1" cx="62.4" cy="35.9" r="5.7"/>
	<circle id="XMLID_113_" class="st1" cx="85.3" cy="15.8" r="5.7"/>
	<circle id="XMLID_112_" class="st1" cx="16.5" cy="31" r="5.7"/>
	<circle id="XMLID_111_" class="st1" cx="131.1" cy="15.8" r="5.7"/>
	<circle id="XMLID_110_" class="st1" cx="154" cy="35.9" r="5.7"/>
	<circle id="XMLID_109_" class="st1" cx="176.9" cy="15.8" r="5.7"/>
	<circle id="XMLID_108_" class="st1" cx="199.8" cy="31" r="5.7"/>
	<path id="XMLID_107_" class="st1" d="M102.4,31c0,3.2,2.6,5.7,5.7,5.7h0h0c3.2,0,5.7-2.6,5.7-5.7c0-3.2-2.6-5.7-5.7-5.7h0h0
		C105,25.2,102.4,27.8,102.4,31z"/>
	<path id="XMLID_106_" class="st1" d="M194.1,47v8.5c0,3.1-2.6,5.7-5.7,5.7c-2.8,0-5.2-2.1-5.6-4.8l-0.1,0v-1V31.8
		c0-3.2-2.6-5.7-5.7-5.7c-3.1,0-5.7,2.6-5.7,5.7v27.7v9.3c0,3.1-2.6,5.7-5.7,5.7c-3.2,0-5.7-2.6-5.7-5.7v-2.7V52
		c0-3.1-2.6-5.7-5.7-5.7c-3.1,0-5.7,2.6-5.7,5.7v14.2v2.7c0,3.1-2.6,5.7-5.7,5.7c-3.1,0-5.7-2.6-5.7-5.7v-9.3V31.8
		c0-3.2-2.6-5.7-5.7-5.7c-3.2,0-5.7,2.6-5.7,5.7v23.7v1l-0.1,0c-0.5,2.7-2.8,4.8-5.6,4.8c-3.2,0-5.7-2.6-5.7-5.7V47
		c0-2.5-1.6-4.6-3.8-5.4c-0.6-0.2-1.2-0.4-1.9-0.4h0h0c-0.8,0-1.5,0.2-2.2,0.5c-2.1,0.9-3.5,2.9-3.5,5.3v8.5c0,3.1-2.6,5.7-5.7,5.7
		c-2.8,0-5.2-2.1-5.6-4.8l-0.1,0v-1V31.8c0-3.2-2.6-5.7-5.7-5.7c-3.1,0-5.7,2.6-5.7,5.7v27.7v9.3c0,3.1-2.6,5.7-5.7,5.7
		c-3.2,0-5.7-2.6-5.7-5.7v-2.7V52c0-3.1-2.6-5.7-5.7-5.7s-5.7,2.6-5.7,5.7v14.2v2.7c0,3.1-2.6,5.7-5.7,5.7c-3.1,0-5.7-2.6-5.7-5.7
		v-9.3V31.8c0-3.2-2.6-5.7-5.7-5.7c-3.2,0-5.7,2.6-5.7,5.7v23.7v1l-0.1,0c-0.5,2.7-2.8,4.8-5.6,4.8c-3.2,0-5.7-2.6-5.7-5.7V47
		c0-3.1-2.6-5.7-5.7-5.7c-3.1,0-5.7,2.6-5.7,5.7v20.1v1.7v45.4l91.6-26.4v26.4l103.1,10.5V68.8v-1.7V47c0-3.1-2.6-5.7-5.7-5.7
		C196.7,41.3,194.1,43.9,194.1,47z"/>
</g>
<g id="XMLID_69_" class="st0">
	<circle id="XMLID_79_" class="st1" cx="131.1" cy="15.8" r="5.7"/>
	<circle id="XMLID_78_" class="st1" cx="154" cy="35.9" r="5.7"/>
	<circle id="XMLID_77_" class="st1" cx="176.9" cy="15.8" r="5.7"/>
	<circle id="XMLID_76_" class="st1" cx="108.2" cy="31" r="5.7"/>
	<circle id="XMLID_75_" class="st1" cx="222.7" cy="15.8" r="5.7"/>
	<circle id="XMLID_74_" class="st1" cx="245.6" cy="35.9" r="5.7"/>
	<circle id="XMLID_73_" class="st1" cx="268.6" cy="15.8" r="5.7"/>
	<circle id="XMLID_72_" class="st1" cx="291.5" cy="31" r="5.7"/>
	<path id="XMLID_71_" class="st1" d="M194.1,31c0,3.2,2.6,5.7,5.7,5.7h0h0c3.2,0,5.7-2.6,5.7-5.7c0-3.2-2.6-5.7-5.7-5.7h0h0
		C196.7,25.2,194.1,27.8,194.1,31z"/>
	<path id="XMLID_70_" class="st1" d="M285.7,47v8.5c0,3.1-2.6,5.7-5.7,5.7c-2.8,0-5.2-2.1-5.6-4.8l-0.1,0v-1V31.8
		c0-3.2-2.6-5.7-5.7-5.7c-3.1,0-5.7,2.6-5.7,5.7v27.7v9.3c0,3.1-2.6,5.7-5.7,5.7c-3.2,0-5.7-2.6-5.7-5.7v-2.7V52
		c0-3.1-2.6-5.7-5.7-5.7c-3.1,0-5.7,2.6-5.7,5.7v14.2v2.7c0,3.1-2.6,5.7-5.7,5.7c-3.1,0-5.7-2.6-5.7-5.7v-9.3V31.8
		c0-3.2-2.6-5.7-5.7-5.7c-3.2,0-5.7,2.6-5.7,5.7v23.7v1l-0.1,0c-0.5,2.7-2.8,4.8-5.6,4.8c-3.2,0-5.7-2.6-5.7-5.7V47
		c0-2.5-1.6-4.6-3.8-5.4c-0.6-0.2-1.2-0.4-1.9-0.4h0h0c-0.8,0-1.5,0.2-2.2,0.5c-2.1,0.9-3.5,2.9-3.5,5.3v8.5c0,3.1-2.6,5.7-5.7,5.7
		c-2.8,0-5.2-2.1-5.6-4.8l-0.1,0v-1V31.8c0-3.2-2.6-5.7-5.7-5.7c-3.1,0-5.7,2.6-5.7,5.7v27.7v9.3c0,3.1-2.6,5.7-5.7,5.7
		c-3.2,0-5.7-2.6-5.7-5.7v-2.7V52c0-3.1-2.6-5.7-5.7-5.7s-5.7,2.6-5.7,5.7v14.2v2.7c0,3.1-2.6,5.7-5.7,5.7c-3.1,0-5.7-2.6-5.7-5.7
		v-9.3V31.8c0-3.2-2.6-5.7-5.7-5.7c-3.2,0-5.7,2.6-5.7,5.7v23.7v1l-0.1,0c-0.5,2.7-2.8,4.8-5.6,4.8c-3.2,0-5.7-2.6-5.7-5.7V47
		c0-3.1-2.6-5.7-5.7-5.7c-3.1,0-5.7,2.6-5.7,5.7v20.1v1.7v45.4l91.6-26.4v26.4l103.1,10.5V68.8v-1.7V47c0-3.1-2.6-5.7-5.7-5.7
		C288.3,41.3,285.7,43.9,285.7,47z"/>
</g>
<g id="XMLID_51_">
	<path id="XMLID_68_" class="st2" d="M262.5,260.7H45.7c-17.4,0-31.5-14.1-31.5-31.5V109.5C14.2,92.1,28.3,78,45.7,78h216.8
		c17.4,0,31.5,14.1,31.5,31.5v119.8C294,246.6,279.9,260.7,262.5,260.7z"/>
	<path id="XMLID_52_" class="st3" d="M263.3,264.1H44.9c-18.8,0-34-15.3-34-34V108.6c0-18.8,15.3-34,34-34h218.5
		c18.8,0,34,15.3,34,34v121.4C297.4,248.9,282.1,264.1,263.3,264.1z M44.9,81.4c-15,0-27.2,12.2-27.2,27.2v121.4
		c0,15,12.2,27.2,27.2,27.2h218.5c15,0,27.2-12.2,27.2-27.2V108.6c0-15-12.2-27.2-27.2-27.2H44.9z"/>
</g>
<g id="XMLID_34_">
	<g id="XMLID_47_">
		<path id="XMLID_48_" class="st3" d="M70.1,159.9H51.3c-4.9,0-8.9-4-8.9-8.9v-33.3c0-4.9,4-8.9,8.9-8.9h18.9V159.9z M51.3,115.9
			c-1,0-1.9,0.8-1.9,1.9V151c0,1,0.8,1.9,1.9,1.9h11.9v-37H51.3z"/>
	</g>
	<g id="XMLID_45_">
		<path id="XMLID_46_" class="st3" d="M102.8,159.9H87.4v-7h15.4c1,0,1.9-0.8,1.9-1.9v-24h7v24C111.6,155.9,107.7,159.9,102.8,159.9
			z"/>
	</g>
	<g id="XMLID_43_">
		<path id="XMLID_44_" class="st3" d="M90.9,159.9H63.1v-51h39.6c4.9,0,8.9,4,8.9,8.9v12.8H98.3v-7h6.4v-5.8c0-1-0.8-1.9-1.9-1.9
			H70.1v37h13.8v-14h7V159.9z"/>
	</g>
	<g id="XMLID_39_">
		<path id="XMLID_40_" class="st3" d="M70.1,145.2H42.4v-21.7h27.8V145.2z M49.4,138.2h13.8v-7.7H49.4V138.2z"/>
	</g>
	<g id="XMLID_35_">
		<path id="XMLID_36_" class="st3" d="M111.6,145.2H83.9v-11.7c0-5.5,4.5-10,10-10h17.8V145.2z M90.9,138.2h13.8v-7.7H93.9
			c-1.6,0-3,1.3-3,3V138.2z"/>
	</g>
</g>
<g id="XMLID_13_">
	<path id="XMLID_33_" class="st1" d="M227.4,155.8c1.9,0,3.5-1.6,3.5-3.5c0-1.9-1.6-3.5-3.5-3.5c-1.9,0-3.5,1.6-3.5,3.5
		C223.9,154.2,225.5,155.8,227.4,155.8L227.4,155.8z"/>
	<path id="XMLID_32_" class="st1" d="M241.4,168.1c1.9,0,3.5-1.6,3.5-3.5c0-1.9-1.6-3.5-3.5-3.5c-1.9,0-3.5,1.6-3.5,3.5
		C237.9,166.6,239.5,168.1,241.4,168.1L241.4,168.1z"/>
	<path id="XMLID_31_" class="st1" d="M255.4,155.8c1.9,0,3.5-1.6,3.5-3.5c0-1.9-1.6-3.5-3.5-3.5c-1.9,0-3.5,1.6-3.5,3.5
		C251.9,154.2,253.5,155.8,255.4,155.8L255.4,155.8z"/>
	<path id="XMLID_30_" class="st1" d="M269.4,165.1c1.9,0,3.5-1.6,3.5-3.5c0-1.9-1.6-3.5-3.5-3.5c-1.9,0-3.5,1.6-3.5,3.5
		C265.9,163.5,267.5,165.1,269.4,165.1L269.4,165.1z"/>
	<path id="XMLID_27_" class="st1" d="M209.9,183.7v1V206c0,17.3,14.2,31.5,31.5,31.5c17.3,0,31.5-14.2,31.5-31.5v-21.3v-1v-12.3
		c0-1.9-1.6-3.5-3.5-3.5l0,0c-1.9,0-3.5,1.6-3.5,3.5v5.2c0,1.9-1.6,3.5-3.5,3.5l0,0c-1.7,0-3.2-1.3-3.5-2.9l0,0v-0.6v-14.5
		c0-1.9-1.6-3.5-3.5-3.5l0,0c-1.9,0-3.5,1.6-3.5,3.5V179v5.7c0,1.9-1.6,3.5-3.5,3.5l0,0c-1.9,0-3.5-1.6-3.5-3.5v-1.6v-8.7
		c0-1.9-1.6-3.5-3.5-3.5l0,0c-1.9,0-3.5,1.6-3.5,3.5v8.7v1.6c0,1.9-1.6,3.5-3.5,3.5l0,0c-1.9,0-3.5-1.6-3.5-3.5V179v-16.9
		c0-1.9-1.6-3.5-3.5-3.5l0,0c-1.9,0-3.5,1.6-3.5,3.5v14.5v0.6l0,0c-0.3,1.7-1.7,2.9-3.5,2.9l0,0c-1.9,0-3.5-1.6-3.5-3.5v-5.2
		c0-1.9-1.6-3.5-3.5-3.5l0,0c-1.9,0-3.5,1.6-3.5,3.5V183.7L209.9,183.7z M241.4,230.4c-13.5,0-24.5-11-24.5-24.5v-18.4l24.5,14.1
		l1.1-0.6l23.4-13.5v18.4C265.9,219.3,254.9,230.4,241.4,230.4L241.4,230.4z"/>
	<path id="XMLID_14_" class="st1" d="M213.4,158.1c1.9,0,3.5,1.6,3.5,3.5c0,1.9-1.6,3.5-3.5,3.5c-1.9,0-3.5-1.6-3.5-3.5
		C209.9,159.7,211.5,158.1,213.4,158.1L213.4,158.1z"/>
</g>
<line id="XMLID_12_" class="st4" x1="50.1" y1="204.9" x2="111.6" y2="204.9"/>
<g id="XMLID_5_">
	<g id="XMLID_120_">
		<line id="XMLID_124_" class="st5" x1="50.1" y1="226.4" x2="56.1" y2="226.4"/>
		<line id="XMLID_123_" class="st6" x1="69.7" y1="226.4" x2="105.1" y2="226.4"/>
		<line id="XMLID_122_" class="st7" x1="114.2" y1="226.4" x2="174.1" y2="226.4"/>
		<line id="XMLID_121_" class="st5" x1="183.1" y1="226.4" x2="189.1" y2="226.4"/>
	</g>
</g>
<line id="XMLID_4_" class="st4" x1="127.1" y1="204.9" x2="188.6" y2="204.9"/>
</svg>
