<?xml version="1.0" encoding="utf-8"?>
<!-- Generator: Adobe Illustrator 19.0.0, SVG Export Plug-In . SVG Version: 6.00 Build 0)  -->
<svg version="1.1" id="Layer_1" xmlns="http://www.w3.org/2000/svg" xmlns:xlink="http://www.w3.org/1999/xlink" x="0px" y="0px"
	 viewBox="0 0 306.8 271.9" style="enable-background:new 0 0 306.8 271.9;" xml:space="preserve">
<style type="text/css">
	.st0{fill-rule:evenodd;clip-rule:evenodd;fill:#371BE1;}
	.st1{fill:#FFFFFF;}
	.st2{fill:#371BE1;}
	.st3{fill:none;stroke:#371BE1;stroke-width:7;stroke-linecap:round;stroke-linejoin:round;stroke-miterlimit:10;}
	.st4{fill:none;stroke:#371BE1;stroke-width:7;stroke-linecap:round;stroke-linejoin:round;}
	.st5{fill:none;stroke:#371BE1;stroke-width:7;stroke-linecap:round;stroke-linejoin:round;stroke-dasharray:26.3071,18.1429;}
	
		.st6{fill:none;stroke:#371BE1;stroke-width:7;stroke-linecap:round;stroke-linejoin:round;stroke-dasharray:10.8857,13.6071,26.3071,18.1429;}
</style>
<g id="XMLID_70_">
	<circle id="XMLID_80_" class="st0" cx="38.8" cy="15.1" r="5.7"/>
	<circle id="XMLID_79_" class="st0" cx="61.7" cy="35.3" r="5.7"/>
	<circle id="XMLID_78_" class="st0" cx="84.6" cy="15.1" r="5.7"/>
	<circle id="XMLID_77_" class="st0" cx="15.9" cy="30.3" r="5.7"/>
	<circle id="XMLID_76_" class="st0" cx="130.5" cy="15.1" r="5.7"/>
	<circle id="XMLID_75_" class="st0" cx="153.4" cy="35.3" r="5.7"/>
	<circle id="XMLID_74_" class="st0" cx="176.3" cy="15.1" r="5.7"/>
	<circle id="XMLID_73_" class="st0" cx="199.2" cy="30.3" r="5.7"/>
	<path id="XMLID_72_" class="st0" d="M101.8,30.3c0,3.2,2.6,5.7,5.7,5.7h0h0c3.2,0,5.7-2.6,5.7-5.7c0-3.2-2.6-5.7-5.7-5.7h0h0
		C104.4,24.6,101.8,27.2,101.8,30.3z"/>
	<path id="XMLID_71_" class="st0" d="M193.5,46.4v8.5c0,3.1-2.6,5.7-5.7,5.7c-2.8,0-5.2-2.1-5.6-4.8l-0.1,0v-1V31.2
		c0-3.2-2.6-5.7-5.7-5.7c-3.1,0-5.7,2.6-5.7,5.7v27.7v9.3c0,3.1-2.6,5.7-5.7,5.7c-3.2,0-5.7-2.6-5.7-5.7v-2.7V51.3
		c0-3.1-2.6-5.7-5.7-5.7c-3.1,0-5.7,2.6-5.7,5.7v14.2v2.7c0,3.1-2.6,5.7-5.7,5.7c-3.1,0-5.7-2.6-5.7-5.7v-9.3V31.2
		c0-3.2-2.6-5.7-5.7-5.7c-3.2,0-5.7,2.6-5.7,5.7v23.7v1l-0.1,0c-0.5,2.7-2.8,4.8-5.6,4.8c-3.2,0-5.7-2.6-5.7-5.7v-8.5
		c0-2.5-1.6-4.6-3.8-5.4c-0.6-0.2-1.2-0.4-1.9-0.4h0h0c-0.8,0-1.5,0.2-2.2,0.5c-2.1,0.9-3.5,2.9-3.5,5.3v8.5c0,3.1-2.6,5.7-5.7,5.7
		c-2.8,0-5.2-2.1-5.6-4.8l-0.1,0v-1V31.2c0-3.2-2.6-5.7-5.7-5.7c-3.1,0-5.7,2.6-5.7,5.7v27.7v9.3c0,3.1-2.6,5.7-5.7,5.7
		c-3.2,0-5.7-2.6-5.7-5.7v-2.7V51.3c0-3.1-2.6-5.7-5.7-5.7S56,48.2,56,51.3v14.2v2.7c0,3.1-2.6,5.7-5.7,5.7c-3.1,0-5.7-2.6-5.7-5.7
		v-9.3V31.2c0-3.2-2.6-5.7-5.7-5.7c-3.2,0-5.7,2.6-5.7,5.7v23.7v1l-0.1,0c-0.5,2.7-2.8,4.8-5.6,4.8c-3.2,0-5.7-2.6-5.7-5.7v-8.5
		c0-3.1-2.6-5.7-5.7-5.7c-3.1,0-5.7,2.6-5.7,5.7v20.1v1.7v45.4l91.6-26.4v26.4l103.1,10.5V68.1v-1.7V46.4c0-3.1-2.6-5.7-5.7-5.7
		C196.1,40.7,193.5,43.2,193.5,46.4z"/>
</g>
<g id="XMLID_46_">
	<circle id="XMLID_69_" class="st0" cx="130.5" cy="15.1" r="5.7"/>
	<circle id="XMLID_68_" class="st0" cx="153.4" cy="35.3" r="5.7"/>
	<circle id="XMLID_67_" class="st0" cx="176.3" cy="15.1" r="5.7"/>
	<circle id="XMLID_53_" class="st0" cx="107.6" cy="30.3" r="5.7"/>
	<circle id="XMLID_52_" class="st0" cx="222.1" cy="15.1" r="5.7"/>
	<circle id="XMLID_51_" class="st0" cx="245" cy="35.3" r="5.7"/>
	<circle id="XMLID_50_" class="st0" cx="267.9" cy="15.1" r="5.7"/>
	<circle id="XMLID_49_" class="st0" cx="290.8" cy="30.3" r="5.7"/>
	<path id="XMLID_48_" class="st0" d="M193.5,30.3c0,3.2,2.6,5.7,5.7,5.7h0h0c3.2,0,5.7-2.6,5.7-5.7c0-3.2-2.6-5.7-5.7-5.7h0h0
		C196,24.6,193.5,27.2,193.5,30.3z"/>
	<path id="XMLID_47_" class="st0" d="M285.1,46.4v8.5c0,3.1-2.6,5.7-5.7,5.7c-2.8,0-5.2-2.1-5.6-4.8l-0.1,0v-1V31.2
		c0-3.2-2.6-5.7-5.7-5.7c-3.1,0-5.7,2.6-5.7,5.7v27.7v9.3c0,3.1-2.6,5.7-5.7,5.7c-3.2,0-5.7-2.6-5.7-5.7v-2.7V51.3
		c0-3.1-2.6-5.7-5.7-5.7c-3.1,0-5.7,2.6-5.7,5.7v14.2v2.7c0,3.1-2.6,5.7-5.7,5.7c-3.1,0-5.7-2.6-5.7-5.7v-9.3V31.2
		c0-3.2-2.6-5.7-5.7-5.7c-3.2,0-5.7,2.6-5.7,5.7v23.7v1l-0.1,0c-0.5,2.7-2.8,4.8-5.6,4.8c-3.2,0-5.7-2.6-5.7-5.7v-8.5
		c0-2.5-1.6-4.6-3.8-5.4c-0.6-0.2-1.2-0.4-1.9-0.4h0h0c-0.8,0-1.5,0.2-2.2,0.5c-2.1,0.9-3.5,2.9-3.5,5.3v8.5c0,3.1-2.6,5.7-5.7,5.7
		c-2.8,0-5.2-2.1-5.6-4.8l-0.1,0v-1V31.2c0-3.2-2.6-5.7-5.7-5.7c-3.1,0-5.7,2.6-5.7,5.7v27.7v9.3c0,3.1-2.6,5.7-5.7,5.7
		c-3.2,0-5.7-2.6-5.7-5.7v-2.7V51.3c0-3.1-2.6-5.7-5.7-5.7s-5.7,2.6-5.7,5.7v14.2v2.7c0,3.1-2.6,5.7-5.7,5.7c-3.1,0-5.7-2.6-5.7-5.7
		v-9.3V31.2c0-3.2-2.6-5.7-5.7-5.7c-3.2,0-5.7,2.6-5.7,5.7v23.7v1l-0.1,0c-0.5,2.7-2.8,4.8-5.6,4.8c-3.2,0-5.7-2.6-5.7-5.7v-8.5
		c0-3.1-2.6-5.7-5.7-5.7c-3.1,0-5.7,2.6-5.7,5.7v20.1v1.7v45.4l91.6-26.4v26.4l103.1,10.5V68.1v-1.7V46.4c0-3.1-2.6-5.7-5.7-5.7
		C287.7,40.7,285.1,43.2,285.1,46.4z"/>
</g>
<g id="XMLID_41_">
	<path id="XMLID_45_" class="st1" d="M261.9,260.1H45.1c-17.4,0-31.5-14.1-31.5-31.5V108.8c0-17.4,14.1-31.5,31.5-31.5h216.8
		c17.4,0,31.5,14.1,31.5,31.5v119.8C293.4,246,279.3,260.1,261.9,260.1z"/>
	<path id="XMLID_42_" class="st2" d="M262.7,263.5H44.2c-18.8,0-34-15.3-34-34V108c0-18.8,15.3-34,34-34h218.5c18.8,0,34,15.3,34,34
		v121.4C296.8,248.2,281.5,263.5,262.7,263.5z M44.2,80.8C29.2,80.8,17,93,17,108v121.4c0,15,12.2,27.2,27.2,27.2h218.5
		c15,0,27.2-12.2,27.2-27.2V108c0-15-12.2-27.2-27.2-27.2H44.2z"/>
</g>
<g id="XMLID_12_">
	<g id="XMLID_37_">
		<path id="XMLID_38_" class="st2" d="M69.5,159.3H50.6c-4.9,0-8.9-4-8.9-8.9v-33.3c0-4.9,4-8.9,8.9-8.9h18.9V159.3z M50.6,115.3
			c-1,0-1.9,0.8-1.9,1.9v33.3c0,1,0.8,1.9,1.9,1.9h11.9v-37H50.6z"/>
	</g>
	<g id="XMLID_35_">
		<path id="XMLID_36_" class="st2" d="M102.1,159.3H86.8v-7h15.4c1,0,1.9-0.8,1.9-1.9v-24h7v24C111,155.3,107,159.3,102.1,159.3z"/>
	</g>
	<g id="XMLID_33_">
		<path id="XMLID_34_" class="st2" d="M90.3,159.3H62.5v-51h39.6c4.9,0,8.9,4,8.9,8.9v12.8H97.6v-7h6.4v-5.8c0-1-0.8-1.9-1.9-1.9
			H69.5v37h13.8v-14h7V159.3z"/>
	</g>
	<g id="XMLID_29_">
		<path id="XMLID_30_" class="st2" d="M69.5,144.6H41.8v-21.7h27.8V144.6z M48.8,137.6h13.8v-7.7H48.8V137.6z"/>
	</g>
	<g id="XMLID_13_">
		<path id="XMLID_14_" class="st2" d="M111,144.6H83.3v-11.7c0-5.5,4.5-10,10-10H111V144.6z M90.3,137.6H104v-7.7H93.2
			c-1.6,0-3,1.3-3,3V137.6z"/>
	</g>
</g>
<line id="XMLID_11_" class="st3" x1="49.5" y1="204.3" x2="111" y2="204.3"/>
<g id="XMLID_4_">
	<g id="XMLID_111_">
		<line id="XMLID_115_" class="st4" x1="49.5" y1="225.8" x2="55.5" y2="225.8"/>
		<line id="XMLID_114_" class="st5" x1="69.1" y1="225.8" x2="104.5" y2="225.8"/>
		<line id="XMLID_113_" class="st6" x1="113.6" y1="225.8" x2="173.4" y2="225.8"/>
		<line id="XMLID_112_" class="st4" x1="182.5" y1="225.8" x2="188.5" y2="225.8"/>
	</g>
</g>
<line id="XMLID_3_" class="st3" x1="126.5" y1="204.3" x2="188" y2="204.3"/>
</svg>
