<?xml version="1.0" encoding="utf-8"?>
<!-- Generator: Adobe Illustrator 19.0.0, SVG Export Plug-In . SVG Version: 6.00 Build 0)  -->
<svg version="1.1" id="Layer_1" xmlns="http://www.w3.org/2000/svg" xmlns:xlink="http://www.w3.org/1999/xlink" x="0px" y="0px"
	 viewBox="0 0 316.3 213.6" style="enable-background:new 0 0 316.3 213.6;" xml:space="preserve">
<style type="text/css">
	.st0{opacity:0.15;fill:#371BE1;}
	.st1{fill:none;stroke:#371BE1;stroke-width:7;stroke-miterlimit:10;}
	.st2{fill:#371BE1;}
	.st3{fill-rule:evenodd;clip-rule:evenodd;fill:#371BE1;}
	.st4{fill:none;stroke:#371BE1;stroke-width:7;stroke-linecap:round;stroke-linejoin:round;stroke-miterlimit:10;}
	.st5{fill:none;stroke:#371BE1;stroke-width:7;stroke-linecap:round;stroke-linejoin:round;}
	.st6{fill:none;stroke:#371BE1;stroke-width:7;stroke-linecap:round;stroke-linejoin:round;stroke-dasharray:26.3071,18.1429;}
	
		.st7{fill:none;stroke:#371BE1;stroke-width:7;stroke-linecap:round;stroke-linejoin:round;stroke-dasharray:10.8857,13.6071,26.3071,18.1429;}
</style>
<path id="XMLID_103_" class="st0" d="M244.6,13.5C225,60.5,169.3,201.2,113,201.2s160.4,0,160.4,0l20.7-9.9l10.4-22.3V45.4l-7.3-18
	l-20.3-13.3L244.6,13.5z"/>
<path id="XMLID_102_" class="st1" d="M271.2,201.2H46.8c-17.4,0-31.5-14.1-31.5-31.5V45c0-17.4,14.1-31.5,31.5-31.5h224.4
	c17.4,0,31.5,14.1,31.5,31.5v124.7C302.6,187.1,288.5,201.2,271.2,201.2z"/>
<g id="XMLID_85_">
	<g id="XMLID_98_">
		<path id="XMLID_99_" class="st2" d="M71.1,95.3H52.2c-4.9,0-8.9-4-8.9-8.9V53.2c0-4.9,4-8.9,8.9-8.9h18.9V95.3z M52.2,51.3
			c-1,0-1.9,0.8-1.9,1.9v33.3c0,1,0.8,1.9,1.9,1.9h11.9v-37H52.2z"/>
	</g>
	<g id="XMLID_96_">
		<path id="XMLID_97_" class="st2" d="M103.8,95.3H88.4v-7h15.4c1,0,1.9-0.8,1.9-1.9v-24h7v24C112.6,91.4,108.6,95.3,103.8,95.3z"/>
	</g>
	<g id="XMLID_94_">
		<path id="XMLID_95_" class="st2" d="M91.9,95.3H64.1v-51h39.6c4.9,0,8.9,4,8.9,8.9V66H99.3v-7h6.4v-5.8c0-1-0.8-1.9-1.9-1.9H71.1
			v37h13.8v-14h7V95.3z"/>
	</g>
	<g id="XMLID_90_">
		<path id="XMLID_91_" class="st2" d="M71.1,80.7H43.4V59h27.8V80.7z M50.4,73.7h13.8V66H50.4V73.7z"/>
	</g>
	<g id="XMLID_86_">
		<path id="XMLID_87_" class="st2" d="M112.6,80.7H84.9V69c0-5.5,4.5-10,10-10h17.8V80.7z M91.9,73.7h13.8V66H94.9c-1.6,0-3,1.3-3,3
			V73.7z"/>
	</g>
</g>
<g id="XMLID_76_">
	<path id="XMLID_84_" class="st3" d="M231.4,97.3c1.9,0,3.5-1.6,3.5-3.5c0-1.9-1.6-3.5-3.5-3.5c-1.9,0-3.5,1.6-3.5,3.5
		C227.9,95.7,229.5,97.3,231.4,97.3L231.4,97.3z"/>
	<path id="XMLID_83_" class="st3" d="M245.4,109.6c1.9,0,3.5-1.6,3.5-3.5c0-1.9-1.6-3.5-3.5-3.5c-1.9,0-3.5,1.6-3.5,3.5
		C241.9,108,243.5,109.6,245.4,109.6L245.4,109.6z"/>
	<path id="XMLID_82_" class="st3" d="M259.4,97.3c1.9,0,3.5-1.6,3.5-3.5c0-1.9-1.6-3.5-3.5-3.5c-1.9,0-3.5,1.6-3.5,3.5
		C255.9,95.7,257.5,97.3,259.4,97.3L259.4,97.3z"/>
	<path id="XMLID_81_" class="st3" d="M273.4,106.6c1.9,0,3.5-1.6,3.5-3.5c0-1.9-1.6-3.5-3.5-3.5c-1.9,0-3.5,1.6-3.5,3.5
		C269.9,105,271.5,106.6,273.4,106.6L273.4,106.6z"/>
	<path id="XMLID_78_" class="st3" d="M213.9,125.1v1v21.3c0,17.3,14.2,31.5,31.5,31.5s31.5-14.2,31.5-31.5v-21.3v-1v-12.3
		c0-1.9-1.6-3.5-3.5-3.5l0,0c-1.9,0-3.5,1.6-3.5,3.5v5.2c0,1.9-1.6,3.5-3.5,3.5l0,0c-1.7,0-3.2-1.3-3.5-2.9l0,0v-0.6v-14.5
		c0-1.9-1.6-3.5-3.5-3.5l0,0c-1.9,0-3.5,1.6-3.5,3.5v16.9v5.7c0,1.9-1.6,3.5-3.5,3.5l0,0c-1.9,0-3.5-1.6-3.5-3.5v-1.6v-8.7
		c0-1.9-1.6-3.5-3.5-3.5l0,0c-1.9,0-3.5,1.6-3.5,3.5v8.7v1.6c0,1.9-1.6,3.5-3.5,3.5l0,0c-1.9,0-3.5-1.6-3.5-3.5v-5.7v-16.9
		c0-1.9-1.6-3.5-3.5-3.5l0,0c-1.9,0-3.5,1.6-3.5,3.5v14.5v0.6l0,0c-0.3,1.7-1.7,2.9-3.5,2.9l0,0c-1.9,0-3.5-1.6-3.5-3.5v-5.2
		c0-1.9-1.6-3.5-3.5-3.5l0,0c-1.9,0-3.5,1.6-3.5,3.5V125.1L213.9,125.1z M245.4,171.9c-13.5,0-24.5-11-24.5-24.5v-18.4l24.5,14.1
		l1.1-0.6l23.4-13.5v18.4C269.9,160.8,258.9,171.9,245.4,171.9L245.4,171.9z"/>
	<path id="XMLID_77_" class="st3" d="M217.4,99.6c1.9,0,3.5,1.6,3.5,3.5c0,1.9-1.6,3.5-3.5,3.5c-1.9,0-3.5-1.6-3.5-3.5
		C213.9,101.1,215.4,99.6,217.4,99.6L217.4,99.6z"/>
</g>
<line id="XMLID_75_" class="st4" x1="51.1" y1="146.4" x2="112.6" y2="146.4"/>
<g id="XMLID_68_">
	<g id="XMLID_108_">
		<line id="XMLID_112_" class="st5" x1="51.1" y1="167.9" x2="57.1" y2="167.9"/>
		<line id="XMLID_111_" class="st6" x1="70.7" y1="167.9" x2="106.1" y2="167.9"/>
		<line id="XMLID_110_" class="st7" x1="115.2" y1="167.9" x2="175.1" y2="167.9"/>
		<line id="XMLID_109_" class="st5" x1="184.1" y1="167.9" x2="190.1" y2="167.9"/>
	</g>
</g>
<line id="XMLID_67_" class="st4" x1="128.1" y1="146.4" x2="189.6" y2="146.4"/>
</svg>
