<?xml version="1.0" encoding="utf-8"?>
<!-- Generator: Adobe Illustrator 19.0.0, SVG Export Plug-In . SVG Version: 6.00 Build 0)  -->
<svg version="1.1" id="Layer_1" xmlns="http://www.w3.org/2000/svg" xmlns:xlink="http://www.w3.org/1999/xlink" x="0px" y="0px"
	 viewBox="0 0 316.3 213.6" style="enable-background:new 0 0 316.3 213.6;" xml:space="preserve">
<style type="text/css">
	.st0{opacity:0.15;fill:#371BE1;}
	.st1{fill:none;stroke:#371BE1;stroke-width:7;stroke-miterlimit:10;}
	.st2{fill:#371BE1;}
	.st3{fill-rule:evenodd;clip-rule:evenodd;fill:#371BE1;}
	.st4{fill:none;stroke:#371BE1;stroke-width:7;stroke-linecap:round;stroke-linejoin:round;stroke-miterlimit:10;}
	.st5{fill:none;stroke:#371BE1;stroke-width:7;stroke-linecap:round;stroke-linejoin:round;}
	.st6{fill:none;stroke:#371BE1;stroke-width:7;stroke-linecap:round;stroke-linejoin:round;stroke-dasharray:26.3071,18.1429;}
	
		.st7{fill:none;stroke:#371BE1;stroke-width:7;stroke-linecap:round;stroke-linejoin:round;stroke-dasharray:10.8857,13.6071,26.3071,18.1429;}
	.st8{fill:none;}
	.st9{font-family:'Montserrat-Bold';}
	.st10{font-size:32px;}
	.st11{letter-spacing:2;}
</style>
<path id="XMLID_106_" class="st0" d="M148,12.5c-19.7,47,50.7,187.7-5.7,187.7s127.4,0,127.4,0l20.7-9.9l10.4-22.3V44.4l-7.3-18
	l-20.3-13.3L148,12.5z"/>
<path id="XMLID_105_" class="st1" d="M270.6,200.2H46.3c-17.4,0-31.5-14.1-31.5-31.5V44c0-17.4,14.1-31.5,31.5-31.5h224.4
	c17.4,0,31.5,14.1,31.5,31.5v124.7C302.1,186.1,288,200.2,270.6,200.2z"/>
<g id="XMLID_88_">
	<g id="XMLID_101_">
		<path id="XMLID_102_" class="st2" d="M70.6,94.3H51.7c-4.9,0-8.9-4-8.9-8.9V52.2c0-4.9,4-8.9,8.9-8.9h18.9V94.3z M51.7,50.3
			c-1,0-1.9,0.8-1.9,1.9v33.3c0,1,0.8,1.9,1.9,1.9h11.9v-37H51.7z"/>
	</g>
	<g id="XMLID_99_">
		<path id="XMLID_100_" class="st2" d="M103.2,94.3H87.9v-7h15.4c1,0,1.9-0.8,1.9-1.9v-24h7v24C112.1,90.4,108.1,94.3,103.2,94.3z"
			/>
	</g>
	<g id="XMLID_97_">
		<path id="XMLID_98_" class="st2" d="M91.4,94.3H63.6v-51h39.6c4.9,0,8.9,4,8.9,8.9V65H98.7v-7h6.4v-5.8c0-1-0.8-1.9-1.9-1.9H70.6
			v37h13.8v-14h7V94.3z"/>
	</g>
	<g id="XMLID_93_">
		<path id="XMLID_94_" class="st2" d="M70.6,79.7H42.9V58h27.7V79.7z M49.9,72.7h13.8V65H49.9V72.7z"/>
	</g>
	<g id="XMLID_89_">
		<path id="XMLID_90_" class="st2" d="M112.1,79.7H84.4V68c0-5.5,4.5-10,10-10h17.8V79.7z M91.4,72.7h13.8V65H94.3c-1.6,0-3,1.3-3,3
			V72.7z"/>
	</g>
</g>
<g id="XMLID_79_">
	<path id="XMLID_87_" class="st3" d="M230.9,96.3c1.9,0,3.5-1.6,3.5-3.5c0-1.9-1.6-3.5-3.5-3.5c-1.9,0-3.5,1.6-3.5,3.5
		C227.4,94.7,228.9,96.3,230.9,96.3L230.9,96.3z"/>
	<path id="XMLID_86_" class="st3" d="M244.9,108.6c1.9,0,3.5-1.6,3.5-3.5c0-1.9-1.6-3.5-3.5-3.5c-1.9,0-3.5,1.6-3.5,3.5
		C241.4,107,242.9,108.6,244.9,108.6L244.9,108.6z"/>
	<path id="XMLID_85_" class="st3" d="M258.9,96.3c1.9,0,3.5-1.6,3.5-3.5c0-1.9-1.6-3.5-3.5-3.5c-1.9,0-3.5,1.6-3.5,3.5
		C255.4,94.7,256.9,96.3,258.9,96.3L258.9,96.3z"/>
	<path id="XMLID_84_" class="st3" d="M272.9,105.6c1.9,0,3.5-1.6,3.5-3.5c0-1.9-1.6-3.5-3.5-3.5c-1.9,0-3.5,1.6-3.5,3.5
		C269.4,104,271,105.6,272.9,105.6L272.9,105.6z"/>
	<path id="XMLID_81_" class="st3" d="M213.4,124.1v1v21.3c0,17.3,14.2,31.5,31.5,31.5s31.5-14.2,31.5-31.5v-21.3v-1v-12.3
		c0-1.9-1.6-3.5-3.5-3.5l0,0c-1.9,0-3.5,1.6-3.5,3.5v5.2c0,1.9-1.6,3.5-3.5,3.5l0,0c-1.7,0-3.2-1.3-3.5-2.9l0,0v-0.6v-14.5
		c0-1.9-1.6-3.5-3.5-3.5l0,0c-1.9,0-3.5,1.6-3.5,3.5v16.9v5.7c0,1.9-1.6,3.5-3.5,3.5l0,0c-1.9,0-3.5-1.6-3.5-3.5v-1.6v-8.7
		c0-1.9-1.6-3.5-3.5-3.5l0,0c-1.9,0-3.5,1.6-3.5,3.5v8.7v1.6c0,1.9-1.6,3.5-3.5,3.5l0,0c-1.9,0-3.5-1.6-3.5-3.5v-5.7v-16.9
		c0-1.9-1.6-3.5-3.5-3.5l0,0c-1.9,0-3.5,1.6-3.5,3.5v14.5v0.6l0,0c-0.3,1.7-1.7,2.9-3.5,2.9l0,0c-1.9,0-3.5-1.6-3.5-3.5v-5.2
		c0-1.9-1.6-3.5-3.5-3.5l0,0c-1.9,0-3.5,1.6-3.5,3.5V124.1L213.4,124.1z M244.9,170.9c-13.5,0-24.5-11-24.5-24.5v-18.4l24.5,14.1
		l1.1-0.6l23.4-13.5v18.4C269.4,159.8,258.3,170.9,244.9,170.9L244.9,170.9z"/>
	<path id="XMLID_80_" class="st3" d="M216.9,98.6c1.9,0,3.5,1.6,3.5,3.5c0,1.9-1.6,3.5-3.5,3.5c-1.9,0-3.5-1.6-3.5-3.5
		C213.4,100.1,214.9,98.6,216.9,98.6L216.9,98.6z"/>
</g>
<line id="XMLID_78_" class="st4" x1="50.6" y1="145.4" x2="112.1" y2="145.4"/>
<g id="XMLID_71_">
	<g id="XMLID_110_">
		<line id="XMLID_114_" class="st5" x1="50.6" y1="166.9" x2="56.6" y2="166.9"/>
		<line id="XMLID_113_" class="st6" x1="70.2" y1="166.9" x2="105.6" y2="166.9"/>
		<line id="XMLID_112_" class="st7" x1="114.7" y1="166.9" x2="174.5" y2="166.9"/>
		<line id="XMLID_111_" class="st5" x1="183.6" y1="166.9" x2="189.6" y2="166.9"/>
	</g>
</g>
<line id="XMLID_70_" class="st4" x1="127.6" y1="145.4" x2="189.1" y2="145.4"/>
<rect id="XMLID_1_" x="156.9" y="48.4" class="st8" width="120" height="62.5"/>
<text id="XMLID_68_" transform="matrix(1 0 0 1 197.3503 72.1649)" class="st2 st9 st10 st11">MPS</text>
</svg>
