<?xml version="1.0" encoding="utf-8"?>
<!-- Generator: Adobe Illustrator 19.0.0, SVG Export Plug-In . SVG Version: 6.00 Build 0)  -->
<svg version="1.1" id="Layer_1" xmlns="http://www.w3.org/2000/svg" xmlns:xlink="http://www.w3.org/1999/xlink" x="0px" y="0px"
	 viewBox="0 0 316.3 213.6" style="enable-background:new 0 0 316.3 213.6;" xml:space="preserve">
<style type="text/css">
	.st0{fill:#FFFFFF;stroke:#371BE1;stroke-width:7;stroke-miterlimit:10;}
	.st1{fill:#371BE1;}
	.st2{fill-rule:evenodd;clip-rule:evenodd;fill:#371BE1;}
	.st3{fill:none;stroke:#371BE1;stroke-width:7;stroke-linecap:round;stroke-linejoin:round;stroke-miterlimit:10;}
	.st4{fill:none;stroke:#371BE1;stroke-width:7;stroke-linecap:round;stroke-linejoin:round;}
	.st5{fill:none;stroke:#371BE1;stroke-width:7;stroke-linecap:round;stroke-linejoin:round;stroke-dasharray:26.3071,18.1429;}
	
		.st6{fill:none;stroke:#371BE1;stroke-width:7;stroke-linecap:round;stroke-linejoin:round;stroke-dasharray:10.8857,13.6071,26.3071,18.1429;}
	.st7{fill:none;}
	.st8{font-family:'Montserrat-Bold';}
	.st9{font-size:32px;}
	.st10{letter-spacing:2;}
</style>
<path id="XMLID_105_" class="st0" d="M270.9,199.2H46.5c-17.4,0-31.5-14.1-31.5-31.5V43c0-17.4,14.1-31.5,31.5-31.5h224.4
	c17.4,0,31.5,14.1,31.5,31.5v124.7C302.4,185.1,288.3,199.2,270.9,199.2z"/>
<g id="XMLID_88_">
	<g id="XMLID_101_">
		<path id="XMLID_102_" class="st1" d="M70.9,93.3H52c-4.9,0-8.9-4-8.9-8.9V51.2c0-4.9,4-8.9,8.9-8.9h18.9V93.3z M52,49.3
			c-1,0-1.9,0.8-1.9,1.9v33.3c0,1,0.8,1.9,1.9,1.9h11.9v-37H52z"/>
	</g>
	<g id="XMLID_99_">
		<path id="XMLID_100_" class="st1" d="M103.5,93.3H88.1v-7h15.4c1,0,1.9-0.8,1.9-1.9v-24h7v24C112.4,89.4,108.4,93.3,103.5,93.3z"
			/>
	</g>
	<g id="XMLID_97_">
		<path id="XMLID_98_" class="st1" d="M91.6,93.3H63.9v-51h39.6c4.9,0,8.9,4,8.9,8.9V64H99v-7h6.4v-5.8c0-1-0.8-1.9-1.9-1.9H70.9v37
			h13.8v-14h7V93.3z"/>
	</g>
	<g id="XMLID_93_">
		<path id="XMLID_94_" class="st1" d="M70.9,78.7H43.1V57h27.8V78.7z M50.1,71.7h13.8V64H50.1V71.7z"/>
	</g>
	<g id="XMLID_89_">
		<path id="XMLID_90_" class="st1" d="M112.4,78.7H84.6V67c0-5.5,4.5-10,10-10h17.8V78.7z M91.6,71.7h13.8V64H94.6c-1.6,0-3,1.3-3,3
			V71.7z"/>
	</g>
</g>
<g id="XMLID_79_">
	<path id="XMLID_87_" class="st2" d="M231.1,95.3c1.9,0,3.5-1.6,3.5-3.5c0-1.9-1.6-3.5-3.5-3.5c-1.9,0-3.5,1.6-3.5,3.5
		C227.6,93.7,229.2,95.3,231.1,95.3L231.1,95.3z"/>
	<path id="XMLID_86_" class="st2" d="M245.1,107.6c1.9,0,3.5-1.6,3.5-3.5c0-1.9-1.6-3.5-3.5-3.5c-1.9,0-3.5,1.6-3.5,3.5
		C241.6,106,243.2,107.6,245.1,107.6L245.1,107.6z"/>
	<path id="XMLID_85_" class="st2" d="M259.1,95.3c1.9,0,3.5-1.6,3.5-3.5c0-1.9-1.6-3.5-3.5-3.5c-1.9,0-3.5,1.6-3.5,3.5
		C255.6,93.7,257.2,95.3,259.1,95.3L259.1,95.3z"/>
	<path id="XMLID_84_" class="st2" d="M273.1,104.6c1.9,0,3.5-1.6,3.5-3.5c0-1.9-1.6-3.5-3.5-3.5c-1.9,0-3.5,1.6-3.5,3.5
		C269.6,103,271.2,104.6,273.1,104.6L273.1,104.6z"/>
	<path id="XMLID_81_" class="st2" d="M213.6,123.1v1v21.3c0,17.3,14.2,31.5,31.5,31.5c17.3,0,31.5-14.2,31.5-31.5v-21.3v-1v-12.3
		c0-1.9-1.6-3.5-3.5-3.5l0,0c-1.9,0-3.5,1.6-3.5,3.5v5.2c0,1.9-1.6,3.5-3.5,3.5l0,0c-1.7,0-3.2-1.3-3.5-2.9l0,0v-0.6v-14.5
		c0-1.9-1.6-3.5-3.5-3.5l0,0c-1.9,0-3.5,1.6-3.5,3.5v16.9v5.7c0,1.9-1.6,3.5-3.5,3.5l0,0c-1.9,0-3.5-1.6-3.5-3.5v-1.6v-8.7
		c0-1.9-1.6-3.5-3.5-3.5l0,0c-1.9,0-3.5,1.6-3.5,3.5v8.7v1.6c0,1.9-1.6,3.5-3.5,3.5l0,0c-1.9,0-3.5-1.6-3.5-3.5v-5.7v-16.9
		c0-1.9-1.6-3.5-3.5-3.5l0,0c-1.9,0-3.5,1.6-3.5,3.5v14.5v0.6l0,0c-0.3,1.7-1.7,2.9-3.5,2.9l0,0c-1.9,0-3.5-1.6-3.5-3.5v-5.2
		c0-1.9-1.6-3.5-3.5-3.5l0,0c-1.9,0-3.5,1.6-3.5,3.5V123.1L213.6,123.1z M245.1,169.9c-13.5,0-24.5-11-24.5-24.5v-18.4l24.5,14.1
		l1.1-0.6l23.4-13.5v18.4C269.6,158.8,258.6,169.9,245.1,169.9L245.1,169.9z"/>
	<path id="XMLID_80_" class="st2" d="M217.1,97.6c1.9,0,3.5,1.6,3.5,3.5c0,1.9-1.6,3.5-3.5,3.5c-1.9,0-3.5-1.6-3.5-3.5
		C213.6,99.1,215.2,97.6,217.1,97.6L217.1,97.6z"/>
</g>
<line id="XMLID_78_" class="st3" x1="50.9" y1="144.4" x2="112.4" y2="144.4"/>
<g id="XMLID_71_">
	<g id="XMLID_13_">
		<line id="XMLID_17_" class="st4" x1="50.9" y1="165.9" x2="56.9" y2="165.9"/>
		<line id="XMLID_16_" class="st5" x1="70.5" y1="165.9" x2="105.9" y2="165.9"/>
		<line id="XMLID_15_" class="st6" x1="114.9" y1="165.9" x2="174.8" y2="165.9"/>
		<line id="XMLID_14_" class="st4" x1="183.9" y1="165.9" x2="189.9" y2="165.9"/>
	</g>
</g>
<line id="XMLID_70_" class="st3" x1="127.9" y1="144.4" x2="189.4" y2="144.4"/>
<rect id="XMLID_2_" x="157.1" y="47.4" class="st7" width="120" height="62.5"/>
<text id="XMLID_68_" transform="matrix(1 0 0 1 197.6076 71.1649)" class="st1 st8 st9 st10">MPS</text>
</svg>
