<?xml version="1.0" encoding="utf-8"?>
<!-- Generator: Adobe Illustrator 19.0.0, SVG Export Plug-In . SVG Version: 6.00 Build 0)  -->
<svg version="1.1" id="Layer_1" xmlns="http://www.w3.org/2000/svg" xmlns:xlink="http://www.w3.org/1999/xlink" x="0px" y="0px"
	 viewBox="0 0 375.1 213.6" style="enable-background:new 0 0 375.1 213.6;" xml:space="preserve">
<style type="text/css">
	.st0{opacity:0.15;}
	.st1{fill-rule:evenodd;clip-rule:evenodd;fill:#371BE1;}
	.st2{fill:#FFFFFF;}
	.st3{fill:#371BE1;}
	.st4{fill:none;stroke:#371BE1;stroke-width:7;stroke-linecap:round;stroke-linejoin:round;stroke-miterlimit:10;}
	.st5{fill:none;stroke:#371BE1;stroke-width:7;stroke-linecap:round;stroke-linejoin:round;}
	.st6{fill:none;stroke:#371BE1;stroke-width:7;stroke-linecap:round;stroke-linejoin:round;stroke-dasharray:26.3071,18.1429;}
	
		.st7{fill:none;stroke:#371BE1;stroke-width:7;stroke-linecap:round;stroke-linejoin:round;stroke-dasharray:10.8857,13.6071,26.3071,18.1429;}
</style>
<g id="XMLID_68_" class="st0">
	<circle id="XMLID_78_" class="st1" cx="364.2" cy="37.1" r="5.7"/>
	<circle id="XMLID_77_" class="st1" cx="344.1" cy="60.1" r="5.7"/>
	<circle id="XMLID_76_" class="st1" cx="364.2" cy="83" r="5.7"/>
	<circle id="XMLID_75_" class="st1" cx="349" cy="14.2" r="5.7"/>
	<circle id="XMLID_74_" class="st1" cx="364.2" cy="128.8" r="5.7"/>
	<circle id="XMLID_73_" class="st1" cx="344.1" cy="151.7" r="5.7"/>
	<circle id="XMLID_72_" class="st1" cx="364.2" cy="174.6" r="5.7"/>
	<circle id="XMLID_71_" class="st1" cx="349" cy="197.5" r="5.7"/>
	<path id="XMLID_70_" class="st1" d="M349,100.1c-3.2,0-5.7,2.6-5.7,5.7v0c0,0,0,0,0,0c0,3.2,2.6,5.7,5.7,5.7c3.2,0,5.7-2.6,5.7-5.7
		c0,0,0,0,0,0v0C354.7,102.7,352.2,100.1,349,100.1z"/>
	<path id="XMLID_69_" class="st1" d="M333,191.8h-8.5c-3.1,0-5.7-2.6-5.7-5.7c0-2.8,2.1-5.2,4.8-5.6l0-0.1h1h23.7
		c3.2,0,5.7-2.6,5.7-5.7c0-3.1-2.6-5.7-5.7-5.7h-27.7h-9.3c-3.1,0-5.7-2.6-5.7-5.7c0-3.2,2.6-5.7,5.7-5.7h2.7H328
		c3.1,0,5.7-2.6,5.7-5.7c0-3.1-2.6-5.7-5.7-5.7h-14.2h-2.7c-3.1,0-5.7-2.6-5.7-5.7c0-3.1,2.6-5.7,5.7-5.7h9.3h27.7
		c3.2,0,5.7-2.6,5.7-5.7c0-3.2-2.6-5.7-5.7-5.7h-23.7h-1l0-0.1c-2.7-0.5-4.8-2.8-4.8-5.6c0-3.2,2.6-5.7,5.7-5.7h8.5
		c2.5,0,4.6-1.6,5.4-3.8c0.2-0.6,0.4-1.2,0.4-1.9c0,0,0,0,0,0v0c0-0.8-0.2-1.5-0.5-2.2c-0.9-2.1-2.9-3.5-5.3-3.5h-8.5
		c-3.1,0-5.7-2.6-5.7-5.7c0-2.8,2.1-5.2,4.8-5.6l0-0.1h1h23.7c3.2,0,5.7-2.6,5.7-5.7c0-3.1-2.6-5.7-5.7-5.7h-27.7h-9.3
		c-3.1,0-5.7-2.6-5.7-5.7c0-3.2,2.6-5.7,5.7-5.7h2.7H328c3.1,0,5.7-2.6,5.7-5.7s-2.6-5.7-5.7-5.7h-14.2h-2.7c-3.1,0-5.7-2.6-5.7-5.7
		c0-3.1,2.6-5.7,5.7-5.7h9.3h27.7c3.2,0,5.7-2.6,5.7-5.7c0-3.2-2.6-5.7-5.7-5.7h-23.7h-1l0-0.1c-2.7-0.5-4.8-2.8-4.8-5.6
		c0-3.2,2.6-5.7,5.7-5.7h8.5c3.1,0,5.7-2.6,5.7-5.7c0-3.1-2.6-5.7-5.7-5.7h-20.1h-1.7h-45.4l26.4,91.6h-26.4l-10.5,103.1h55.9h1.7
		H333c3.1,0,5.7-2.6,5.7-5.7C338.7,194.4,336.1,191.8,333,191.8z"/>
</g>
<g id="XMLID_50_">
	<path id="XMLID_67_" class="st2" d="M267.1,199.8H42.7c-17.4,0-31.5-14.1-31.5-31.5V43.6c0-17.4,14.1-31.5,31.5-31.5h224.4
		c17.4,0,31.5,14.1,31.5,31.5v124.7C298.5,185.7,284.4,199.8,267.1,199.8z"/>
	<path id="XMLID_51_" class="st3" d="M267.1,203.3H42.7c-19.3,0-35-15.7-35-35V43.6c0-19.3,15.7-35,35-35h224.4
		c19.3,0,35,15.7,35,35v124.7C302,187.6,286.3,203.3,267.1,203.3z M42.7,15.6c-15.4,0-28,12.5-28,28v124.7c0,15.4,12.5,28,28,28
		h224.4c15.4,0,28-12.5,28-28V43.6c0-15.4-12.5-28-28-28H42.7z"/>
</g>
<g id="XMLID_33_">
	<g id="XMLID_46_">
		<path id="XMLID_47_" class="st3" d="M67,93.9H48.1c-4.9,0-8.9-4-8.9-8.9V51.8c0-4.9,4-8.9,8.9-8.9H67V93.9z M48.1,49.9
			c-1,0-1.9,0.8-1.9,1.9V85c0,1,0.8,1.9,1.9,1.9H60v-37H48.1z"/>
	</g>
	<g id="XMLID_44_">
		<path id="XMLID_45_" class="st3" d="M99.7,93.9H84.3v-7h15.4c1,0,1.9-0.8,1.9-1.9v-24h7v24C108.5,89.9,104.5,93.9,99.7,93.9z"/>
	</g>
	<g id="XMLID_42_">
		<path id="XMLID_43_" class="st3" d="M87.8,93.9H60v-51h39.6c4.9,0,8.9,4,8.9,8.9v12.8H95.1v-7h6.4v-5.8c0-1-0.8-1.9-1.9-1.9H67v37
			h13.8v-14h7V93.9z"/>
	</g>
	<g id="XMLID_38_">
		<path id="XMLID_39_" class="st3" d="M67,79.2H39.3V57.6H67V79.2z M46.3,72.2H60v-7.7H46.3V72.2z"/>
	</g>
	<g id="XMLID_34_">
		<path id="XMLID_35_" class="st3" d="M108.5,79.2H80.8V67.5c0-5.5,4.5-10,10-10h17.8V79.2z M87.8,72.2h13.8v-7.7H90.8
			c-1.6,0-3,1.3-3,3V72.2z"/>
	</g>
</g>
<g id="XMLID_12_">
	<path id="XMLID_32_" class="st1" d="M227.3,95.8c1.9,0,3.5-1.6,3.5-3.5c0-1.9-1.6-3.5-3.5-3.5c-1.9,0-3.5,1.6-3.5,3.5
		C223.8,94.3,225.3,95.8,227.3,95.8L227.3,95.8z"/>
	<path id="XMLID_31_" class="st1" d="M241.3,108.1c1.9,0,3.5-1.6,3.5-3.5c0-1.9-1.6-3.5-3.5-3.5c-1.9,0-3.5,1.6-3.5,3.5
		C237.8,106.6,239.4,108.1,241.3,108.1L241.3,108.1z"/>
	<path id="XMLID_30_" class="st1" d="M255.3,95.8c1.9,0,3.5-1.6,3.5-3.5c0-1.9-1.6-3.5-3.5-3.5c-1.9,0-3.5,1.6-3.5,3.5
		C251.8,94.3,253.4,95.8,255.3,95.8L255.3,95.8z"/>
	<path id="XMLID_29_" class="st1" d="M269.3,105.1c1.9,0,3.5-1.6,3.5-3.5c0-1.9-1.6-3.5-3.5-3.5c-1.9,0-3.5,1.6-3.5,3.5
		C265.8,103.5,267.4,105.1,269.3,105.1L269.3,105.1z"/>
	<path id="XMLID_14_" class="st1" d="M209.8,123.7v1V146c0,17.3,14.2,31.5,31.5,31.5c17.3,0,31.5-14.2,31.5-31.5v-21.3v-1v-12.3
		c0-1.9-1.6-3.5-3.5-3.5l0,0c-1.9,0-3.5,1.6-3.5,3.5v5.2c0,1.9-1.6,3.5-3.5,3.5l0,0c-1.7,0-3.2-1.3-3.5-2.9l0,0v-0.6v-14.5
		c0-1.9-1.6-3.5-3.5-3.5l0,0c-1.9,0-3.5,1.6-3.5,3.5V119v5.7c0,1.9-1.6,3.5-3.5,3.5l0,0c-1.9,0-3.5-1.6-3.5-3.5v-1.6v-8.7
		c0-1.9-1.6-3.5-3.5-3.5l0,0c-1.9,0-3.5,1.6-3.5,3.5v8.7v1.6c0,1.9-1.6,3.5-3.5,3.5l0,0c-1.9,0-3.5-1.6-3.5-3.5V119v-16.9
		c0-1.9-1.6-3.5-3.5-3.5l0,0c-1.9,0-3.5,1.6-3.5,3.5v14.5v0.6l0,0c-0.3,1.7-1.7,2.9-3.5,2.9l0,0c-1.9,0-3.5-1.6-3.5-3.5v-5.2
		c0-1.9-1.6-3.5-3.5-3.5l0,0c-1.9,0-3.5,1.6-3.5,3.5V123.7L209.8,123.7z M241.3,170.4c-13.5,0-24.5-11-24.5-24.5v-18.4l24.5,14.1
		l1.1-0.6l23.4-13.5v18.4C265.8,159.3,254.7,170.4,241.3,170.4L241.3,170.4z"/>
	<path id="XMLID_13_" class="st1" d="M213.3,98.1c1.9,0,3.5,1.6,3.5,3.5c0,1.9-1.6,3.5-3.5,3.5c-1.9,0-3.5-1.6-3.5-3.5
		C209.8,99.7,211.3,98.1,213.3,98.1L213.3,98.1z"/>
</g>
<line id="XMLID_11_" class="st4" x1="47" y1="144.9" x2="108.5" y2="144.9"/>
<g id="XMLID_4_">
	<g id="XMLID_83_">
		<line id="XMLID_87_" class="st5" x1="47" y1="166.4" x2="53" y2="166.4"/>
		<line id="XMLID_86_" class="st6" x1="66.6" y1="166.4" x2="102" y2="166.4"/>
		<line id="XMLID_85_" class="st7" x1="111.1" y1="166.4" x2="171" y2="166.4"/>
		<line id="XMLID_84_" class="st5" x1="180" y1="166.4" x2="186" y2="166.4"/>
	</g>
</g>
<line id="XMLID_3_" class="st4" x1="124" y1="144.9" x2="185.5" y2="144.9"/>
</svg>
