<?xml version="1.0" encoding="utf-8"?>
<!-- Generator: Adobe Illustrator 19.0.0, SVG Export Plug-In . SVG Version: 6.00 Build 0)  -->
<svg version="1.1" id="Layer_1" xmlns="http://www.w3.org/2000/svg" xmlns:xlink="http://www.w3.org/1999/xlink" x="0px" y="0px"
	 viewBox="0 0 316.3 213.6" style="enable-background:new 0 0 316.3 213.6;" xml:space="preserve">
<style type="text/css">
	.st0{fill:#FFFFFF;stroke:#371BE1;stroke-width:7;stroke-miterlimit:10;}
	.st1{fill:#371BE1;}
	.st2{fill-rule:evenodd;clip-rule:evenodd;fill:#371BE1;}
	.st3{fill:none;stroke:#371BE1;stroke-width:7;stroke-linecap:round;stroke-linejoin:round;stroke-miterlimit:10;}
	.st4{fill:none;stroke:#371BE1;stroke-width:7;stroke-linecap:round;stroke-linejoin:round;}
	.st5{fill:none;stroke:#371BE1;stroke-width:7;stroke-linecap:round;stroke-linejoin:round;stroke-dasharray:26.3071,18.1429;}
	
		.st6{fill:none;stroke:#371BE1;stroke-width:7;stroke-linecap:round;stroke-linejoin:round;stroke-dasharray:10.8857,13.6071,26.3071,18.1429;}
</style>
<path id="XMLID_109_" class="st0" d="M270.8,201.2H46.4C29,201.2,15,187.1,15,169.7V45C15,27.6,29,13.5,46.4,13.5h224.4
	c17.4,0,31.5,14.1,31.5,31.5v124.7C302.3,187.1,288.2,201.2,270.8,201.2z"/>
<g id="XMLID_92_">
	<g id="XMLID_105_">
		<path id="XMLID_106_" class="st1" d="M70.8,95.3H51.9c-4.9,0-8.9-4-8.9-8.9V53.2c0-4.9,4-8.9,8.9-8.9h18.9V95.3z M51.9,51.3
			c-1,0-1.9,0.8-1.9,1.9v33.3c0,1,0.8,1.9,1.9,1.9h11.9v-37H51.9z"/>
	</g>
	<g id="XMLID_103_">
		<path id="XMLID_104_" class="st1" d="M103.4,95.3H88v-7h15.4c1,0,1.9-0.8,1.9-1.9v-24h7v24C112.3,91.4,108.3,95.3,103.4,95.3z"/>
	</g>
	<g id="XMLID_101_">
		<path id="XMLID_102_" class="st1" d="M91.5,95.3H63.8v-51h39.6c4.9,0,8.9,4,8.9,8.9V66H98.9v-7h6.4v-5.8c0-1-0.8-1.9-1.9-1.9H70.8
			v37h13.8v-14h7V95.3z"/>
	</g>
	<g id="XMLID_97_">
		<path id="XMLID_98_" class="st1" d="M70.8,80.7H43V59h27.7V80.7z M50,73.7h13.8V66H50V73.7z"/>
	</g>
	<g id="XMLID_93_">
		<path id="XMLID_94_" class="st1" d="M112.3,80.7H84.5V69c0-5.5,4.5-10,10-10h17.8V80.7z M91.5,73.7h13.8V66H94.5c-1.6,0-3,1.3-3,3
			V73.7z"/>
	</g>
</g>
<g id="XMLID_83_">
	<path id="XMLID_91_" class="st2" d="M231,97.3c1.9,0,3.5-1.6,3.5-3.5c0-1.9-1.6-3.5-3.5-3.5c-1.9,0-3.5,1.6-3.5,3.5
		C227.5,95.7,229.1,97.3,231,97.3L231,97.3z"/>
	<path id="XMLID_90_" class="st2" d="M245.1,109.6c1.9,0,3.5-1.6,3.5-3.5c0-1.9-1.6-3.5-3.5-3.5c-1.9,0-3.5,1.6-3.5,3.5
		C241.6,108,243.1,109.6,245.1,109.6L245.1,109.6z"/>
	<path id="XMLID_89_" class="st2" d="M259.1,97.3c1.9,0,3.5-1.6,3.5-3.5c0-1.9-1.6-3.5-3.5-3.5c-1.9,0-3.5,1.6-3.5,3.5
		C255.6,95.7,257.1,97.3,259.1,97.3L259.1,97.3z"/>
	<path id="XMLID_88_" class="st2" d="M273.1,106.6c1.9,0,3.5-1.6,3.5-3.5c0-1.9-1.6-3.5-3.5-3.5c-1.9,0-3.5,1.6-3.5,3.5
		C269.6,105,271.1,106.6,273.1,106.6L273.1,106.6z"/>
	<path id="XMLID_85_" class="st2" d="M213.5,125.1v1v21.3c0,17.3,14.2,31.5,31.5,31.5c17.3,0,31.5-14.2,31.5-31.5v-21.3v-1v-12.3
		c0-1.9-1.6-3.5-3.5-3.5l0,0c-1.9,0-3.5,1.6-3.5,3.5v5.2c0,1.9-1.6,3.5-3.5,3.5l0,0c-1.7,0-3.2-1.3-3.5-2.9l0,0v-0.6v-14.5
		c0-1.9-1.6-3.5-3.5-3.5l0,0c-1.9,0-3.5,1.6-3.5,3.5v16.9v5.7c0,1.9-1.6,3.5-3.5,3.5l0,0c-1.9,0-3.5-1.6-3.5-3.5v-1.6v-8.7
		c0-1.9-1.6-3.5-3.5-3.5l0,0c-1.9,0-3.5,1.6-3.5,3.5v8.7v1.6c0,1.9-1.6,3.5-3.5,3.5l0,0c-1.9,0-3.5-1.6-3.5-3.5v-5.7v-16.9
		c0-1.9-1.6-3.5-3.5-3.5l0,0c-1.9,0-3.5,1.6-3.5,3.5v14.5v0.6l0,0c-0.3,1.7-1.7,2.9-3.5,2.9l0,0c-1.9,0-3.5-1.6-3.5-3.5v-5.2
		c0-1.9-1.6-3.5-3.5-3.5l0,0c-1.9,0-3.5,1.6-3.5,3.5V125.1L213.5,125.1z M245.1,171.9c-13.5,0-24.5-11-24.5-24.5v-18.4l24.5,14.1
		l1.1-0.6l23.4-13.5v18.4C269.6,160.8,258.5,171.9,245.1,171.9L245.1,171.9z"/>
	<path id="XMLID_84_" class="st2" d="M217,99.6c1.9,0,3.5,1.6,3.5,3.5c0,1.9-1.6,3.5-3.5,3.5c-1.9,0-3.5-1.6-3.5-3.5
		C213.5,101.1,215.1,99.6,217,99.6L217,99.6z"/>
</g>
<line id="XMLID_76_" class="st3" x1="50.8" y1="146.4" x2="112.3" y2="146.4"/>
<g id="XMLID_1_">
	<g id="XMLID_78_">
		<line id="XMLID_82_" class="st4" x1="50.8" y1="167.9" x2="56.8" y2="167.9"/>
		<line id="XMLID_81_" class="st5" x1="70.4" y1="167.9" x2="105.8" y2="167.9"/>
		<line id="XMLID_80_" class="st6" x1="114.8" y1="167.9" x2="174.7" y2="167.9"/>
		<line id="XMLID_79_" class="st4" x1="183.8" y1="167.9" x2="189.8" y2="167.9"/>
	</g>
</g>
<line id="XMLID_68_" class="st3" x1="127.8" y1="146.4" x2="189.3" y2="146.4"/>
</svg>
