<?xml version="1.0" encoding="utf-8"?>
<!-- Generator: Adobe Illustrator 19.0.0, SVG Export Plug-In . SVG Version: 6.00 Build 0)  -->
<svg version="1.1" id="Layer_1" xmlns="http://www.w3.org/2000/svg" xmlns:xlink="http://www.w3.org/1999/xlink" x="0px" y="0px"
	 viewBox="0 0 316.3 213.6" style="enable-background:new 0 0 316.3 213.6;" xml:space="preserve">
<style type="text/css">
	.st0{opacity:0.1;clip-path:url(#XMLID_69_);}
	.st1{fill-rule:evenodd;clip-rule:evenodd;fill:#371BE1;}
	.st2{fill:none;stroke:#371BE1;stroke-width:7;stroke-miterlimit:10;}
	.st3{fill:#371BE1;}
	.st4{fill:none;stroke:#371BE1;stroke-width:7;stroke-linecap:round;stroke-linejoin:round;stroke-miterlimit:10;}
	.st5{fill:none;stroke:#371BE1;stroke-width:7;stroke-linecap:round;stroke-linejoin:round;}
	.st6{fill:none;stroke:#371BE1;stroke-width:7;stroke-linecap:round;stroke-linejoin:round;stroke-dasharray:26.3071,18.1429;}
	
		.st7{fill:none;stroke:#371BE1;stroke-width:7;stroke-linecap:round;stroke-linejoin:round;stroke-dasharray:10.8857,13.6071,26.3071,18.1429;}
</style>
<g id="XMLID_103_">
	<defs>
		<path id="XMLID_104_" d="M120.1,13.3c-19.7,47,50.7,187.7-5.7,187.7s160.4,0,160.4,0l20.7-9.9l10.4-22.3V45.1l-7.3-18l-20.3-13.3
			L120.1,13.3z"/>
	</defs>
	<clipPath id="XMLID_69_">
		<use xlink:href="#XMLID_104_"  style="overflow:visible;"/>
	</clipPath>
	<g id="XMLID_105_" class="st0">
		<path id="XMLID_113_" class="st1" d="M189.9,53.5c4.8,0,8.7-3.9,8.7-8.7c0-4.8-3.9-8.7-8.7-8.7c-4.8,0-8.7,3.9-8.7,8.7
			C181.1,49.6,185,53.5,189.9,53.5L189.9,53.5z"/>
		<path id="XMLID_112_" class="st1" d="M224.8,84.2c4.8,0,8.7-3.9,8.7-8.7c0-4.8-3.9-8.7-8.7-8.7c-4.8,0-8.7,3.9-8.7,8.7
			C216.1,80.3,220,84.2,224.8,84.2L224.8,84.2z"/>
		<path id="XMLID_111_" class="st1" d="M259.8,53.5c4.8,0,8.7-3.9,8.7-8.7c0-4.8-3.9-8.7-8.7-8.7c-4.8,0-8.7,3.9-8.7,8.7
			C251.1,49.6,255,53.5,259.8,53.5L259.8,53.5z"/>
		<path id="XMLID_110_" class="st1" d="M294.8,76.7c4.8,0,8.7-3.9,8.7-8.7c0-4.8-3.9-8.7-8.7-8.7c-4.8,0-8.7,3.9-8.7,8.7
			C286,72.8,289.9,76.7,294.8,76.7L294.8,76.7z"/>
		<path id="XMLID_107_" class="st1" d="M146.2,123v2.6v53.1c0,43.3,35.4,78.7,78.7,78.7c43.3,0,78.7-35.4,78.7-78.7v-53.1V123V92.4
			c0-4.8-3.9-8.7-8.7-8.7l0,0c-4.8,0-8.7,3.9-8.7,8.7v13c0,4.8-3.9,8.7-8.7,8.7l0,0c-4.3,0-7.9-3.2-8.6-7.3l-0.1,0.1v-1.5V69.2
			c0-4.8-3.9-8.7-8.7-8.7l0,0c-4.8,0-8.7,3.9-8.7,8.7v42.3v14.1c0,4.8-3.9,8.7-8.7,8.7l0,0c-4.8,0-8.7-3.9-8.7-8.7v-4.1V100
			c0-4.8-3.9-8.7-8.7-8.7l0,0c-4.8,0-8.7,3.9-8.7,8.7v21.6v4.1c0,4.8-3.9,8.7-8.7,8.7l0,0c-4.8,0-8.7-3.9-8.7-8.7v-14.1V69.2
			c0-4.8-3.9-8.7-8.7-8.7l0,0c-4.8,0-8.7,3.9-8.7,8.7v36.2v1.5l-0.1-0.1c-0.7,4.1-4.3,7.3-8.6,7.3l0,0c-4.8,0-8.7-3.9-8.7-8.7v-13
			c0-4.8-3.9-8.7-8.7-8.7l0,0c-4.8,0-8.7,3.9-8.7,8.7V123L146.2,123z M224.8,239.7c-33.6,0-61.2-27.6-61.2-61.2v-46l61.2,35.3
			l2.7-1.6l58.5-33.8v46C286,212.1,258.4,239.7,224.8,239.7L224.8,239.7z"/>
		<path id="XMLID_106_" class="st1" d="M154.9,59.2c4.8,0,8.7,3.9,8.7,8.7c0,4.8-3.9,8.7-8.7,8.7c-4.8,0-8.7-3.9-8.7-8.7
			C146.2,63.1,150.1,59.2,154.9,59.2L154.9,59.2z"/>
	</g>
</g>
<path id="XMLID_102_" class="st2" d="M270.6,201H46.2c-17.4,0-31.5-14.1-31.5-31.5V44.8c0-17.4,14.1-31.5,31.5-31.5h224.4
	c17.4,0,31.5,14.1,31.5,31.5v124.7C302.1,186.9,288,201,270.6,201z"/>
<g id="XMLID_85_">
	<g id="XMLID_98_">
		<path id="XMLID_99_" class="st3" d="M70.6,95.1H51.7c-4.9,0-8.9-4-8.9-8.9V53c0-4.9,4-8.9,8.9-8.9h18.9V95.1z M51.7,51.1
			c-1,0-1.9,0.8-1.9,1.9v33.3c0,1,0.8,1.9,1.9,1.9h11.9v-37H51.7z"/>
	</g>
	<g id="XMLID_96_">
		<path id="XMLID_97_" class="st3" d="M103.2,95.1H87.8v-7h15.4c1,0,1.9-0.8,1.9-1.9v-24h7v24C112.1,91.1,108.1,95.1,103.2,95.1z"/>
	</g>
	<g id="XMLID_94_">
		<path id="XMLID_95_" class="st3" d="M91.3,95.1H63.6v-51h39.6c4.9,0,8.9,4,8.9,8.9v12.8H98.7v-7h6.4V53c0-1-0.8-1.9-1.9-1.9H70.6
			v37h13.8v-14h7V95.1z"/>
	</g>
	<g id="XMLID_90_">
		<path id="XMLID_91_" class="st3" d="M70.6,80.4H42.8V58.8h27.8V80.4z M49.8,73.4h13.8v-7.7H49.8V73.4z"/>
	</g>
	<g id="XMLID_86_">
		<path id="XMLID_87_" class="st3" d="M112.1,80.4H84.3V68.8c0-5.5,4.5-10,10-10h17.8V80.4z M91.3,73.4h13.8v-7.7H94.3
			c-1.6,0-3,1.3-3,3V73.4z"/>
	</g>
</g>
<g id="XMLID_76_">
	<path id="XMLID_84_" class="st1" d="M230.8,97c1.9,0,3.5-1.6,3.5-3.5c0-1.9-1.6-3.5-3.5-3.5c-1.9,0-3.5,1.6-3.5,3.5
		C227.3,95.5,228.9,97,230.8,97L230.8,97z"/>
	<path id="XMLID_83_" class="st1" d="M244.8,109.4c1.9,0,3.5-1.6,3.5-3.5c0-1.9-1.6-3.5-3.5-3.5c-1.9,0-3.5,1.6-3.5,3.5
		C241.3,107.8,242.9,109.4,244.8,109.4L244.8,109.4z"/>
	<path id="XMLID_82_" class="st1" d="M258.8,97c1.9,0,3.5-1.6,3.5-3.5c0-1.9-1.6-3.5-3.5-3.5c-1.9,0-3.5,1.6-3.5,3.5
		C255.3,95.5,256.9,97,258.8,97L258.8,97z"/>
	<path id="XMLID_81_" class="st1" d="M272.8,106.3c1.9,0,3.5-1.6,3.5-3.5c0-1.9-1.6-3.5-3.5-3.5c-1.9,0-3.5,1.6-3.5,3.5
		C269.3,104.8,270.9,106.3,272.8,106.3L272.8,106.3z"/>
	<path id="XMLID_78_" class="st1" d="M213.3,124.9v1v21.3c0,17.3,14.2,31.5,31.5,31.5s31.5-14.2,31.5-31.5v-21.3v-1v-12.3
		c0-1.9-1.6-3.5-3.5-3.5l0,0c-1.9,0-3.5,1.6-3.5,3.5v5.2c0,1.9-1.6,3.5-3.5,3.5l0,0c-1.7,0-3.2-1.3-3.5-2.9l0,0v-0.6v-14.5
		c0-1.9-1.6-3.5-3.5-3.5l0,0c-1.9,0-3.5,1.6-3.5,3.5v16.9v5.7c0,1.9-1.6,3.5-3.5,3.5l0,0c-1.9,0-3.5-1.6-3.5-3.5v-1.6v-8.7
		c0-1.9-1.6-3.5-3.5-3.5l0,0c-1.9,0-3.5,1.6-3.5,3.5v8.7v1.6c0,1.9-1.6,3.5-3.5,3.5l0,0c-1.9,0-3.5-1.6-3.5-3.5v-5.7v-16.9
		c0-1.9-1.6-3.5-3.5-3.5l0,0c-1.9,0-3.5,1.6-3.5,3.5v14.5v0.6l0,0c-0.3,1.7-1.7,2.9-3.5,2.9l0,0c-1.9,0-3.5-1.6-3.5-3.5v-5.2
		c0-1.9-1.6-3.5-3.5-3.5l0,0c-1.9,0-3.5,1.6-3.5,3.5V124.9L213.3,124.9z M244.8,171.6c-13.5,0-24.5-11-24.5-24.5v-18.4l24.5,14.1
		l1.1-0.6l23.4-13.5v18.4C269.3,160.6,258.3,171.6,244.8,171.6L244.8,171.6z"/>
	<path id="XMLID_77_" class="st1" d="M216.8,99.3c1.9,0,3.5,1.6,3.5,3.5c0,1.9-1.6,3.5-3.5,3.5c-1.9,0-3.5-1.6-3.5-3.5
		C213.3,100.9,214.9,99.3,216.8,99.3L216.8,99.3z"/>
</g>
<line id="XMLID_75_" class="st4" x1="50.6" y1="146.2" x2="112.1" y2="146.2"/>
<g id="XMLID_68_">
	<g id="XMLID_118_">
		<line id="XMLID_122_" class="st5" x1="50.6" y1="167.7" x2="56.6" y2="167.7"/>
		<line id="XMLID_121_" class="st6" x1="70.2" y1="167.7" x2="105.6" y2="167.7"/>
		<line id="XMLID_120_" class="st7" x1="114.6" y1="167.7" x2="174.5" y2="167.7"/>
		<line id="XMLID_119_" class="st5" x1="183.6" y1="167.7" x2="189.6" y2="167.7"/>
	</g>
</g>
<line id="XMLID_67_" class="st4" x1="127.6" y1="146.2" x2="189.1" y2="146.2"/>
</svg>
