<?xml version="1.0" standalone="no"?>
<!DOCTYPE svg PUBLIC "-//W3C//DTD SVG 20010904//EN"
 "http://www.w3.org/TR/2001/REC-SVG-20010904/DTD/svg10.dtd">
<svg version="1.0" xmlns="http://www.w3.org/2000/svg"
 width="104.000000pt" height="104.000000pt" viewBox="0 0 104.000000 104.000000"
 preserveAspectRatio="xMidYMid meet">
<metadata>
Created by potrace 1.11, written by Peter Selinger 2001-2013
</metadata>
<g transform="translate(0.000000,104.000000) scale(0.100000,-0.100000)"
fill="#000000" stroke="none">
<path d="M396 1024 c-182 -44 -337 -201 -381 -385 -65 -276 110 -558 386 -624
373 -88 712 251 624 624 -66 277 -351 452 -629 385z m232 -31 c54 -13 -42 -57
-148 -68 -95 -10 -139 -26 -166 -58 -15 -17 -43 -39 -63 -48 -20 -9 -69 -52
-110 -98 -76 -83 -98 -98 -85 -58 72 237 332 387 572 330z m147 -61 c127 -78
211 -215 230 -374 6 -54 5 -58 -14 -58 -43 0 -70 40 -87 130 -18 97 -33 127
-77 157 -78 52 -155 38 -233 -43 -64 -65 -98 -72 -109 -23 -10 45 -70 107
-111 115 -71 13 -23 38 106 54 63 8 102 19 150 44 71 37 83 36 145 -2z m-402
-131 c32 -13 63 -46 76 -82 l10 -29 -44 0 c-42 0 -44 1 -69 51 -33 66 -26 80
27 60z m-61 -68 l20 -43 -23 -31 -23 -32 22 -38 21 -37 -35 -37 c-39 -42 -65
-86 -74 -130 -6 -30 -7 -30 -77 -33 -84 -3 -86 -1 -103 101 -14 93 -6 140 30
155 15 7 56 45 91 84 68 77 122 117 128 95 1 -6 12 -31 23 -54z m510 21 c26
-19 29 -29 58 -175 12 -62 36 -92 88 -110 38 -13 39 -20 11 -101 -51 -151
-192 -287 -328 -314 -24 -5 -29 -2 -34 18 -10 39 9 86 70 175 52 76 57 89 61
146 3 56 1 66 -26 102 l-29 40 24 42 25 43 -22 35 c-20 32 -25 35 -71 35 -27
0 -49 4 -49 8 0 10 48 55 75 71 29 17 117 8 147 -15z m-449 -278 c15 -33 15
-35 -6 -49 -40 -26 -109 -58 -114 -54 -13 13 69 137 91 137 7 0 20 -15 29 -34z
m343 -42 c11 -44 -6 -93 -60 -172 -66 -97 -80 -132 -73 -182 5 -36 3 -39 -24
-45 -36 -8 -134 3 -176 20 -56 23 -126 145 -135 235 -3 33 -1 35 63 66 37 18
70 37 74 43 13 22 25 9 76 -76 28 -49 52 -89 53 -90 1 -1 37 59 81 134 l78
136 19 -23 c10 -12 21 -33 24 -46z m-497 -175 c6 -31 22 -78 36 -105 14 -27
25 -50 25 -52 0 -8 -49 26 -88 62 -36 32 -112 133 -112 148 0 2 29 3 63 3 l64
0 12 -56z"/>
</g>
</svg>
