<?xml version="1.0" standalone="no"?>
<!DOCTYPE svg PUBLIC "-//W3C//DTD SVG 20010904//EN"
 "http://www.w3.org/TR/2001/REC-SVG-20010904/DTD/svg10.dtd">
<svg version="1.0" xmlns="http://www.w3.org/2000/svg"
 width="76.000000pt" height="76.000000pt" viewBox="0 0 76.000000 76.000000"
 preserveAspectRatio="xMidYMid meet">
<metadata>
Created by potrace 1.11, written by Peter Selinger 2001-2013
</metadata>
<g transform="translate(0.000000,76.000000) scale(0.100000,-0.100000)"
fill="#000000" stroke="none">
<path d="M245 720 c-4 -7 -3 -16 3 -22 14 -14 45 -2 40 15 -6 16 -34 21 -43 7z"/>
<path d="M465 720 c-4 -7 -3 -16 3 -22 14 -14 45 -2 40 15 -6 16 -34 21 -43 7z"/>
<path d="M134 645 c-7 -18 3 -35 21 -35 21 0 28 19 15 35 -16 19 -29 19 -36 0z"/>
<path d="M252 648 c-7 -7 -12 -41 -12 -79 0 -70 -13 -95 -43 -83 -10 4 -17 21
-19 47 -2 34 -7 42 -23 42 -19 0 -20 -8 -23 -159 -3 -181 8 -232 62 -293 121
-139 352 -92 410 84 13 40 16 83 14 209 -3 151 -4 159 -23 159 -16 0 -21 -8
-23 -42 -2 -26 -9 -43 -19 -47 -30 -12 -43 13 -43 84 0 45 -5 71 -14 79 -25
21 -35 -12 -38 -120 -3 -104 -3 -104 -28 -104 -24 0 -25 4 -30 65 -4 57 -8 65
-25 65 -17 0 -21 -8 -25 -65 -5 -61 -6 -65 -30 -65 -25 0 -25 0 -28 107 -3
109 -14 142 -40 116z m33 -272 l90 -52 92 53 c51 29 94 53 97 53 11 0 6 -188
-5 -217 -12 -34 -64 -90 -101 -109 -35 -18 -131 -18 -166 0 -37 19 -89 75
-101 109 -12 32 -15 217 -3 217 4 -1 47 -25 97 -54z"/>
<path d="M580 645 c-10 -11 -10 -19 -2 -27 15 -15 44 -2 40 19 -4 23 -22 27
-38 8z"/>
<path d="M354 619 c-3 -6 0 -17 8 -25 13 -13 16 -13 27 0 7 8 10 20 6 26 -8
13 -32 13 -41 -1z"/>
</g>
</svg>
